G04 #@! TF.GenerationSoftware,KiCad,Pcbnew,(5.1.4-0-10_14)*
G04 #@! TF.CreationDate,2020-04-02T23:17:02+02:00*
G04 #@! TF.ProjectId,threeboard,74687265-6562-46f6-9172-642e6b696361,rev?*
G04 #@! TF.SameCoordinates,Original*
G04 #@! TF.FileFunction,Legend,Bot*
G04 #@! TF.FilePolarity,Positive*
%FSLAX46Y46*%
G04 Gerber Fmt 4.6, Leading zero omitted, Abs format (unit mm)*
G04 Created by KiCad (PCBNEW (5.1.4-0-10_14)) date 2020-04-02 23:17:02*
%MOMM*%
%LPD*%
G04 APERTURE LIST*
%ADD10C,0.250000*%
%ADD11C,0.400000*%
%ADD12C,0.120000*%
%ADD13C,0.015000*%
G04 APERTURE END LIST*
D10*
X64674583Y-61523630D02*
X64341250Y-62523630D01*
X64007916Y-61523630D01*
X63103154Y-62428392D02*
X63150773Y-62476011D01*
X63293630Y-62523630D01*
X63388869Y-62523630D01*
X63531726Y-62476011D01*
X63626964Y-62380773D01*
X63674583Y-62285535D01*
X63722202Y-62095059D01*
X63722202Y-61952202D01*
X63674583Y-61761726D01*
X63626964Y-61666488D01*
X63531726Y-61571250D01*
X63388869Y-61523630D01*
X63293630Y-61523630D01*
X63150773Y-61571250D01*
X63103154Y-61618869D01*
X62103154Y-62428392D02*
X62150773Y-62476011D01*
X62293630Y-62523630D01*
X62388869Y-62523630D01*
X62531726Y-62476011D01*
X62626964Y-62380773D01*
X62674583Y-62285535D01*
X62722202Y-62095059D01*
X62722202Y-61952202D01*
X62674583Y-61761726D01*
X62626964Y-61666488D01*
X62531726Y-61571250D01*
X62388869Y-61523630D01*
X62293630Y-61523630D01*
X62150773Y-61571250D01*
X62103154Y-61618869D01*
X65373154Y-69191250D02*
X65468392Y-69143630D01*
X65611250Y-69143630D01*
X65754107Y-69191250D01*
X65849345Y-69286488D01*
X65896964Y-69381726D01*
X65944583Y-69572202D01*
X65944583Y-69715059D01*
X65896964Y-69905535D01*
X65849345Y-70000773D01*
X65754107Y-70096011D01*
X65611250Y-70143630D01*
X65516011Y-70143630D01*
X65373154Y-70096011D01*
X65325535Y-70048392D01*
X65325535Y-69715059D01*
X65516011Y-69715059D01*
X64896964Y-70143630D02*
X64896964Y-69143630D01*
X64325535Y-70143630D01*
X64325535Y-69143630D01*
X63849345Y-70143630D02*
X63849345Y-69143630D01*
X63611250Y-69143630D01*
X63468392Y-69191250D01*
X63373154Y-69286488D01*
X63325535Y-69381726D01*
X63277916Y-69572202D01*
X63277916Y-69715059D01*
X63325535Y-69905535D01*
X63373154Y-70000773D01*
X63468392Y-70096011D01*
X63611250Y-70143630D01*
X63849345Y-70143630D01*
X72413630Y-62523630D02*
X72746964Y-62047440D01*
X72985059Y-62523630D02*
X72985059Y-61523630D01*
X72604107Y-61523630D01*
X72508869Y-61571250D01*
X72461250Y-61618869D01*
X72413630Y-61714107D01*
X72413630Y-61856964D01*
X72461250Y-61952202D01*
X72508869Y-61999821D01*
X72604107Y-62047440D01*
X72985059Y-62047440D01*
X71985059Y-61999821D02*
X71651726Y-61999821D01*
X71508869Y-62523630D02*
X71985059Y-62523630D01*
X71985059Y-61523630D01*
X71508869Y-61523630D01*
X71127916Y-62476011D02*
X70985059Y-62523630D01*
X70746964Y-62523630D01*
X70651726Y-62476011D01*
X70604107Y-62428392D01*
X70556488Y-62333154D01*
X70556488Y-62237916D01*
X70604107Y-62142678D01*
X70651726Y-62095059D01*
X70746964Y-62047440D01*
X70937440Y-61999821D01*
X71032678Y-61952202D01*
X71080297Y-61904583D01*
X71127916Y-61809345D01*
X71127916Y-61714107D01*
X71080297Y-61618869D01*
X71032678Y-61571250D01*
X70937440Y-61523630D01*
X70699345Y-61523630D01*
X70556488Y-61571250D01*
X70127916Y-61999821D02*
X69794583Y-61999821D01*
X69651726Y-62523630D02*
X70127916Y-62523630D01*
X70127916Y-61523630D01*
X69651726Y-61523630D01*
X69366011Y-61523630D02*
X68794583Y-61523630D01*
X69080297Y-62523630D02*
X69080297Y-61523630D01*
X91296964Y-70096011D02*
X91154107Y-70143630D01*
X90916011Y-70143630D01*
X90820773Y-70096011D01*
X90773154Y-70048392D01*
X90725535Y-69953154D01*
X90725535Y-69857916D01*
X90773154Y-69762678D01*
X90820773Y-69715059D01*
X90916011Y-69667440D01*
X91106488Y-69619821D01*
X91201726Y-69572202D01*
X91249345Y-69524583D01*
X91296964Y-69429345D01*
X91296964Y-69334107D01*
X91249345Y-69238869D01*
X91201726Y-69191250D01*
X91106488Y-69143630D01*
X90868392Y-69143630D01*
X90725535Y-69191250D01*
X89725535Y-70048392D02*
X89773154Y-70096011D01*
X89916011Y-70143630D01*
X90011250Y-70143630D01*
X90154107Y-70096011D01*
X90249345Y-70000773D01*
X90296964Y-69905535D01*
X90344583Y-69715059D01*
X90344583Y-69572202D01*
X90296964Y-69381726D01*
X90249345Y-69286488D01*
X90154107Y-69191250D01*
X90011250Y-69143630D01*
X89916011Y-69143630D01*
X89773154Y-69191250D01*
X89725535Y-69238869D01*
X89296964Y-70143630D02*
X89296964Y-69143630D01*
X88725535Y-70143630D02*
X89154107Y-69572202D01*
X88725535Y-69143630D02*
X89296964Y-69715059D01*
X72532678Y-70143630D02*
X72532678Y-69143630D01*
X72199345Y-69857916D01*
X71866011Y-69143630D01*
X71866011Y-70143630D01*
X71389821Y-70143630D02*
X71389821Y-69143630D01*
X70961250Y-70096011D02*
X70818392Y-70143630D01*
X70580297Y-70143630D01*
X70485059Y-70096011D01*
X70437440Y-70048392D01*
X70389821Y-69953154D01*
X70389821Y-69857916D01*
X70437440Y-69762678D01*
X70485059Y-69715059D01*
X70580297Y-69667440D01*
X70770773Y-69619821D01*
X70866011Y-69572202D01*
X70913630Y-69524583D01*
X70961250Y-69429345D01*
X70961250Y-69334107D01*
X70913630Y-69238869D01*
X70866011Y-69191250D01*
X70770773Y-69143630D01*
X70532678Y-69143630D01*
X70389821Y-69191250D01*
X69770773Y-69143630D02*
X69580297Y-69143630D01*
X69485059Y-69191250D01*
X69389821Y-69286488D01*
X69342202Y-69476964D01*
X69342202Y-69810297D01*
X69389821Y-70000773D01*
X69485059Y-70096011D01*
X69580297Y-70143630D01*
X69770773Y-70143630D01*
X69866011Y-70096011D01*
X69961250Y-70000773D01*
X70008869Y-69810297D01*
X70008869Y-69476964D01*
X69961250Y-69286488D01*
X69866011Y-69191250D01*
X69770773Y-69143630D01*
X53482678Y-70143630D02*
X53482678Y-69143630D01*
X53149345Y-69857916D01*
X52816011Y-69143630D01*
X52816011Y-70143630D01*
X52149345Y-69143630D02*
X51958869Y-69143630D01*
X51863630Y-69191250D01*
X51768392Y-69286488D01*
X51720773Y-69476964D01*
X51720773Y-69810297D01*
X51768392Y-70000773D01*
X51863630Y-70096011D01*
X51958869Y-70143630D01*
X52149345Y-70143630D01*
X52244583Y-70096011D01*
X52339821Y-70000773D01*
X52387440Y-69810297D01*
X52387440Y-69476964D01*
X52339821Y-69286488D01*
X52244583Y-69191250D01*
X52149345Y-69143630D01*
X51339821Y-70096011D02*
X51196964Y-70143630D01*
X50958869Y-70143630D01*
X50863630Y-70096011D01*
X50816011Y-70048392D01*
X50768392Y-69953154D01*
X50768392Y-69857916D01*
X50816011Y-69762678D01*
X50863630Y-69715059D01*
X50958869Y-69667440D01*
X51149345Y-69619821D01*
X51244583Y-69572202D01*
X51292202Y-69524583D01*
X51339821Y-69429345D01*
X51339821Y-69334107D01*
X51292202Y-69238869D01*
X51244583Y-69191250D01*
X51149345Y-69143630D01*
X50911250Y-69143630D01*
X50768392Y-69191250D01*
X50339821Y-70143630D02*
X50339821Y-69143630D01*
D11*
X65981250Y-54351250D02*
G75*
G03X65981250Y-54351250I-100000J0D01*
G01*
X55821250Y-54351250D02*
G75*
G03X55821250Y-54351250I-100000J0D01*
G01*
X102128750Y-55721250D02*
G75*
G03X102128750Y-55721250I-100000J0D01*
G01*
D12*
X86707502Y-57701250D02*
X86184998Y-57701250D01*
X86707502Y-56281250D02*
X86184998Y-56281250D01*
X83101250Y-52674998D02*
X83101250Y-53197502D01*
X81681250Y-52674998D02*
X81681250Y-53197502D01*
X104691250Y-60539998D02*
X104691250Y-61062502D01*
X103271250Y-60539998D02*
X103271250Y-61062502D01*
X103271250Y-36932502D02*
X103271250Y-36409998D01*
X104691250Y-36932502D02*
X104691250Y-36409998D01*
X97071250Y-60539998D02*
X97071250Y-61062502D01*
X95651250Y-60539998D02*
X95651250Y-61062502D01*
X86707502Y-60241250D02*
X86184998Y-60241250D01*
X86707502Y-58821250D02*
X86184998Y-58821250D01*
X102151250Y-60539998D02*
X102151250Y-61062502D01*
X100731250Y-60539998D02*
X100731250Y-61062502D01*
X99611250Y-60539998D02*
X99611250Y-61062502D01*
X98191250Y-60539998D02*
X98191250Y-61062502D01*
X75481250Y-56729998D02*
X75481250Y-57252502D01*
X74061250Y-56729998D02*
X74061250Y-57252502D01*
X102151250Y-36409998D02*
X102151250Y-36932502D01*
X100731250Y-36409998D02*
X100731250Y-36932502D01*
X95651250Y-36932502D02*
X95651250Y-36409998D01*
X97071250Y-36932502D02*
X97071250Y-36409998D01*
X98191250Y-36932502D02*
X98191250Y-36409998D01*
X99611250Y-36932502D02*
X99611250Y-36409998D01*
X72214998Y-47391250D02*
X72737502Y-47391250D01*
X72214998Y-48811250D02*
X72737502Y-48811250D01*
X78074998Y-47391250D02*
X78597502Y-47391250D01*
X78074998Y-48811250D02*
X78597502Y-48811250D01*
X83399998Y-47391250D02*
X83922502Y-47391250D01*
X83399998Y-48811250D02*
X83922502Y-48811250D01*
X88724998Y-47391250D02*
X89247502Y-47391250D01*
X88724998Y-48811250D02*
X89247502Y-48811250D01*
X84669998Y-32151250D02*
X85192502Y-32151250D01*
X84669998Y-33571250D02*
X85192502Y-33571250D01*
X76601250Y-53197502D02*
X76601250Y-52674998D01*
X78021250Y-53197502D02*
X78021250Y-52674998D01*
X74061250Y-53197502D02*
X74061250Y-52674998D01*
X75481250Y-53197502D02*
X75481250Y-52674998D01*
D13*
X96260339Y-33287790D02*
X96260339Y-34431389D01*
X96336579Y-34660109D01*
X96489059Y-34812589D01*
X96717779Y-34888829D01*
X96870259Y-34888829D01*
X94659300Y-34888829D02*
X95574180Y-34888829D01*
X95116740Y-34888829D02*
X95116740Y-33287790D01*
X95269220Y-33516510D01*
X95421700Y-33668990D01*
X95574180Y-33745230D01*
M02*
