G04 #@! TF.GenerationSoftware,KiCad,Pcbnew,(5.1.4-0-10_14)*
G04 #@! TF.CreationDate,2020-04-02T23:17:02+02:00*
G04 #@! TF.ProjectId,threeboard,74687265-6562-46f6-9172-642e6b696361,rev?*
G04 #@! TF.SameCoordinates,Original*
G04 #@! TF.FileFunction,Copper,L1,Top*
G04 #@! TF.FilePolarity,Positive*
%FSLAX46Y46*%
G04 Gerber Fmt 4.6, Leading zero omitted, Abs format (unit mm)*
G04 Created by KiCad (PCBNEW (5.1.4-0-10_14)) date 2020-04-02 23:17:02*
%MOMM*%
%LPD*%
G04 APERTURE LIST*
%ADD10C,2.500000*%
%ADD11C,2.500000*%
%ADD12C,1.800000*%
%ADD13R,1.800000X1.800000*%
%ADD14C,0.800000*%
%ADD15C,0.250000*%
%ADD16C,0.254000*%
G04 APERTURE END LIST*
D10*
X93333250Y-69655250D03*
D11*
X93313526Y-69944578D02*
X93352974Y-69365922D01*
D10*
X99108250Y-68385250D03*
D11*
X98503788Y-69334065D02*
X99712712Y-67436435D01*
D10*
X74283250Y-69655250D03*
D11*
X74263526Y-69944578D02*
X74302974Y-69365922D01*
D10*
X80058250Y-68385250D03*
D11*
X79453788Y-69334065D02*
X80662712Y-67436435D01*
D10*
X55309451Y-69655250D03*
D11*
X55289727Y-69944578D02*
X55329175Y-69365922D01*
D10*
X61084451Y-68385250D03*
D11*
X60479989Y-69334065D02*
X61688913Y-67436435D01*
D12*
X53181250Y-37687250D03*
D13*
X50641250Y-37687250D03*
D12*
X58769250Y-37687250D03*
D13*
X56229250Y-37687250D03*
D12*
X64357250Y-37687250D03*
D13*
X61817250Y-37687250D03*
D12*
X69945250Y-37687250D03*
D13*
X67405250Y-37687250D03*
D12*
X75533250Y-37687250D03*
D13*
X72993250Y-37687250D03*
D12*
X81121250Y-37687250D03*
D13*
X78581250Y-37687250D03*
D12*
X86709250Y-37687250D03*
D13*
X84169250Y-37687250D03*
D12*
X92297250Y-37687250D03*
D13*
X89757250Y-37687250D03*
D12*
X53181250Y-45815250D03*
D13*
X50641250Y-45815250D03*
D12*
X58769250Y-45815250D03*
D13*
X56229250Y-45815250D03*
D12*
X64357250Y-45815250D03*
D13*
X61817250Y-45815250D03*
D12*
X69945250Y-45815250D03*
D13*
X67405250Y-45815250D03*
D12*
X75533250Y-45815250D03*
D13*
X72993250Y-45815250D03*
D12*
X81121250Y-45815250D03*
D13*
X78581250Y-45815250D03*
D12*
X86709250Y-45815250D03*
D13*
X84169250Y-45815250D03*
D12*
X92297250Y-45815250D03*
D13*
X89757250Y-45815250D03*
D12*
X53181250Y-29559250D03*
D13*
X50641250Y-29559250D03*
D12*
X58769250Y-29559250D03*
D13*
X56229250Y-29559250D03*
D12*
X64357250Y-29559250D03*
D13*
X61817250Y-29559250D03*
D12*
X75533250Y-29559250D03*
D13*
X72993250Y-29559250D03*
D12*
X81121250Y-29559250D03*
D13*
X78581250Y-29559250D03*
D12*
X86709250Y-29559250D03*
D13*
X84169250Y-29559250D03*
D14*
X100171250Y-48101250D03*
X100171250Y-39211250D03*
X98901403Y-39211097D03*
X98901250Y-48101250D03*
X97631250Y-48101250D03*
X101441250Y-53181250D03*
X74771250Y-49371250D03*
X101441250Y-51911250D03*
X79851250Y-49371250D03*
X101441250Y-50641250D03*
X84931250Y-49371250D03*
X101441250Y-49371250D03*
X90011250Y-49371250D03*
D15*
X50641250Y-37687250D02*
X50641250Y-45815250D01*
X72993250Y-38837250D02*
X72993250Y-45815250D01*
X72993250Y-37687250D02*
X72993250Y-38837250D01*
X56229250Y-38837250D02*
X56229250Y-45815250D01*
X56229250Y-37687250D02*
X56229250Y-38837250D01*
X78581250Y-37687250D02*
X78581250Y-45815250D01*
X61817250Y-37687250D02*
X61817250Y-45815250D01*
X84169250Y-38837250D02*
X84169250Y-45815250D01*
X84169250Y-38837250D02*
X84169250Y-37687250D01*
X67405250Y-37687250D02*
X67405250Y-45815250D01*
X89757250Y-37687250D02*
X89757250Y-45815250D01*
X100171250Y-41751250D02*
X100171250Y-48101250D01*
X100171250Y-39211250D02*
X100171250Y-41751250D01*
X98901403Y-48101097D02*
X98901250Y-48101250D01*
X98901403Y-39211097D02*
X98901403Y-48101097D01*
X69045251Y-36787251D02*
X69945250Y-37687250D01*
X65582251Y-36462249D02*
X68720249Y-36462249D01*
X68720249Y-36462249D02*
X69045251Y-36787251D01*
X64357250Y-37687250D02*
X65582251Y-36462249D01*
X57869251Y-36787251D02*
X58769250Y-37687250D01*
X57544249Y-36462249D02*
X57869251Y-36787251D01*
X54406251Y-36462249D02*
X57544249Y-36462249D01*
X53181250Y-37687250D02*
X54406251Y-36462249D01*
X63457251Y-36787251D02*
X64357250Y-37687250D01*
X63132249Y-36462249D02*
X63457251Y-36787251D01*
X59994251Y-36462249D02*
X63132249Y-36462249D01*
X58769250Y-37687250D02*
X59994251Y-36462249D01*
X79896249Y-36462249D02*
X80221251Y-36787251D01*
X80221251Y-36787251D02*
X81121250Y-37687250D01*
X76758251Y-36462249D02*
X79896249Y-36462249D01*
X75533250Y-37687250D02*
X76758251Y-36462249D01*
X82346251Y-36462249D02*
X85484249Y-36462249D01*
X81121250Y-37687250D02*
X82346251Y-36462249D01*
X86709250Y-37687250D02*
X85484249Y-36462249D01*
X91397251Y-36787251D02*
X92297250Y-37687250D01*
X91072249Y-36462249D02*
X91397251Y-36787251D01*
X87934251Y-36462249D02*
X91072249Y-36462249D01*
X86709250Y-37687250D02*
X87934251Y-36462249D01*
X57544249Y-47040251D02*
X57869251Y-46715249D01*
X57869251Y-46715249D02*
X58769250Y-45815250D01*
X54406251Y-47040251D02*
X57544249Y-47040251D01*
X53181250Y-45815250D02*
X54406251Y-47040251D01*
X63457251Y-46715249D02*
X64357250Y-45815250D01*
X63132249Y-47040251D02*
X63457251Y-46715249D01*
X59994251Y-47040251D02*
X63132249Y-47040251D01*
X58769250Y-45815250D02*
X59994251Y-47040251D01*
X69045251Y-46715249D02*
X69945250Y-45815250D01*
X68720249Y-47040251D02*
X69045251Y-46715249D01*
X65582251Y-47040251D02*
X68720249Y-47040251D01*
X64357250Y-45815250D02*
X65582251Y-47040251D01*
X80221251Y-46715249D02*
X81121250Y-45815250D01*
X76758251Y-47040251D02*
X79896249Y-47040251D01*
X79896249Y-47040251D02*
X80221251Y-46715249D01*
X75533250Y-45815250D02*
X76758251Y-47040251D01*
X85809251Y-46715249D02*
X86709250Y-45815250D01*
X85484249Y-47040251D02*
X85809251Y-46715249D01*
X82346251Y-47040251D02*
X85484249Y-47040251D01*
X81121250Y-45815250D02*
X82346251Y-47040251D01*
X87609249Y-46715249D02*
X86709250Y-45815250D01*
X91072249Y-47040251D02*
X87934251Y-47040251D01*
X87934251Y-47040251D02*
X87609249Y-46715249D01*
X92297250Y-45815250D02*
X91072249Y-47040251D01*
X78581250Y-53181250D02*
X74771250Y-49371250D01*
X101441250Y-53181250D02*
X78581250Y-53181250D01*
X82391250Y-51911250D02*
X79851250Y-49371250D01*
X101441250Y-51911250D02*
X82391250Y-51911250D01*
X86201250Y-50641250D02*
X100171250Y-50641250D01*
X86201250Y-50641250D02*
X84931250Y-49371250D01*
X101441250Y-50641250D02*
X100171250Y-50641250D01*
X90011250Y-49371250D02*
X100368248Y-49371250D01*
X101441250Y-49371250D02*
X100368248Y-49371250D01*
D16*
G36*
X103174466Y-26711834D02*
G01*
X103620043Y-26846362D01*
X104030996Y-27064870D01*
X104391684Y-27359038D01*
X104688369Y-27717669D01*
X104909741Y-28127088D01*
X105047376Y-28571715D01*
X105099251Y-29065271D01*
X105099250Y-72198971D01*
X105050666Y-72694466D01*
X104916140Y-73140040D01*
X104697632Y-73550995D01*
X104403459Y-73911686D01*
X104044831Y-74208369D01*
X103635412Y-74429741D01*
X103190785Y-74567376D01*
X102697240Y-74619250D01*
X50673529Y-74619250D01*
X50178034Y-74570666D01*
X49732460Y-74436140D01*
X49321505Y-74217632D01*
X48960814Y-73923459D01*
X48664131Y-73564831D01*
X48442759Y-73155412D01*
X48305124Y-72710785D01*
X48253250Y-72217240D01*
X48253250Y-69908755D01*
X53402795Y-69908755D01*
X53411172Y-70186895D01*
X53494541Y-70548727D01*
X53646899Y-70887342D01*
X53862390Y-71189727D01*
X54132732Y-71444261D01*
X54447538Y-71641165D01*
X54794708Y-71772868D01*
X55160901Y-71834311D01*
X55532044Y-71823133D01*
X55893876Y-71739764D01*
X56232491Y-71587406D01*
X56534876Y-71371915D01*
X56789410Y-71101573D01*
X56944097Y-70854262D01*
X59662100Y-70854262D01*
X59846521Y-71109437D01*
X60027591Y-71168375D01*
X60394140Y-71221387D01*
X60763988Y-71201871D01*
X61122922Y-71110577D01*
X61457148Y-70951011D01*
X61753823Y-70729308D01*
X62001545Y-70453986D01*
X62348895Y-69908755D01*
X72376594Y-69908755D01*
X72384971Y-70186895D01*
X72468340Y-70548727D01*
X72620698Y-70887342D01*
X72836189Y-71189727D01*
X73106531Y-71444261D01*
X73421337Y-71641165D01*
X73768507Y-71772868D01*
X74134700Y-71834311D01*
X74505843Y-71823133D01*
X74867675Y-71739764D01*
X75206290Y-71587406D01*
X75508675Y-71371915D01*
X75763209Y-71101573D01*
X75917896Y-70854262D01*
X78635899Y-70854262D01*
X78820320Y-71109437D01*
X79001390Y-71168375D01*
X79367939Y-71221387D01*
X79737787Y-71201871D01*
X80096721Y-71110577D01*
X80430947Y-70951011D01*
X80727622Y-70729308D01*
X80975344Y-70453986D01*
X81322694Y-69908755D01*
X91426594Y-69908755D01*
X91434971Y-70186895D01*
X91518340Y-70548727D01*
X91670698Y-70887342D01*
X91886189Y-71189727D01*
X92156531Y-71444261D01*
X92471337Y-71641165D01*
X92818507Y-71772868D01*
X93184700Y-71834311D01*
X93555843Y-71823133D01*
X93917675Y-71739764D01*
X94256290Y-71587406D01*
X94558675Y-71371915D01*
X94813209Y-71101573D01*
X94967896Y-70854262D01*
X97685899Y-70854262D01*
X97870320Y-71109437D01*
X98051390Y-71168375D01*
X98417939Y-71221387D01*
X98787787Y-71201871D01*
X99146721Y-71110577D01*
X99480947Y-70951011D01*
X99777622Y-70729308D01*
X100025344Y-70453986D01*
X100629806Y-69505170D01*
X99147124Y-68560598D01*
X97685899Y-70854262D01*
X94967896Y-70854262D01*
X95010113Y-70786767D01*
X95141816Y-70439597D01*
X95187863Y-70165166D01*
X95233060Y-69502157D01*
X96622007Y-69502157D01*
X96690957Y-69866044D01*
X96829575Y-70209488D01*
X97032531Y-70519290D01*
X97162470Y-70658487D01*
X97471677Y-70717787D01*
X98932902Y-68424124D01*
X97450220Y-67479551D01*
X96845758Y-68428366D01*
X96700923Y-68769235D01*
X96625372Y-69131809D01*
X96622007Y-69502157D01*
X95233060Y-69502157D01*
X95239906Y-69401746D01*
X95231529Y-69123605D01*
X95148160Y-68761773D01*
X94995802Y-68423158D01*
X94780311Y-68120773D01*
X94509969Y-67866239D01*
X94195163Y-67669336D01*
X93847993Y-67537632D01*
X93481800Y-67476189D01*
X93110657Y-67487367D01*
X92748825Y-67570736D01*
X92410210Y-67723094D01*
X92107825Y-67938585D01*
X91853291Y-68208927D01*
X91656387Y-68523733D01*
X91524684Y-68870903D01*
X91478637Y-69145334D01*
X91426594Y-69908755D01*
X81322694Y-69908755D01*
X81579806Y-69505170D01*
X80097124Y-68560598D01*
X78635899Y-70854262D01*
X75917896Y-70854262D01*
X75960113Y-70786767D01*
X76091816Y-70439597D01*
X76137863Y-70165166D01*
X76183060Y-69502157D01*
X77572007Y-69502157D01*
X77640957Y-69866044D01*
X77779575Y-70209488D01*
X77982531Y-70519290D01*
X78112470Y-70658487D01*
X78421677Y-70717787D01*
X79882902Y-68424124D01*
X78400220Y-67479551D01*
X77795758Y-68428366D01*
X77650923Y-68769235D01*
X77575372Y-69131809D01*
X77572007Y-69502157D01*
X76183060Y-69502157D01*
X76189906Y-69401746D01*
X76181529Y-69123605D01*
X76098160Y-68761773D01*
X75945802Y-68423158D01*
X75730311Y-68120773D01*
X75459969Y-67866239D01*
X75145163Y-67669336D01*
X74797993Y-67537632D01*
X74431800Y-67476189D01*
X74060657Y-67487367D01*
X73698825Y-67570736D01*
X73360210Y-67723094D01*
X73057825Y-67938585D01*
X72803291Y-68208927D01*
X72606387Y-68523733D01*
X72474684Y-68870903D01*
X72428637Y-69145334D01*
X72376594Y-69908755D01*
X62348895Y-69908755D01*
X62606007Y-69505170D01*
X61123325Y-68560598D01*
X59662100Y-70854262D01*
X56944097Y-70854262D01*
X56986314Y-70786767D01*
X57118017Y-70439597D01*
X57164064Y-70165166D01*
X57209261Y-69502157D01*
X58598208Y-69502157D01*
X58667158Y-69866044D01*
X58805776Y-70209488D01*
X59008732Y-70519290D01*
X59138671Y-70658487D01*
X59447878Y-70717787D01*
X60909103Y-68424124D01*
X59426421Y-67479551D01*
X58821959Y-68428366D01*
X58677124Y-68769235D01*
X58601573Y-69131809D01*
X58598208Y-69502157D01*
X57209261Y-69502157D01*
X57216107Y-69401746D01*
X57207730Y-69123605D01*
X57124361Y-68761773D01*
X56972003Y-68423158D01*
X56756512Y-68120773D01*
X56486170Y-67866239D01*
X56171364Y-67669336D01*
X55824194Y-67537632D01*
X55458001Y-67476189D01*
X55086858Y-67487367D01*
X54725026Y-67570736D01*
X54386411Y-67723094D01*
X54084026Y-67938585D01*
X53829492Y-68208927D01*
X53632588Y-68523733D01*
X53500885Y-68870903D01*
X53454838Y-69145334D01*
X53402795Y-69908755D01*
X48253250Y-69908755D01*
X48253250Y-64718902D01*
X51263551Y-64718902D01*
X51263551Y-65011598D01*
X51320653Y-65298671D01*
X51432663Y-65569088D01*
X51595277Y-65812456D01*
X51802245Y-66019424D01*
X52045613Y-66182038D01*
X52316030Y-66294048D01*
X52603103Y-66351150D01*
X52895799Y-66351150D01*
X53182872Y-66294048D01*
X53453289Y-66182038D01*
X53696657Y-66019424D01*
X53903625Y-65812456D01*
X54066239Y-65569088D01*
X54178249Y-65298671D01*
X54235351Y-65011598D01*
X54235351Y-64718902D01*
X54212959Y-64606326D01*
X55200551Y-64606326D01*
X55200551Y-65124174D01*
X55301578Y-65632072D01*
X55499750Y-66110501D01*
X55787451Y-66541076D01*
X56153625Y-66907250D01*
X56584200Y-67194951D01*
X57062629Y-67393123D01*
X57570527Y-67494150D01*
X58088375Y-67494150D01*
X58596273Y-67393123D01*
X58904792Y-67265330D01*
X59562895Y-67265330D01*
X61045577Y-68209902D01*
X61056323Y-68193034D01*
X61270544Y-68329509D01*
X61259799Y-68346376D01*
X62742481Y-69290949D01*
X63346943Y-68342134D01*
X63491778Y-68001265D01*
X63567329Y-67638691D01*
X63570694Y-67268343D01*
X63501744Y-66904456D01*
X63363126Y-66561012D01*
X63206062Y-66321261D01*
X63342872Y-66294048D01*
X63613289Y-66182038D01*
X63856657Y-66019424D01*
X64063625Y-65812456D01*
X64226239Y-65569088D01*
X64338249Y-65298671D01*
X64395351Y-65011598D01*
X64395351Y-64718902D01*
X70237350Y-64718902D01*
X70237350Y-65011598D01*
X70294452Y-65298671D01*
X70406462Y-65569088D01*
X70569076Y-65812456D01*
X70776044Y-66019424D01*
X71019412Y-66182038D01*
X71289829Y-66294048D01*
X71576902Y-66351150D01*
X71869598Y-66351150D01*
X72156671Y-66294048D01*
X72427088Y-66182038D01*
X72670456Y-66019424D01*
X72877424Y-65812456D01*
X73040038Y-65569088D01*
X73152048Y-65298671D01*
X73209150Y-65011598D01*
X73209150Y-64718902D01*
X73186758Y-64606326D01*
X74174350Y-64606326D01*
X74174350Y-65124174D01*
X74275377Y-65632072D01*
X74473549Y-66110501D01*
X74761250Y-66541076D01*
X75127424Y-66907250D01*
X75557999Y-67194951D01*
X76036428Y-67393123D01*
X76544326Y-67494150D01*
X77062174Y-67494150D01*
X77570072Y-67393123D01*
X77878591Y-67265330D01*
X78536694Y-67265330D01*
X80019376Y-68209902D01*
X80030122Y-68193034D01*
X80244343Y-68329509D01*
X80233598Y-68346376D01*
X81716280Y-69290949D01*
X82320742Y-68342134D01*
X82465577Y-68001265D01*
X82541128Y-67638691D01*
X82544493Y-67268343D01*
X82475543Y-66904456D01*
X82336925Y-66561012D01*
X82179861Y-66321261D01*
X82316671Y-66294048D01*
X82587088Y-66182038D01*
X82830456Y-66019424D01*
X83037424Y-65812456D01*
X83200038Y-65569088D01*
X83312048Y-65298671D01*
X83369150Y-65011598D01*
X83369150Y-64718902D01*
X89287350Y-64718902D01*
X89287350Y-65011598D01*
X89344452Y-65298671D01*
X89456462Y-65569088D01*
X89619076Y-65812456D01*
X89826044Y-66019424D01*
X90069412Y-66182038D01*
X90339829Y-66294048D01*
X90626902Y-66351150D01*
X90919598Y-66351150D01*
X91206671Y-66294048D01*
X91477088Y-66182038D01*
X91720456Y-66019424D01*
X91927424Y-65812456D01*
X92090038Y-65569088D01*
X92202048Y-65298671D01*
X92259150Y-65011598D01*
X92259150Y-64718902D01*
X92236758Y-64606326D01*
X93224350Y-64606326D01*
X93224350Y-65124174D01*
X93325377Y-65632072D01*
X93523549Y-66110501D01*
X93811250Y-66541076D01*
X94177424Y-66907250D01*
X94607999Y-67194951D01*
X95086428Y-67393123D01*
X95594326Y-67494150D01*
X96112174Y-67494150D01*
X96620072Y-67393123D01*
X96928591Y-67265330D01*
X97586694Y-67265330D01*
X99069376Y-68209902D01*
X99080122Y-68193034D01*
X99294343Y-68329509D01*
X99283598Y-68346376D01*
X100766280Y-69290949D01*
X101370742Y-68342134D01*
X101515577Y-68001265D01*
X101591128Y-67638691D01*
X101594493Y-67268343D01*
X101525543Y-66904456D01*
X101386925Y-66561012D01*
X101229861Y-66321261D01*
X101366671Y-66294048D01*
X101637088Y-66182038D01*
X101880456Y-66019424D01*
X102087424Y-65812456D01*
X102250038Y-65569088D01*
X102362048Y-65298671D01*
X102419150Y-65011598D01*
X102419150Y-64718902D01*
X102362048Y-64431829D01*
X102250038Y-64161412D01*
X102087424Y-63918044D01*
X101880456Y-63711076D01*
X101637088Y-63548462D01*
X101366671Y-63436452D01*
X101079598Y-63379350D01*
X100786902Y-63379350D01*
X100499829Y-63436452D01*
X100229412Y-63548462D01*
X99986044Y-63711076D01*
X99779076Y-63918044D01*
X99616462Y-64161412D01*
X99504452Y-64431829D01*
X99447350Y-64718902D01*
X99447350Y-65011598D01*
X99504452Y-65298671D01*
X99612260Y-65558944D01*
X99428713Y-65568629D01*
X99069779Y-65659923D01*
X98735553Y-65819489D01*
X98438878Y-66041192D01*
X98191156Y-66316514D01*
X97586694Y-67265330D01*
X96928591Y-67265330D01*
X97098501Y-67194951D01*
X97529076Y-66907250D01*
X97895250Y-66541076D01*
X98182951Y-66110501D01*
X98381123Y-65632072D01*
X98482150Y-65124174D01*
X98482150Y-64606326D01*
X98381123Y-64098428D01*
X98182951Y-63619999D01*
X97895250Y-63189424D01*
X97529076Y-62823250D01*
X97098501Y-62535549D01*
X96620072Y-62337377D01*
X96112174Y-62236350D01*
X95594326Y-62236350D01*
X95086428Y-62337377D01*
X94607999Y-62535549D01*
X94177424Y-62823250D01*
X93811250Y-63189424D01*
X93523549Y-63619999D01*
X93325377Y-64098428D01*
X93224350Y-64606326D01*
X92236758Y-64606326D01*
X92202048Y-64431829D01*
X92090038Y-64161412D01*
X91927424Y-63918044D01*
X91720456Y-63711076D01*
X91477088Y-63548462D01*
X91206671Y-63436452D01*
X90919598Y-63379350D01*
X90626902Y-63379350D01*
X90339829Y-63436452D01*
X90069412Y-63548462D01*
X89826044Y-63711076D01*
X89619076Y-63918044D01*
X89456462Y-64161412D01*
X89344452Y-64431829D01*
X89287350Y-64718902D01*
X83369150Y-64718902D01*
X83312048Y-64431829D01*
X83200038Y-64161412D01*
X83037424Y-63918044D01*
X82830456Y-63711076D01*
X82587088Y-63548462D01*
X82316671Y-63436452D01*
X82029598Y-63379350D01*
X81736902Y-63379350D01*
X81449829Y-63436452D01*
X81179412Y-63548462D01*
X80936044Y-63711076D01*
X80729076Y-63918044D01*
X80566462Y-64161412D01*
X80454452Y-64431829D01*
X80397350Y-64718902D01*
X80397350Y-65011598D01*
X80454452Y-65298671D01*
X80562260Y-65558944D01*
X80378713Y-65568629D01*
X80019779Y-65659923D01*
X79685553Y-65819489D01*
X79388878Y-66041192D01*
X79141156Y-66316514D01*
X78536694Y-67265330D01*
X77878591Y-67265330D01*
X78048501Y-67194951D01*
X78479076Y-66907250D01*
X78845250Y-66541076D01*
X79132951Y-66110501D01*
X79331123Y-65632072D01*
X79432150Y-65124174D01*
X79432150Y-64606326D01*
X79331123Y-64098428D01*
X79132951Y-63619999D01*
X78845250Y-63189424D01*
X78479076Y-62823250D01*
X78048501Y-62535549D01*
X77570072Y-62337377D01*
X77062174Y-62236350D01*
X76544326Y-62236350D01*
X76036428Y-62337377D01*
X75557999Y-62535549D01*
X75127424Y-62823250D01*
X74761250Y-63189424D01*
X74473549Y-63619999D01*
X74275377Y-64098428D01*
X74174350Y-64606326D01*
X73186758Y-64606326D01*
X73152048Y-64431829D01*
X73040038Y-64161412D01*
X72877424Y-63918044D01*
X72670456Y-63711076D01*
X72427088Y-63548462D01*
X72156671Y-63436452D01*
X71869598Y-63379350D01*
X71576902Y-63379350D01*
X71289829Y-63436452D01*
X71019412Y-63548462D01*
X70776044Y-63711076D01*
X70569076Y-63918044D01*
X70406462Y-64161412D01*
X70294452Y-64431829D01*
X70237350Y-64718902D01*
X64395351Y-64718902D01*
X64338249Y-64431829D01*
X64226239Y-64161412D01*
X64063625Y-63918044D01*
X63856657Y-63711076D01*
X63613289Y-63548462D01*
X63342872Y-63436452D01*
X63055799Y-63379350D01*
X62763103Y-63379350D01*
X62476030Y-63436452D01*
X62205613Y-63548462D01*
X61962245Y-63711076D01*
X61755277Y-63918044D01*
X61592663Y-64161412D01*
X61480653Y-64431829D01*
X61423551Y-64718902D01*
X61423551Y-65011598D01*
X61480653Y-65298671D01*
X61588461Y-65558944D01*
X61404914Y-65568629D01*
X61045980Y-65659923D01*
X60711754Y-65819489D01*
X60415079Y-66041192D01*
X60167357Y-66316514D01*
X59562895Y-67265330D01*
X58904792Y-67265330D01*
X59074702Y-67194951D01*
X59505277Y-66907250D01*
X59871451Y-66541076D01*
X60159152Y-66110501D01*
X60357324Y-65632072D01*
X60458351Y-65124174D01*
X60458351Y-64606326D01*
X60357324Y-64098428D01*
X60159152Y-63619999D01*
X59871451Y-63189424D01*
X59505277Y-62823250D01*
X59074702Y-62535549D01*
X58596273Y-62337377D01*
X58088375Y-62236350D01*
X57570527Y-62236350D01*
X57062629Y-62337377D01*
X56584200Y-62535549D01*
X56153625Y-62823250D01*
X55787451Y-63189424D01*
X55499750Y-63619999D01*
X55301578Y-64098428D01*
X55200551Y-64606326D01*
X54212959Y-64606326D01*
X54178249Y-64431829D01*
X54066239Y-64161412D01*
X53903625Y-63918044D01*
X53696657Y-63711076D01*
X53453289Y-63548462D01*
X53182872Y-63436452D01*
X52895799Y-63379350D01*
X52603103Y-63379350D01*
X52316030Y-63436452D01*
X52045613Y-63548462D01*
X51802245Y-63711076D01*
X51595277Y-63918044D01*
X51432663Y-64161412D01*
X51320653Y-64431829D01*
X51263551Y-64718902D01*
X48253250Y-64718902D01*
X48253250Y-49269311D01*
X73736250Y-49269311D01*
X73736250Y-49473189D01*
X73776024Y-49673148D01*
X73854045Y-49861506D01*
X73967313Y-50031024D01*
X74111476Y-50175187D01*
X74280994Y-50288455D01*
X74469352Y-50366476D01*
X74669311Y-50406250D01*
X74731449Y-50406250D01*
X78017451Y-53692253D01*
X78041249Y-53721251D01*
X78156974Y-53816224D01*
X78289003Y-53886796D01*
X78432264Y-53930253D01*
X78543917Y-53941250D01*
X78543925Y-53941250D01*
X78581250Y-53944926D01*
X78618575Y-53941250D01*
X100737539Y-53941250D01*
X100781476Y-53985187D01*
X100950994Y-54098455D01*
X101139352Y-54176476D01*
X101339311Y-54216250D01*
X101543189Y-54216250D01*
X101743148Y-54176476D01*
X101931506Y-54098455D01*
X102101024Y-53985187D01*
X102245187Y-53841024D01*
X102358455Y-53671506D01*
X102436476Y-53483148D01*
X102476250Y-53283189D01*
X102476250Y-53079311D01*
X102436476Y-52879352D01*
X102358455Y-52690994D01*
X102261740Y-52546250D01*
X102358455Y-52401506D01*
X102436476Y-52213148D01*
X102476250Y-52013189D01*
X102476250Y-51809311D01*
X102436476Y-51609352D01*
X102358455Y-51420994D01*
X102261740Y-51276250D01*
X102358455Y-51131506D01*
X102436476Y-50943148D01*
X102476250Y-50743189D01*
X102476250Y-50539311D01*
X102436476Y-50339352D01*
X102358455Y-50150994D01*
X102261740Y-50006250D01*
X102358455Y-49861506D01*
X102436476Y-49673148D01*
X102476250Y-49473189D01*
X102476250Y-49269311D01*
X102436476Y-49069352D01*
X102358455Y-48880994D01*
X102245187Y-48711476D01*
X102101024Y-48567313D01*
X101931506Y-48454045D01*
X101743148Y-48376024D01*
X101543189Y-48336250D01*
X101339311Y-48336250D01*
X101173211Y-48369289D01*
X101206250Y-48203189D01*
X101206250Y-47999311D01*
X101166476Y-47799352D01*
X101088455Y-47610994D01*
X100975187Y-47441476D01*
X100931250Y-47397539D01*
X100931250Y-39914961D01*
X100975187Y-39871024D01*
X101088455Y-39701506D01*
X101166476Y-39513148D01*
X101206250Y-39313189D01*
X101206250Y-39109311D01*
X101166476Y-38909352D01*
X101088455Y-38720994D01*
X100975187Y-38551476D01*
X100831024Y-38407313D01*
X100661506Y-38294045D01*
X100473148Y-38216024D01*
X100273189Y-38176250D01*
X100069311Y-38176250D01*
X99869352Y-38216024D01*
X99680994Y-38294045D01*
X99536441Y-38390632D01*
X99391659Y-38293892D01*
X99203301Y-38215871D01*
X99003342Y-38176097D01*
X98799464Y-38176097D01*
X98599505Y-38215871D01*
X98411147Y-38293892D01*
X98241629Y-38407160D01*
X98097466Y-38551323D01*
X97984198Y-38720841D01*
X97906177Y-38909199D01*
X97866403Y-39109158D01*
X97866403Y-39313036D01*
X97906177Y-39512995D01*
X97984198Y-39701353D01*
X98097466Y-39870871D01*
X98141403Y-39914808D01*
X98141404Y-47397385D01*
X98097313Y-47441476D01*
X97984045Y-47610994D01*
X97906024Y-47799352D01*
X97866250Y-47999311D01*
X97866250Y-48203189D01*
X97906024Y-48403148D01*
X97984045Y-48591506D01*
X97997237Y-48611250D01*
X90714961Y-48611250D01*
X90671024Y-48567313D01*
X90501506Y-48454045D01*
X90313148Y-48376024D01*
X90113189Y-48336250D01*
X89909311Y-48336250D01*
X89709352Y-48376024D01*
X89520994Y-48454045D01*
X89351476Y-48567313D01*
X89207313Y-48711476D01*
X89094045Y-48880994D01*
X89016024Y-49069352D01*
X88976250Y-49269311D01*
X88976250Y-49473189D01*
X89016024Y-49673148D01*
X89094045Y-49861506D01*
X89107237Y-49881250D01*
X86516052Y-49881250D01*
X85966250Y-49331449D01*
X85966250Y-49269311D01*
X85926476Y-49069352D01*
X85848455Y-48880994D01*
X85735187Y-48711476D01*
X85591024Y-48567313D01*
X85421506Y-48454045D01*
X85233148Y-48376024D01*
X85033189Y-48336250D01*
X84829311Y-48336250D01*
X84629352Y-48376024D01*
X84440994Y-48454045D01*
X84271476Y-48567313D01*
X84127313Y-48711476D01*
X84014045Y-48880994D01*
X83936024Y-49069352D01*
X83896250Y-49269311D01*
X83896250Y-49473189D01*
X83936024Y-49673148D01*
X84014045Y-49861506D01*
X84127313Y-50031024D01*
X84271476Y-50175187D01*
X84440994Y-50288455D01*
X84629352Y-50366476D01*
X84829311Y-50406250D01*
X84891449Y-50406250D01*
X85636448Y-51151250D01*
X82706053Y-51151250D01*
X80886250Y-49331449D01*
X80886250Y-49269311D01*
X80846476Y-49069352D01*
X80768455Y-48880994D01*
X80655187Y-48711476D01*
X80511024Y-48567313D01*
X80341506Y-48454045D01*
X80153148Y-48376024D01*
X79953189Y-48336250D01*
X79749311Y-48336250D01*
X79549352Y-48376024D01*
X79360994Y-48454045D01*
X79191476Y-48567313D01*
X79047313Y-48711476D01*
X78934045Y-48880994D01*
X78856024Y-49069352D01*
X78816250Y-49269311D01*
X78816250Y-49473189D01*
X78856024Y-49673148D01*
X78934045Y-49861506D01*
X79047313Y-50031024D01*
X79191476Y-50175187D01*
X79360994Y-50288455D01*
X79549352Y-50366476D01*
X79749311Y-50406250D01*
X79811449Y-50406250D01*
X81826447Y-52421250D01*
X78896052Y-52421250D01*
X75806250Y-49331449D01*
X75806250Y-49269311D01*
X75766476Y-49069352D01*
X75688455Y-48880994D01*
X75575187Y-48711476D01*
X75431024Y-48567313D01*
X75261506Y-48454045D01*
X75073148Y-48376024D01*
X74873189Y-48336250D01*
X74669311Y-48336250D01*
X74469352Y-48376024D01*
X74280994Y-48454045D01*
X74111476Y-48567313D01*
X73967313Y-48711476D01*
X73854045Y-48880994D01*
X73776024Y-49069352D01*
X73736250Y-49269311D01*
X48253250Y-49269311D01*
X48253250Y-36787250D01*
X49103178Y-36787250D01*
X49103178Y-38587250D01*
X49115438Y-38711732D01*
X49151748Y-38831430D01*
X49210713Y-38941744D01*
X49290065Y-39038435D01*
X49386756Y-39117787D01*
X49497070Y-39176752D01*
X49616768Y-39213062D01*
X49741250Y-39225322D01*
X49881250Y-39225322D01*
X49881251Y-44277178D01*
X49741250Y-44277178D01*
X49616768Y-44289438D01*
X49497070Y-44325748D01*
X49386756Y-44384713D01*
X49290065Y-44464065D01*
X49210713Y-44560756D01*
X49151748Y-44671070D01*
X49115438Y-44790768D01*
X49103178Y-44915250D01*
X49103178Y-46715250D01*
X49115438Y-46839732D01*
X49151748Y-46959430D01*
X49210713Y-47069744D01*
X49290065Y-47166435D01*
X49386756Y-47245787D01*
X49497070Y-47304752D01*
X49616768Y-47341062D01*
X49741250Y-47353322D01*
X51541250Y-47353322D01*
X51665732Y-47341062D01*
X51785430Y-47304752D01*
X51895744Y-47245787D01*
X51992435Y-47166435D01*
X52071787Y-47069744D01*
X52130752Y-46959430D01*
X52136306Y-46941123D01*
X52202745Y-47007562D01*
X52454155Y-47175549D01*
X52733507Y-47291261D01*
X53030066Y-47350250D01*
X53332434Y-47350250D01*
X53590180Y-47298981D01*
X53842452Y-47551254D01*
X53866250Y-47580252D01*
X53895248Y-47604050D01*
X53981974Y-47675225D01*
X54114004Y-47745797D01*
X54257265Y-47789254D01*
X54368918Y-47800251D01*
X54368927Y-47800251D01*
X54406250Y-47803927D01*
X54443573Y-47800251D01*
X57506927Y-47800251D01*
X57544249Y-47803927D01*
X57581571Y-47800251D01*
X57581582Y-47800251D01*
X57693235Y-47789254D01*
X57836496Y-47745797D01*
X57968525Y-47675225D01*
X58084250Y-47580252D01*
X58108053Y-47551248D01*
X58360320Y-47298981D01*
X58618066Y-47350250D01*
X58920434Y-47350250D01*
X59178180Y-47298981D01*
X59430452Y-47551254D01*
X59454250Y-47580252D01*
X59483248Y-47604050D01*
X59569974Y-47675225D01*
X59702004Y-47745797D01*
X59845265Y-47789254D01*
X59956918Y-47800251D01*
X59956927Y-47800251D01*
X59994250Y-47803927D01*
X60031573Y-47800251D01*
X63094927Y-47800251D01*
X63132249Y-47803927D01*
X63169571Y-47800251D01*
X63169582Y-47800251D01*
X63281235Y-47789254D01*
X63424496Y-47745797D01*
X63556525Y-47675225D01*
X63672250Y-47580252D01*
X63696053Y-47551248D01*
X63948320Y-47298981D01*
X64206066Y-47350250D01*
X64508434Y-47350250D01*
X64766180Y-47298981D01*
X65018452Y-47551254D01*
X65042250Y-47580252D01*
X65071248Y-47604050D01*
X65157974Y-47675225D01*
X65290004Y-47745797D01*
X65433265Y-47789254D01*
X65544918Y-47800251D01*
X65544927Y-47800251D01*
X65582250Y-47803927D01*
X65619573Y-47800251D01*
X68682927Y-47800251D01*
X68720249Y-47803927D01*
X68757571Y-47800251D01*
X68757582Y-47800251D01*
X68869235Y-47789254D01*
X69012496Y-47745797D01*
X69144525Y-47675225D01*
X69260250Y-47580252D01*
X69284053Y-47551248D01*
X69536320Y-47298981D01*
X69794066Y-47350250D01*
X70096434Y-47350250D01*
X70392993Y-47291261D01*
X70672345Y-47175549D01*
X70923755Y-47007562D01*
X71137562Y-46793755D01*
X71305549Y-46542345D01*
X71421261Y-46262993D01*
X71455178Y-46092480D01*
X71455178Y-46715250D01*
X71467438Y-46839732D01*
X71503748Y-46959430D01*
X71562713Y-47069744D01*
X71642065Y-47166435D01*
X71738756Y-47245787D01*
X71849070Y-47304752D01*
X71968768Y-47341062D01*
X72093250Y-47353322D01*
X73893250Y-47353322D01*
X74017732Y-47341062D01*
X74137430Y-47304752D01*
X74247744Y-47245787D01*
X74344435Y-47166435D01*
X74423787Y-47069744D01*
X74482752Y-46959430D01*
X74488306Y-46941123D01*
X74554745Y-47007562D01*
X74806155Y-47175549D01*
X75085507Y-47291261D01*
X75382066Y-47350250D01*
X75684434Y-47350250D01*
X75942180Y-47298981D01*
X76194452Y-47551254D01*
X76218250Y-47580252D01*
X76247248Y-47604050D01*
X76333974Y-47675225D01*
X76466004Y-47745797D01*
X76609265Y-47789254D01*
X76720918Y-47800251D01*
X76720927Y-47800251D01*
X76758250Y-47803927D01*
X76795573Y-47800251D01*
X79858927Y-47800251D01*
X79896249Y-47803927D01*
X79933571Y-47800251D01*
X79933582Y-47800251D01*
X80045235Y-47789254D01*
X80188496Y-47745797D01*
X80320525Y-47675225D01*
X80436250Y-47580252D01*
X80460053Y-47551248D01*
X80712320Y-47298981D01*
X80970066Y-47350250D01*
X81272434Y-47350250D01*
X81530180Y-47298981D01*
X81782452Y-47551254D01*
X81806250Y-47580252D01*
X81835248Y-47604050D01*
X81921974Y-47675225D01*
X82054004Y-47745797D01*
X82197265Y-47789254D01*
X82308918Y-47800251D01*
X82308927Y-47800251D01*
X82346250Y-47803927D01*
X82383573Y-47800251D01*
X85446927Y-47800251D01*
X85484249Y-47803927D01*
X85521571Y-47800251D01*
X85521582Y-47800251D01*
X85633235Y-47789254D01*
X85776496Y-47745797D01*
X85908525Y-47675225D01*
X86024250Y-47580252D01*
X86048053Y-47551248D01*
X86300320Y-47298981D01*
X86558066Y-47350250D01*
X86860434Y-47350250D01*
X87118180Y-47298981D01*
X87370447Y-47551248D01*
X87394250Y-47580252D01*
X87509975Y-47675225D01*
X87642004Y-47745797D01*
X87785265Y-47789254D01*
X87896918Y-47800251D01*
X87896927Y-47800251D01*
X87934250Y-47803927D01*
X87971573Y-47800251D01*
X91034927Y-47800251D01*
X91072249Y-47803927D01*
X91109571Y-47800251D01*
X91109582Y-47800251D01*
X91221235Y-47789254D01*
X91364496Y-47745797D01*
X91496525Y-47675225D01*
X91612250Y-47580252D01*
X91636053Y-47551248D01*
X91888320Y-47298981D01*
X92146066Y-47350250D01*
X92448434Y-47350250D01*
X92744993Y-47291261D01*
X93024345Y-47175549D01*
X93275755Y-47007562D01*
X93489562Y-46793755D01*
X93657549Y-46542345D01*
X93773261Y-46262993D01*
X93832250Y-45966434D01*
X93832250Y-45664066D01*
X93773261Y-45367507D01*
X93657549Y-45088155D01*
X93489562Y-44836745D01*
X93275755Y-44622938D01*
X93024345Y-44454951D01*
X92744993Y-44339239D01*
X92448434Y-44280250D01*
X92146066Y-44280250D01*
X91849507Y-44339239D01*
X91570155Y-44454951D01*
X91318745Y-44622938D01*
X91252306Y-44689377D01*
X91246752Y-44671070D01*
X91187787Y-44560756D01*
X91108435Y-44464065D01*
X91011744Y-44384713D01*
X90901430Y-44325748D01*
X90781732Y-44289438D01*
X90657250Y-44277178D01*
X90517250Y-44277178D01*
X90517250Y-39225322D01*
X90657250Y-39225322D01*
X90781732Y-39213062D01*
X90901430Y-39176752D01*
X91011744Y-39117787D01*
X91108435Y-39038435D01*
X91187787Y-38941744D01*
X91246752Y-38831430D01*
X91252306Y-38813123D01*
X91318745Y-38879562D01*
X91570155Y-39047549D01*
X91849507Y-39163261D01*
X92146066Y-39222250D01*
X92448434Y-39222250D01*
X92744993Y-39163261D01*
X93024345Y-39047549D01*
X93275755Y-38879562D01*
X93489562Y-38665755D01*
X93657549Y-38414345D01*
X93773261Y-38134993D01*
X93832250Y-37838434D01*
X93832250Y-37536066D01*
X93773261Y-37239507D01*
X93657549Y-36960155D01*
X93489562Y-36708745D01*
X93275755Y-36494938D01*
X93024345Y-36326951D01*
X92744993Y-36211239D01*
X92448434Y-36152250D01*
X92146066Y-36152250D01*
X91888320Y-36203519D01*
X91636053Y-35951252D01*
X91612250Y-35922248D01*
X91496525Y-35827275D01*
X91364496Y-35756703D01*
X91221235Y-35713246D01*
X91109582Y-35702249D01*
X91109571Y-35702249D01*
X91072249Y-35698573D01*
X91034927Y-35702249D01*
X87971573Y-35702249D01*
X87934250Y-35698573D01*
X87896927Y-35702249D01*
X87896918Y-35702249D01*
X87785265Y-35713246D01*
X87642004Y-35756703D01*
X87509974Y-35827275D01*
X87426334Y-35895917D01*
X87394250Y-35922248D01*
X87370452Y-35951246D01*
X87118180Y-36203519D01*
X86860434Y-36152250D01*
X86558066Y-36152250D01*
X86300320Y-36203519D01*
X86048053Y-35951252D01*
X86024250Y-35922248D01*
X85908525Y-35827275D01*
X85776496Y-35756703D01*
X85633235Y-35713246D01*
X85521582Y-35702249D01*
X85521571Y-35702249D01*
X85484249Y-35698573D01*
X85446927Y-35702249D01*
X82383573Y-35702249D01*
X82346250Y-35698573D01*
X82308927Y-35702249D01*
X82308918Y-35702249D01*
X82197265Y-35713246D01*
X82054004Y-35756703D01*
X81921974Y-35827275D01*
X81838334Y-35895917D01*
X81806250Y-35922248D01*
X81782452Y-35951246D01*
X81530180Y-36203519D01*
X81272434Y-36152250D01*
X80970066Y-36152250D01*
X80712320Y-36203519D01*
X80460053Y-35951252D01*
X80436250Y-35922248D01*
X80320525Y-35827275D01*
X80188496Y-35756703D01*
X80045235Y-35713246D01*
X79933582Y-35702249D01*
X79933571Y-35702249D01*
X79896249Y-35698573D01*
X79858927Y-35702249D01*
X76795573Y-35702249D01*
X76758250Y-35698573D01*
X76720927Y-35702249D01*
X76720918Y-35702249D01*
X76609265Y-35713246D01*
X76466004Y-35756703D01*
X76333974Y-35827275D01*
X76250334Y-35895917D01*
X76218250Y-35922248D01*
X76194452Y-35951246D01*
X75942180Y-36203519D01*
X75684434Y-36152250D01*
X75382066Y-36152250D01*
X75085507Y-36211239D01*
X74806155Y-36326951D01*
X74554745Y-36494938D01*
X74488306Y-36561377D01*
X74482752Y-36543070D01*
X74423787Y-36432756D01*
X74344435Y-36336065D01*
X74247744Y-36256713D01*
X74137430Y-36197748D01*
X74017732Y-36161438D01*
X73893250Y-36149178D01*
X72093250Y-36149178D01*
X71968768Y-36161438D01*
X71849070Y-36197748D01*
X71738756Y-36256713D01*
X71642065Y-36336065D01*
X71562713Y-36432756D01*
X71503748Y-36543070D01*
X71467438Y-36662768D01*
X71455178Y-36787250D01*
X71455178Y-37410020D01*
X71421261Y-37239507D01*
X71305549Y-36960155D01*
X71137562Y-36708745D01*
X70923755Y-36494938D01*
X70672345Y-36326951D01*
X70392993Y-36211239D01*
X70096434Y-36152250D01*
X69794066Y-36152250D01*
X69536320Y-36203519D01*
X69284053Y-35951252D01*
X69260250Y-35922248D01*
X69144525Y-35827275D01*
X69012496Y-35756703D01*
X68869235Y-35713246D01*
X68757582Y-35702249D01*
X68757571Y-35702249D01*
X68720249Y-35698573D01*
X68682927Y-35702249D01*
X65619573Y-35702249D01*
X65582250Y-35698573D01*
X65544927Y-35702249D01*
X65544918Y-35702249D01*
X65433265Y-35713246D01*
X65290004Y-35756703D01*
X65157974Y-35827275D01*
X65074334Y-35895917D01*
X65042250Y-35922248D01*
X65018452Y-35951246D01*
X64766180Y-36203519D01*
X64508434Y-36152250D01*
X64206066Y-36152250D01*
X63948320Y-36203519D01*
X63696053Y-35951252D01*
X63672250Y-35922248D01*
X63556525Y-35827275D01*
X63424496Y-35756703D01*
X63281235Y-35713246D01*
X63169582Y-35702249D01*
X63169571Y-35702249D01*
X63132249Y-35698573D01*
X63094927Y-35702249D01*
X60031573Y-35702249D01*
X59994250Y-35698573D01*
X59956927Y-35702249D01*
X59956918Y-35702249D01*
X59845265Y-35713246D01*
X59702004Y-35756703D01*
X59569974Y-35827275D01*
X59486334Y-35895917D01*
X59454250Y-35922248D01*
X59430452Y-35951246D01*
X59178180Y-36203519D01*
X58920434Y-36152250D01*
X58618066Y-36152250D01*
X58360320Y-36203519D01*
X58108053Y-35951252D01*
X58084250Y-35922248D01*
X57968525Y-35827275D01*
X57836496Y-35756703D01*
X57693235Y-35713246D01*
X57581582Y-35702249D01*
X57581571Y-35702249D01*
X57544249Y-35698573D01*
X57506927Y-35702249D01*
X54443573Y-35702249D01*
X54406250Y-35698573D01*
X54368927Y-35702249D01*
X54368918Y-35702249D01*
X54257265Y-35713246D01*
X54114004Y-35756703D01*
X53981974Y-35827275D01*
X53898334Y-35895917D01*
X53866250Y-35922248D01*
X53842452Y-35951246D01*
X53590180Y-36203519D01*
X53332434Y-36152250D01*
X53030066Y-36152250D01*
X52733507Y-36211239D01*
X52454155Y-36326951D01*
X52202745Y-36494938D01*
X52136306Y-36561377D01*
X52130752Y-36543070D01*
X52071787Y-36432756D01*
X51992435Y-36336065D01*
X51895744Y-36256713D01*
X51785430Y-36197748D01*
X51665732Y-36161438D01*
X51541250Y-36149178D01*
X49741250Y-36149178D01*
X49616768Y-36161438D01*
X49497070Y-36197748D01*
X49386756Y-36256713D01*
X49290065Y-36336065D01*
X49210713Y-36432756D01*
X49151748Y-36543070D01*
X49115438Y-36662768D01*
X49103178Y-36787250D01*
X48253250Y-36787250D01*
X48253250Y-29083529D01*
X48294851Y-28659250D01*
X49103178Y-28659250D01*
X49103178Y-30459250D01*
X49115438Y-30583732D01*
X49151748Y-30703430D01*
X49210713Y-30813744D01*
X49290065Y-30910435D01*
X49386756Y-30989787D01*
X49497070Y-31048752D01*
X49616768Y-31085062D01*
X49741250Y-31097322D01*
X51541250Y-31097322D01*
X51665732Y-31085062D01*
X51785430Y-31048752D01*
X51895744Y-30989787D01*
X51992435Y-30910435D01*
X52071787Y-30813744D01*
X52130752Y-30703430D01*
X52136306Y-30685123D01*
X52202745Y-30751562D01*
X52454155Y-30919549D01*
X52733507Y-31035261D01*
X53030066Y-31094250D01*
X53332434Y-31094250D01*
X53628993Y-31035261D01*
X53908345Y-30919549D01*
X54159755Y-30751562D01*
X54373562Y-30537755D01*
X54541549Y-30286345D01*
X54657261Y-30006993D01*
X54691178Y-29836480D01*
X54691178Y-30459250D01*
X54703438Y-30583732D01*
X54739748Y-30703430D01*
X54798713Y-30813744D01*
X54878065Y-30910435D01*
X54974756Y-30989787D01*
X55085070Y-31048752D01*
X55204768Y-31085062D01*
X55329250Y-31097322D01*
X57129250Y-31097322D01*
X57253732Y-31085062D01*
X57373430Y-31048752D01*
X57483744Y-30989787D01*
X57580435Y-30910435D01*
X57659787Y-30813744D01*
X57718752Y-30703430D01*
X57724306Y-30685123D01*
X57790745Y-30751562D01*
X58042155Y-30919549D01*
X58321507Y-31035261D01*
X58618066Y-31094250D01*
X58920434Y-31094250D01*
X59216993Y-31035261D01*
X59496345Y-30919549D01*
X59747755Y-30751562D01*
X59961562Y-30537755D01*
X60129549Y-30286345D01*
X60245261Y-30006993D01*
X60279178Y-29836480D01*
X60279178Y-30459250D01*
X60291438Y-30583732D01*
X60327748Y-30703430D01*
X60386713Y-30813744D01*
X60466065Y-30910435D01*
X60562756Y-30989787D01*
X60673070Y-31048752D01*
X60792768Y-31085062D01*
X60917250Y-31097322D01*
X62717250Y-31097322D01*
X62841732Y-31085062D01*
X62961430Y-31048752D01*
X63071744Y-30989787D01*
X63168435Y-30910435D01*
X63247787Y-30813744D01*
X63306752Y-30703430D01*
X63312306Y-30685123D01*
X63378745Y-30751562D01*
X63630155Y-30919549D01*
X63909507Y-31035261D01*
X64206066Y-31094250D01*
X64508434Y-31094250D01*
X64804993Y-31035261D01*
X65084345Y-30919549D01*
X65335755Y-30751562D01*
X65549562Y-30537755D01*
X65717549Y-30286345D01*
X65833261Y-30006993D01*
X65892250Y-29710434D01*
X65892250Y-29408066D01*
X65833261Y-29111507D01*
X65717549Y-28832155D01*
X65602018Y-28659250D01*
X71455178Y-28659250D01*
X71455178Y-30459250D01*
X71467438Y-30583732D01*
X71503748Y-30703430D01*
X71562713Y-30813744D01*
X71642065Y-30910435D01*
X71738756Y-30989787D01*
X71849070Y-31048752D01*
X71968768Y-31085062D01*
X72093250Y-31097322D01*
X73893250Y-31097322D01*
X74017732Y-31085062D01*
X74137430Y-31048752D01*
X74247744Y-30989787D01*
X74344435Y-30910435D01*
X74423787Y-30813744D01*
X74482752Y-30703430D01*
X74488306Y-30685123D01*
X74554745Y-30751562D01*
X74806155Y-30919549D01*
X75085507Y-31035261D01*
X75382066Y-31094250D01*
X75684434Y-31094250D01*
X75980993Y-31035261D01*
X76260345Y-30919549D01*
X76511755Y-30751562D01*
X76725562Y-30537755D01*
X76893549Y-30286345D01*
X77009261Y-30006993D01*
X77043178Y-29836480D01*
X77043178Y-30459250D01*
X77055438Y-30583732D01*
X77091748Y-30703430D01*
X77150713Y-30813744D01*
X77230065Y-30910435D01*
X77326756Y-30989787D01*
X77437070Y-31048752D01*
X77556768Y-31085062D01*
X77681250Y-31097322D01*
X79481250Y-31097322D01*
X79605732Y-31085062D01*
X79725430Y-31048752D01*
X79835744Y-30989787D01*
X79932435Y-30910435D01*
X80011787Y-30813744D01*
X80070752Y-30703430D01*
X80076306Y-30685123D01*
X80142745Y-30751562D01*
X80394155Y-30919549D01*
X80673507Y-31035261D01*
X80970066Y-31094250D01*
X81272434Y-31094250D01*
X81568993Y-31035261D01*
X81848345Y-30919549D01*
X82099755Y-30751562D01*
X82313562Y-30537755D01*
X82481549Y-30286345D01*
X82597261Y-30006993D01*
X82631178Y-29836480D01*
X82631178Y-30459250D01*
X82643438Y-30583732D01*
X82679748Y-30703430D01*
X82738713Y-30813744D01*
X82818065Y-30910435D01*
X82914756Y-30989787D01*
X83025070Y-31048752D01*
X83144768Y-31085062D01*
X83269250Y-31097322D01*
X85069250Y-31097322D01*
X85193732Y-31085062D01*
X85313430Y-31048752D01*
X85423744Y-30989787D01*
X85520435Y-30910435D01*
X85599787Y-30813744D01*
X85658752Y-30703430D01*
X85664306Y-30685123D01*
X85730745Y-30751562D01*
X85982155Y-30919549D01*
X86261507Y-31035261D01*
X86558066Y-31094250D01*
X86860434Y-31094250D01*
X87156993Y-31035261D01*
X87436345Y-30919549D01*
X87687755Y-30751562D01*
X87901562Y-30537755D01*
X88069549Y-30286345D01*
X88185261Y-30006993D01*
X88244250Y-29710434D01*
X88244250Y-29408066D01*
X88185261Y-29111507D01*
X88069549Y-28832155D01*
X87901562Y-28580745D01*
X87687755Y-28366938D01*
X87436345Y-28198951D01*
X87156993Y-28083239D01*
X86860434Y-28024250D01*
X86558066Y-28024250D01*
X86261507Y-28083239D01*
X85982155Y-28198951D01*
X85730745Y-28366938D01*
X85664306Y-28433377D01*
X85658752Y-28415070D01*
X85599787Y-28304756D01*
X85520435Y-28208065D01*
X85423744Y-28128713D01*
X85313430Y-28069748D01*
X85193732Y-28033438D01*
X85069250Y-28021178D01*
X83269250Y-28021178D01*
X83144768Y-28033438D01*
X83025070Y-28069748D01*
X82914756Y-28128713D01*
X82818065Y-28208065D01*
X82738713Y-28304756D01*
X82679748Y-28415070D01*
X82643438Y-28534768D01*
X82631178Y-28659250D01*
X82631178Y-29282020D01*
X82597261Y-29111507D01*
X82481549Y-28832155D01*
X82313562Y-28580745D01*
X82099755Y-28366938D01*
X81848345Y-28198951D01*
X81568993Y-28083239D01*
X81272434Y-28024250D01*
X80970066Y-28024250D01*
X80673507Y-28083239D01*
X80394155Y-28198951D01*
X80142745Y-28366938D01*
X80076306Y-28433377D01*
X80070752Y-28415070D01*
X80011787Y-28304756D01*
X79932435Y-28208065D01*
X79835744Y-28128713D01*
X79725430Y-28069748D01*
X79605732Y-28033438D01*
X79481250Y-28021178D01*
X77681250Y-28021178D01*
X77556768Y-28033438D01*
X77437070Y-28069748D01*
X77326756Y-28128713D01*
X77230065Y-28208065D01*
X77150713Y-28304756D01*
X77091748Y-28415070D01*
X77055438Y-28534768D01*
X77043178Y-28659250D01*
X77043178Y-29282020D01*
X77009261Y-29111507D01*
X76893549Y-28832155D01*
X76725562Y-28580745D01*
X76511755Y-28366938D01*
X76260345Y-28198951D01*
X75980993Y-28083239D01*
X75684434Y-28024250D01*
X75382066Y-28024250D01*
X75085507Y-28083239D01*
X74806155Y-28198951D01*
X74554745Y-28366938D01*
X74488306Y-28433377D01*
X74482752Y-28415070D01*
X74423787Y-28304756D01*
X74344435Y-28208065D01*
X74247744Y-28128713D01*
X74137430Y-28069748D01*
X74017732Y-28033438D01*
X73893250Y-28021178D01*
X72093250Y-28021178D01*
X71968768Y-28033438D01*
X71849070Y-28069748D01*
X71738756Y-28128713D01*
X71642065Y-28208065D01*
X71562713Y-28304756D01*
X71503748Y-28415070D01*
X71467438Y-28534768D01*
X71455178Y-28659250D01*
X65602018Y-28659250D01*
X65549562Y-28580745D01*
X65335755Y-28366938D01*
X65084345Y-28198951D01*
X64804993Y-28083239D01*
X64508434Y-28024250D01*
X64206066Y-28024250D01*
X63909507Y-28083239D01*
X63630155Y-28198951D01*
X63378745Y-28366938D01*
X63312306Y-28433377D01*
X63306752Y-28415070D01*
X63247787Y-28304756D01*
X63168435Y-28208065D01*
X63071744Y-28128713D01*
X62961430Y-28069748D01*
X62841732Y-28033438D01*
X62717250Y-28021178D01*
X60917250Y-28021178D01*
X60792768Y-28033438D01*
X60673070Y-28069748D01*
X60562756Y-28128713D01*
X60466065Y-28208065D01*
X60386713Y-28304756D01*
X60327748Y-28415070D01*
X60291438Y-28534768D01*
X60279178Y-28659250D01*
X60279178Y-29282020D01*
X60245261Y-29111507D01*
X60129549Y-28832155D01*
X59961562Y-28580745D01*
X59747755Y-28366938D01*
X59496345Y-28198951D01*
X59216993Y-28083239D01*
X58920434Y-28024250D01*
X58618066Y-28024250D01*
X58321507Y-28083239D01*
X58042155Y-28198951D01*
X57790745Y-28366938D01*
X57724306Y-28433377D01*
X57718752Y-28415070D01*
X57659787Y-28304756D01*
X57580435Y-28208065D01*
X57483744Y-28128713D01*
X57373430Y-28069748D01*
X57253732Y-28033438D01*
X57129250Y-28021178D01*
X55329250Y-28021178D01*
X55204768Y-28033438D01*
X55085070Y-28069748D01*
X54974756Y-28128713D01*
X54878065Y-28208065D01*
X54798713Y-28304756D01*
X54739748Y-28415070D01*
X54703438Y-28534768D01*
X54691178Y-28659250D01*
X54691178Y-29282020D01*
X54657261Y-29111507D01*
X54541549Y-28832155D01*
X54373562Y-28580745D01*
X54159755Y-28366938D01*
X53908345Y-28198951D01*
X53628993Y-28083239D01*
X53332434Y-28024250D01*
X53030066Y-28024250D01*
X52733507Y-28083239D01*
X52454155Y-28198951D01*
X52202745Y-28366938D01*
X52136306Y-28433377D01*
X52130752Y-28415070D01*
X52071787Y-28304756D01*
X51992435Y-28208065D01*
X51895744Y-28128713D01*
X51785430Y-28069748D01*
X51665732Y-28033438D01*
X51541250Y-28021178D01*
X49741250Y-28021178D01*
X49616768Y-28033438D01*
X49497070Y-28069748D01*
X49386756Y-28128713D01*
X49290065Y-28208065D01*
X49210713Y-28304756D01*
X49151748Y-28415070D01*
X49115438Y-28534768D01*
X49103178Y-28659250D01*
X48294851Y-28659250D01*
X48301834Y-28588034D01*
X48436362Y-28142457D01*
X48654870Y-27731504D01*
X48949038Y-27370816D01*
X49307669Y-27074131D01*
X49717088Y-26852759D01*
X50161715Y-26715124D01*
X50655261Y-26663250D01*
X102678971Y-26663250D01*
X103174466Y-26711834D01*
X103174466Y-26711834D01*
G37*
X103174466Y-26711834D02*
X103620043Y-26846362D01*
X104030996Y-27064870D01*
X104391684Y-27359038D01*
X104688369Y-27717669D01*
X104909741Y-28127088D01*
X105047376Y-28571715D01*
X105099251Y-29065271D01*
X105099250Y-72198971D01*
X105050666Y-72694466D01*
X104916140Y-73140040D01*
X104697632Y-73550995D01*
X104403459Y-73911686D01*
X104044831Y-74208369D01*
X103635412Y-74429741D01*
X103190785Y-74567376D01*
X102697240Y-74619250D01*
X50673529Y-74619250D01*
X50178034Y-74570666D01*
X49732460Y-74436140D01*
X49321505Y-74217632D01*
X48960814Y-73923459D01*
X48664131Y-73564831D01*
X48442759Y-73155412D01*
X48305124Y-72710785D01*
X48253250Y-72217240D01*
X48253250Y-69908755D01*
X53402795Y-69908755D01*
X53411172Y-70186895D01*
X53494541Y-70548727D01*
X53646899Y-70887342D01*
X53862390Y-71189727D01*
X54132732Y-71444261D01*
X54447538Y-71641165D01*
X54794708Y-71772868D01*
X55160901Y-71834311D01*
X55532044Y-71823133D01*
X55893876Y-71739764D01*
X56232491Y-71587406D01*
X56534876Y-71371915D01*
X56789410Y-71101573D01*
X56944097Y-70854262D01*
X59662100Y-70854262D01*
X59846521Y-71109437D01*
X60027591Y-71168375D01*
X60394140Y-71221387D01*
X60763988Y-71201871D01*
X61122922Y-71110577D01*
X61457148Y-70951011D01*
X61753823Y-70729308D01*
X62001545Y-70453986D01*
X62348895Y-69908755D01*
X72376594Y-69908755D01*
X72384971Y-70186895D01*
X72468340Y-70548727D01*
X72620698Y-70887342D01*
X72836189Y-71189727D01*
X73106531Y-71444261D01*
X73421337Y-71641165D01*
X73768507Y-71772868D01*
X74134700Y-71834311D01*
X74505843Y-71823133D01*
X74867675Y-71739764D01*
X75206290Y-71587406D01*
X75508675Y-71371915D01*
X75763209Y-71101573D01*
X75917896Y-70854262D01*
X78635899Y-70854262D01*
X78820320Y-71109437D01*
X79001390Y-71168375D01*
X79367939Y-71221387D01*
X79737787Y-71201871D01*
X80096721Y-71110577D01*
X80430947Y-70951011D01*
X80727622Y-70729308D01*
X80975344Y-70453986D01*
X81322694Y-69908755D01*
X91426594Y-69908755D01*
X91434971Y-70186895D01*
X91518340Y-70548727D01*
X91670698Y-70887342D01*
X91886189Y-71189727D01*
X92156531Y-71444261D01*
X92471337Y-71641165D01*
X92818507Y-71772868D01*
X93184700Y-71834311D01*
X93555843Y-71823133D01*
X93917675Y-71739764D01*
X94256290Y-71587406D01*
X94558675Y-71371915D01*
X94813209Y-71101573D01*
X94967896Y-70854262D01*
X97685899Y-70854262D01*
X97870320Y-71109437D01*
X98051390Y-71168375D01*
X98417939Y-71221387D01*
X98787787Y-71201871D01*
X99146721Y-71110577D01*
X99480947Y-70951011D01*
X99777622Y-70729308D01*
X100025344Y-70453986D01*
X100629806Y-69505170D01*
X99147124Y-68560598D01*
X97685899Y-70854262D01*
X94967896Y-70854262D01*
X95010113Y-70786767D01*
X95141816Y-70439597D01*
X95187863Y-70165166D01*
X95233060Y-69502157D01*
X96622007Y-69502157D01*
X96690957Y-69866044D01*
X96829575Y-70209488D01*
X97032531Y-70519290D01*
X97162470Y-70658487D01*
X97471677Y-70717787D01*
X98932902Y-68424124D01*
X97450220Y-67479551D01*
X96845758Y-68428366D01*
X96700923Y-68769235D01*
X96625372Y-69131809D01*
X96622007Y-69502157D01*
X95233060Y-69502157D01*
X95239906Y-69401746D01*
X95231529Y-69123605D01*
X95148160Y-68761773D01*
X94995802Y-68423158D01*
X94780311Y-68120773D01*
X94509969Y-67866239D01*
X94195163Y-67669336D01*
X93847993Y-67537632D01*
X93481800Y-67476189D01*
X93110657Y-67487367D01*
X92748825Y-67570736D01*
X92410210Y-67723094D01*
X92107825Y-67938585D01*
X91853291Y-68208927D01*
X91656387Y-68523733D01*
X91524684Y-68870903D01*
X91478637Y-69145334D01*
X91426594Y-69908755D01*
X81322694Y-69908755D01*
X81579806Y-69505170D01*
X80097124Y-68560598D01*
X78635899Y-70854262D01*
X75917896Y-70854262D01*
X75960113Y-70786767D01*
X76091816Y-70439597D01*
X76137863Y-70165166D01*
X76183060Y-69502157D01*
X77572007Y-69502157D01*
X77640957Y-69866044D01*
X77779575Y-70209488D01*
X77982531Y-70519290D01*
X78112470Y-70658487D01*
X78421677Y-70717787D01*
X79882902Y-68424124D01*
X78400220Y-67479551D01*
X77795758Y-68428366D01*
X77650923Y-68769235D01*
X77575372Y-69131809D01*
X77572007Y-69502157D01*
X76183060Y-69502157D01*
X76189906Y-69401746D01*
X76181529Y-69123605D01*
X76098160Y-68761773D01*
X75945802Y-68423158D01*
X75730311Y-68120773D01*
X75459969Y-67866239D01*
X75145163Y-67669336D01*
X74797993Y-67537632D01*
X74431800Y-67476189D01*
X74060657Y-67487367D01*
X73698825Y-67570736D01*
X73360210Y-67723094D01*
X73057825Y-67938585D01*
X72803291Y-68208927D01*
X72606387Y-68523733D01*
X72474684Y-68870903D01*
X72428637Y-69145334D01*
X72376594Y-69908755D01*
X62348895Y-69908755D01*
X62606007Y-69505170D01*
X61123325Y-68560598D01*
X59662100Y-70854262D01*
X56944097Y-70854262D01*
X56986314Y-70786767D01*
X57118017Y-70439597D01*
X57164064Y-70165166D01*
X57209261Y-69502157D01*
X58598208Y-69502157D01*
X58667158Y-69866044D01*
X58805776Y-70209488D01*
X59008732Y-70519290D01*
X59138671Y-70658487D01*
X59447878Y-70717787D01*
X60909103Y-68424124D01*
X59426421Y-67479551D01*
X58821959Y-68428366D01*
X58677124Y-68769235D01*
X58601573Y-69131809D01*
X58598208Y-69502157D01*
X57209261Y-69502157D01*
X57216107Y-69401746D01*
X57207730Y-69123605D01*
X57124361Y-68761773D01*
X56972003Y-68423158D01*
X56756512Y-68120773D01*
X56486170Y-67866239D01*
X56171364Y-67669336D01*
X55824194Y-67537632D01*
X55458001Y-67476189D01*
X55086858Y-67487367D01*
X54725026Y-67570736D01*
X54386411Y-67723094D01*
X54084026Y-67938585D01*
X53829492Y-68208927D01*
X53632588Y-68523733D01*
X53500885Y-68870903D01*
X53454838Y-69145334D01*
X53402795Y-69908755D01*
X48253250Y-69908755D01*
X48253250Y-64718902D01*
X51263551Y-64718902D01*
X51263551Y-65011598D01*
X51320653Y-65298671D01*
X51432663Y-65569088D01*
X51595277Y-65812456D01*
X51802245Y-66019424D01*
X52045613Y-66182038D01*
X52316030Y-66294048D01*
X52603103Y-66351150D01*
X52895799Y-66351150D01*
X53182872Y-66294048D01*
X53453289Y-66182038D01*
X53696657Y-66019424D01*
X53903625Y-65812456D01*
X54066239Y-65569088D01*
X54178249Y-65298671D01*
X54235351Y-65011598D01*
X54235351Y-64718902D01*
X54212959Y-64606326D01*
X55200551Y-64606326D01*
X55200551Y-65124174D01*
X55301578Y-65632072D01*
X55499750Y-66110501D01*
X55787451Y-66541076D01*
X56153625Y-66907250D01*
X56584200Y-67194951D01*
X57062629Y-67393123D01*
X57570527Y-67494150D01*
X58088375Y-67494150D01*
X58596273Y-67393123D01*
X58904792Y-67265330D01*
X59562895Y-67265330D01*
X61045577Y-68209902D01*
X61056323Y-68193034D01*
X61270544Y-68329509D01*
X61259799Y-68346376D01*
X62742481Y-69290949D01*
X63346943Y-68342134D01*
X63491778Y-68001265D01*
X63567329Y-67638691D01*
X63570694Y-67268343D01*
X63501744Y-66904456D01*
X63363126Y-66561012D01*
X63206062Y-66321261D01*
X63342872Y-66294048D01*
X63613289Y-66182038D01*
X63856657Y-66019424D01*
X64063625Y-65812456D01*
X64226239Y-65569088D01*
X64338249Y-65298671D01*
X64395351Y-65011598D01*
X64395351Y-64718902D01*
X70237350Y-64718902D01*
X70237350Y-65011598D01*
X70294452Y-65298671D01*
X70406462Y-65569088D01*
X70569076Y-65812456D01*
X70776044Y-66019424D01*
X71019412Y-66182038D01*
X71289829Y-66294048D01*
X71576902Y-66351150D01*
X71869598Y-66351150D01*
X72156671Y-66294048D01*
X72427088Y-66182038D01*
X72670456Y-66019424D01*
X72877424Y-65812456D01*
X73040038Y-65569088D01*
X73152048Y-65298671D01*
X73209150Y-65011598D01*
X73209150Y-64718902D01*
X73186758Y-64606326D01*
X74174350Y-64606326D01*
X74174350Y-65124174D01*
X74275377Y-65632072D01*
X74473549Y-66110501D01*
X74761250Y-66541076D01*
X75127424Y-66907250D01*
X75557999Y-67194951D01*
X76036428Y-67393123D01*
X76544326Y-67494150D01*
X77062174Y-67494150D01*
X77570072Y-67393123D01*
X77878591Y-67265330D01*
X78536694Y-67265330D01*
X80019376Y-68209902D01*
X80030122Y-68193034D01*
X80244343Y-68329509D01*
X80233598Y-68346376D01*
X81716280Y-69290949D01*
X82320742Y-68342134D01*
X82465577Y-68001265D01*
X82541128Y-67638691D01*
X82544493Y-67268343D01*
X82475543Y-66904456D01*
X82336925Y-66561012D01*
X82179861Y-66321261D01*
X82316671Y-66294048D01*
X82587088Y-66182038D01*
X82830456Y-66019424D01*
X83037424Y-65812456D01*
X83200038Y-65569088D01*
X83312048Y-65298671D01*
X83369150Y-65011598D01*
X83369150Y-64718902D01*
X89287350Y-64718902D01*
X89287350Y-65011598D01*
X89344452Y-65298671D01*
X89456462Y-65569088D01*
X89619076Y-65812456D01*
X89826044Y-66019424D01*
X90069412Y-66182038D01*
X90339829Y-66294048D01*
X90626902Y-66351150D01*
X90919598Y-66351150D01*
X91206671Y-66294048D01*
X91477088Y-66182038D01*
X91720456Y-66019424D01*
X91927424Y-65812456D01*
X92090038Y-65569088D01*
X92202048Y-65298671D01*
X92259150Y-65011598D01*
X92259150Y-64718902D01*
X92236758Y-64606326D01*
X93224350Y-64606326D01*
X93224350Y-65124174D01*
X93325377Y-65632072D01*
X93523549Y-66110501D01*
X93811250Y-66541076D01*
X94177424Y-66907250D01*
X94607999Y-67194951D01*
X95086428Y-67393123D01*
X95594326Y-67494150D01*
X96112174Y-67494150D01*
X96620072Y-67393123D01*
X96928591Y-67265330D01*
X97586694Y-67265330D01*
X99069376Y-68209902D01*
X99080122Y-68193034D01*
X99294343Y-68329509D01*
X99283598Y-68346376D01*
X100766280Y-69290949D01*
X101370742Y-68342134D01*
X101515577Y-68001265D01*
X101591128Y-67638691D01*
X101594493Y-67268343D01*
X101525543Y-66904456D01*
X101386925Y-66561012D01*
X101229861Y-66321261D01*
X101366671Y-66294048D01*
X101637088Y-66182038D01*
X101880456Y-66019424D01*
X102087424Y-65812456D01*
X102250038Y-65569088D01*
X102362048Y-65298671D01*
X102419150Y-65011598D01*
X102419150Y-64718902D01*
X102362048Y-64431829D01*
X102250038Y-64161412D01*
X102087424Y-63918044D01*
X101880456Y-63711076D01*
X101637088Y-63548462D01*
X101366671Y-63436452D01*
X101079598Y-63379350D01*
X100786902Y-63379350D01*
X100499829Y-63436452D01*
X100229412Y-63548462D01*
X99986044Y-63711076D01*
X99779076Y-63918044D01*
X99616462Y-64161412D01*
X99504452Y-64431829D01*
X99447350Y-64718902D01*
X99447350Y-65011598D01*
X99504452Y-65298671D01*
X99612260Y-65558944D01*
X99428713Y-65568629D01*
X99069779Y-65659923D01*
X98735553Y-65819489D01*
X98438878Y-66041192D01*
X98191156Y-66316514D01*
X97586694Y-67265330D01*
X96928591Y-67265330D01*
X97098501Y-67194951D01*
X97529076Y-66907250D01*
X97895250Y-66541076D01*
X98182951Y-66110501D01*
X98381123Y-65632072D01*
X98482150Y-65124174D01*
X98482150Y-64606326D01*
X98381123Y-64098428D01*
X98182951Y-63619999D01*
X97895250Y-63189424D01*
X97529076Y-62823250D01*
X97098501Y-62535549D01*
X96620072Y-62337377D01*
X96112174Y-62236350D01*
X95594326Y-62236350D01*
X95086428Y-62337377D01*
X94607999Y-62535549D01*
X94177424Y-62823250D01*
X93811250Y-63189424D01*
X93523549Y-63619999D01*
X93325377Y-64098428D01*
X93224350Y-64606326D01*
X92236758Y-64606326D01*
X92202048Y-64431829D01*
X92090038Y-64161412D01*
X91927424Y-63918044D01*
X91720456Y-63711076D01*
X91477088Y-63548462D01*
X91206671Y-63436452D01*
X90919598Y-63379350D01*
X90626902Y-63379350D01*
X90339829Y-63436452D01*
X90069412Y-63548462D01*
X89826044Y-63711076D01*
X89619076Y-63918044D01*
X89456462Y-64161412D01*
X89344452Y-64431829D01*
X89287350Y-64718902D01*
X83369150Y-64718902D01*
X83312048Y-64431829D01*
X83200038Y-64161412D01*
X83037424Y-63918044D01*
X82830456Y-63711076D01*
X82587088Y-63548462D01*
X82316671Y-63436452D01*
X82029598Y-63379350D01*
X81736902Y-63379350D01*
X81449829Y-63436452D01*
X81179412Y-63548462D01*
X80936044Y-63711076D01*
X80729076Y-63918044D01*
X80566462Y-64161412D01*
X80454452Y-64431829D01*
X80397350Y-64718902D01*
X80397350Y-65011598D01*
X80454452Y-65298671D01*
X80562260Y-65558944D01*
X80378713Y-65568629D01*
X80019779Y-65659923D01*
X79685553Y-65819489D01*
X79388878Y-66041192D01*
X79141156Y-66316514D01*
X78536694Y-67265330D01*
X77878591Y-67265330D01*
X78048501Y-67194951D01*
X78479076Y-66907250D01*
X78845250Y-66541076D01*
X79132951Y-66110501D01*
X79331123Y-65632072D01*
X79432150Y-65124174D01*
X79432150Y-64606326D01*
X79331123Y-64098428D01*
X79132951Y-63619999D01*
X78845250Y-63189424D01*
X78479076Y-62823250D01*
X78048501Y-62535549D01*
X77570072Y-62337377D01*
X77062174Y-62236350D01*
X76544326Y-62236350D01*
X76036428Y-62337377D01*
X75557999Y-62535549D01*
X75127424Y-62823250D01*
X74761250Y-63189424D01*
X74473549Y-63619999D01*
X74275377Y-64098428D01*
X74174350Y-64606326D01*
X73186758Y-64606326D01*
X73152048Y-64431829D01*
X73040038Y-64161412D01*
X72877424Y-63918044D01*
X72670456Y-63711076D01*
X72427088Y-63548462D01*
X72156671Y-63436452D01*
X71869598Y-63379350D01*
X71576902Y-63379350D01*
X71289829Y-63436452D01*
X71019412Y-63548462D01*
X70776044Y-63711076D01*
X70569076Y-63918044D01*
X70406462Y-64161412D01*
X70294452Y-64431829D01*
X70237350Y-64718902D01*
X64395351Y-64718902D01*
X64338249Y-64431829D01*
X64226239Y-64161412D01*
X64063625Y-63918044D01*
X63856657Y-63711076D01*
X63613289Y-63548462D01*
X63342872Y-63436452D01*
X63055799Y-63379350D01*
X62763103Y-63379350D01*
X62476030Y-63436452D01*
X62205613Y-63548462D01*
X61962245Y-63711076D01*
X61755277Y-63918044D01*
X61592663Y-64161412D01*
X61480653Y-64431829D01*
X61423551Y-64718902D01*
X61423551Y-65011598D01*
X61480653Y-65298671D01*
X61588461Y-65558944D01*
X61404914Y-65568629D01*
X61045980Y-65659923D01*
X60711754Y-65819489D01*
X60415079Y-66041192D01*
X60167357Y-66316514D01*
X59562895Y-67265330D01*
X58904792Y-67265330D01*
X59074702Y-67194951D01*
X59505277Y-66907250D01*
X59871451Y-66541076D01*
X60159152Y-66110501D01*
X60357324Y-65632072D01*
X60458351Y-65124174D01*
X60458351Y-64606326D01*
X60357324Y-64098428D01*
X60159152Y-63619999D01*
X59871451Y-63189424D01*
X59505277Y-62823250D01*
X59074702Y-62535549D01*
X58596273Y-62337377D01*
X58088375Y-62236350D01*
X57570527Y-62236350D01*
X57062629Y-62337377D01*
X56584200Y-62535549D01*
X56153625Y-62823250D01*
X55787451Y-63189424D01*
X55499750Y-63619999D01*
X55301578Y-64098428D01*
X55200551Y-64606326D01*
X54212959Y-64606326D01*
X54178249Y-64431829D01*
X54066239Y-64161412D01*
X53903625Y-63918044D01*
X53696657Y-63711076D01*
X53453289Y-63548462D01*
X53182872Y-63436452D01*
X52895799Y-63379350D01*
X52603103Y-63379350D01*
X52316030Y-63436452D01*
X52045613Y-63548462D01*
X51802245Y-63711076D01*
X51595277Y-63918044D01*
X51432663Y-64161412D01*
X51320653Y-64431829D01*
X51263551Y-64718902D01*
X48253250Y-64718902D01*
X48253250Y-49269311D01*
X73736250Y-49269311D01*
X73736250Y-49473189D01*
X73776024Y-49673148D01*
X73854045Y-49861506D01*
X73967313Y-50031024D01*
X74111476Y-50175187D01*
X74280994Y-50288455D01*
X74469352Y-50366476D01*
X74669311Y-50406250D01*
X74731449Y-50406250D01*
X78017451Y-53692253D01*
X78041249Y-53721251D01*
X78156974Y-53816224D01*
X78289003Y-53886796D01*
X78432264Y-53930253D01*
X78543917Y-53941250D01*
X78543925Y-53941250D01*
X78581250Y-53944926D01*
X78618575Y-53941250D01*
X100737539Y-53941250D01*
X100781476Y-53985187D01*
X100950994Y-54098455D01*
X101139352Y-54176476D01*
X101339311Y-54216250D01*
X101543189Y-54216250D01*
X101743148Y-54176476D01*
X101931506Y-54098455D01*
X102101024Y-53985187D01*
X102245187Y-53841024D01*
X102358455Y-53671506D01*
X102436476Y-53483148D01*
X102476250Y-53283189D01*
X102476250Y-53079311D01*
X102436476Y-52879352D01*
X102358455Y-52690994D01*
X102261740Y-52546250D01*
X102358455Y-52401506D01*
X102436476Y-52213148D01*
X102476250Y-52013189D01*
X102476250Y-51809311D01*
X102436476Y-51609352D01*
X102358455Y-51420994D01*
X102261740Y-51276250D01*
X102358455Y-51131506D01*
X102436476Y-50943148D01*
X102476250Y-50743189D01*
X102476250Y-50539311D01*
X102436476Y-50339352D01*
X102358455Y-50150994D01*
X102261740Y-50006250D01*
X102358455Y-49861506D01*
X102436476Y-49673148D01*
X102476250Y-49473189D01*
X102476250Y-49269311D01*
X102436476Y-49069352D01*
X102358455Y-48880994D01*
X102245187Y-48711476D01*
X102101024Y-48567313D01*
X101931506Y-48454045D01*
X101743148Y-48376024D01*
X101543189Y-48336250D01*
X101339311Y-48336250D01*
X101173211Y-48369289D01*
X101206250Y-48203189D01*
X101206250Y-47999311D01*
X101166476Y-47799352D01*
X101088455Y-47610994D01*
X100975187Y-47441476D01*
X100931250Y-47397539D01*
X100931250Y-39914961D01*
X100975187Y-39871024D01*
X101088455Y-39701506D01*
X101166476Y-39513148D01*
X101206250Y-39313189D01*
X101206250Y-39109311D01*
X101166476Y-38909352D01*
X101088455Y-38720994D01*
X100975187Y-38551476D01*
X100831024Y-38407313D01*
X100661506Y-38294045D01*
X100473148Y-38216024D01*
X100273189Y-38176250D01*
X100069311Y-38176250D01*
X99869352Y-38216024D01*
X99680994Y-38294045D01*
X99536441Y-38390632D01*
X99391659Y-38293892D01*
X99203301Y-38215871D01*
X99003342Y-38176097D01*
X98799464Y-38176097D01*
X98599505Y-38215871D01*
X98411147Y-38293892D01*
X98241629Y-38407160D01*
X98097466Y-38551323D01*
X97984198Y-38720841D01*
X97906177Y-38909199D01*
X97866403Y-39109158D01*
X97866403Y-39313036D01*
X97906177Y-39512995D01*
X97984198Y-39701353D01*
X98097466Y-39870871D01*
X98141403Y-39914808D01*
X98141404Y-47397385D01*
X98097313Y-47441476D01*
X97984045Y-47610994D01*
X97906024Y-47799352D01*
X97866250Y-47999311D01*
X97866250Y-48203189D01*
X97906024Y-48403148D01*
X97984045Y-48591506D01*
X97997237Y-48611250D01*
X90714961Y-48611250D01*
X90671024Y-48567313D01*
X90501506Y-48454045D01*
X90313148Y-48376024D01*
X90113189Y-48336250D01*
X89909311Y-48336250D01*
X89709352Y-48376024D01*
X89520994Y-48454045D01*
X89351476Y-48567313D01*
X89207313Y-48711476D01*
X89094045Y-48880994D01*
X89016024Y-49069352D01*
X88976250Y-49269311D01*
X88976250Y-49473189D01*
X89016024Y-49673148D01*
X89094045Y-49861506D01*
X89107237Y-49881250D01*
X86516052Y-49881250D01*
X85966250Y-49331449D01*
X85966250Y-49269311D01*
X85926476Y-49069352D01*
X85848455Y-48880994D01*
X85735187Y-48711476D01*
X85591024Y-48567313D01*
X85421506Y-48454045D01*
X85233148Y-48376024D01*
X85033189Y-48336250D01*
X84829311Y-48336250D01*
X84629352Y-48376024D01*
X84440994Y-48454045D01*
X84271476Y-48567313D01*
X84127313Y-48711476D01*
X84014045Y-48880994D01*
X83936024Y-49069352D01*
X83896250Y-49269311D01*
X83896250Y-49473189D01*
X83936024Y-49673148D01*
X84014045Y-49861506D01*
X84127313Y-50031024D01*
X84271476Y-50175187D01*
X84440994Y-50288455D01*
X84629352Y-50366476D01*
X84829311Y-50406250D01*
X84891449Y-50406250D01*
X85636448Y-51151250D01*
X82706053Y-51151250D01*
X80886250Y-49331449D01*
X80886250Y-49269311D01*
X80846476Y-49069352D01*
X80768455Y-48880994D01*
X80655187Y-48711476D01*
X80511024Y-48567313D01*
X80341506Y-48454045D01*
X80153148Y-48376024D01*
X79953189Y-48336250D01*
X79749311Y-48336250D01*
X79549352Y-48376024D01*
X79360994Y-48454045D01*
X79191476Y-48567313D01*
X79047313Y-48711476D01*
X78934045Y-48880994D01*
X78856024Y-49069352D01*
X78816250Y-49269311D01*
X78816250Y-49473189D01*
X78856024Y-49673148D01*
X78934045Y-49861506D01*
X79047313Y-50031024D01*
X79191476Y-50175187D01*
X79360994Y-50288455D01*
X79549352Y-50366476D01*
X79749311Y-50406250D01*
X79811449Y-50406250D01*
X81826447Y-52421250D01*
X78896052Y-52421250D01*
X75806250Y-49331449D01*
X75806250Y-49269311D01*
X75766476Y-49069352D01*
X75688455Y-48880994D01*
X75575187Y-48711476D01*
X75431024Y-48567313D01*
X75261506Y-48454045D01*
X75073148Y-48376024D01*
X74873189Y-48336250D01*
X74669311Y-48336250D01*
X74469352Y-48376024D01*
X74280994Y-48454045D01*
X74111476Y-48567313D01*
X73967313Y-48711476D01*
X73854045Y-48880994D01*
X73776024Y-49069352D01*
X73736250Y-49269311D01*
X48253250Y-49269311D01*
X48253250Y-36787250D01*
X49103178Y-36787250D01*
X49103178Y-38587250D01*
X49115438Y-38711732D01*
X49151748Y-38831430D01*
X49210713Y-38941744D01*
X49290065Y-39038435D01*
X49386756Y-39117787D01*
X49497070Y-39176752D01*
X49616768Y-39213062D01*
X49741250Y-39225322D01*
X49881250Y-39225322D01*
X49881251Y-44277178D01*
X49741250Y-44277178D01*
X49616768Y-44289438D01*
X49497070Y-44325748D01*
X49386756Y-44384713D01*
X49290065Y-44464065D01*
X49210713Y-44560756D01*
X49151748Y-44671070D01*
X49115438Y-44790768D01*
X49103178Y-44915250D01*
X49103178Y-46715250D01*
X49115438Y-46839732D01*
X49151748Y-46959430D01*
X49210713Y-47069744D01*
X49290065Y-47166435D01*
X49386756Y-47245787D01*
X49497070Y-47304752D01*
X49616768Y-47341062D01*
X49741250Y-47353322D01*
X51541250Y-47353322D01*
X51665732Y-47341062D01*
X51785430Y-47304752D01*
X51895744Y-47245787D01*
X51992435Y-47166435D01*
X52071787Y-47069744D01*
X52130752Y-46959430D01*
X52136306Y-46941123D01*
X52202745Y-47007562D01*
X52454155Y-47175549D01*
X52733507Y-47291261D01*
X53030066Y-47350250D01*
X53332434Y-47350250D01*
X53590180Y-47298981D01*
X53842452Y-47551254D01*
X53866250Y-47580252D01*
X53895248Y-47604050D01*
X53981974Y-47675225D01*
X54114004Y-47745797D01*
X54257265Y-47789254D01*
X54368918Y-47800251D01*
X54368927Y-47800251D01*
X54406250Y-47803927D01*
X54443573Y-47800251D01*
X57506927Y-47800251D01*
X57544249Y-47803927D01*
X57581571Y-47800251D01*
X57581582Y-47800251D01*
X57693235Y-47789254D01*
X57836496Y-47745797D01*
X57968525Y-47675225D01*
X58084250Y-47580252D01*
X58108053Y-47551248D01*
X58360320Y-47298981D01*
X58618066Y-47350250D01*
X58920434Y-47350250D01*
X59178180Y-47298981D01*
X59430452Y-47551254D01*
X59454250Y-47580252D01*
X59483248Y-47604050D01*
X59569974Y-47675225D01*
X59702004Y-47745797D01*
X59845265Y-47789254D01*
X59956918Y-47800251D01*
X59956927Y-47800251D01*
X59994250Y-47803927D01*
X60031573Y-47800251D01*
X63094927Y-47800251D01*
X63132249Y-47803927D01*
X63169571Y-47800251D01*
X63169582Y-47800251D01*
X63281235Y-47789254D01*
X63424496Y-47745797D01*
X63556525Y-47675225D01*
X63672250Y-47580252D01*
X63696053Y-47551248D01*
X63948320Y-47298981D01*
X64206066Y-47350250D01*
X64508434Y-47350250D01*
X64766180Y-47298981D01*
X65018452Y-47551254D01*
X65042250Y-47580252D01*
X65071248Y-47604050D01*
X65157974Y-47675225D01*
X65290004Y-47745797D01*
X65433265Y-47789254D01*
X65544918Y-47800251D01*
X65544927Y-47800251D01*
X65582250Y-47803927D01*
X65619573Y-47800251D01*
X68682927Y-47800251D01*
X68720249Y-47803927D01*
X68757571Y-47800251D01*
X68757582Y-47800251D01*
X68869235Y-47789254D01*
X69012496Y-47745797D01*
X69144525Y-47675225D01*
X69260250Y-47580252D01*
X69284053Y-47551248D01*
X69536320Y-47298981D01*
X69794066Y-47350250D01*
X70096434Y-47350250D01*
X70392993Y-47291261D01*
X70672345Y-47175549D01*
X70923755Y-47007562D01*
X71137562Y-46793755D01*
X71305549Y-46542345D01*
X71421261Y-46262993D01*
X71455178Y-46092480D01*
X71455178Y-46715250D01*
X71467438Y-46839732D01*
X71503748Y-46959430D01*
X71562713Y-47069744D01*
X71642065Y-47166435D01*
X71738756Y-47245787D01*
X71849070Y-47304752D01*
X71968768Y-47341062D01*
X72093250Y-47353322D01*
X73893250Y-47353322D01*
X74017732Y-47341062D01*
X74137430Y-47304752D01*
X74247744Y-47245787D01*
X74344435Y-47166435D01*
X74423787Y-47069744D01*
X74482752Y-46959430D01*
X74488306Y-46941123D01*
X74554745Y-47007562D01*
X74806155Y-47175549D01*
X75085507Y-47291261D01*
X75382066Y-47350250D01*
X75684434Y-47350250D01*
X75942180Y-47298981D01*
X76194452Y-47551254D01*
X76218250Y-47580252D01*
X76247248Y-47604050D01*
X76333974Y-47675225D01*
X76466004Y-47745797D01*
X76609265Y-47789254D01*
X76720918Y-47800251D01*
X76720927Y-47800251D01*
X76758250Y-47803927D01*
X76795573Y-47800251D01*
X79858927Y-47800251D01*
X79896249Y-47803927D01*
X79933571Y-47800251D01*
X79933582Y-47800251D01*
X80045235Y-47789254D01*
X80188496Y-47745797D01*
X80320525Y-47675225D01*
X80436250Y-47580252D01*
X80460053Y-47551248D01*
X80712320Y-47298981D01*
X80970066Y-47350250D01*
X81272434Y-47350250D01*
X81530180Y-47298981D01*
X81782452Y-47551254D01*
X81806250Y-47580252D01*
X81835248Y-47604050D01*
X81921974Y-47675225D01*
X82054004Y-47745797D01*
X82197265Y-47789254D01*
X82308918Y-47800251D01*
X82308927Y-47800251D01*
X82346250Y-47803927D01*
X82383573Y-47800251D01*
X85446927Y-47800251D01*
X85484249Y-47803927D01*
X85521571Y-47800251D01*
X85521582Y-47800251D01*
X85633235Y-47789254D01*
X85776496Y-47745797D01*
X85908525Y-47675225D01*
X86024250Y-47580252D01*
X86048053Y-47551248D01*
X86300320Y-47298981D01*
X86558066Y-47350250D01*
X86860434Y-47350250D01*
X87118180Y-47298981D01*
X87370447Y-47551248D01*
X87394250Y-47580252D01*
X87509975Y-47675225D01*
X87642004Y-47745797D01*
X87785265Y-47789254D01*
X87896918Y-47800251D01*
X87896927Y-47800251D01*
X87934250Y-47803927D01*
X87971573Y-47800251D01*
X91034927Y-47800251D01*
X91072249Y-47803927D01*
X91109571Y-47800251D01*
X91109582Y-47800251D01*
X91221235Y-47789254D01*
X91364496Y-47745797D01*
X91496525Y-47675225D01*
X91612250Y-47580252D01*
X91636053Y-47551248D01*
X91888320Y-47298981D01*
X92146066Y-47350250D01*
X92448434Y-47350250D01*
X92744993Y-47291261D01*
X93024345Y-47175549D01*
X93275755Y-47007562D01*
X93489562Y-46793755D01*
X93657549Y-46542345D01*
X93773261Y-46262993D01*
X93832250Y-45966434D01*
X93832250Y-45664066D01*
X93773261Y-45367507D01*
X93657549Y-45088155D01*
X93489562Y-44836745D01*
X93275755Y-44622938D01*
X93024345Y-44454951D01*
X92744993Y-44339239D01*
X92448434Y-44280250D01*
X92146066Y-44280250D01*
X91849507Y-44339239D01*
X91570155Y-44454951D01*
X91318745Y-44622938D01*
X91252306Y-44689377D01*
X91246752Y-44671070D01*
X91187787Y-44560756D01*
X91108435Y-44464065D01*
X91011744Y-44384713D01*
X90901430Y-44325748D01*
X90781732Y-44289438D01*
X90657250Y-44277178D01*
X90517250Y-44277178D01*
X90517250Y-39225322D01*
X90657250Y-39225322D01*
X90781732Y-39213062D01*
X90901430Y-39176752D01*
X91011744Y-39117787D01*
X91108435Y-39038435D01*
X91187787Y-38941744D01*
X91246752Y-38831430D01*
X91252306Y-38813123D01*
X91318745Y-38879562D01*
X91570155Y-39047549D01*
X91849507Y-39163261D01*
X92146066Y-39222250D01*
X92448434Y-39222250D01*
X92744993Y-39163261D01*
X93024345Y-39047549D01*
X93275755Y-38879562D01*
X93489562Y-38665755D01*
X93657549Y-38414345D01*
X93773261Y-38134993D01*
X93832250Y-37838434D01*
X93832250Y-37536066D01*
X93773261Y-37239507D01*
X93657549Y-36960155D01*
X93489562Y-36708745D01*
X93275755Y-36494938D01*
X93024345Y-36326951D01*
X92744993Y-36211239D01*
X92448434Y-36152250D01*
X92146066Y-36152250D01*
X91888320Y-36203519D01*
X91636053Y-35951252D01*
X91612250Y-35922248D01*
X91496525Y-35827275D01*
X91364496Y-35756703D01*
X91221235Y-35713246D01*
X91109582Y-35702249D01*
X91109571Y-35702249D01*
X91072249Y-35698573D01*
X91034927Y-35702249D01*
X87971573Y-35702249D01*
X87934250Y-35698573D01*
X87896927Y-35702249D01*
X87896918Y-35702249D01*
X87785265Y-35713246D01*
X87642004Y-35756703D01*
X87509974Y-35827275D01*
X87426334Y-35895917D01*
X87394250Y-35922248D01*
X87370452Y-35951246D01*
X87118180Y-36203519D01*
X86860434Y-36152250D01*
X86558066Y-36152250D01*
X86300320Y-36203519D01*
X86048053Y-35951252D01*
X86024250Y-35922248D01*
X85908525Y-35827275D01*
X85776496Y-35756703D01*
X85633235Y-35713246D01*
X85521582Y-35702249D01*
X85521571Y-35702249D01*
X85484249Y-35698573D01*
X85446927Y-35702249D01*
X82383573Y-35702249D01*
X82346250Y-35698573D01*
X82308927Y-35702249D01*
X82308918Y-35702249D01*
X82197265Y-35713246D01*
X82054004Y-35756703D01*
X81921974Y-35827275D01*
X81838334Y-35895917D01*
X81806250Y-35922248D01*
X81782452Y-35951246D01*
X81530180Y-36203519D01*
X81272434Y-36152250D01*
X80970066Y-36152250D01*
X80712320Y-36203519D01*
X80460053Y-35951252D01*
X80436250Y-35922248D01*
X80320525Y-35827275D01*
X80188496Y-35756703D01*
X80045235Y-35713246D01*
X79933582Y-35702249D01*
X79933571Y-35702249D01*
X79896249Y-35698573D01*
X79858927Y-35702249D01*
X76795573Y-35702249D01*
X76758250Y-35698573D01*
X76720927Y-35702249D01*
X76720918Y-35702249D01*
X76609265Y-35713246D01*
X76466004Y-35756703D01*
X76333974Y-35827275D01*
X76250334Y-35895917D01*
X76218250Y-35922248D01*
X76194452Y-35951246D01*
X75942180Y-36203519D01*
X75684434Y-36152250D01*
X75382066Y-36152250D01*
X75085507Y-36211239D01*
X74806155Y-36326951D01*
X74554745Y-36494938D01*
X74488306Y-36561377D01*
X74482752Y-36543070D01*
X74423787Y-36432756D01*
X74344435Y-36336065D01*
X74247744Y-36256713D01*
X74137430Y-36197748D01*
X74017732Y-36161438D01*
X73893250Y-36149178D01*
X72093250Y-36149178D01*
X71968768Y-36161438D01*
X71849070Y-36197748D01*
X71738756Y-36256713D01*
X71642065Y-36336065D01*
X71562713Y-36432756D01*
X71503748Y-36543070D01*
X71467438Y-36662768D01*
X71455178Y-36787250D01*
X71455178Y-37410020D01*
X71421261Y-37239507D01*
X71305549Y-36960155D01*
X71137562Y-36708745D01*
X70923755Y-36494938D01*
X70672345Y-36326951D01*
X70392993Y-36211239D01*
X70096434Y-36152250D01*
X69794066Y-36152250D01*
X69536320Y-36203519D01*
X69284053Y-35951252D01*
X69260250Y-35922248D01*
X69144525Y-35827275D01*
X69012496Y-35756703D01*
X68869235Y-35713246D01*
X68757582Y-35702249D01*
X68757571Y-35702249D01*
X68720249Y-35698573D01*
X68682927Y-35702249D01*
X65619573Y-35702249D01*
X65582250Y-35698573D01*
X65544927Y-35702249D01*
X65544918Y-35702249D01*
X65433265Y-35713246D01*
X65290004Y-35756703D01*
X65157974Y-35827275D01*
X65074334Y-35895917D01*
X65042250Y-35922248D01*
X65018452Y-35951246D01*
X64766180Y-36203519D01*
X64508434Y-36152250D01*
X64206066Y-36152250D01*
X63948320Y-36203519D01*
X63696053Y-35951252D01*
X63672250Y-35922248D01*
X63556525Y-35827275D01*
X63424496Y-35756703D01*
X63281235Y-35713246D01*
X63169582Y-35702249D01*
X63169571Y-35702249D01*
X63132249Y-35698573D01*
X63094927Y-35702249D01*
X60031573Y-35702249D01*
X59994250Y-35698573D01*
X59956927Y-35702249D01*
X59956918Y-35702249D01*
X59845265Y-35713246D01*
X59702004Y-35756703D01*
X59569974Y-35827275D01*
X59486334Y-35895917D01*
X59454250Y-35922248D01*
X59430452Y-35951246D01*
X59178180Y-36203519D01*
X58920434Y-36152250D01*
X58618066Y-36152250D01*
X58360320Y-36203519D01*
X58108053Y-35951252D01*
X58084250Y-35922248D01*
X57968525Y-35827275D01*
X57836496Y-35756703D01*
X57693235Y-35713246D01*
X57581582Y-35702249D01*
X57581571Y-35702249D01*
X57544249Y-35698573D01*
X57506927Y-35702249D01*
X54443573Y-35702249D01*
X54406250Y-35698573D01*
X54368927Y-35702249D01*
X54368918Y-35702249D01*
X54257265Y-35713246D01*
X54114004Y-35756703D01*
X53981974Y-35827275D01*
X53898334Y-35895917D01*
X53866250Y-35922248D01*
X53842452Y-35951246D01*
X53590180Y-36203519D01*
X53332434Y-36152250D01*
X53030066Y-36152250D01*
X52733507Y-36211239D01*
X52454155Y-36326951D01*
X52202745Y-36494938D01*
X52136306Y-36561377D01*
X52130752Y-36543070D01*
X52071787Y-36432756D01*
X51992435Y-36336065D01*
X51895744Y-36256713D01*
X51785430Y-36197748D01*
X51665732Y-36161438D01*
X51541250Y-36149178D01*
X49741250Y-36149178D01*
X49616768Y-36161438D01*
X49497070Y-36197748D01*
X49386756Y-36256713D01*
X49290065Y-36336065D01*
X49210713Y-36432756D01*
X49151748Y-36543070D01*
X49115438Y-36662768D01*
X49103178Y-36787250D01*
X48253250Y-36787250D01*
X48253250Y-29083529D01*
X48294851Y-28659250D01*
X49103178Y-28659250D01*
X49103178Y-30459250D01*
X49115438Y-30583732D01*
X49151748Y-30703430D01*
X49210713Y-30813744D01*
X49290065Y-30910435D01*
X49386756Y-30989787D01*
X49497070Y-31048752D01*
X49616768Y-31085062D01*
X49741250Y-31097322D01*
X51541250Y-31097322D01*
X51665732Y-31085062D01*
X51785430Y-31048752D01*
X51895744Y-30989787D01*
X51992435Y-30910435D01*
X52071787Y-30813744D01*
X52130752Y-30703430D01*
X52136306Y-30685123D01*
X52202745Y-30751562D01*
X52454155Y-30919549D01*
X52733507Y-31035261D01*
X53030066Y-31094250D01*
X53332434Y-31094250D01*
X53628993Y-31035261D01*
X53908345Y-30919549D01*
X54159755Y-30751562D01*
X54373562Y-30537755D01*
X54541549Y-30286345D01*
X54657261Y-30006993D01*
X54691178Y-29836480D01*
X54691178Y-30459250D01*
X54703438Y-30583732D01*
X54739748Y-30703430D01*
X54798713Y-30813744D01*
X54878065Y-30910435D01*
X54974756Y-30989787D01*
X55085070Y-31048752D01*
X55204768Y-31085062D01*
X55329250Y-31097322D01*
X57129250Y-31097322D01*
X57253732Y-31085062D01*
X57373430Y-31048752D01*
X57483744Y-30989787D01*
X57580435Y-30910435D01*
X57659787Y-30813744D01*
X57718752Y-30703430D01*
X57724306Y-30685123D01*
X57790745Y-30751562D01*
X58042155Y-30919549D01*
X58321507Y-31035261D01*
X58618066Y-31094250D01*
X58920434Y-31094250D01*
X59216993Y-31035261D01*
X59496345Y-30919549D01*
X59747755Y-30751562D01*
X59961562Y-30537755D01*
X60129549Y-30286345D01*
X60245261Y-30006993D01*
X60279178Y-29836480D01*
X60279178Y-30459250D01*
X60291438Y-30583732D01*
X60327748Y-30703430D01*
X60386713Y-30813744D01*
X60466065Y-30910435D01*
X60562756Y-30989787D01*
X60673070Y-31048752D01*
X60792768Y-31085062D01*
X60917250Y-31097322D01*
X62717250Y-31097322D01*
X62841732Y-31085062D01*
X62961430Y-31048752D01*
X63071744Y-30989787D01*
X63168435Y-30910435D01*
X63247787Y-30813744D01*
X63306752Y-30703430D01*
X63312306Y-30685123D01*
X63378745Y-30751562D01*
X63630155Y-30919549D01*
X63909507Y-31035261D01*
X64206066Y-31094250D01*
X64508434Y-31094250D01*
X64804993Y-31035261D01*
X65084345Y-30919549D01*
X65335755Y-30751562D01*
X65549562Y-30537755D01*
X65717549Y-30286345D01*
X65833261Y-30006993D01*
X65892250Y-29710434D01*
X65892250Y-29408066D01*
X65833261Y-29111507D01*
X65717549Y-28832155D01*
X65602018Y-28659250D01*
X71455178Y-28659250D01*
X71455178Y-30459250D01*
X71467438Y-30583732D01*
X71503748Y-30703430D01*
X71562713Y-30813744D01*
X71642065Y-30910435D01*
X71738756Y-30989787D01*
X71849070Y-31048752D01*
X71968768Y-31085062D01*
X72093250Y-31097322D01*
X73893250Y-31097322D01*
X74017732Y-31085062D01*
X74137430Y-31048752D01*
X74247744Y-30989787D01*
X74344435Y-30910435D01*
X74423787Y-30813744D01*
X74482752Y-30703430D01*
X74488306Y-30685123D01*
X74554745Y-30751562D01*
X74806155Y-30919549D01*
X75085507Y-31035261D01*
X75382066Y-31094250D01*
X75684434Y-31094250D01*
X75980993Y-31035261D01*
X76260345Y-30919549D01*
X76511755Y-30751562D01*
X76725562Y-30537755D01*
X76893549Y-30286345D01*
X77009261Y-30006993D01*
X77043178Y-29836480D01*
X77043178Y-30459250D01*
X77055438Y-30583732D01*
X77091748Y-30703430D01*
X77150713Y-30813744D01*
X77230065Y-30910435D01*
X77326756Y-30989787D01*
X77437070Y-31048752D01*
X77556768Y-31085062D01*
X77681250Y-31097322D01*
X79481250Y-31097322D01*
X79605732Y-31085062D01*
X79725430Y-31048752D01*
X79835744Y-30989787D01*
X79932435Y-30910435D01*
X80011787Y-30813744D01*
X80070752Y-30703430D01*
X80076306Y-30685123D01*
X80142745Y-30751562D01*
X80394155Y-30919549D01*
X80673507Y-31035261D01*
X80970066Y-31094250D01*
X81272434Y-31094250D01*
X81568993Y-31035261D01*
X81848345Y-30919549D01*
X82099755Y-30751562D01*
X82313562Y-30537755D01*
X82481549Y-30286345D01*
X82597261Y-30006993D01*
X82631178Y-29836480D01*
X82631178Y-30459250D01*
X82643438Y-30583732D01*
X82679748Y-30703430D01*
X82738713Y-30813744D01*
X82818065Y-30910435D01*
X82914756Y-30989787D01*
X83025070Y-31048752D01*
X83144768Y-31085062D01*
X83269250Y-31097322D01*
X85069250Y-31097322D01*
X85193732Y-31085062D01*
X85313430Y-31048752D01*
X85423744Y-30989787D01*
X85520435Y-30910435D01*
X85599787Y-30813744D01*
X85658752Y-30703430D01*
X85664306Y-30685123D01*
X85730745Y-30751562D01*
X85982155Y-30919549D01*
X86261507Y-31035261D01*
X86558066Y-31094250D01*
X86860434Y-31094250D01*
X87156993Y-31035261D01*
X87436345Y-30919549D01*
X87687755Y-30751562D01*
X87901562Y-30537755D01*
X88069549Y-30286345D01*
X88185261Y-30006993D01*
X88244250Y-29710434D01*
X88244250Y-29408066D01*
X88185261Y-29111507D01*
X88069549Y-28832155D01*
X87901562Y-28580745D01*
X87687755Y-28366938D01*
X87436345Y-28198951D01*
X87156993Y-28083239D01*
X86860434Y-28024250D01*
X86558066Y-28024250D01*
X86261507Y-28083239D01*
X85982155Y-28198951D01*
X85730745Y-28366938D01*
X85664306Y-28433377D01*
X85658752Y-28415070D01*
X85599787Y-28304756D01*
X85520435Y-28208065D01*
X85423744Y-28128713D01*
X85313430Y-28069748D01*
X85193732Y-28033438D01*
X85069250Y-28021178D01*
X83269250Y-28021178D01*
X83144768Y-28033438D01*
X83025070Y-28069748D01*
X82914756Y-28128713D01*
X82818065Y-28208065D01*
X82738713Y-28304756D01*
X82679748Y-28415070D01*
X82643438Y-28534768D01*
X82631178Y-28659250D01*
X82631178Y-29282020D01*
X82597261Y-29111507D01*
X82481549Y-28832155D01*
X82313562Y-28580745D01*
X82099755Y-28366938D01*
X81848345Y-28198951D01*
X81568993Y-28083239D01*
X81272434Y-28024250D01*
X80970066Y-28024250D01*
X80673507Y-28083239D01*
X80394155Y-28198951D01*
X80142745Y-28366938D01*
X80076306Y-28433377D01*
X80070752Y-28415070D01*
X80011787Y-28304756D01*
X79932435Y-28208065D01*
X79835744Y-28128713D01*
X79725430Y-28069748D01*
X79605732Y-28033438D01*
X79481250Y-28021178D01*
X77681250Y-28021178D01*
X77556768Y-28033438D01*
X77437070Y-28069748D01*
X77326756Y-28128713D01*
X77230065Y-28208065D01*
X77150713Y-28304756D01*
X77091748Y-28415070D01*
X77055438Y-28534768D01*
X77043178Y-28659250D01*
X77043178Y-29282020D01*
X77009261Y-29111507D01*
X76893549Y-28832155D01*
X76725562Y-28580745D01*
X76511755Y-28366938D01*
X76260345Y-28198951D01*
X75980993Y-28083239D01*
X75684434Y-28024250D01*
X75382066Y-28024250D01*
X75085507Y-28083239D01*
X74806155Y-28198951D01*
X74554745Y-28366938D01*
X74488306Y-28433377D01*
X74482752Y-28415070D01*
X74423787Y-28304756D01*
X74344435Y-28208065D01*
X74247744Y-28128713D01*
X74137430Y-28069748D01*
X74017732Y-28033438D01*
X73893250Y-28021178D01*
X72093250Y-28021178D01*
X71968768Y-28033438D01*
X71849070Y-28069748D01*
X71738756Y-28128713D01*
X71642065Y-28208065D01*
X71562713Y-28304756D01*
X71503748Y-28415070D01*
X71467438Y-28534768D01*
X71455178Y-28659250D01*
X65602018Y-28659250D01*
X65549562Y-28580745D01*
X65335755Y-28366938D01*
X65084345Y-28198951D01*
X64804993Y-28083239D01*
X64508434Y-28024250D01*
X64206066Y-28024250D01*
X63909507Y-28083239D01*
X63630155Y-28198951D01*
X63378745Y-28366938D01*
X63312306Y-28433377D01*
X63306752Y-28415070D01*
X63247787Y-28304756D01*
X63168435Y-28208065D01*
X63071744Y-28128713D01*
X62961430Y-28069748D01*
X62841732Y-28033438D01*
X62717250Y-28021178D01*
X60917250Y-28021178D01*
X60792768Y-28033438D01*
X60673070Y-28069748D01*
X60562756Y-28128713D01*
X60466065Y-28208065D01*
X60386713Y-28304756D01*
X60327748Y-28415070D01*
X60291438Y-28534768D01*
X60279178Y-28659250D01*
X60279178Y-29282020D01*
X60245261Y-29111507D01*
X60129549Y-28832155D01*
X59961562Y-28580745D01*
X59747755Y-28366938D01*
X59496345Y-28198951D01*
X59216993Y-28083239D01*
X58920434Y-28024250D01*
X58618066Y-28024250D01*
X58321507Y-28083239D01*
X58042155Y-28198951D01*
X57790745Y-28366938D01*
X57724306Y-28433377D01*
X57718752Y-28415070D01*
X57659787Y-28304756D01*
X57580435Y-28208065D01*
X57483744Y-28128713D01*
X57373430Y-28069748D01*
X57253732Y-28033438D01*
X57129250Y-28021178D01*
X55329250Y-28021178D01*
X55204768Y-28033438D01*
X55085070Y-28069748D01*
X54974756Y-28128713D01*
X54878065Y-28208065D01*
X54798713Y-28304756D01*
X54739748Y-28415070D01*
X54703438Y-28534768D01*
X54691178Y-28659250D01*
X54691178Y-29282020D01*
X54657261Y-29111507D01*
X54541549Y-28832155D01*
X54373562Y-28580745D01*
X54159755Y-28366938D01*
X53908345Y-28198951D01*
X53628993Y-28083239D01*
X53332434Y-28024250D01*
X53030066Y-28024250D01*
X52733507Y-28083239D01*
X52454155Y-28198951D01*
X52202745Y-28366938D01*
X52136306Y-28433377D01*
X52130752Y-28415070D01*
X52071787Y-28304756D01*
X51992435Y-28208065D01*
X51895744Y-28128713D01*
X51785430Y-28069748D01*
X51665732Y-28033438D01*
X51541250Y-28021178D01*
X49741250Y-28021178D01*
X49616768Y-28033438D01*
X49497070Y-28069748D01*
X49386756Y-28128713D01*
X49290065Y-28208065D01*
X49210713Y-28304756D01*
X49151748Y-28415070D01*
X49115438Y-28534768D01*
X49103178Y-28659250D01*
X48294851Y-28659250D01*
X48301834Y-28588034D01*
X48436362Y-28142457D01*
X48654870Y-27731504D01*
X48949038Y-27370816D01*
X49307669Y-27074131D01*
X49717088Y-26852759D01*
X50161715Y-26715124D01*
X50655261Y-26663250D01*
X102678971Y-26663250D01*
X103174466Y-26711834D01*
M02*
