M48
; DRILL file {KiCad (5.1.4-0-10_14)} date Thursday 02 April 2020 at 23:17:50
; FORMAT={-:-/ absolute / inch / decimal}
; #@! TF.CreationDate,2020-04-02T23:17:50+02:00
; #@! TF.GenerationSoftware,Kicad,Pcbnew,(5.1.4-0-10_14)
; #@! TF.FileFunction,Plated,1,2,PTH
FMAT,2
INCH
T1C0.0157
T2C0.0354
T3C0.0591
%
G90
G05
T1
X2.9438Y-1.9437
X3.1437Y-1.9437
X3.3438Y-1.9437
X3.5437Y-1.9437
X3.8438Y-1.8938
X3.8937Y-1.8938
X3.8938Y-1.5437
X3.9438Y-1.5437
X3.9438Y-1.8938
X3.9937Y-1.9437
X3.9937Y-1.9937
X3.9937Y-2.0437
X3.9937Y-2.0938
T2
X1.9937Y-1.4837
X2.2138Y-1.1638
X2.3137Y-1.1638
X2.0938Y-1.4837
X1.9937Y-1.1638
X2.0938Y-1.1638
X2.6538Y-1.4837
X2.7538Y-1.4837
X2.2138Y-1.8037
X2.3137Y-1.8037
X2.4337Y-1.8037
X2.5337Y-1.8037
X2.8737Y-1.4837
X2.9737Y-1.4837
X2.4337Y-1.1638
X2.5337Y-1.1638
X2.8737Y-1.1638
X2.9737Y-1.1638
X3.5337Y-1.8037
X3.6338Y-1.8037
X2.6538Y-1.8037
X2.7538Y-1.8037
X3.0938Y-1.4837
X3.1938Y-1.4837
X2.8737Y-1.8037
X2.9737Y-1.8037
X3.3137Y-1.4837
X3.4137Y-1.4837
X3.0938Y-1.8037
X3.1938Y-1.8037
X3.0938Y-1.1638
X3.1938Y-1.1638
X3.5337Y-1.4837
X3.6338Y-1.4837
X3.3137Y-1.8037
X3.4137Y-1.8037
X1.9937Y-1.8037
X2.0938Y-1.8037
X2.2138Y-1.4837
X2.3137Y-1.4837
X3.3137Y-1.1638
X3.4137Y-1.1638
X2.4337Y-1.4837
X2.5337Y-1.4837
T3
G00X2.9238Y-2.7537
M15
G01X2.9253Y-2.7309
M16
G05
G00X3.1281Y-2.7297
M15
G01X3.1757Y-2.655
M16
G05
G00X2.1768Y-2.7537
M15
G01X2.1783Y-2.7309
M16
G05
G00X2.3811Y-2.7297
M15
G01X2.4287Y-2.655
M16
G05
G00X3.6738Y-2.7537
M15
G01X3.6753Y-2.7309
M16
G05
G00X3.8781Y-2.7297
M15
G01X3.9257Y-2.655
M16
G05
T0
M30
