G04 #@! TF.GenerationSoftware,KiCad,Pcbnew,(5.1.4-0-10_14)*
G04 #@! TF.CreationDate,2020-04-02T23:17:02+02:00*
G04 #@! TF.ProjectId,threeboard,74687265-6562-46f6-9172-642e6b696361,rev?*
G04 #@! TF.SameCoordinates,Original*
G04 #@! TF.FileFunction,Paste,Bot*
G04 #@! TF.FilePolarity,Positive*
%FSLAX46Y46*%
G04 Gerber Fmt 4.6, Leading zero omitted, Abs format (unit mm)*
G04 Created by KiCad (PCBNEW (5.1.4-0-10_14)) date 2020-04-02 23:17:02*
%MOMM*%
%LPD*%
G04 APERTURE LIST*
%ADD10R,1.600000X1.800000*%
%ADD11R,0.400000X1.000000*%
%ADD12R,0.965200X0.482600*%
%ADD13R,2.362200X4.140200*%
%ADD14C,0.100000*%
%ADD15C,0.550000*%
%ADD16C,1.200000*%
%ADD17R,1.000000X0.700000*%
%ADD18C,2.500000*%
%ADD19C,1.150000*%
G04 APERTURE END LIST*
D10*
X90491250Y-28700000D03*
X99691250Y-28700000D03*
D11*
X96391250Y-31550000D03*
X95741250Y-31550000D03*
X95091250Y-31550000D03*
X94441250Y-31550000D03*
X93791250Y-31550000D03*
D12*
X63036450Y-53816250D03*
X63036450Y-52546250D03*
X63036450Y-51276250D03*
X63036450Y-50006250D03*
X68726050Y-50006250D03*
X68726050Y-51276250D03*
X68726050Y-52546250D03*
X68726050Y-53816250D03*
D13*
X65881250Y-51911250D03*
D12*
X52876450Y-53816250D03*
X52876450Y-52546250D03*
X52876450Y-51276250D03*
X52876450Y-50006250D03*
X58566050Y-50006250D03*
X58566050Y-51276250D03*
X58566050Y-52546250D03*
X58566050Y-53816250D03*
D13*
X55721250Y-51911250D03*
D14*
G36*
X104594727Y-55636912D02*
G01*
X104608075Y-55638892D01*
X104621164Y-55642171D01*
X104633869Y-55646717D01*
X104646067Y-55652486D01*
X104657641Y-55659423D01*
X104668479Y-55667461D01*
X104678477Y-55676523D01*
X104687539Y-55686521D01*
X104695577Y-55697359D01*
X104702514Y-55708933D01*
X104708283Y-55721131D01*
X104712829Y-55733836D01*
X104716108Y-55746925D01*
X104718088Y-55760273D01*
X104718750Y-55773750D01*
X104718750Y-56048750D01*
X104718088Y-56062227D01*
X104716108Y-56075575D01*
X104712829Y-56088664D01*
X104708283Y-56101369D01*
X104702514Y-56113567D01*
X104695577Y-56125141D01*
X104687539Y-56135979D01*
X104678477Y-56145977D01*
X104668479Y-56155039D01*
X104657641Y-56163077D01*
X104646067Y-56170014D01*
X104633869Y-56175783D01*
X104621164Y-56180329D01*
X104608075Y-56183608D01*
X104594727Y-56185588D01*
X104581250Y-56186250D01*
X103381250Y-56186250D01*
X103367773Y-56185588D01*
X103354425Y-56183608D01*
X103341336Y-56180329D01*
X103328631Y-56175783D01*
X103316433Y-56170014D01*
X103304859Y-56163077D01*
X103294021Y-56155039D01*
X103284023Y-56145977D01*
X103274961Y-56135979D01*
X103266923Y-56125141D01*
X103259986Y-56113567D01*
X103254217Y-56101369D01*
X103249671Y-56088664D01*
X103246392Y-56075575D01*
X103244412Y-56062227D01*
X103243750Y-56048750D01*
X103243750Y-55773750D01*
X103244412Y-55760273D01*
X103246392Y-55746925D01*
X103249671Y-55733836D01*
X103254217Y-55721131D01*
X103259986Y-55708933D01*
X103266923Y-55697359D01*
X103274961Y-55686521D01*
X103284023Y-55676523D01*
X103294021Y-55667461D01*
X103304859Y-55659423D01*
X103316433Y-55652486D01*
X103328631Y-55646717D01*
X103341336Y-55642171D01*
X103354425Y-55638892D01*
X103367773Y-55636912D01*
X103381250Y-55636250D01*
X104581250Y-55636250D01*
X104594727Y-55636912D01*
X104594727Y-55636912D01*
G37*
D15*
X103981250Y-55911250D03*
D14*
G36*
X104594727Y-54836912D02*
G01*
X104608075Y-54838892D01*
X104621164Y-54842171D01*
X104633869Y-54846717D01*
X104646067Y-54852486D01*
X104657641Y-54859423D01*
X104668479Y-54867461D01*
X104678477Y-54876523D01*
X104687539Y-54886521D01*
X104695577Y-54897359D01*
X104702514Y-54908933D01*
X104708283Y-54921131D01*
X104712829Y-54933836D01*
X104716108Y-54946925D01*
X104718088Y-54960273D01*
X104718750Y-54973750D01*
X104718750Y-55248750D01*
X104718088Y-55262227D01*
X104716108Y-55275575D01*
X104712829Y-55288664D01*
X104708283Y-55301369D01*
X104702514Y-55313567D01*
X104695577Y-55325141D01*
X104687539Y-55335979D01*
X104678477Y-55345977D01*
X104668479Y-55355039D01*
X104657641Y-55363077D01*
X104646067Y-55370014D01*
X104633869Y-55375783D01*
X104621164Y-55380329D01*
X104608075Y-55383608D01*
X104594727Y-55385588D01*
X104581250Y-55386250D01*
X103381250Y-55386250D01*
X103367773Y-55385588D01*
X103354425Y-55383608D01*
X103341336Y-55380329D01*
X103328631Y-55375783D01*
X103316433Y-55370014D01*
X103304859Y-55363077D01*
X103294021Y-55355039D01*
X103284023Y-55345977D01*
X103274961Y-55335979D01*
X103266923Y-55325141D01*
X103259986Y-55313567D01*
X103254217Y-55301369D01*
X103249671Y-55288664D01*
X103246392Y-55275575D01*
X103244412Y-55262227D01*
X103243750Y-55248750D01*
X103243750Y-54973750D01*
X103244412Y-54960273D01*
X103246392Y-54946925D01*
X103249671Y-54933836D01*
X103254217Y-54921131D01*
X103259986Y-54908933D01*
X103266923Y-54897359D01*
X103274961Y-54886521D01*
X103284023Y-54876523D01*
X103294021Y-54867461D01*
X103304859Y-54859423D01*
X103316433Y-54852486D01*
X103328631Y-54846717D01*
X103341336Y-54842171D01*
X103354425Y-54838892D01*
X103367773Y-54836912D01*
X103381250Y-54836250D01*
X104581250Y-54836250D01*
X104594727Y-54836912D01*
X104594727Y-54836912D01*
G37*
D15*
X103981250Y-55111250D03*
D14*
G36*
X104594727Y-54036912D02*
G01*
X104608075Y-54038892D01*
X104621164Y-54042171D01*
X104633869Y-54046717D01*
X104646067Y-54052486D01*
X104657641Y-54059423D01*
X104668479Y-54067461D01*
X104678477Y-54076523D01*
X104687539Y-54086521D01*
X104695577Y-54097359D01*
X104702514Y-54108933D01*
X104708283Y-54121131D01*
X104712829Y-54133836D01*
X104716108Y-54146925D01*
X104718088Y-54160273D01*
X104718750Y-54173750D01*
X104718750Y-54448750D01*
X104718088Y-54462227D01*
X104716108Y-54475575D01*
X104712829Y-54488664D01*
X104708283Y-54501369D01*
X104702514Y-54513567D01*
X104695577Y-54525141D01*
X104687539Y-54535979D01*
X104678477Y-54545977D01*
X104668479Y-54555039D01*
X104657641Y-54563077D01*
X104646067Y-54570014D01*
X104633869Y-54575783D01*
X104621164Y-54580329D01*
X104608075Y-54583608D01*
X104594727Y-54585588D01*
X104581250Y-54586250D01*
X103381250Y-54586250D01*
X103367773Y-54585588D01*
X103354425Y-54583608D01*
X103341336Y-54580329D01*
X103328631Y-54575783D01*
X103316433Y-54570014D01*
X103304859Y-54563077D01*
X103294021Y-54555039D01*
X103284023Y-54545977D01*
X103274961Y-54535979D01*
X103266923Y-54525141D01*
X103259986Y-54513567D01*
X103254217Y-54501369D01*
X103249671Y-54488664D01*
X103246392Y-54475575D01*
X103244412Y-54462227D01*
X103243750Y-54448750D01*
X103243750Y-54173750D01*
X103244412Y-54160273D01*
X103246392Y-54146925D01*
X103249671Y-54133836D01*
X103254217Y-54121131D01*
X103259986Y-54108933D01*
X103266923Y-54097359D01*
X103274961Y-54086521D01*
X103284023Y-54076523D01*
X103294021Y-54067461D01*
X103304859Y-54059423D01*
X103316433Y-54052486D01*
X103328631Y-54046717D01*
X103341336Y-54042171D01*
X103354425Y-54038892D01*
X103367773Y-54036912D01*
X103381250Y-54036250D01*
X104581250Y-54036250D01*
X104594727Y-54036912D01*
X104594727Y-54036912D01*
G37*
D15*
X103981250Y-54311250D03*
D14*
G36*
X104594727Y-53236912D02*
G01*
X104608075Y-53238892D01*
X104621164Y-53242171D01*
X104633869Y-53246717D01*
X104646067Y-53252486D01*
X104657641Y-53259423D01*
X104668479Y-53267461D01*
X104678477Y-53276523D01*
X104687539Y-53286521D01*
X104695577Y-53297359D01*
X104702514Y-53308933D01*
X104708283Y-53321131D01*
X104712829Y-53333836D01*
X104716108Y-53346925D01*
X104718088Y-53360273D01*
X104718750Y-53373750D01*
X104718750Y-53648750D01*
X104718088Y-53662227D01*
X104716108Y-53675575D01*
X104712829Y-53688664D01*
X104708283Y-53701369D01*
X104702514Y-53713567D01*
X104695577Y-53725141D01*
X104687539Y-53735979D01*
X104678477Y-53745977D01*
X104668479Y-53755039D01*
X104657641Y-53763077D01*
X104646067Y-53770014D01*
X104633869Y-53775783D01*
X104621164Y-53780329D01*
X104608075Y-53783608D01*
X104594727Y-53785588D01*
X104581250Y-53786250D01*
X103381250Y-53786250D01*
X103367773Y-53785588D01*
X103354425Y-53783608D01*
X103341336Y-53780329D01*
X103328631Y-53775783D01*
X103316433Y-53770014D01*
X103304859Y-53763077D01*
X103294021Y-53755039D01*
X103284023Y-53745977D01*
X103274961Y-53735979D01*
X103266923Y-53725141D01*
X103259986Y-53713567D01*
X103254217Y-53701369D01*
X103249671Y-53688664D01*
X103246392Y-53675575D01*
X103244412Y-53662227D01*
X103243750Y-53648750D01*
X103243750Y-53373750D01*
X103244412Y-53360273D01*
X103246392Y-53346925D01*
X103249671Y-53333836D01*
X103254217Y-53321131D01*
X103259986Y-53308933D01*
X103266923Y-53297359D01*
X103274961Y-53286521D01*
X103284023Y-53276523D01*
X103294021Y-53267461D01*
X103304859Y-53259423D01*
X103316433Y-53252486D01*
X103328631Y-53246717D01*
X103341336Y-53242171D01*
X103354425Y-53238892D01*
X103367773Y-53236912D01*
X103381250Y-53236250D01*
X104581250Y-53236250D01*
X104594727Y-53236912D01*
X104594727Y-53236912D01*
G37*
D15*
X103981250Y-53511250D03*
D14*
G36*
X104594727Y-52436912D02*
G01*
X104608075Y-52438892D01*
X104621164Y-52442171D01*
X104633869Y-52446717D01*
X104646067Y-52452486D01*
X104657641Y-52459423D01*
X104668479Y-52467461D01*
X104678477Y-52476523D01*
X104687539Y-52486521D01*
X104695577Y-52497359D01*
X104702514Y-52508933D01*
X104708283Y-52521131D01*
X104712829Y-52533836D01*
X104716108Y-52546925D01*
X104718088Y-52560273D01*
X104718750Y-52573750D01*
X104718750Y-52848750D01*
X104718088Y-52862227D01*
X104716108Y-52875575D01*
X104712829Y-52888664D01*
X104708283Y-52901369D01*
X104702514Y-52913567D01*
X104695577Y-52925141D01*
X104687539Y-52935979D01*
X104678477Y-52945977D01*
X104668479Y-52955039D01*
X104657641Y-52963077D01*
X104646067Y-52970014D01*
X104633869Y-52975783D01*
X104621164Y-52980329D01*
X104608075Y-52983608D01*
X104594727Y-52985588D01*
X104581250Y-52986250D01*
X103381250Y-52986250D01*
X103367773Y-52985588D01*
X103354425Y-52983608D01*
X103341336Y-52980329D01*
X103328631Y-52975783D01*
X103316433Y-52970014D01*
X103304859Y-52963077D01*
X103294021Y-52955039D01*
X103284023Y-52945977D01*
X103274961Y-52935979D01*
X103266923Y-52925141D01*
X103259986Y-52913567D01*
X103254217Y-52901369D01*
X103249671Y-52888664D01*
X103246392Y-52875575D01*
X103244412Y-52862227D01*
X103243750Y-52848750D01*
X103243750Y-52573750D01*
X103244412Y-52560273D01*
X103246392Y-52546925D01*
X103249671Y-52533836D01*
X103254217Y-52521131D01*
X103259986Y-52508933D01*
X103266923Y-52497359D01*
X103274961Y-52486521D01*
X103284023Y-52476523D01*
X103294021Y-52467461D01*
X103304859Y-52459423D01*
X103316433Y-52452486D01*
X103328631Y-52446717D01*
X103341336Y-52442171D01*
X103354425Y-52438892D01*
X103367773Y-52436912D01*
X103381250Y-52436250D01*
X104581250Y-52436250D01*
X104594727Y-52436912D01*
X104594727Y-52436912D01*
G37*
D15*
X103981250Y-52711250D03*
D14*
G36*
X104594727Y-51636912D02*
G01*
X104608075Y-51638892D01*
X104621164Y-51642171D01*
X104633869Y-51646717D01*
X104646067Y-51652486D01*
X104657641Y-51659423D01*
X104668479Y-51667461D01*
X104678477Y-51676523D01*
X104687539Y-51686521D01*
X104695577Y-51697359D01*
X104702514Y-51708933D01*
X104708283Y-51721131D01*
X104712829Y-51733836D01*
X104716108Y-51746925D01*
X104718088Y-51760273D01*
X104718750Y-51773750D01*
X104718750Y-52048750D01*
X104718088Y-52062227D01*
X104716108Y-52075575D01*
X104712829Y-52088664D01*
X104708283Y-52101369D01*
X104702514Y-52113567D01*
X104695577Y-52125141D01*
X104687539Y-52135979D01*
X104678477Y-52145977D01*
X104668479Y-52155039D01*
X104657641Y-52163077D01*
X104646067Y-52170014D01*
X104633869Y-52175783D01*
X104621164Y-52180329D01*
X104608075Y-52183608D01*
X104594727Y-52185588D01*
X104581250Y-52186250D01*
X103381250Y-52186250D01*
X103367773Y-52185588D01*
X103354425Y-52183608D01*
X103341336Y-52180329D01*
X103328631Y-52175783D01*
X103316433Y-52170014D01*
X103304859Y-52163077D01*
X103294021Y-52155039D01*
X103284023Y-52145977D01*
X103274961Y-52135979D01*
X103266923Y-52125141D01*
X103259986Y-52113567D01*
X103254217Y-52101369D01*
X103249671Y-52088664D01*
X103246392Y-52075575D01*
X103244412Y-52062227D01*
X103243750Y-52048750D01*
X103243750Y-51773750D01*
X103244412Y-51760273D01*
X103246392Y-51746925D01*
X103249671Y-51733836D01*
X103254217Y-51721131D01*
X103259986Y-51708933D01*
X103266923Y-51697359D01*
X103274961Y-51686521D01*
X103284023Y-51676523D01*
X103294021Y-51667461D01*
X103304859Y-51659423D01*
X103316433Y-51652486D01*
X103328631Y-51646717D01*
X103341336Y-51642171D01*
X103354425Y-51638892D01*
X103367773Y-51636912D01*
X103381250Y-51636250D01*
X104581250Y-51636250D01*
X104594727Y-51636912D01*
X104594727Y-51636912D01*
G37*
D15*
X103981250Y-51911250D03*
D14*
G36*
X104594727Y-50836912D02*
G01*
X104608075Y-50838892D01*
X104621164Y-50842171D01*
X104633869Y-50846717D01*
X104646067Y-50852486D01*
X104657641Y-50859423D01*
X104668479Y-50867461D01*
X104678477Y-50876523D01*
X104687539Y-50886521D01*
X104695577Y-50897359D01*
X104702514Y-50908933D01*
X104708283Y-50921131D01*
X104712829Y-50933836D01*
X104716108Y-50946925D01*
X104718088Y-50960273D01*
X104718750Y-50973750D01*
X104718750Y-51248750D01*
X104718088Y-51262227D01*
X104716108Y-51275575D01*
X104712829Y-51288664D01*
X104708283Y-51301369D01*
X104702514Y-51313567D01*
X104695577Y-51325141D01*
X104687539Y-51335979D01*
X104678477Y-51345977D01*
X104668479Y-51355039D01*
X104657641Y-51363077D01*
X104646067Y-51370014D01*
X104633869Y-51375783D01*
X104621164Y-51380329D01*
X104608075Y-51383608D01*
X104594727Y-51385588D01*
X104581250Y-51386250D01*
X103381250Y-51386250D01*
X103367773Y-51385588D01*
X103354425Y-51383608D01*
X103341336Y-51380329D01*
X103328631Y-51375783D01*
X103316433Y-51370014D01*
X103304859Y-51363077D01*
X103294021Y-51355039D01*
X103284023Y-51345977D01*
X103274961Y-51335979D01*
X103266923Y-51325141D01*
X103259986Y-51313567D01*
X103254217Y-51301369D01*
X103249671Y-51288664D01*
X103246392Y-51275575D01*
X103244412Y-51262227D01*
X103243750Y-51248750D01*
X103243750Y-50973750D01*
X103244412Y-50960273D01*
X103246392Y-50946925D01*
X103249671Y-50933836D01*
X103254217Y-50921131D01*
X103259986Y-50908933D01*
X103266923Y-50897359D01*
X103274961Y-50886521D01*
X103284023Y-50876523D01*
X103294021Y-50867461D01*
X103304859Y-50859423D01*
X103316433Y-50852486D01*
X103328631Y-50846717D01*
X103341336Y-50842171D01*
X103354425Y-50838892D01*
X103367773Y-50836912D01*
X103381250Y-50836250D01*
X104581250Y-50836250D01*
X104594727Y-50836912D01*
X104594727Y-50836912D01*
G37*
D15*
X103981250Y-51111250D03*
D14*
G36*
X104594727Y-50036912D02*
G01*
X104608075Y-50038892D01*
X104621164Y-50042171D01*
X104633869Y-50046717D01*
X104646067Y-50052486D01*
X104657641Y-50059423D01*
X104668479Y-50067461D01*
X104678477Y-50076523D01*
X104687539Y-50086521D01*
X104695577Y-50097359D01*
X104702514Y-50108933D01*
X104708283Y-50121131D01*
X104712829Y-50133836D01*
X104716108Y-50146925D01*
X104718088Y-50160273D01*
X104718750Y-50173750D01*
X104718750Y-50448750D01*
X104718088Y-50462227D01*
X104716108Y-50475575D01*
X104712829Y-50488664D01*
X104708283Y-50501369D01*
X104702514Y-50513567D01*
X104695577Y-50525141D01*
X104687539Y-50535979D01*
X104678477Y-50545977D01*
X104668479Y-50555039D01*
X104657641Y-50563077D01*
X104646067Y-50570014D01*
X104633869Y-50575783D01*
X104621164Y-50580329D01*
X104608075Y-50583608D01*
X104594727Y-50585588D01*
X104581250Y-50586250D01*
X103381250Y-50586250D01*
X103367773Y-50585588D01*
X103354425Y-50583608D01*
X103341336Y-50580329D01*
X103328631Y-50575783D01*
X103316433Y-50570014D01*
X103304859Y-50563077D01*
X103294021Y-50555039D01*
X103284023Y-50545977D01*
X103274961Y-50535979D01*
X103266923Y-50525141D01*
X103259986Y-50513567D01*
X103254217Y-50501369D01*
X103249671Y-50488664D01*
X103246392Y-50475575D01*
X103244412Y-50462227D01*
X103243750Y-50448750D01*
X103243750Y-50173750D01*
X103244412Y-50160273D01*
X103246392Y-50146925D01*
X103249671Y-50133836D01*
X103254217Y-50121131D01*
X103259986Y-50108933D01*
X103266923Y-50097359D01*
X103274961Y-50086521D01*
X103284023Y-50076523D01*
X103294021Y-50067461D01*
X103304859Y-50059423D01*
X103316433Y-50052486D01*
X103328631Y-50046717D01*
X103341336Y-50042171D01*
X103354425Y-50038892D01*
X103367773Y-50036912D01*
X103381250Y-50036250D01*
X104581250Y-50036250D01*
X104594727Y-50036912D01*
X104594727Y-50036912D01*
G37*
D15*
X103981250Y-50311250D03*
D14*
G36*
X104594727Y-49236912D02*
G01*
X104608075Y-49238892D01*
X104621164Y-49242171D01*
X104633869Y-49246717D01*
X104646067Y-49252486D01*
X104657641Y-49259423D01*
X104668479Y-49267461D01*
X104678477Y-49276523D01*
X104687539Y-49286521D01*
X104695577Y-49297359D01*
X104702514Y-49308933D01*
X104708283Y-49321131D01*
X104712829Y-49333836D01*
X104716108Y-49346925D01*
X104718088Y-49360273D01*
X104718750Y-49373750D01*
X104718750Y-49648750D01*
X104718088Y-49662227D01*
X104716108Y-49675575D01*
X104712829Y-49688664D01*
X104708283Y-49701369D01*
X104702514Y-49713567D01*
X104695577Y-49725141D01*
X104687539Y-49735979D01*
X104678477Y-49745977D01*
X104668479Y-49755039D01*
X104657641Y-49763077D01*
X104646067Y-49770014D01*
X104633869Y-49775783D01*
X104621164Y-49780329D01*
X104608075Y-49783608D01*
X104594727Y-49785588D01*
X104581250Y-49786250D01*
X103381250Y-49786250D01*
X103367773Y-49785588D01*
X103354425Y-49783608D01*
X103341336Y-49780329D01*
X103328631Y-49775783D01*
X103316433Y-49770014D01*
X103304859Y-49763077D01*
X103294021Y-49755039D01*
X103284023Y-49745977D01*
X103274961Y-49735979D01*
X103266923Y-49725141D01*
X103259986Y-49713567D01*
X103254217Y-49701369D01*
X103249671Y-49688664D01*
X103246392Y-49675575D01*
X103244412Y-49662227D01*
X103243750Y-49648750D01*
X103243750Y-49373750D01*
X103244412Y-49360273D01*
X103246392Y-49346925D01*
X103249671Y-49333836D01*
X103254217Y-49321131D01*
X103259986Y-49308933D01*
X103266923Y-49297359D01*
X103274961Y-49286521D01*
X103284023Y-49276523D01*
X103294021Y-49267461D01*
X103304859Y-49259423D01*
X103316433Y-49252486D01*
X103328631Y-49246717D01*
X103341336Y-49242171D01*
X103354425Y-49238892D01*
X103367773Y-49236912D01*
X103381250Y-49236250D01*
X104581250Y-49236250D01*
X104594727Y-49236912D01*
X104594727Y-49236912D01*
G37*
D15*
X103981250Y-49511250D03*
D14*
G36*
X104594727Y-48436912D02*
G01*
X104608075Y-48438892D01*
X104621164Y-48442171D01*
X104633869Y-48446717D01*
X104646067Y-48452486D01*
X104657641Y-48459423D01*
X104668479Y-48467461D01*
X104678477Y-48476523D01*
X104687539Y-48486521D01*
X104695577Y-48497359D01*
X104702514Y-48508933D01*
X104708283Y-48521131D01*
X104712829Y-48533836D01*
X104716108Y-48546925D01*
X104718088Y-48560273D01*
X104718750Y-48573750D01*
X104718750Y-48848750D01*
X104718088Y-48862227D01*
X104716108Y-48875575D01*
X104712829Y-48888664D01*
X104708283Y-48901369D01*
X104702514Y-48913567D01*
X104695577Y-48925141D01*
X104687539Y-48935979D01*
X104678477Y-48945977D01*
X104668479Y-48955039D01*
X104657641Y-48963077D01*
X104646067Y-48970014D01*
X104633869Y-48975783D01*
X104621164Y-48980329D01*
X104608075Y-48983608D01*
X104594727Y-48985588D01*
X104581250Y-48986250D01*
X103381250Y-48986250D01*
X103367773Y-48985588D01*
X103354425Y-48983608D01*
X103341336Y-48980329D01*
X103328631Y-48975783D01*
X103316433Y-48970014D01*
X103304859Y-48963077D01*
X103294021Y-48955039D01*
X103284023Y-48945977D01*
X103274961Y-48935979D01*
X103266923Y-48925141D01*
X103259986Y-48913567D01*
X103254217Y-48901369D01*
X103249671Y-48888664D01*
X103246392Y-48875575D01*
X103244412Y-48862227D01*
X103243750Y-48848750D01*
X103243750Y-48573750D01*
X103244412Y-48560273D01*
X103246392Y-48546925D01*
X103249671Y-48533836D01*
X103254217Y-48521131D01*
X103259986Y-48508933D01*
X103266923Y-48497359D01*
X103274961Y-48486521D01*
X103284023Y-48476523D01*
X103294021Y-48467461D01*
X103304859Y-48459423D01*
X103316433Y-48452486D01*
X103328631Y-48446717D01*
X103341336Y-48442171D01*
X103354425Y-48438892D01*
X103367773Y-48436912D01*
X103381250Y-48436250D01*
X104581250Y-48436250D01*
X104594727Y-48436912D01*
X104594727Y-48436912D01*
G37*
D15*
X103981250Y-48711250D03*
D14*
G36*
X104594727Y-47636912D02*
G01*
X104608075Y-47638892D01*
X104621164Y-47642171D01*
X104633869Y-47646717D01*
X104646067Y-47652486D01*
X104657641Y-47659423D01*
X104668479Y-47667461D01*
X104678477Y-47676523D01*
X104687539Y-47686521D01*
X104695577Y-47697359D01*
X104702514Y-47708933D01*
X104708283Y-47721131D01*
X104712829Y-47733836D01*
X104716108Y-47746925D01*
X104718088Y-47760273D01*
X104718750Y-47773750D01*
X104718750Y-48048750D01*
X104718088Y-48062227D01*
X104716108Y-48075575D01*
X104712829Y-48088664D01*
X104708283Y-48101369D01*
X104702514Y-48113567D01*
X104695577Y-48125141D01*
X104687539Y-48135979D01*
X104678477Y-48145977D01*
X104668479Y-48155039D01*
X104657641Y-48163077D01*
X104646067Y-48170014D01*
X104633869Y-48175783D01*
X104621164Y-48180329D01*
X104608075Y-48183608D01*
X104594727Y-48185588D01*
X104581250Y-48186250D01*
X103381250Y-48186250D01*
X103367773Y-48185588D01*
X103354425Y-48183608D01*
X103341336Y-48180329D01*
X103328631Y-48175783D01*
X103316433Y-48170014D01*
X103304859Y-48163077D01*
X103294021Y-48155039D01*
X103284023Y-48145977D01*
X103274961Y-48135979D01*
X103266923Y-48125141D01*
X103259986Y-48113567D01*
X103254217Y-48101369D01*
X103249671Y-48088664D01*
X103246392Y-48075575D01*
X103244412Y-48062227D01*
X103243750Y-48048750D01*
X103243750Y-47773750D01*
X103244412Y-47760273D01*
X103246392Y-47746925D01*
X103249671Y-47733836D01*
X103254217Y-47721131D01*
X103259986Y-47708933D01*
X103266923Y-47697359D01*
X103274961Y-47686521D01*
X103284023Y-47676523D01*
X103294021Y-47667461D01*
X103304859Y-47659423D01*
X103316433Y-47652486D01*
X103328631Y-47646717D01*
X103341336Y-47642171D01*
X103354425Y-47638892D01*
X103367773Y-47636912D01*
X103381250Y-47636250D01*
X104581250Y-47636250D01*
X104594727Y-47636912D01*
X104594727Y-47636912D01*
G37*
D15*
X103981250Y-47911250D03*
D14*
G36*
X102469727Y-45511912D02*
G01*
X102483075Y-45513892D01*
X102496164Y-45517171D01*
X102508869Y-45521717D01*
X102521067Y-45527486D01*
X102532641Y-45534423D01*
X102543479Y-45542461D01*
X102553477Y-45551523D01*
X102562539Y-45561521D01*
X102570577Y-45572359D01*
X102577514Y-45583933D01*
X102583283Y-45596131D01*
X102587829Y-45608836D01*
X102591108Y-45621925D01*
X102593088Y-45635273D01*
X102593750Y-45648750D01*
X102593750Y-46848750D01*
X102593088Y-46862227D01*
X102591108Y-46875575D01*
X102587829Y-46888664D01*
X102583283Y-46901369D01*
X102577514Y-46913567D01*
X102570577Y-46925141D01*
X102562539Y-46935979D01*
X102553477Y-46945977D01*
X102543479Y-46955039D01*
X102532641Y-46963077D01*
X102521067Y-46970014D01*
X102508869Y-46975783D01*
X102496164Y-46980329D01*
X102483075Y-46983608D01*
X102469727Y-46985588D01*
X102456250Y-46986250D01*
X102181250Y-46986250D01*
X102167773Y-46985588D01*
X102154425Y-46983608D01*
X102141336Y-46980329D01*
X102128631Y-46975783D01*
X102116433Y-46970014D01*
X102104859Y-46963077D01*
X102094021Y-46955039D01*
X102084023Y-46945977D01*
X102074961Y-46935979D01*
X102066923Y-46925141D01*
X102059986Y-46913567D01*
X102054217Y-46901369D01*
X102049671Y-46888664D01*
X102046392Y-46875575D01*
X102044412Y-46862227D01*
X102043750Y-46848750D01*
X102043750Y-45648750D01*
X102044412Y-45635273D01*
X102046392Y-45621925D01*
X102049671Y-45608836D01*
X102054217Y-45596131D01*
X102059986Y-45583933D01*
X102066923Y-45572359D01*
X102074961Y-45561521D01*
X102084023Y-45551523D01*
X102094021Y-45542461D01*
X102104859Y-45534423D01*
X102116433Y-45527486D01*
X102128631Y-45521717D01*
X102141336Y-45517171D01*
X102154425Y-45513892D01*
X102167773Y-45511912D01*
X102181250Y-45511250D01*
X102456250Y-45511250D01*
X102469727Y-45511912D01*
X102469727Y-45511912D01*
G37*
D15*
X102318750Y-46248750D03*
D14*
G36*
X101669727Y-45511912D02*
G01*
X101683075Y-45513892D01*
X101696164Y-45517171D01*
X101708869Y-45521717D01*
X101721067Y-45527486D01*
X101732641Y-45534423D01*
X101743479Y-45542461D01*
X101753477Y-45551523D01*
X101762539Y-45561521D01*
X101770577Y-45572359D01*
X101777514Y-45583933D01*
X101783283Y-45596131D01*
X101787829Y-45608836D01*
X101791108Y-45621925D01*
X101793088Y-45635273D01*
X101793750Y-45648750D01*
X101793750Y-46848750D01*
X101793088Y-46862227D01*
X101791108Y-46875575D01*
X101787829Y-46888664D01*
X101783283Y-46901369D01*
X101777514Y-46913567D01*
X101770577Y-46925141D01*
X101762539Y-46935979D01*
X101753477Y-46945977D01*
X101743479Y-46955039D01*
X101732641Y-46963077D01*
X101721067Y-46970014D01*
X101708869Y-46975783D01*
X101696164Y-46980329D01*
X101683075Y-46983608D01*
X101669727Y-46985588D01*
X101656250Y-46986250D01*
X101381250Y-46986250D01*
X101367773Y-46985588D01*
X101354425Y-46983608D01*
X101341336Y-46980329D01*
X101328631Y-46975783D01*
X101316433Y-46970014D01*
X101304859Y-46963077D01*
X101294021Y-46955039D01*
X101284023Y-46945977D01*
X101274961Y-46935979D01*
X101266923Y-46925141D01*
X101259986Y-46913567D01*
X101254217Y-46901369D01*
X101249671Y-46888664D01*
X101246392Y-46875575D01*
X101244412Y-46862227D01*
X101243750Y-46848750D01*
X101243750Y-45648750D01*
X101244412Y-45635273D01*
X101246392Y-45621925D01*
X101249671Y-45608836D01*
X101254217Y-45596131D01*
X101259986Y-45583933D01*
X101266923Y-45572359D01*
X101274961Y-45561521D01*
X101284023Y-45551523D01*
X101294021Y-45542461D01*
X101304859Y-45534423D01*
X101316433Y-45527486D01*
X101328631Y-45521717D01*
X101341336Y-45517171D01*
X101354425Y-45513892D01*
X101367773Y-45511912D01*
X101381250Y-45511250D01*
X101656250Y-45511250D01*
X101669727Y-45511912D01*
X101669727Y-45511912D01*
G37*
D15*
X101518750Y-46248750D03*
D14*
G36*
X100869727Y-45511912D02*
G01*
X100883075Y-45513892D01*
X100896164Y-45517171D01*
X100908869Y-45521717D01*
X100921067Y-45527486D01*
X100932641Y-45534423D01*
X100943479Y-45542461D01*
X100953477Y-45551523D01*
X100962539Y-45561521D01*
X100970577Y-45572359D01*
X100977514Y-45583933D01*
X100983283Y-45596131D01*
X100987829Y-45608836D01*
X100991108Y-45621925D01*
X100993088Y-45635273D01*
X100993750Y-45648750D01*
X100993750Y-46848750D01*
X100993088Y-46862227D01*
X100991108Y-46875575D01*
X100987829Y-46888664D01*
X100983283Y-46901369D01*
X100977514Y-46913567D01*
X100970577Y-46925141D01*
X100962539Y-46935979D01*
X100953477Y-46945977D01*
X100943479Y-46955039D01*
X100932641Y-46963077D01*
X100921067Y-46970014D01*
X100908869Y-46975783D01*
X100896164Y-46980329D01*
X100883075Y-46983608D01*
X100869727Y-46985588D01*
X100856250Y-46986250D01*
X100581250Y-46986250D01*
X100567773Y-46985588D01*
X100554425Y-46983608D01*
X100541336Y-46980329D01*
X100528631Y-46975783D01*
X100516433Y-46970014D01*
X100504859Y-46963077D01*
X100494021Y-46955039D01*
X100484023Y-46945977D01*
X100474961Y-46935979D01*
X100466923Y-46925141D01*
X100459986Y-46913567D01*
X100454217Y-46901369D01*
X100449671Y-46888664D01*
X100446392Y-46875575D01*
X100444412Y-46862227D01*
X100443750Y-46848750D01*
X100443750Y-45648750D01*
X100444412Y-45635273D01*
X100446392Y-45621925D01*
X100449671Y-45608836D01*
X100454217Y-45596131D01*
X100459986Y-45583933D01*
X100466923Y-45572359D01*
X100474961Y-45561521D01*
X100484023Y-45551523D01*
X100494021Y-45542461D01*
X100504859Y-45534423D01*
X100516433Y-45527486D01*
X100528631Y-45521717D01*
X100541336Y-45517171D01*
X100554425Y-45513892D01*
X100567773Y-45511912D01*
X100581250Y-45511250D01*
X100856250Y-45511250D01*
X100869727Y-45511912D01*
X100869727Y-45511912D01*
G37*
D15*
X100718750Y-46248750D03*
D14*
G36*
X100069727Y-45511912D02*
G01*
X100083075Y-45513892D01*
X100096164Y-45517171D01*
X100108869Y-45521717D01*
X100121067Y-45527486D01*
X100132641Y-45534423D01*
X100143479Y-45542461D01*
X100153477Y-45551523D01*
X100162539Y-45561521D01*
X100170577Y-45572359D01*
X100177514Y-45583933D01*
X100183283Y-45596131D01*
X100187829Y-45608836D01*
X100191108Y-45621925D01*
X100193088Y-45635273D01*
X100193750Y-45648750D01*
X100193750Y-46848750D01*
X100193088Y-46862227D01*
X100191108Y-46875575D01*
X100187829Y-46888664D01*
X100183283Y-46901369D01*
X100177514Y-46913567D01*
X100170577Y-46925141D01*
X100162539Y-46935979D01*
X100153477Y-46945977D01*
X100143479Y-46955039D01*
X100132641Y-46963077D01*
X100121067Y-46970014D01*
X100108869Y-46975783D01*
X100096164Y-46980329D01*
X100083075Y-46983608D01*
X100069727Y-46985588D01*
X100056250Y-46986250D01*
X99781250Y-46986250D01*
X99767773Y-46985588D01*
X99754425Y-46983608D01*
X99741336Y-46980329D01*
X99728631Y-46975783D01*
X99716433Y-46970014D01*
X99704859Y-46963077D01*
X99694021Y-46955039D01*
X99684023Y-46945977D01*
X99674961Y-46935979D01*
X99666923Y-46925141D01*
X99659986Y-46913567D01*
X99654217Y-46901369D01*
X99649671Y-46888664D01*
X99646392Y-46875575D01*
X99644412Y-46862227D01*
X99643750Y-46848750D01*
X99643750Y-45648750D01*
X99644412Y-45635273D01*
X99646392Y-45621925D01*
X99649671Y-45608836D01*
X99654217Y-45596131D01*
X99659986Y-45583933D01*
X99666923Y-45572359D01*
X99674961Y-45561521D01*
X99684023Y-45551523D01*
X99694021Y-45542461D01*
X99704859Y-45534423D01*
X99716433Y-45527486D01*
X99728631Y-45521717D01*
X99741336Y-45517171D01*
X99754425Y-45513892D01*
X99767773Y-45511912D01*
X99781250Y-45511250D01*
X100056250Y-45511250D01*
X100069727Y-45511912D01*
X100069727Y-45511912D01*
G37*
D15*
X99918750Y-46248750D03*
D14*
G36*
X99269727Y-45511912D02*
G01*
X99283075Y-45513892D01*
X99296164Y-45517171D01*
X99308869Y-45521717D01*
X99321067Y-45527486D01*
X99332641Y-45534423D01*
X99343479Y-45542461D01*
X99353477Y-45551523D01*
X99362539Y-45561521D01*
X99370577Y-45572359D01*
X99377514Y-45583933D01*
X99383283Y-45596131D01*
X99387829Y-45608836D01*
X99391108Y-45621925D01*
X99393088Y-45635273D01*
X99393750Y-45648750D01*
X99393750Y-46848750D01*
X99393088Y-46862227D01*
X99391108Y-46875575D01*
X99387829Y-46888664D01*
X99383283Y-46901369D01*
X99377514Y-46913567D01*
X99370577Y-46925141D01*
X99362539Y-46935979D01*
X99353477Y-46945977D01*
X99343479Y-46955039D01*
X99332641Y-46963077D01*
X99321067Y-46970014D01*
X99308869Y-46975783D01*
X99296164Y-46980329D01*
X99283075Y-46983608D01*
X99269727Y-46985588D01*
X99256250Y-46986250D01*
X98981250Y-46986250D01*
X98967773Y-46985588D01*
X98954425Y-46983608D01*
X98941336Y-46980329D01*
X98928631Y-46975783D01*
X98916433Y-46970014D01*
X98904859Y-46963077D01*
X98894021Y-46955039D01*
X98884023Y-46945977D01*
X98874961Y-46935979D01*
X98866923Y-46925141D01*
X98859986Y-46913567D01*
X98854217Y-46901369D01*
X98849671Y-46888664D01*
X98846392Y-46875575D01*
X98844412Y-46862227D01*
X98843750Y-46848750D01*
X98843750Y-45648750D01*
X98844412Y-45635273D01*
X98846392Y-45621925D01*
X98849671Y-45608836D01*
X98854217Y-45596131D01*
X98859986Y-45583933D01*
X98866923Y-45572359D01*
X98874961Y-45561521D01*
X98884023Y-45551523D01*
X98894021Y-45542461D01*
X98904859Y-45534423D01*
X98916433Y-45527486D01*
X98928631Y-45521717D01*
X98941336Y-45517171D01*
X98954425Y-45513892D01*
X98967773Y-45511912D01*
X98981250Y-45511250D01*
X99256250Y-45511250D01*
X99269727Y-45511912D01*
X99269727Y-45511912D01*
G37*
D15*
X99118750Y-46248750D03*
D14*
G36*
X98469727Y-45511912D02*
G01*
X98483075Y-45513892D01*
X98496164Y-45517171D01*
X98508869Y-45521717D01*
X98521067Y-45527486D01*
X98532641Y-45534423D01*
X98543479Y-45542461D01*
X98553477Y-45551523D01*
X98562539Y-45561521D01*
X98570577Y-45572359D01*
X98577514Y-45583933D01*
X98583283Y-45596131D01*
X98587829Y-45608836D01*
X98591108Y-45621925D01*
X98593088Y-45635273D01*
X98593750Y-45648750D01*
X98593750Y-46848750D01*
X98593088Y-46862227D01*
X98591108Y-46875575D01*
X98587829Y-46888664D01*
X98583283Y-46901369D01*
X98577514Y-46913567D01*
X98570577Y-46925141D01*
X98562539Y-46935979D01*
X98553477Y-46945977D01*
X98543479Y-46955039D01*
X98532641Y-46963077D01*
X98521067Y-46970014D01*
X98508869Y-46975783D01*
X98496164Y-46980329D01*
X98483075Y-46983608D01*
X98469727Y-46985588D01*
X98456250Y-46986250D01*
X98181250Y-46986250D01*
X98167773Y-46985588D01*
X98154425Y-46983608D01*
X98141336Y-46980329D01*
X98128631Y-46975783D01*
X98116433Y-46970014D01*
X98104859Y-46963077D01*
X98094021Y-46955039D01*
X98084023Y-46945977D01*
X98074961Y-46935979D01*
X98066923Y-46925141D01*
X98059986Y-46913567D01*
X98054217Y-46901369D01*
X98049671Y-46888664D01*
X98046392Y-46875575D01*
X98044412Y-46862227D01*
X98043750Y-46848750D01*
X98043750Y-45648750D01*
X98044412Y-45635273D01*
X98046392Y-45621925D01*
X98049671Y-45608836D01*
X98054217Y-45596131D01*
X98059986Y-45583933D01*
X98066923Y-45572359D01*
X98074961Y-45561521D01*
X98084023Y-45551523D01*
X98094021Y-45542461D01*
X98104859Y-45534423D01*
X98116433Y-45527486D01*
X98128631Y-45521717D01*
X98141336Y-45517171D01*
X98154425Y-45513892D01*
X98167773Y-45511912D01*
X98181250Y-45511250D01*
X98456250Y-45511250D01*
X98469727Y-45511912D01*
X98469727Y-45511912D01*
G37*
D15*
X98318750Y-46248750D03*
D14*
G36*
X97669727Y-45511912D02*
G01*
X97683075Y-45513892D01*
X97696164Y-45517171D01*
X97708869Y-45521717D01*
X97721067Y-45527486D01*
X97732641Y-45534423D01*
X97743479Y-45542461D01*
X97753477Y-45551523D01*
X97762539Y-45561521D01*
X97770577Y-45572359D01*
X97777514Y-45583933D01*
X97783283Y-45596131D01*
X97787829Y-45608836D01*
X97791108Y-45621925D01*
X97793088Y-45635273D01*
X97793750Y-45648750D01*
X97793750Y-46848750D01*
X97793088Y-46862227D01*
X97791108Y-46875575D01*
X97787829Y-46888664D01*
X97783283Y-46901369D01*
X97777514Y-46913567D01*
X97770577Y-46925141D01*
X97762539Y-46935979D01*
X97753477Y-46945977D01*
X97743479Y-46955039D01*
X97732641Y-46963077D01*
X97721067Y-46970014D01*
X97708869Y-46975783D01*
X97696164Y-46980329D01*
X97683075Y-46983608D01*
X97669727Y-46985588D01*
X97656250Y-46986250D01*
X97381250Y-46986250D01*
X97367773Y-46985588D01*
X97354425Y-46983608D01*
X97341336Y-46980329D01*
X97328631Y-46975783D01*
X97316433Y-46970014D01*
X97304859Y-46963077D01*
X97294021Y-46955039D01*
X97284023Y-46945977D01*
X97274961Y-46935979D01*
X97266923Y-46925141D01*
X97259986Y-46913567D01*
X97254217Y-46901369D01*
X97249671Y-46888664D01*
X97246392Y-46875575D01*
X97244412Y-46862227D01*
X97243750Y-46848750D01*
X97243750Y-45648750D01*
X97244412Y-45635273D01*
X97246392Y-45621925D01*
X97249671Y-45608836D01*
X97254217Y-45596131D01*
X97259986Y-45583933D01*
X97266923Y-45572359D01*
X97274961Y-45561521D01*
X97284023Y-45551523D01*
X97294021Y-45542461D01*
X97304859Y-45534423D01*
X97316433Y-45527486D01*
X97328631Y-45521717D01*
X97341336Y-45517171D01*
X97354425Y-45513892D01*
X97367773Y-45511912D01*
X97381250Y-45511250D01*
X97656250Y-45511250D01*
X97669727Y-45511912D01*
X97669727Y-45511912D01*
G37*
D15*
X97518750Y-46248750D03*
D14*
G36*
X96869727Y-45511912D02*
G01*
X96883075Y-45513892D01*
X96896164Y-45517171D01*
X96908869Y-45521717D01*
X96921067Y-45527486D01*
X96932641Y-45534423D01*
X96943479Y-45542461D01*
X96953477Y-45551523D01*
X96962539Y-45561521D01*
X96970577Y-45572359D01*
X96977514Y-45583933D01*
X96983283Y-45596131D01*
X96987829Y-45608836D01*
X96991108Y-45621925D01*
X96993088Y-45635273D01*
X96993750Y-45648750D01*
X96993750Y-46848750D01*
X96993088Y-46862227D01*
X96991108Y-46875575D01*
X96987829Y-46888664D01*
X96983283Y-46901369D01*
X96977514Y-46913567D01*
X96970577Y-46925141D01*
X96962539Y-46935979D01*
X96953477Y-46945977D01*
X96943479Y-46955039D01*
X96932641Y-46963077D01*
X96921067Y-46970014D01*
X96908869Y-46975783D01*
X96896164Y-46980329D01*
X96883075Y-46983608D01*
X96869727Y-46985588D01*
X96856250Y-46986250D01*
X96581250Y-46986250D01*
X96567773Y-46985588D01*
X96554425Y-46983608D01*
X96541336Y-46980329D01*
X96528631Y-46975783D01*
X96516433Y-46970014D01*
X96504859Y-46963077D01*
X96494021Y-46955039D01*
X96484023Y-46945977D01*
X96474961Y-46935979D01*
X96466923Y-46925141D01*
X96459986Y-46913567D01*
X96454217Y-46901369D01*
X96449671Y-46888664D01*
X96446392Y-46875575D01*
X96444412Y-46862227D01*
X96443750Y-46848750D01*
X96443750Y-45648750D01*
X96444412Y-45635273D01*
X96446392Y-45621925D01*
X96449671Y-45608836D01*
X96454217Y-45596131D01*
X96459986Y-45583933D01*
X96466923Y-45572359D01*
X96474961Y-45561521D01*
X96484023Y-45551523D01*
X96494021Y-45542461D01*
X96504859Y-45534423D01*
X96516433Y-45527486D01*
X96528631Y-45521717D01*
X96541336Y-45517171D01*
X96554425Y-45513892D01*
X96567773Y-45511912D01*
X96581250Y-45511250D01*
X96856250Y-45511250D01*
X96869727Y-45511912D01*
X96869727Y-45511912D01*
G37*
D15*
X96718750Y-46248750D03*
D14*
G36*
X96069727Y-45511912D02*
G01*
X96083075Y-45513892D01*
X96096164Y-45517171D01*
X96108869Y-45521717D01*
X96121067Y-45527486D01*
X96132641Y-45534423D01*
X96143479Y-45542461D01*
X96153477Y-45551523D01*
X96162539Y-45561521D01*
X96170577Y-45572359D01*
X96177514Y-45583933D01*
X96183283Y-45596131D01*
X96187829Y-45608836D01*
X96191108Y-45621925D01*
X96193088Y-45635273D01*
X96193750Y-45648750D01*
X96193750Y-46848750D01*
X96193088Y-46862227D01*
X96191108Y-46875575D01*
X96187829Y-46888664D01*
X96183283Y-46901369D01*
X96177514Y-46913567D01*
X96170577Y-46925141D01*
X96162539Y-46935979D01*
X96153477Y-46945977D01*
X96143479Y-46955039D01*
X96132641Y-46963077D01*
X96121067Y-46970014D01*
X96108869Y-46975783D01*
X96096164Y-46980329D01*
X96083075Y-46983608D01*
X96069727Y-46985588D01*
X96056250Y-46986250D01*
X95781250Y-46986250D01*
X95767773Y-46985588D01*
X95754425Y-46983608D01*
X95741336Y-46980329D01*
X95728631Y-46975783D01*
X95716433Y-46970014D01*
X95704859Y-46963077D01*
X95694021Y-46955039D01*
X95684023Y-46945977D01*
X95674961Y-46935979D01*
X95666923Y-46925141D01*
X95659986Y-46913567D01*
X95654217Y-46901369D01*
X95649671Y-46888664D01*
X95646392Y-46875575D01*
X95644412Y-46862227D01*
X95643750Y-46848750D01*
X95643750Y-45648750D01*
X95644412Y-45635273D01*
X95646392Y-45621925D01*
X95649671Y-45608836D01*
X95654217Y-45596131D01*
X95659986Y-45583933D01*
X95666923Y-45572359D01*
X95674961Y-45561521D01*
X95684023Y-45551523D01*
X95694021Y-45542461D01*
X95704859Y-45534423D01*
X95716433Y-45527486D01*
X95728631Y-45521717D01*
X95741336Y-45517171D01*
X95754425Y-45513892D01*
X95767773Y-45511912D01*
X95781250Y-45511250D01*
X96056250Y-45511250D01*
X96069727Y-45511912D01*
X96069727Y-45511912D01*
G37*
D15*
X95918750Y-46248750D03*
D14*
G36*
X95269727Y-45511912D02*
G01*
X95283075Y-45513892D01*
X95296164Y-45517171D01*
X95308869Y-45521717D01*
X95321067Y-45527486D01*
X95332641Y-45534423D01*
X95343479Y-45542461D01*
X95353477Y-45551523D01*
X95362539Y-45561521D01*
X95370577Y-45572359D01*
X95377514Y-45583933D01*
X95383283Y-45596131D01*
X95387829Y-45608836D01*
X95391108Y-45621925D01*
X95393088Y-45635273D01*
X95393750Y-45648750D01*
X95393750Y-46848750D01*
X95393088Y-46862227D01*
X95391108Y-46875575D01*
X95387829Y-46888664D01*
X95383283Y-46901369D01*
X95377514Y-46913567D01*
X95370577Y-46925141D01*
X95362539Y-46935979D01*
X95353477Y-46945977D01*
X95343479Y-46955039D01*
X95332641Y-46963077D01*
X95321067Y-46970014D01*
X95308869Y-46975783D01*
X95296164Y-46980329D01*
X95283075Y-46983608D01*
X95269727Y-46985588D01*
X95256250Y-46986250D01*
X94981250Y-46986250D01*
X94967773Y-46985588D01*
X94954425Y-46983608D01*
X94941336Y-46980329D01*
X94928631Y-46975783D01*
X94916433Y-46970014D01*
X94904859Y-46963077D01*
X94894021Y-46955039D01*
X94884023Y-46945977D01*
X94874961Y-46935979D01*
X94866923Y-46925141D01*
X94859986Y-46913567D01*
X94854217Y-46901369D01*
X94849671Y-46888664D01*
X94846392Y-46875575D01*
X94844412Y-46862227D01*
X94843750Y-46848750D01*
X94843750Y-45648750D01*
X94844412Y-45635273D01*
X94846392Y-45621925D01*
X94849671Y-45608836D01*
X94854217Y-45596131D01*
X94859986Y-45583933D01*
X94866923Y-45572359D01*
X94874961Y-45561521D01*
X94884023Y-45551523D01*
X94894021Y-45542461D01*
X94904859Y-45534423D01*
X94916433Y-45527486D01*
X94928631Y-45521717D01*
X94941336Y-45517171D01*
X94954425Y-45513892D01*
X94967773Y-45511912D01*
X94981250Y-45511250D01*
X95256250Y-45511250D01*
X95269727Y-45511912D01*
X95269727Y-45511912D01*
G37*
D15*
X95118750Y-46248750D03*
D14*
G36*
X94469727Y-45511912D02*
G01*
X94483075Y-45513892D01*
X94496164Y-45517171D01*
X94508869Y-45521717D01*
X94521067Y-45527486D01*
X94532641Y-45534423D01*
X94543479Y-45542461D01*
X94553477Y-45551523D01*
X94562539Y-45561521D01*
X94570577Y-45572359D01*
X94577514Y-45583933D01*
X94583283Y-45596131D01*
X94587829Y-45608836D01*
X94591108Y-45621925D01*
X94593088Y-45635273D01*
X94593750Y-45648750D01*
X94593750Y-46848750D01*
X94593088Y-46862227D01*
X94591108Y-46875575D01*
X94587829Y-46888664D01*
X94583283Y-46901369D01*
X94577514Y-46913567D01*
X94570577Y-46925141D01*
X94562539Y-46935979D01*
X94553477Y-46945977D01*
X94543479Y-46955039D01*
X94532641Y-46963077D01*
X94521067Y-46970014D01*
X94508869Y-46975783D01*
X94496164Y-46980329D01*
X94483075Y-46983608D01*
X94469727Y-46985588D01*
X94456250Y-46986250D01*
X94181250Y-46986250D01*
X94167773Y-46985588D01*
X94154425Y-46983608D01*
X94141336Y-46980329D01*
X94128631Y-46975783D01*
X94116433Y-46970014D01*
X94104859Y-46963077D01*
X94094021Y-46955039D01*
X94084023Y-46945977D01*
X94074961Y-46935979D01*
X94066923Y-46925141D01*
X94059986Y-46913567D01*
X94054217Y-46901369D01*
X94049671Y-46888664D01*
X94046392Y-46875575D01*
X94044412Y-46862227D01*
X94043750Y-46848750D01*
X94043750Y-45648750D01*
X94044412Y-45635273D01*
X94046392Y-45621925D01*
X94049671Y-45608836D01*
X94054217Y-45596131D01*
X94059986Y-45583933D01*
X94066923Y-45572359D01*
X94074961Y-45561521D01*
X94084023Y-45551523D01*
X94094021Y-45542461D01*
X94104859Y-45534423D01*
X94116433Y-45527486D01*
X94128631Y-45521717D01*
X94141336Y-45517171D01*
X94154425Y-45513892D01*
X94167773Y-45511912D01*
X94181250Y-45511250D01*
X94456250Y-45511250D01*
X94469727Y-45511912D01*
X94469727Y-45511912D01*
G37*
D15*
X94318750Y-46248750D03*
D14*
G36*
X93269727Y-47636912D02*
G01*
X93283075Y-47638892D01*
X93296164Y-47642171D01*
X93308869Y-47646717D01*
X93321067Y-47652486D01*
X93332641Y-47659423D01*
X93343479Y-47667461D01*
X93353477Y-47676523D01*
X93362539Y-47686521D01*
X93370577Y-47697359D01*
X93377514Y-47708933D01*
X93383283Y-47721131D01*
X93387829Y-47733836D01*
X93391108Y-47746925D01*
X93393088Y-47760273D01*
X93393750Y-47773750D01*
X93393750Y-48048750D01*
X93393088Y-48062227D01*
X93391108Y-48075575D01*
X93387829Y-48088664D01*
X93383283Y-48101369D01*
X93377514Y-48113567D01*
X93370577Y-48125141D01*
X93362539Y-48135979D01*
X93353477Y-48145977D01*
X93343479Y-48155039D01*
X93332641Y-48163077D01*
X93321067Y-48170014D01*
X93308869Y-48175783D01*
X93296164Y-48180329D01*
X93283075Y-48183608D01*
X93269727Y-48185588D01*
X93256250Y-48186250D01*
X92056250Y-48186250D01*
X92042773Y-48185588D01*
X92029425Y-48183608D01*
X92016336Y-48180329D01*
X92003631Y-48175783D01*
X91991433Y-48170014D01*
X91979859Y-48163077D01*
X91969021Y-48155039D01*
X91959023Y-48145977D01*
X91949961Y-48135979D01*
X91941923Y-48125141D01*
X91934986Y-48113567D01*
X91929217Y-48101369D01*
X91924671Y-48088664D01*
X91921392Y-48075575D01*
X91919412Y-48062227D01*
X91918750Y-48048750D01*
X91918750Y-47773750D01*
X91919412Y-47760273D01*
X91921392Y-47746925D01*
X91924671Y-47733836D01*
X91929217Y-47721131D01*
X91934986Y-47708933D01*
X91941923Y-47697359D01*
X91949961Y-47686521D01*
X91959023Y-47676523D01*
X91969021Y-47667461D01*
X91979859Y-47659423D01*
X91991433Y-47652486D01*
X92003631Y-47646717D01*
X92016336Y-47642171D01*
X92029425Y-47638892D01*
X92042773Y-47636912D01*
X92056250Y-47636250D01*
X93256250Y-47636250D01*
X93269727Y-47636912D01*
X93269727Y-47636912D01*
G37*
D15*
X92656250Y-47911250D03*
D14*
G36*
X93269727Y-48436912D02*
G01*
X93283075Y-48438892D01*
X93296164Y-48442171D01*
X93308869Y-48446717D01*
X93321067Y-48452486D01*
X93332641Y-48459423D01*
X93343479Y-48467461D01*
X93353477Y-48476523D01*
X93362539Y-48486521D01*
X93370577Y-48497359D01*
X93377514Y-48508933D01*
X93383283Y-48521131D01*
X93387829Y-48533836D01*
X93391108Y-48546925D01*
X93393088Y-48560273D01*
X93393750Y-48573750D01*
X93393750Y-48848750D01*
X93393088Y-48862227D01*
X93391108Y-48875575D01*
X93387829Y-48888664D01*
X93383283Y-48901369D01*
X93377514Y-48913567D01*
X93370577Y-48925141D01*
X93362539Y-48935979D01*
X93353477Y-48945977D01*
X93343479Y-48955039D01*
X93332641Y-48963077D01*
X93321067Y-48970014D01*
X93308869Y-48975783D01*
X93296164Y-48980329D01*
X93283075Y-48983608D01*
X93269727Y-48985588D01*
X93256250Y-48986250D01*
X92056250Y-48986250D01*
X92042773Y-48985588D01*
X92029425Y-48983608D01*
X92016336Y-48980329D01*
X92003631Y-48975783D01*
X91991433Y-48970014D01*
X91979859Y-48963077D01*
X91969021Y-48955039D01*
X91959023Y-48945977D01*
X91949961Y-48935979D01*
X91941923Y-48925141D01*
X91934986Y-48913567D01*
X91929217Y-48901369D01*
X91924671Y-48888664D01*
X91921392Y-48875575D01*
X91919412Y-48862227D01*
X91918750Y-48848750D01*
X91918750Y-48573750D01*
X91919412Y-48560273D01*
X91921392Y-48546925D01*
X91924671Y-48533836D01*
X91929217Y-48521131D01*
X91934986Y-48508933D01*
X91941923Y-48497359D01*
X91949961Y-48486521D01*
X91959023Y-48476523D01*
X91969021Y-48467461D01*
X91979859Y-48459423D01*
X91991433Y-48452486D01*
X92003631Y-48446717D01*
X92016336Y-48442171D01*
X92029425Y-48438892D01*
X92042773Y-48436912D01*
X92056250Y-48436250D01*
X93256250Y-48436250D01*
X93269727Y-48436912D01*
X93269727Y-48436912D01*
G37*
D15*
X92656250Y-48711250D03*
D14*
G36*
X93269727Y-49236912D02*
G01*
X93283075Y-49238892D01*
X93296164Y-49242171D01*
X93308869Y-49246717D01*
X93321067Y-49252486D01*
X93332641Y-49259423D01*
X93343479Y-49267461D01*
X93353477Y-49276523D01*
X93362539Y-49286521D01*
X93370577Y-49297359D01*
X93377514Y-49308933D01*
X93383283Y-49321131D01*
X93387829Y-49333836D01*
X93391108Y-49346925D01*
X93393088Y-49360273D01*
X93393750Y-49373750D01*
X93393750Y-49648750D01*
X93393088Y-49662227D01*
X93391108Y-49675575D01*
X93387829Y-49688664D01*
X93383283Y-49701369D01*
X93377514Y-49713567D01*
X93370577Y-49725141D01*
X93362539Y-49735979D01*
X93353477Y-49745977D01*
X93343479Y-49755039D01*
X93332641Y-49763077D01*
X93321067Y-49770014D01*
X93308869Y-49775783D01*
X93296164Y-49780329D01*
X93283075Y-49783608D01*
X93269727Y-49785588D01*
X93256250Y-49786250D01*
X92056250Y-49786250D01*
X92042773Y-49785588D01*
X92029425Y-49783608D01*
X92016336Y-49780329D01*
X92003631Y-49775783D01*
X91991433Y-49770014D01*
X91979859Y-49763077D01*
X91969021Y-49755039D01*
X91959023Y-49745977D01*
X91949961Y-49735979D01*
X91941923Y-49725141D01*
X91934986Y-49713567D01*
X91929217Y-49701369D01*
X91924671Y-49688664D01*
X91921392Y-49675575D01*
X91919412Y-49662227D01*
X91918750Y-49648750D01*
X91918750Y-49373750D01*
X91919412Y-49360273D01*
X91921392Y-49346925D01*
X91924671Y-49333836D01*
X91929217Y-49321131D01*
X91934986Y-49308933D01*
X91941923Y-49297359D01*
X91949961Y-49286521D01*
X91959023Y-49276523D01*
X91969021Y-49267461D01*
X91979859Y-49259423D01*
X91991433Y-49252486D01*
X92003631Y-49246717D01*
X92016336Y-49242171D01*
X92029425Y-49238892D01*
X92042773Y-49236912D01*
X92056250Y-49236250D01*
X93256250Y-49236250D01*
X93269727Y-49236912D01*
X93269727Y-49236912D01*
G37*
D15*
X92656250Y-49511250D03*
D14*
G36*
X93269727Y-50036912D02*
G01*
X93283075Y-50038892D01*
X93296164Y-50042171D01*
X93308869Y-50046717D01*
X93321067Y-50052486D01*
X93332641Y-50059423D01*
X93343479Y-50067461D01*
X93353477Y-50076523D01*
X93362539Y-50086521D01*
X93370577Y-50097359D01*
X93377514Y-50108933D01*
X93383283Y-50121131D01*
X93387829Y-50133836D01*
X93391108Y-50146925D01*
X93393088Y-50160273D01*
X93393750Y-50173750D01*
X93393750Y-50448750D01*
X93393088Y-50462227D01*
X93391108Y-50475575D01*
X93387829Y-50488664D01*
X93383283Y-50501369D01*
X93377514Y-50513567D01*
X93370577Y-50525141D01*
X93362539Y-50535979D01*
X93353477Y-50545977D01*
X93343479Y-50555039D01*
X93332641Y-50563077D01*
X93321067Y-50570014D01*
X93308869Y-50575783D01*
X93296164Y-50580329D01*
X93283075Y-50583608D01*
X93269727Y-50585588D01*
X93256250Y-50586250D01*
X92056250Y-50586250D01*
X92042773Y-50585588D01*
X92029425Y-50583608D01*
X92016336Y-50580329D01*
X92003631Y-50575783D01*
X91991433Y-50570014D01*
X91979859Y-50563077D01*
X91969021Y-50555039D01*
X91959023Y-50545977D01*
X91949961Y-50535979D01*
X91941923Y-50525141D01*
X91934986Y-50513567D01*
X91929217Y-50501369D01*
X91924671Y-50488664D01*
X91921392Y-50475575D01*
X91919412Y-50462227D01*
X91918750Y-50448750D01*
X91918750Y-50173750D01*
X91919412Y-50160273D01*
X91921392Y-50146925D01*
X91924671Y-50133836D01*
X91929217Y-50121131D01*
X91934986Y-50108933D01*
X91941923Y-50097359D01*
X91949961Y-50086521D01*
X91959023Y-50076523D01*
X91969021Y-50067461D01*
X91979859Y-50059423D01*
X91991433Y-50052486D01*
X92003631Y-50046717D01*
X92016336Y-50042171D01*
X92029425Y-50038892D01*
X92042773Y-50036912D01*
X92056250Y-50036250D01*
X93256250Y-50036250D01*
X93269727Y-50036912D01*
X93269727Y-50036912D01*
G37*
D15*
X92656250Y-50311250D03*
D14*
G36*
X93269727Y-50836912D02*
G01*
X93283075Y-50838892D01*
X93296164Y-50842171D01*
X93308869Y-50846717D01*
X93321067Y-50852486D01*
X93332641Y-50859423D01*
X93343479Y-50867461D01*
X93353477Y-50876523D01*
X93362539Y-50886521D01*
X93370577Y-50897359D01*
X93377514Y-50908933D01*
X93383283Y-50921131D01*
X93387829Y-50933836D01*
X93391108Y-50946925D01*
X93393088Y-50960273D01*
X93393750Y-50973750D01*
X93393750Y-51248750D01*
X93393088Y-51262227D01*
X93391108Y-51275575D01*
X93387829Y-51288664D01*
X93383283Y-51301369D01*
X93377514Y-51313567D01*
X93370577Y-51325141D01*
X93362539Y-51335979D01*
X93353477Y-51345977D01*
X93343479Y-51355039D01*
X93332641Y-51363077D01*
X93321067Y-51370014D01*
X93308869Y-51375783D01*
X93296164Y-51380329D01*
X93283075Y-51383608D01*
X93269727Y-51385588D01*
X93256250Y-51386250D01*
X92056250Y-51386250D01*
X92042773Y-51385588D01*
X92029425Y-51383608D01*
X92016336Y-51380329D01*
X92003631Y-51375783D01*
X91991433Y-51370014D01*
X91979859Y-51363077D01*
X91969021Y-51355039D01*
X91959023Y-51345977D01*
X91949961Y-51335979D01*
X91941923Y-51325141D01*
X91934986Y-51313567D01*
X91929217Y-51301369D01*
X91924671Y-51288664D01*
X91921392Y-51275575D01*
X91919412Y-51262227D01*
X91918750Y-51248750D01*
X91918750Y-50973750D01*
X91919412Y-50960273D01*
X91921392Y-50946925D01*
X91924671Y-50933836D01*
X91929217Y-50921131D01*
X91934986Y-50908933D01*
X91941923Y-50897359D01*
X91949961Y-50886521D01*
X91959023Y-50876523D01*
X91969021Y-50867461D01*
X91979859Y-50859423D01*
X91991433Y-50852486D01*
X92003631Y-50846717D01*
X92016336Y-50842171D01*
X92029425Y-50838892D01*
X92042773Y-50836912D01*
X92056250Y-50836250D01*
X93256250Y-50836250D01*
X93269727Y-50836912D01*
X93269727Y-50836912D01*
G37*
D15*
X92656250Y-51111250D03*
D14*
G36*
X93269727Y-51636912D02*
G01*
X93283075Y-51638892D01*
X93296164Y-51642171D01*
X93308869Y-51646717D01*
X93321067Y-51652486D01*
X93332641Y-51659423D01*
X93343479Y-51667461D01*
X93353477Y-51676523D01*
X93362539Y-51686521D01*
X93370577Y-51697359D01*
X93377514Y-51708933D01*
X93383283Y-51721131D01*
X93387829Y-51733836D01*
X93391108Y-51746925D01*
X93393088Y-51760273D01*
X93393750Y-51773750D01*
X93393750Y-52048750D01*
X93393088Y-52062227D01*
X93391108Y-52075575D01*
X93387829Y-52088664D01*
X93383283Y-52101369D01*
X93377514Y-52113567D01*
X93370577Y-52125141D01*
X93362539Y-52135979D01*
X93353477Y-52145977D01*
X93343479Y-52155039D01*
X93332641Y-52163077D01*
X93321067Y-52170014D01*
X93308869Y-52175783D01*
X93296164Y-52180329D01*
X93283075Y-52183608D01*
X93269727Y-52185588D01*
X93256250Y-52186250D01*
X92056250Y-52186250D01*
X92042773Y-52185588D01*
X92029425Y-52183608D01*
X92016336Y-52180329D01*
X92003631Y-52175783D01*
X91991433Y-52170014D01*
X91979859Y-52163077D01*
X91969021Y-52155039D01*
X91959023Y-52145977D01*
X91949961Y-52135979D01*
X91941923Y-52125141D01*
X91934986Y-52113567D01*
X91929217Y-52101369D01*
X91924671Y-52088664D01*
X91921392Y-52075575D01*
X91919412Y-52062227D01*
X91918750Y-52048750D01*
X91918750Y-51773750D01*
X91919412Y-51760273D01*
X91921392Y-51746925D01*
X91924671Y-51733836D01*
X91929217Y-51721131D01*
X91934986Y-51708933D01*
X91941923Y-51697359D01*
X91949961Y-51686521D01*
X91959023Y-51676523D01*
X91969021Y-51667461D01*
X91979859Y-51659423D01*
X91991433Y-51652486D01*
X92003631Y-51646717D01*
X92016336Y-51642171D01*
X92029425Y-51638892D01*
X92042773Y-51636912D01*
X92056250Y-51636250D01*
X93256250Y-51636250D01*
X93269727Y-51636912D01*
X93269727Y-51636912D01*
G37*
D15*
X92656250Y-51911250D03*
D14*
G36*
X93269727Y-52436912D02*
G01*
X93283075Y-52438892D01*
X93296164Y-52442171D01*
X93308869Y-52446717D01*
X93321067Y-52452486D01*
X93332641Y-52459423D01*
X93343479Y-52467461D01*
X93353477Y-52476523D01*
X93362539Y-52486521D01*
X93370577Y-52497359D01*
X93377514Y-52508933D01*
X93383283Y-52521131D01*
X93387829Y-52533836D01*
X93391108Y-52546925D01*
X93393088Y-52560273D01*
X93393750Y-52573750D01*
X93393750Y-52848750D01*
X93393088Y-52862227D01*
X93391108Y-52875575D01*
X93387829Y-52888664D01*
X93383283Y-52901369D01*
X93377514Y-52913567D01*
X93370577Y-52925141D01*
X93362539Y-52935979D01*
X93353477Y-52945977D01*
X93343479Y-52955039D01*
X93332641Y-52963077D01*
X93321067Y-52970014D01*
X93308869Y-52975783D01*
X93296164Y-52980329D01*
X93283075Y-52983608D01*
X93269727Y-52985588D01*
X93256250Y-52986250D01*
X92056250Y-52986250D01*
X92042773Y-52985588D01*
X92029425Y-52983608D01*
X92016336Y-52980329D01*
X92003631Y-52975783D01*
X91991433Y-52970014D01*
X91979859Y-52963077D01*
X91969021Y-52955039D01*
X91959023Y-52945977D01*
X91949961Y-52935979D01*
X91941923Y-52925141D01*
X91934986Y-52913567D01*
X91929217Y-52901369D01*
X91924671Y-52888664D01*
X91921392Y-52875575D01*
X91919412Y-52862227D01*
X91918750Y-52848750D01*
X91918750Y-52573750D01*
X91919412Y-52560273D01*
X91921392Y-52546925D01*
X91924671Y-52533836D01*
X91929217Y-52521131D01*
X91934986Y-52508933D01*
X91941923Y-52497359D01*
X91949961Y-52486521D01*
X91959023Y-52476523D01*
X91969021Y-52467461D01*
X91979859Y-52459423D01*
X91991433Y-52452486D01*
X92003631Y-52446717D01*
X92016336Y-52442171D01*
X92029425Y-52438892D01*
X92042773Y-52436912D01*
X92056250Y-52436250D01*
X93256250Y-52436250D01*
X93269727Y-52436912D01*
X93269727Y-52436912D01*
G37*
D15*
X92656250Y-52711250D03*
D14*
G36*
X93269727Y-53236912D02*
G01*
X93283075Y-53238892D01*
X93296164Y-53242171D01*
X93308869Y-53246717D01*
X93321067Y-53252486D01*
X93332641Y-53259423D01*
X93343479Y-53267461D01*
X93353477Y-53276523D01*
X93362539Y-53286521D01*
X93370577Y-53297359D01*
X93377514Y-53308933D01*
X93383283Y-53321131D01*
X93387829Y-53333836D01*
X93391108Y-53346925D01*
X93393088Y-53360273D01*
X93393750Y-53373750D01*
X93393750Y-53648750D01*
X93393088Y-53662227D01*
X93391108Y-53675575D01*
X93387829Y-53688664D01*
X93383283Y-53701369D01*
X93377514Y-53713567D01*
X93370577Y-53725141D01*
X93362539Y-53735979D01*
X93353477Y-53745977D01*
X93343479Y-53755039D01*
X93332641Y-53763077D01*
X93321067Y-53770014D01*
X93308869Y-53775783D01*
X93296164Y-53780329D01*
X93283075Y-53783608D01*
X93269727Y-53785588D01*
X93256250Y-53786250D01*
X92056250Y-53786250D01*
X92042773Y-53785588D01*
X92029425Y-53783608D01*
X92016336Y-53780329D01*
X92003631Y-53775783D01*
X91991433Y-53770014D01*
X91979859Y-53763077D01*
X91969021Y-53755039D01*
X91959023Y-53745977D01*
X91949961Y-53735979D01*
X91941923Y-53725141D01*
X91934986Y-53713567D01*
X91929217Y-53701369D01*
X91924671Y-53688664D01*
X91921392Y-53675575D01*
X91919412Y-53662227D01*
X91918750Y-53648750D01*
X91918750Y-53373750D01*
X91919412Y-53360273D01*
X91921392Y-53346925D01*
X91924671Y-53333836D01*
X91929217Y-53321131D01*
X91934986Y-53308933D01*
X91941923Y-53297359D01*
X91949961Y-53286521D01*
X91959023Y-53276523D01*
X91969021Y-53267461D01*
X91979859Y-53259423D01*
X91991433Y-53252486D01*
X92003631Y-53246717D01*
X92016336Y-53242171D01*
X92029425Y-53238892D01*
X92042773Y-53236912D01*
X92056250Y-53236250D01*
X93256250Y-53236250D01*
X93269727Y-53236912D01*
X93269727Y-53236912D01*
G37*
D15*
X92656250Y-53511250D03*
D14*
G36*
X93269727Y-54036912D02*
G01*
X93283075Y-54038892D01*
X93296164Y-54042171D01*
X93308869Y-54046717D01*
X93321067Y-54052486D01*
X93332641Y-54059423D01*
X93343479Y-54067461D01*
X93353477Y-54076523D01*
X93362539Y-54086521D01*
X93370577Y-54097359D01*
X93377514Y-54108933D01*
X93383283Y-54121131D01*
X93387829Y-54133836D01*
X93391108Y-54146925D01*
X93393088Y-54160273D01*
X93393750Y-54173750D01*
X93393750Y-54448750D01*
X93393088Y-54462227D01*
X93391108Y-54475575D01*
X93387829Y-54488664D01*
X93383283Y-54501369D01*
X93377514Y-54513567D01*
X93370577Y-54525141D01*
X93362539Y-54535979D01*
X93353477Y-54545977D01*
X93343479Y-54555039D01*
X93332641Y-54563077D01*
X93321067Y-54570014D01*
X93308869Y-54575783D01*
X93296164Y-54580329D01*
X93283075Y-54583608D01*
X93269727Y-54585588D01*
X93256250Y-54586250D01*
X92056250Y-54586250D01*
X92042773Y-54585588D01*
X92029425Y-54583608D01*
X92016336Y-54580329D01*
X92003631Y-54575783D01*
X91991433Y-54570014D01*
X91979859Y-54563077D01*
X91969021Y-54555039D01*
X91959023Y-54545977D01*
X91949961Y-54535979D01*
X91941923Y-54525141D01*
X91934986Y-54513567D01*
X91929217Y-54501369D01*
X91924671Y-54488664D01*
X91921392Y-54475575D01*
X91919412Y-54462227D01*
X91918750Y-54448750D01*
X91918750Y-54173750D01*
X91919412Y-54160273D01*
X91921392Y-54146925D01*
X91924671Y-54133836D01*
X91929217Y-54121131D01*
X91934986Y-54108933D01*
X91941923Y-54097359D01*
X91949961Y-54086521D01*
X91959023Y-54076523D01*
X91969021Y-54067461D01*
X91979859Y-54059423D01*
X91991433Y-54052486D01*
X92003631Y-54046717D01*
X92016336Y-54042171D01*
X92029425Y-54038892D01*
X92042773Y-54036912D01*
X92056250Y-54036250D01*
X93256250Y-54036250D01*
X93269727Y-54036912D01*
X93269727Y-54036912D01*
G37*
D15*
X92656250Y-54311250D03*
D14*
G36*
X93269727Y-54836912D02*
G01*
X93283075Y-54838892D01*
X93296164Y-54842171D01*
X93308869Y-54846717D01*
X93321067Y-54852486D01*
X93332641Y-54859423D01*
X93343479Y-54867461D01*
X93353477Y-54876523D01*
X93362539Y-54886521D01*
X93370577Y-54897359D01*
X93377514Y-54908933D01*
X93383283Y-54921131D01*
X93387829Y-54933836D01*
X93391108Y-54946925D01*
X93393088Y-54960273D01*
X93393750Y-54973750D01*
X93393750Y-55248750D01*
X93393088Y-55262227D01*
X93391108Y-55275575D01*
X93387829Y-55288664D01*
X93383283Y-55301369D01*
X93377514Y-55313567D01*
X93370577Y-55325141D01*
X93362539Y-55335979D01*
X93353477Y-55345977D01*
X93343479Y-55355039D01*
X93332641Y-55363077D01*
X93321067Y-55370014D01*
X93308869Y-55375783D01*
X93296164Y-55380329D01*
X93283075Y-55383608D01*
X93269727Y-55385588D01*
X93256250Y-55386250D01*
X92056250Y-55386250D01*
X92042773Y-55385588D01*
X92029425Y-55383608D01*
X92016336Y-55380329D01*
X92003631Y-55375783D01*
X91991433Y-55370014D01*
X91979859Y-55363077D01*
X91969021Y-55355039D01*
X91959023Y-55345977D01*
X91949961Y-55335979D01*
X91941923Y-55325141D01*
X91934986Y-55313567D01*
X91929217Y-55301369D01*
X91924671Y-55288664D01*
X91921392Y-55275575D01*
X91919412Y-55262227D01*
X91918750Y-55248750D01*
X91918750Y-54973750D01*
X91919412Y-54960273D01*
X91921392Y-54946925D01*
X91924671Y-54933836D01*
X91929217Y-54921131D01*
X91934986Y-54908933D01*
X91941923Y-54897359D01*
X91949961Y-54886521D01*
X91959023Y-54876523D01*
X91969021Y-54867461D01*
X91979859Y-54859423D01*
X91991433Y-54852486D01*
X92003631Y-54846717D01*
X92016336Y-54842171D01*
X92029425Y-54838892D01*
X92042773Y-54836912D01*
X92056250Y-54836250D01*
X93256250Y-54836250D01*
X93269727Y-54836912D01*
X93269727Y-54836912D01*
G37*
D15*
X92656250Y-55111250D03*
D14*
G36*
X93269727Y-55636912D02*
G01*
X93283075Y-55638892D01*
X93296164Y-55642171D01*
X93308869Y-55646717D01*
X93321067Y-55652486D01*
X93332641Y-55659423D01*
X93343479Y-55667461D01*
X93353477Y-55676523D01*
X93362539Y-55686521D01*
X93370577Y-55697359D01*
X93377514Y-55708933D01*
X93383283Y-55721131D01*
X93387829Y-55733836D01*
X93391108Y-55746925D01*
X93393088Y-55760273D01*
X93393750Y-55773750D01*
X93393750Y-56048750D01*
X93393088Y-56062227D01*
X93391108Y-56075575D01*
X93387829Y-56088664D01*
X93383283Y-56101369D01*
X93377514Y-56113567D01*
X93370577Y-56125141D01*
X93362539Y-56135979D01*
X93353477Y-56145977D01*
X93343479Y-56155039D01*
X93332641Y-56163077D01*
X93321067Y-56170014D01*
X93308869Y-56175783D01*
X93296164Y-56180329D01*
X93283075Y-56183608D01*
X93269727Y-56185588D01*
X93256250Y-56186250D01*
X92056250Y-56186250D01*
X92042773Y-56185588D01*
X92029425Y-56183608D01*
X92016336Y-56180329D01*
X92003631Y-56175783D01*
X91991433Y-56170014D01*
X91979859Y-56163077D01*
X91969021Y-56155039D01*
X91959023Y-56145977D01*
X91949961Y-56135979D01*
X91941923Y-56125141D01*
X91934986Y-56113567D01*
X91929217Y-56101369D01*
X91924671Y-56088664D01*
X91921392Y-56075575D01*
X91919412Y-56062227D01*
X91918750Y-56048750D01*
X91918750Y-55773750D01*
X91919412Y-55760273D01*
X91921392Y-55746925D01*
X91924671Y-55733836D01*
X91929217Y-55721131D01*
X91934986Y-55708933D01*
X91941923Y-55697359D01*
X91949961Y-55686521D01*
X91959023Y-55676523D01*
X91969021Y-55667461D01*
X91979859Y-55659423D01*
X91991433Y-55652486D01*
X92003631Y-55646717D01*
X92016336Y-55642171D01*
X92029425Y-55638892D01*
X92042773Y-55636912D01*
X92056250Y-55636250D01*
X93256250Y-55636250D01*
X93269727Y-55636912D01*
X93269727Y-55636912D01*
G37*
D15*
X92656250Y-55911250D03*
D14*
G36*
X94469727Y-56836912D02*
G01*
X94483075Y-56838892D01*
X94496164Y-56842171D01*
X94508869Y-56846717D01*
X94521067Y-56852486D01*
X94532641Y-56859423D01*
X94543479Y-56867461D01*
X94553477Y-56876523D01*
X94562539Y-56886521D01*
X94570577Y-56897359D01*
X94577514Y-56908933D01*
X94583283Y-56921131D01*
X94587829Y-56933836D01*
X94591108Y-56946925D01*
X94593088Y-56960273D01*
X94593750Y-56973750D01*
X94593750Y-58173750D01*
X94593088Y-58187227D01*
X94591108Y-58200575D01*
X94587829Y-58213664D01*
X94583283Y-58226369D01*
X94577514Y-58238567D01*
X94570577Y-58250141D01*
X94562539Y-58260979D01*
X94553477Y-58270977D01*
X94543479Y-58280039D01*
X94532641Y-58288077D01*
X94521067Y-58295014D01*
X94508869Y-58300783D01*
X94496164Y-58305329D01*
X94483075Y-58308608D01*
X94469727Y-58310588D01*
X94456250Y-58311250D01*
X94181250Y-58311250D01*
X94167773Y-58310588D01*
X94154425Y-58308608D01*
X94141336Y-58305329D01*
X94128631Y-58300783D01*
X94116433Y-58295014D01*
X94104859Y-58288077D01*
X94094021Y-58280039D01*
X94084023Y-58270977D01*
X94074961Y-58260979D01*
X94066923Y-58250141D01*
X94059986Y-58238567D01*
X94054217Y-58226369D01*
X94049671Y-58213664D01*
X94046392Y-58200575D01*
X94044412Y-58187227D01*
X94043750Y-58173750D01*
X94043750Y-56973750D01*
X94044412Y-56960273D01*
X94046392Y-56946925D01*
X94049671Y-56933836D01*
X94054217Y-56921131D01*
X94059986Y-56908933D01*
X94066923Y-56897359D01*
X94074961Y-56886521D01*
X94084023Y-56876523D01*
X94094021Y-56867461D01*
X94104859Y-56859423D01*
X94116433Y-56852486D01*
X94128631Y-56846717D01*
X94141336Y-56842171D01*
X94154425Y-56838892D01*
X94167773Y-56836912D01*
X94181250Y-56836250D01*
X94456250Y-56836250D01*
X94469727Y-56836912D01*
X94469727Y-56836912D01*
G37*
D15*
X94318750Y-57573750D03*
D14*
G36*
X95269727Y-56836912D02*
G01*
X95283075Y-56838892D01*
X95296164Y-56842171D01*
X95308869Y-56846717D01*
X95321067Y-56852486D01*
X95332641Y-56859423D01*
X95343479Y-56867461D01*
X95353477Y-56876523D01*
X95362539Y-56886521D01*
X95370577Y-56897359D01*
X95377514Y-56908933D01*
X95383283Y-56921131D01*
X95387829Y-56933836D01*
X95391108Y-56946925D01*
X95393088Y-56960273D01*
X95393750Y-56973750D01*
X95393750Y-58173750D01*
X95393088Y-58187227D01*
X95391108Y-58200575D01*
X95387829Y-58213664D01*
X95383283Y-58226369D01*
X95377514Y-58238567D01*
X95370577Y-58250141D01*
X95362539Y-58260979D01*
X95353477Y-58270977D01*
X95343479Y-58280039D01*
X95332641Y-58288077D01*
X95321067Y-58295014D01*
X95308869Y-58300783D01*
X95296164Y-58305329D01*
X95283075Y-58308608D01*
X95269727Y-58310588D01*
X95256250Y-58311250D01*
X94981250Y-58311250D01*
X94967773Y-58310588D01*
X94954425Y-58308608D01*
X94941336Y-58305329D01*
X94928631Y-58300783D01*
X94916433Y-58295014D01*
X94904859Y-58288077D01*
X94894021Y-58280039D01*
X94884023Y-58270977D01*
X94874961Y-58260979D01*
X94866923Y-58250141D01*
X94859986Y-58238567D01*
X94854217Y-58226369D01*
X94849671Y-58213664D01*
X94846392Y-58200575D01*
X94844412Y-58187227D01*
X94843750Y-58173750D01*
X94843750Y-56973750D01*
X94844412Y-56960273D01*
X94846392Y-56946925D01*
X94849671Y-56933836D01*
X94854217Y-56921131D01*
X94859986Y-56908933D01*
X94866923Y-56897359D01*
X94874961Y-56886521D01*
X94884023Y-56876523D01*
X94894021Y-56867461D01*
X94904859Y-56859423D01*
X94916433Y-56852486D01*
X94928631Y-56846717D01*
X94941336Y-56842171D01*
X94954425Y-56838892D01*
X94967773Y-56836912D01*
X94981250Y-56836250D01*
X95256250Y-56836250D01*
X95269727Y-56836912D01*
X95269727Y-56836912D01*
G37*
D15*
X95118750Y-57573750D03*
D14*
G36*
X96069727Y-56836912D02*
G01*
X96083075Y-56838892D01*
X96096164Y-56842171D01*
X96108869Y-56846717D01*
X96121067Y-56852486D01*
X96132641Y-56859423D01*
X96143479Y-56867461D01*
X96153477Y-56876523D01*
X96162539Y-56886521D01*
X96170577Y-56897359D01*
X96177514Y-56908933D01*
X96183283Y-56921131D01*
X96187829Y-56933836D01*
X96191108Y-56946925D01*
X96193088Y-56960273D01*
X96193750Y-56973750D01*
X96193750Y-58173750D01*
X96193088Y-58187227D01*
X96191108Y-58200575D01*
X96187829Y-58213664D01*
X96183283Y-58226369D01*
X96177514Y-58238567D01*
X96170577Y-58250141D01*
X96162539Y-58260979D01*
X96153477Y-58270977D01*
X96143479Y-58280039D01*
X96132641Y-58288077D01*
X96121067Y-58295014D01*
X96108869Y-58300783D01*
X96096164Y-58305329D01*
X96083075Y-58308608D01*
X96069727Y-58310588D01*
X96056250Y-58311250D01*
X95781250Y-58311250D01*
X95767773Y-58310588D01*
X95754425Y-58308608D01*
X95741336Y-58305329D01*
X95728631Y-58300783D01*
X95716433Y-58295014D01*
X95704859Y-58288077D01*
X95694021Y-58280039D01*
X95684023Y-58270977D01*
X95674961Y-58260979D01*
X95666923Y-58250141D01*
X95659986Y-58238567D01*
X95654217Y-58226369D01*
X95649671Y-58213664D01*
X95646392Y-58200575D01*
X95644412Y-58187227D01*
X95643750Y-58173750D01*
X95643750Y-56973750D01*
X95644412Y-56960273D01*
X95646392Y-56946925D01*
X95649671Y-56933836D01*
X95654217Y-56921131D01*
X95659986Y-56908933D01*
X95666923Y-56897359D01*
X95674961Y-56886521D01*
X95684023Y-56876523D01*
X95694021Y-56867461D01*
X95704859Y-56859423D01*
X95716433Y-56852486D01*
X95728631Y-56846717D01*
X95741336Y-56842171D01*
X95754425Y-56838892D01*
X95767773Y-56836912D01*
X95781250Y-56836250D01*
X96056250Y-56836250D01*
X96069727Y-56836912D01*
X96069727Y-56836912D01*
G37*
D15*
X95918750Y-57573750D03*
D14*
G36*
X96869727Y-56836912D02*
G01*
X96883075Y-56838892D01*
X96896164Y-56842171D01*
X96908869Y-56846717D01*
X96921067Y-56852486D01*
X96932641Y-56859423D01*
X96943479Y-56867461D01*
X96953477Y-56876523D01*
X96962539Y-56886521D01*
X96970577Y-56897359D01*
X96977514Y-56908933D01*
X96983283Y-56921131D01*
X96987829Y-56933836D01*
X96991108Y-56946925D01*
X96993088Y-56960273D01*
X96993750Y-56973750D01*
X96993750Y-58173750D01*
X96993088Y-58187227D01*
X96991108Y-58200575D01*
X96987829Y-58213664D01*
X96983283Y-58226369D01*
X96977514Y-58238567D01*
X96970577Y-58250141D01*
X96962539Y-58260979D01*
X96953477Y-58270977D01*
X96943479Y-58280039D01*
X96932641Y-58288077D01*
X96921067Y-58295014D01*
X96908869Y-58300783D01*
X96896164Y-58305329D01*
X96883075Y-58308608D01*
X96869727Y-58310588D01*
X96856250Y-58311250D01*
X96581250Y-58311250D01*
X96567773Y-58310588D01*
X96554425Y-58308608D01*
X96541336Y-58305329D01*
X96528631Y-58300783D01*
X96516433Y-58295014D01*
X96504859Y-58288077D01*
X96494021Y-58280039D01*
X96484023Y-58270977D01*
X96474961Y-58260979D01*
X96466923Y-58250141D01*
X96459986Y-58238567D01*
X96454217Y-58226369D01*
X96449671Y-58213664D01*
X96446392Y-58200575D01*
X96444412Y-58187227D01*
X96443750Y-58173750D01*
X96443750Y-56973750D01*
X96444412Y-56960273D01*
X96446392Y-56946925D01*
X96449671Y-56933836D01*
X96454217Y-56921131D01*
X96459986Y-56908933D01*
X96466923Y-56897359D01*
X96474961Y-56886521D01*
X96484023Y-56876523D01*
X96494021Y-56867461D01*
X96504859Y-56859423D01*
X96516433Y-56852486D01*
X96528631Y-56846717D01*
X96541336Y-56842171D01*
X96554425Y-56838892D01*
X96567773Y-56836912D01*
X96581250Y-56836250D01*
X96856250Y-56836250D01*
X96869727Y-56836912D01*
X96869727Y-56836912D01*
G37*
D15*
X96718750Y-57573750D03*
D14*
G36*
X97669727Y-56836912D02*
G01*
X97683075Y-56838892D01*
X97696164Y-56842171D01*
X97708869Y-56846717D01*
X97721067Y-56852486D01*
X97732641Y-56859423D01*
X97743479Y-56867461D01*
X97753477Y-56876523D01*
X97762539Y-56886521D01*
X97770577Y-56897359D01*
X97777514Y-56908933D01*
X97783283Y-56921131D01*
X97787829Y-56933836D01*
X97791108Y-56946925D01*
X97793088Y-56960273D01*
X97793750Y-56973750D01*
X97793750Y-58173750D01*
X97793088Y-58187227D01*
X97791108Y-58200575D01*
X97787829Y-58213664D01*
X97783283Y-58226369D01*
X97777514Y-58238567D01*
X97770577Y-58250141D01*
X97762539Y-58260979D01*
X97753477Y-58270977D01*
X97743479Y-58280039D01*
X97732641Y-58288077D01*
X97721067Y-58295014D01*
X97708869Y-58300783D01*
X97696164Y-58305329D01*
X97683075Y-58308608D01*
X97669727Y-58310588D01*
X97656250Y-58311250D01*
X97381250Y-58311250D01*
X97367773Y-58310588D01*
X97354425Y-58308608D01*
X97341336Y-58305329D01*
X97328631Y-58300783D01*
X97316433Y-58295014D01*
X97304859Y-58288077D01*
X97294021Y-58280039D01*
X97284023Y-58270977D01*
X97274961Y-58260979D01*
X97266923Y-58250141D01*
X97259986Y-58238567D01*
X97254217Y-58226369D01*
X97249671Y-58213664D01*
X97246392Y-58200575D01*
X97244412Y-58187227D01*
X97243750Y-58173750D01*
X97243750Y-56973750D01*
X97244412Y-56960273D01*
X97246392Y-56946925D01*
X97249671Y-56933836D01*
X97254217Y-56921131D01*
X97259986Y-56908933D01*
X97266923Y-56897359D01*
X97274961Y-56886521D01*
X97284023Y-56876523D01*
X97294021Y-56867461D01*
X97304859Y-56859423D01*
X97316433Y-56852486D01*
X97328631Y-56846717D01*
X97341336Y-56842171D01*
X97354425Y-56838892D01*
X97367773Y-56836912D01*
X97381250Y-56836250D01*
X97656250Y-56836250D01*
X97669727Y-56836912D01*
X97669727Y-56836912D01*
G37*
D15*
X97518750Y-57573750D03*
D14*
G36*
X98469727Y-56836912D02*
G01*
X98483075Y-56838892D01*
X98496164Y-56842171D01*
X98508869Y-56846717D01*
X98521067Y-56852486D01*
X98532641Y-56859423D01*
X98543479Y-56867461D01*
X98553477Y-56876523D01*
X98562539Y-56886521D01*
X98570577Y-56897359D01*
X98577514Y-56908933D01*
X98583283Y-56921131D01*
X98587829Y-56933836D01*
X98591108Y-56946925D01*
X98593088Y-56960273D01*
X98593750Y-56973750D01*
X98593750Y-58173750D01*
X98593088Y-58187227D01*
X98591108Y-58200575D01*
X98587829Y-58213664D01*
X98583283Y-58226369D01*
X98577514Y-58238567D01*
X98570577Y-58250141D01*
X98562539Y-58260979D01*
X98553477Y-58270977D01*
X98543479Y-58280039D01*
X98532641Y-58288077D01*
X98521067Y-58295014D01*
X98508869Y-58300783D01*
X98496164Y-58305329D01*
X98483075Y-58308608D01*
X98469727Y-58310588D01*
X98456250Y-58311250D01*
X98181250Y-58311250D01*
X98167773Y-58310588D01*
X98154425Y-58308608D01*
X98141336Y-58305329D01*
X98128631Y-58300783D01*
X98116433Y-58295014D01*
X98104859Y-58288077D01*
X98094021Y-58280039D01*
X98084023Y-58270977D01*
X98074961Y-58260979D01*
X98066923Y-58250141D01*
X98059986Y-58238567D01*
X98054217Y-58226369D01*
X98049671Y-58213664D01*
X98046392Y-58200575D01*
X98044412Y-58187227D01*
X98043750Y-58173750D01*
X98043750Y-56973750D01*
X98044412Y-56960273D01*
X98046392Y-56946925D01*
X98049671Y-56933836D01*
X98054217Y-56921131D01*
X98059986Y-56908933D01*
X98066923Y-56897359D01*
X98074961Y-56886521D01*
X98084023Y-56876523D01*
X98094021Y-56867461D01*
X98104859Y-56859423D01*
X98116433Y-56852486D01*
X98128631Y-56846717D01*
X98141336Y-56842171D01*
X98154425Y-56838892D01*
X98167773Y-56836912D01*
X98181250Y-56836250D01*
X98456250Y-56836250D01*
X98469727Y-56836912D01*
X98469727Y-56836912D01*
G37*
D15*
X98318750Y-57573750D03*
D14*
G36*
X99269727Y-56836912D02*
G01*
X99283075Y-56838892D01*
X99296164Y-56842171D01*
X99308869Y-56846717D01*
X99321067Y-56852486D01*
X99332641Y-56859423D01*
X99343479Y-56867461D01*
X99353477Y-56876523D01*
X99362539Y-56886521D01*
X99370577Y-56897359D01*
X99377514Y-56908933D01*
X99383283Y-56921131D01*
X99387829Y-56933836D01*
X99391108Y-56946925D01*
X99393088Y-56960273D01*
X99393750Y-56973750D01*
X99393750Y-58173750D01*
X99393088Y-58187227D01*
X99391108Y-58200575D01*
X99387829Y-58213664D01*
X99383283Y-58226369D01*
X99377514Y-58238567D01*
X99370577Y-58250141D01*
X99362539Y-58260979D01*
X99353477Y-58270977D01*
X99343479Y-58280039D01*
X99332641Y-58288077D01*
X99321067Y-58295014D01*
X99308869Y-58300783D01*
X99296164Y-58305329D01*
X99283075Y-58308608D01*
X99269727Y-58310588D01*
X99256250Y-58311250D01*
X98981250Y-58311250D01*
X98967773Y-58310588D01*
X98954425Y-58308608D01*
X98941336Y-58305329D01*
X98928631Y-58300783D01*
X98916433Y-58295014D01*
X98904859Y-58288077D01*
X98894021Y-58280039D01*
X98884023Y-58270977D01*
X98874961Y-58260979D01*
X98866923Y-58250141D01*
X98859986Y-58238567D01*
X98854217Y-58226369D01*
X98849671Y-58213664D01*
X98846392Y-58200575D01*
X98844412Y-58187227D01*
X98843750Y-58173750D01*
X98843750Y-56973750D01*
X98844412Y-56960273D01*
X98846392Y-56946925D01*
X98849671Y-56933836D01*
X98854217Y-56921131D01*
X98859986Y-56908933D01*
X98866923Y-56897359D01*
X98874961Y-56886521D01*
X98884023Y-56876523D01*
X98894021Y-56867461D01*
X98904859Y-56859423D01*
X98916433Y-56852486D01*
X98928631Y-56846717D01*
X98941336Y-56842171D01*
X98954425Y-56838892D01*
X98967773Y-56836912D01*
X98981250Y-56836250D01*
X99256250Y-56836250D01*
X99269727Y-56836912D01*
X99269727Y-56836912D01*
G37*
D15*
X99118750Y-57573750D03*
D14*
G36*
X100069727Y-56836912D02*
G01*
X100083075Y-56838892D01*
X100096164Y-56842171D01*
X100108869Y-56846717D01*
X100121067Y-56852486D01*
X100132641Y-56859423D01*
X100143479Y-56867461D01*
X100153477Y-56876523D01*
X100162539Y-56886521D01*
X100170577Y-56897359D01*
X100177514Y-56908933D01*
X100183283Y-56921131D01*
X100187829Y-56933836D01*
X100191108Y-56946925D01*
X100193088Y-56960273D01*
X100193750Y-56973750D01*
X100193750Y-58173750D01*
X100193088Y-58187227D01*
X100191108Y-58200575D01*
X100187829Y-58213664D01*
X100183283Y-58226369D01*
X100177514Y-58238567D01*
X100170577Y-58250141D01*
X100162539Y-58260979D01*
X100153477Y-58270977D01*
X100143479Y-58280039D01*
X100132641Y-58288077D01*
X100121067Y-58295014D01*
X100108869Y-58300783D01*
X100096164Y-58305329D01*
X100083075Y-58308608D01*
X100069727Y-58310588D01*
X100056250Y-58311250D01*
X99781250Y-58311250D01*
X99767773Y-58310588D01*
X99754425Y-58308608D01*
X99741336Y-58305329D01*
X99728631Y-58300783D01*
X99716433Y-58295014D01*
X99704859Y-58288077D01*
X99694021Y-58280039D01*
X99684023Y-58270977D01*
X99674961Y-58260979D01*
X99666923Y-58250141D01*
X99659986Y-58238567D01*
X99654217Y-58226369D01*
X99649671Y-58213664D01*
X99646392Y-58200575D01*
X99644412Y-58187227D01*
X99643750Y-58173750D01*
X99643750Y-56973750D01*
X99644412Y-56960273D01*
X99646392Y-56946925D01*
X99649671Y-56933836D01*
X99654217Y-56921131D01*
X99659986Y-56908933D01*
X99666923Y-56897359D01*
X99674961Y-56886521D01*
X99684023Y-56876523D01*
X99694021Y-56867461D01*
X99704859Y-56859423D01*
X99716433Y-56852486D01*
X99728631Y-56846717D01*
X99741336Y-56842171D01*
X99754425Y-56838892D01*
X99767773Y-56836912D01*
X99781250Y-56836250D01*
X100056250Y-56836250D01*
X100069727Y-56836912D01*
X100069727Y-56836912D01*
G37*
D15*
X99918750Y-57573750D03*
D14*
G36*
X100869727Y-56836912D02*
G01*
X100883075Y-56838892D01*
X100896164Y-56842171D01*
X100908869Y-56846717D01*
X100921067Y-56852486D01*
X100932641Y-56859423D01*
X100943479Y-56867461D01*
X100953477Y-56876523D01*
X100962539Y-56886521D01*
X100970577Y-56897359D01*
X100977514Y-56908933D01*
X100983283Y-56921131D01*
X100987829Y-56933836D01*
X100991108Y-56946925D01*
X100993088Y-56960273D01*
X100993750Y-56973750D01*
X100993750Y-58173750D01*
X100993088Y-58187227D01*
X100991108Y-58200575D01*
X100987829Y-58213664D01*
X100983283Y-58226369D01*
X100977514Y-58238567D01*
X100970577Y-58250141D01*
X100962539Y-58260979D01*
X100953477Y-58270977D01*
X100943479Y-58280039D01*
X100932641Y-58288077D01*
X100921067Y-58295014D01*
X100908869Y-58300783D01*
X100896164Y-58305329D01*
X100883075Y-58308608D01*
X100869727Y-58310588D01*
X100856250Y-58311250D01*
X100581250Y-58311250D01*
X100567773Y-58310588D01*
X100554425Y-58308608D01*
X100541336Y-58305329D01*
X100528631Y-58300783D01*
X100516433Y-58295014D01*
X100504859Y-58288077D01*
X100494021Y-58280039D01*
X100484023Y-58270977D01*
X100474961Y-58260979D01*
X100466923Y-58250141D01*
X100459986Y-58238567D01*
X100454217Y-58226369D01*
X100449671Y-58213664D01*
X100446392Y-58200575D01*
X100444412Y-58187227D01*
X100443750Y-58173750D01*
X100443750Y-56973750D01*
X100444412Y-56960273D01*
X100446392Y-56946925D01*
X100449671Y-56933836D01*
X100454217Y-56921131D01*
X100459986Y-56908933D01*
X100466923Y-56897359D01*
X100474961Y-56886521D01*
X100484023Y-56876523D01*
X100494021Y-56867461D01*
X100504859Y-56859423D01*
X100516433Y-56852486D01*
X100528631Y-56846717D01*
X100541336Y-56842171D01*
X100554425Y-56838892D01*
X100567773Y-56836912D01*
X100581250Y-56836250D01*
X100856250Y-56836250D01*
X100869727Y-56836912D01*
X100869727Y-56836912D01*
G37*
D15*
X100718750Y-57573750D03*
D14*
G36*
X101669727Y-56836912D02*
G01*
X101683075Y-56838892D01*
X101696164Y-56842171D01*
X101708869Y-56846717D01*
X101721067Y-56852486D01*
X101732641Y-56859423D01*
X101743479Y-56867461D01*
X101753477Y-56876523D01*
X101762539Y-56886521D01*
X101770577Y-56897359D01*
X101777514Y-56908933D01*
X101783283Y-56921131D01*
X101787829Y-56933836D01*
X101791108Y-56946925D01*
X101793088Y-56960273D01*
X101793750Y-56973750D01*
X101793750Y-58173750D01*
X101793088Y-58187227D01*
X101791108Y-58200575D01*
X101787829Y-58213664D01*
X101783283Y-58226369D01*
X101777514Y-58238567D01*
X101770577Y-58250141D01*
X101762539Y-58260979D01*
X101753477Y-58270977D01*
X101743479Y-58280039D01*
X101732641Y-58288077D01*
X101721067Y-58295014D01*
X101708869Y-58300783D01*
X101696164Y-58305329D01*
X101683075Y-58308608D01*
X101669727Y-58310588D01*
X101656250Y-58311250D01*
X101381250Y-58311250D01*
X101367773Y-58310588D01*
X101354425Y-58308608D01*
X101341336Y-58305329D01*
X101328631Y-58300783D01*
X101316433Y-58295014D01*
X101304859Y-58288077D01*
X101294021Y-58280039D01*
X101284023Y-58270977D01*
X101274961Y-58260979D01*
X101266923Y-58250141D01*
X101259986Y-58238567D01*
X101254217Y-58226369D01*
X101249671Y-58213664D01*
X101246392Y-58200575D01*
X101244412Y-58187227D01*
X101243750Y-58173750D01*
X101243750Y-56973750D01*
X101244412Y-56960273D01*
X101246392Y-56946925D01*
X101249671Y-56933836D01*
X101254217Y-56921131D01*
X101259986Y-56908933D01*
X101266923Y-56897359D01*
X101274961Y-56886521D01*
X101284023Y-56876523D01*
X101294021Y-56867461D01*
X101304859Y-56859423D01*
X101316433Y-56852486D01*
X101328631Y-56846717D01*
X101341336Y-56842171D01*
X101354425Y-56838892D01*
X101367773Y-56836912D01*
X101381250Y-56836250D01*
X101656250Y-56836250D01*
X101669727Y-56836912D01*
X101669727Y-56836912D01*
G37*
D15*
X101518750Y-57573750D03*
D14*
G36*
X102469727Y-56836912D02*
G01*
X102483075Y-56838892D01*
X102496164Y-56842171D01*
X102508869Y-56846717D01*
X102521067Y-56852486D01*
X102532641Y-56859423D01*
X102543479Y-56867461D01*
X102553477Y-56876523D01*
X102562539Y-56886521D01*
X102570577Y-56897359D01*
X102577514Y-56908933D01*
X102583283Y-56921131D01*
X102587829Y-56933836D01*
X102591108Y-56946925D01*
X102593088Y-56960273D01*
X102593750Y-56973750D01*
X102593750Y-58173750D01*
X102593088Y-58187227D01*
X102591108Y-58200575D01*
X102587829Y-58213664D01*
X102583283Y-58226369D01*
X102577514Y-58238567D01*
X102570577Y-58250141D01*
X102562539Y-58260979D01*
X102553477Y-58270977D01*
X102543479Y-58280039D01*
X102532641Y-58288077D01*
X102521067Y-58295014D01*
X102508869Y-58300783D01*
X102496164Y-58305329D01*
X102483075Y-58308608D01*
X102469727Y-58310588D01*
X102456250Y-58311250D01*
X102181250Y-58311250D01*
X102167773Y-58310588D01*
X102154425Y-58308608D01*
X102141336Y-58305329D01*
X102128631Y-58300783D01*
X102116433Y-58295014D01*
X102104859Y-58288077D01*
X102094021Y-58280039D01*
X102084023Y-58270977D01*
X102074961Y-58260979D01*
X102066923Y-58250141D01*
X102059986Y-58238567D01*
X102054217Y-58226369D01*
X102049671Y-58213664D01*
X102046392Y-58200575D01*
X102044412Y-58187227D01*
X102043750Y-58173750D01*
X102043750Y-56973750D01*
X102044412Y-56960273D01*
X102046392Y-56946925D01*
X102049671Y-56933836D01*
X102054217Y-56921131D01*
X102059986Y-56908933D01*
X102066923Y-56897359D01*
X102074961Y-56886521D01*
X102084023Y-56876523D01*
X102094021Y-56867461D01*
X102104859Y-56859423D01*
X102116433Y-56852486D01*
X102128631Y-56846717D01*
X102141336Y-56842171D01*
X102154425Y-56838892D01*
X102167773Y-56836912D01*
X102181250Y-56836250D01*
X102456250Y-56836250D01*
X102469727Y-56836912D01*
X102469727Y-56836912D01*
G37*
D15*
X102318750Y-57573750D03*
D16*
X86201250Y-51911250D03*
D14*
G36*
X87120489Y-51981961D02*
G01*
X86271961Y-52830489D01*
X85282011Y-51840539D01*
X86130539Y-50992011D01*
X87120489Y-51981961D01*
X87120489Y-51981961D01*
G37*
D16*
X87756885Y-53466885D03*
D14*
G36*
X88676124Y-53537596D02*
G01*
X87827596Y-54386124D01*
X86837646Y-53396174D01*
X87686174Y-52547646D01*
X88676124Y-53537596D01*
X88676124Y-53537596D01*
G37*
D16*
X85069879Y-53042621D03*
D14*
G36*
X85989118Y-53113332D02*
G01*
X85140590Y-53961860D01*
X84150640Y-52971910D01*
X84999168Y-52123382D01*
X85989118Y-53113332D01*
X85989118Y-53113332D01*
G37*
D16*
X86625514Y-54598256D03*
D14*
G36*
X87544753Y-54668967D02*
G01*
X86696225Y-55517495D01*
X85706275Y-54527545D01*
X86554803Y-53679017D01*
X87544753Y-54668967D01*
X87544753Y-54668967D01*
G37*
D17*
X52721250Y-61381250D03*
X52721250Y-57681250D03*
X58721250Y-61381250D03*
X58721250Y-57681250D03*
D18*
X63341250Y-59531250D03*
D14*
G36*
X85770755Y-56292454D02*
G01*
X85795023Y-56296054D01*
X85818822Y-56302015D01*
X85841921Y-56310280D01*
X85864100Y-56320770D01*
X85885143Y-56333382D01*
X85904849Y-56347997D01*
X85923027Y-56364473D01*
X85939503Y-56382651D01*
X85954118Y-56402357D01*
X85966730Y-56423400D01*
X85977220Y-56445579D01*
X85985485Y-56468678D01*
X85991446Y-56492477D01*
X85995046Y-56516745D01*
X85996250Y-56541249D01*
X85996250Y-57441251D01*
X85995046Y-57465755D01*
X85991446Y-57490023D01*
X85985485Y-57513822D01*
X85977220Y-57536921D01*
X85966730Y-57559100D01*
X85954118Y-57580143D01*
X85939503Y-57599849D01*
X85923027Y-57618027D01*
X85904849Y-57634503D01*
X85885143Y-57649118D01*
X85864100Y-57661730D01*
X85841921Y-57672220D01*
X85818822Y-57680485D01*
X85795023Y-57686446D01*
X85770755Y-57690046D01*
X85746251Y-57691250D01*
X85096249Y-57691250D01*
X85071745Y-57690046D01*
X85047477Y-57686446D01*
X85023678Y-57680485D01*
X85000579Y-57672220D01*
X84978400Y-57661730D01*
X84957357Y-57649118D01*
X84937651Y-57634503D01*
X84919473Y-57618027D01*
X84902997Y-57599849D01*
X84888382Y-57580143D01*
X84875770Y-57559100D01*
X84865280Y-57536921D01*
X84857015Y-57513822D01*
X84851054Y-57490023D01*
X84847454Y-57465755D01*
X84846250Y-57441251D01*
X84846250Y-56541249D01*
X84847454Y-56516745D01*
X84851054Y-56492477D01*
X84857015Y-56468678D01*
X84865280Y-56445579D01*
X84875770Y-56423400D01*
X84888382Y-56402357D01*
X84902997Y-56382651D01*
X84919473Y-56364473D01*
X84937651Y-56347997D01*
X84957357Y-56333382D01*
X84978400Y-56320770D01*
X85000579Y-56310280D01*
X85023678Y-56302015D01*
X85047477Y-56296054D01*
X85071745Y-56292454D01*
X85096249Y-56291250D01*
X85746251Y-56291250D01*
X85770755Y-56292454D01*
X85770755Y-56292454D01*
G37*
D19*
X85421250Y-56991250D03*
D14*
G36*
X87820755Y-56292454D02*
G01*
X87845023Y-56296054D01*
X87868822Y-56302015D01*
X87891921Y-56310280D01*
X87914100Y-56320770D01*
X87935143Y-56333382D01*
X87954849Y-56347997D01*
X87973027Y-56364473D01*
X87989503Y-56382651D01*
X88004118Y-56402357D01*
X88016730Y-56423400D01*
X88027220Y-56445579D01*
X88035485Y-56468678D01*
X88041446Y-56492477D01*
X88045046Y-56516745D01*
X88046250Y-56541249D01*
X88046250Y-57441251D01*
X88045046Y-57465755D01*
X88041446Y-57490023D01*
X88035485Y-57513822D01*
X88027220Y-57536921D01*
X88016730Y-57559100D01*
X88004118Y-57580143D01*
X87989503Y-57599849D01*
X87973027Y-57618027D01*
X87954849Y-57634503D01*
X87935143Y-57649118D01*
X87914100Y-57661730D01*
X87891921Y-57672220D01*
X87868822Y-57680485D01*
X87845023Y-57686446D01*
X87820755Y-57690046D01*
X87796251Y-57691250D01*
X87146249Y-57691250D01*
X87121745Y-57690046D01*
X87097477Y-57686446D01*
X87073678Y-57680485D01*
X87050579Y-57672220D01*
X87028400Y-57661730D01*
X87007357Y-57649118D01*
X86987651Y-57634503D01*
X86969473Y-57618027D01*
X86952997Y-57599849D01*
X86938382Y-57580143D01*
X86925770Y-57559100D01*
X86915280Y-57536921D01*
X86907015Y-57513822D01*
X86901054Y-57490023D01*
X86897454Y-57465755D01*
X86896250Y-57441251D01*
X86896250Y-56541249D01*
X86897454Y-56516745D01*
X86901054Y-56492477D01*
X86907015Y-56468678D01*
X86915280Y-56445579D01*
X86925770Y-56423400D01*
X86938382Y-56402357D01*
X86952997Y-56382651D01*
X86969473Y-56364473D01*
X86987651Y-56347997D01*
X87007357Y-56333382D01*
X87028400Y-56320770D01*
X87050579Y-56310280D01*
X87073678Y-56302015D01*
X87097477Y-56296054D01*
X87121745Y-56292454D01*
X87146249Y-56291250D01*
X87796251Y-56291250D01*
X87820755Y-56292454D01*
X87820755Y-56292454D01*
G37*
D19*
X87471250Y-56991250D03*
D14*
G36*
X82865755Y-53387454D02*
G01*
X82890023Y-53391054D01*
X82913822Y-53397015D01*
X82936921Y-53405280D01*
X82959100Y-53415770D01*
X82980143Y-53428382D01*
X82999849Y-53442997D01*
X83018027Y-53459473D01*
X83034503Y-53477651D01*
X83049118Y-53497357D01*
X83061730Y-53518400D01*
X83072220Y-53540579D01*
X83080485Y-53563678D01*
X83086446Y-53587477D01*
X83090046Y-53611745D01*
X83091250Y-53636249D01*
X83091250Y-54286251D01*
X83090046Y-54310755D01*
X83086446Y-54335023D01*
X83080485Y-54358822D01*
X83072220Y-54381921D01*
X83061730Y-54404100D01*
X83049118Y-54425143D01*
X83034503Y-54444849D01*
X83018027Y-54463027D01*
X82999849Y-54479503D01*
X82980143Y-54494118D01*
X82959100Y-54506730D01*
X82936921Y-54517220D01*
X82913822Y-54525485D01*
X82890023Y-54531446D01*
X82865755Y-54535046D01*
X82841251Y-54536250D01*
X81941249Y-54536250D01*
X81916745Y-54535046D01*
X81892477Y-54531446D01*
X81868678Y-54525485D01*
X81845579Y-54517220D01*
X81823400Y-54506730D01*
X81802357Y-54494118D01*
X81782651Y-54479503D01*
X81764473Y-54463027D01*
X81747997Y-54444849D01*
X81733382Y-54425143D01*
X81720770Y-54404100D01*
X81710280Y-54381921D01*
X81702015Y-54358822D01*
X81696054Y-54335023D01*
X81692454Y-54310755D01*
X81691250Y-54286251D01*
X81691250Y-53636249D01*
X81692454Y-53611745D01*
X81696054Y-53587477D01*
X81702015Y-53563678D01*
X81710280Y-53540579D01*
X81720770Y-53518400D01*
X81733382Y-53497357D01*
X81747997Y-53477651D01*
X81764473Y-53459473D01*
X81782651Y-53442997D01*
X81802357Y-53428382D01*
X81823400Y-53415770D01*
X81845579Y-53405280D01*
X81868678Y-53397015D01*
X81892477Y-53391054D01*
X81916745Y-53387454D01*
X81941249Y-53386250D01*
X82841251Y-53386250D01*
X82865755Y-53387454D01*
X82865755Y-53387454D01*
G37*
D19*
X82391250Y-53961250D03*
D14*
G36*
X82865755Y-51337454D02*
G01*
X82890023Y-51341054D01*
X82913822Y-51347015D01*
X82936921Y-51355280D01*
X82959100Y-51365770D01*
X82980143Y-51378382D01*
X82999849Y-51392997D01*
X83018027Y-51409473D01*
X83034503Y-51427651D01*
X83049118Y-51447357D01*
X83061730Y-51468400D01*
X83072220Y-51490579D01*
X83080485Y-51513678D01*
X83086446Y-51537477D01*
X83090046Y-51561745D01*
X83091250Y-51586249D01*
X83091250Y-52236251D01*
X83090046Y-52260755D01*
X83086446Y-52285023D01*
X83080485Y-52308822D01*
X83072220Y-52331921D01*
X83061730Y-52354100D01*
X83049118Y-52375143D01*
X83034503Y-52394849D01*
X83018027Y-52413027D01*
X82999849Y-52429503D01*
X82980143Y-52444118D01*
X82959100Y-52456730D01*
X82936921Y-52467220D01*
X82913822Y-52475485D01*
X82890023Y-52481446D01*
X82865755Y-52485046D01*
X82841251Y-52486250D01*
X81941249Y-52486250D01*
X81916745Y-52485046D01*
X81892477Y-52481446D01*
X81868678Y-52475485D01*
X81845579Y-52467220D01*
X81823400Y-52456730D01*
X81802357Y-52444118D01*
X81782651Y-52429503D01*
X81764473Y-52413027D01*
X81747997Y-52394849D01*
X81733382Y-52375143D01*
X81720770Y-52354100D01*
X81710280Y-52331921D01*
X81702015Y-52308822D01*
X81696054Y-52285023D01*
X81692454Y-52260755D01*
X81691250Y-52236251D01*
X81691250Y-51586249D01*
X81692454Y-51561745D01*
X81696054Y-51537477D01*
X81702015Y-51513678D01*
X81710280Y-51490579D01*
X81720770Y-51468400D01*
X81733382Y-51447357D01*
X81747997Y-51427651D01*
X81764473Y-51409473D01*
X81782651Y-51392997D01*
X81802357Y-51378382D01*
X81823400Y-51365770D01*
X81845579Y-51355280D01*
X81868678Y-51347015D01*
X81892477Y-51341054D01*
X81916745Y-51337454D01*
X81941249Y-51336250D01*
X82841251Y-51336250D01*
X82865755Y-51337454D01*
X82865755Y-51337454D01*
G37*
D19*
X82391250Y-51911250D03*
D14*
G36*
X104455755Y-61252454D02*
G01*
X104480023Y-61256054D01*
X104503822Y-61262015D01*
X104526921Y-61270280D01*
X104549100Y-61280770D01*
X104570143Y-61293382D01*
X104589849Y-61307997D01*
X104608027Y-61324473D01*
X104624503Y-61342651D01*
X104639118Y-61362357D01*
X104651730Y-61383400D01*
X104662220Y-61405579D01*
X104670485Y-61428678D01*
X104676446Y-61452477D01*
X104680046Y-61476745D01*
X104681250Y-61501249D01*
X104681250Y-62151251D01*
X104680046Y-62175755D01*
X104676446Y-62200023D01*
X104670485Y-62223822D01*
X104662220Y-62246921D01*
X104651730Y-62269100D01*
X104639118Y-62290143D01*
X104624503Y-62309849D01*
X104608027Y-62328027D01*
X104589849Y-62344503D01*
X104570143Y-62359118D01*
X104549100Y-62371730D01*
X104526921Y-62382220D01*
X104503822Y-62390485D01*
X104480023Y-62396446D01*
X104455755Y-62400046D01*
X104431251Y-62401250D01*
X103531249Y-62401250D01*
X103506745Y-62400046D01*
X103482477Y-62396446D01*
X103458678Y-62390485D01*
X103435579Y-62382220D01*
X103413400Y-62371730D01*
X103392357Y-62359118D01*
X103372651Y-62344503D01*
X103354473Y-62328027D01*
X103337997Y-62309849D01*
X103323382Y-62290143D01*
X103310770Y-62269100D01*
X103300280Y-62246921D01*
X103292015Y-62223822D01*
X103286054Y-62200023D01*
X103282454Y-62175755D01*
X103281250Y-62151251D01*
X103281250Y-61501249D01*
X103282454Y-61476745D01*
X103286054Y-61452477D01*
X103292015Y-61428678D01*
X103300280Y-61405579D01*
X103310770Y-61383400D01*
X103323382Y-61362357D01*
X103337997Y-61342651D01*
X103354473Y-61324473D01*
X103372651Y-61307997D01*
X103392357Y-61293382D01*
X103413400Y-61280770D01*
X103435579Y-61270280D01*
X103458678Y-61262015D01*
X103482477Y-61256054D01*
X103506745Y-61252454D01*
X103531249Y-61251250D01*
X104431251Y-61251250D01*
X104455755Y-61252454D01*
X104455755Y-61252454D01*
G37*
D19*
X103981250Y-61826250D03*
D14*
G36*
X104455755Y-59202454D02*
G01*
X104480023Y-59206054D01*
X104503822Y-59212015D01*
X104526921Y-59220280D01*
X104549100Y-59230770D01*
X104570143Y-59243382D01*
X104589849Y-59257997D01*
X104608027Y-59274473D01*
X104624503Y-59292651D01*
X104639118Y-59312357D01*
X104651730Y-59333400D01*
X104662220Y-59355579D01*
X104670485Y-59378678D01*
X104676446Y-59402477D01*
X104680046Y-59426745D01*
X104681250Y-59451249D01*
X104681250Y-60101251D01*
X104680046Y-60125755D01*
X104676446Y-60150023D01*
X104670485Y-60173822D01*
X104662220Y-60196921D01*
X104651730Y-60219100D01*
X104639118Y-60240143D01*
X104624503Y-60259849D01*
X104608027Y-60278027D01*
X104589849Y-60294503D01*
X104570143Y-60309118D01*
X104549100Y-60321730D01*
X104526921Y-60332220D01*
X104503822Y-60340485D01*
X104480023Y-60346446D01*
X104455755Y-60350046D01*
X104431251Y-60351250D01*
X103531249Y-60351250D01*
X103506745Y-60350046D01*
X103482477Y-60346446D01*
X103458678Y-60340485D01*
X103435579Y-60332220D01*
X103413400Y-60321730D01*
X103392357Y-60309118D01*
X103372651Y-60294503D01*
X103354473Y-60278027D01*
X103337997Y-60259849D01*
X103323382Y-60240143D01*
X103310770Y-60219100D01*
X103300280Y-60196921D01*
X103292015Y-60173822D01*
X103286054Y-60150023D01*
X103282454Y-60125755D01*
X103281250Y-60101251D01*
X103281250Y-59451249D01*
X103282454Y-59426745D01*
X103286054Y-59402477D01*
X103292015Y-59378678D01*
X103300280Y-59355579D01*
X103310770Y-59333400D01*
X103323382Y-59312357D01*
X103337997Y-59292651D01*
X103354473Y-59274473D01*
X103372651Y-59257997D01*
X103392357Y-59243382D01*
X103413400Y-59230770D01*
X103435579Y-59220280D01*
X103458678Y-59212015D01*
X103482477Y-59206054D01*
X103506745Y-59202454D01*
X103531249Y-59201250D01*
X104431251Y-59201250D01*
X104455755Y-59202454D01*
X104455755Y-59202454D01*
G37*
D19*
X103981250Y-59776250D03*
D14*
G36*
X104455755Y-35072454D02*
G01*
X104480023Y-35076054D01*
X104503822Y-35082015D01*
X104526921Y-35090280D01*
X104549100Y-35100770D01*
X104570143Y-35113382D01*
X104589849Y-35127997D01*
X104608027Y-35144473D01*
X104624503Y-35162651D01*
X104639118Y-35182357D01*
X104651730Y-35203400D01*
X104662220Y-35225579D01*
X104670485Y-35248678D01*
X104676446Y-35272477D01*
X104680046Y-35296745D01*
X104681250Y-35321249D01*
X104681250Y-35971251D01*
X104680046Y-35995755D01*
X104676446Y-36020023D01*
X104670485Y-36043822D01*
X104662220Y-36066921D01*
X104651730Y-36089100D01*
X104639118Y-36110143D01*
X104624503Y-36129849D01*
X104608027Y-36148027D01*
X104589849Y-36164503D01*
X104570143Y-36179118D01*
X104549100Y-36191730D01*
X104526921Y-36202220D01*
X104503822Y-36210485D01*
X104480023Y-36216446D01*
X104455755Y-36220046D01*
X104431251Y-36221250D01*
X103531249Y-36221250D01*
X103506745Y-36220046D01*
X103482477Y-36216446D01*
X103458678Y-36210485D01*
X103435579Y-36202220D01*
X103413400Y-36191730D01*
X103392357Y-36179118D01*
X103372651Y-36164503D01*
X103354473Y-36148027D01*
X103337997Y-36129849D01*
X103323382Y-36110143D01*
X103310770Y-36089100D01*
X103300280Y-36066921D01*
X103292015Y-36043822D01*
X103286054Y-36020023D01*
X103282454Y-35995755D01*
X103281250Y-35971251D01*
X103281250Y-35321249D01*
X103282454Y-35296745D01*
X103286054Y-35272477D01*
X103292015Y-35248678D01*
X103300280Y-35225579D01*
X103310770Y-35203400D01*
X103323382Y-35182357D01*
X103337997Y-35162651D01*
X103354473Y-35144473D01*
X103372651Y-35127997D01*
X103392357Y-35113382D01*
X103413400Y-35100770D01*
X103435579Y-35090280D01*
X103458678Y-35082015D01*
X103482477Y-35076054D01*
X103506745Y-35072454D01*
X103531249Y-35071250D01*
X104431251Y-35071250D01*
X104455755Y-35072454D01*
X104455755Y-35072454D01*
G37*
D19*
X103981250Y-35646250D03*
D14*
G36*
X104455755Y-37122454D02*
G01*
X104480023Y-37126054D01*
X104503822Y-37132015D01*
X104526921Y-37140280D01*
X104549100Y-37150770D01*
X104570143Y-37163382D01*
X104589849Y-37177997D01*
X104608027Y-37194473D01*
X104624503Y-37212651D01*
X104639118Y-37232357D01*
X104651730Y-37253400D01*
X104662220Y-37275579D01*
X104670485Y-37298678D01*
X104676446Y-37322477D01*
X104680046Y-37346745D01*
X104681250Y-37371249D01*
X104681250Y-38021251D01*
X104680046Y-38045755D01*
X104676446Y-38070023D01*
X104670485Y-38093822D01*
X104662220Y-38116921D01*
X104651730Y-38139100D01*
X104639118Y-38160143D01*
X104624503Y-38179849D01*
X104608027Y-38198027D01*
X104589849Y-38214503D01*
X104570143Y-38229118D01*
X104549100Y-38241730D01*
X104526921Y-38252220D01*
X104503822Y-38260485D01*
X104480023Y-38266446D01*
X104455755Y-38270046D01*
X104431251Y-38271250D01*
X103531249Y-38271250D01*
X103506745Y-38270046D01*
X103482477Y-38266446D01*
X103458678Y-38260485D01*
X103435579Y-38252220D01*
X103413400Y-38241730D01*
X103392357Y-38229118D01*
X103372651Y-38214503D01*
X103354473Y-38198027D01*
X103337997Y-38179849D01*
X103323382Y-38160143D01*
X103310770Y-38139100D01*
X103300280Y-38116921D01*
X103292015Y-38093822D01*
X103286054Y-38070023D01*
X103282454Y-38045755D01*
X103281250Y-38021251D01*
X103281250Y-37371249D01*
X103282454Y-37346745D01*
X103286054Y-37322477D01*
X103292015Y-37298678D01*
X103300280Y-37275579D01*
X103310770Y-37253400D01*
X103323382Y-37232357D01*
X103337997Y-37212651D01*
X103354473Y-37194473D01*
X103372651Y-37177997D01*
X103392357Y-37163382D01*
X103413400Y-37150770D01*
X103435579Y-37140280D01*
X103458678Y-37132015D01*
X103482477Y-37126054D01*
X103506745Y-37122454D01*
X103531249Y-37121250D01*
X104431251Y-37121250D01*
X104455755Y-37122454D01*
X104455755Y-37122454D01*
G37*
D19*
X103981250Y-37696250D03*
D14*
G36*
X96835755Y-61252454D02*
G01*
X96860023Y-61256054D01*
X96883822Y-61262015D01*
X96906921Y-61270280D01*
X96929100Y-61280770D01*
X96950143Y-61293382D01*
X96969849Y-61307997D01*
X96988027Y-61324473D01*
X97004503Y-61342651D01*
X97019118Y-61362357D01*
X97031730Y-61383400D01*
X97042220Y-61405579D01*
X97050485Y-61428678D01*
X97056446Y-61452477D01*
X97060046Y-61476745D01*
X97061250Y-61501249D01*
X97061250Y-62151251D01*
X97060046Y-62175755D01*
X97056446Y-62200023D01*
X97050485Y-62223822D01*
X97042220Y-62246921D01*
X97031730Y-62269100D01*
X97019118Y-62290143D01*
X97004503Y-62309849D01*
X96988027Y-62328027D01*
X96969849Y-62344503D01*
X96950143Y-62359118D01*
X96929100Y-62371730D01*
X96906921Y-62382220D01*
X96883822Y-62390485D01*
X96860023Y-62396446D01*
X96835755Y-62400046D01*
X96811251Y-62401250D01*
X95911249Y-62401250D01*
X95886745Y-62400046D01*
X95862477Y-62396446D01*
X95838678Y-62390485D01*
X95815579Y-62382220D01*
X95793400Y-62371730D01*
X95772357Y-62359118D01*
X95752651Y-62344503D01*
X95734473Y-62328027D01*
X95717997Y-62309849D01*
X95703382Y-62290143D01*
X95690770Y-62269100D01*
X95680280Y-62246921D01*
X95672015Y-62223822D01*
X95666054Y-62200023D01*
X95662454Y-62175755D01*
X95661250Y-62151251D01*
X95661250Y-61501249D01*
X95662454Y-61476745D01*
X95666054Y-61452477D01*
X95672015Y-61428678D01*
X95680280Y-61405579D01*
X95690770Y-61383400D01*
X95703382Y-61362357D01*
X95717997Y-61342651D01*
X95734473Y-61324473D01*
X95752651Y-61307997D01*
X95772357Y-61293382D01*
X95793400Y-61280770D01*
X95815579Y-61270280D01*
X95838678Y-61262015D01*
X95862477Y-61256054D01*
X95886745Y-61252454D01*
X95911249Y-61251250D01*
X96811251Y-61251250D01*
X96835755Y-61252454D01*
X96835755Y-61252454D01*
G37*
D19*
X96361250Y-61826250D03*
D14*
G36*
X96835755Y-59202454D02*
G01*
X96860023Y-59206054D01*
X96883822Y-59212015D01*
X96906921Y-59220280D01*
X96929100Y-59230770D01*
X96950143Y-59243382D01*
X96969849Y-59257997D01*
X96988027Y-59274473D01*
X97004503Y-59292651D01*
X97019118Y-59312357D01*
X97031730Y-59333400D01*
X97042220Y-59355579D01*
X97050485Y-59378678D01*
X97056446Y-59402477D01*
X97060046Y-59426745D01*
X97061250Y-59451249D01*
X97061250Y-60101251D01*
X97060046Y-60125755D01*
X97056446Y-60150023D01*
X97050485Y-60173822D01*
X97042220Y-60196921D01*
X97031730Y-60219100D01*
X97019118Y-60240143D01*
X97004503Y-60259849D01*
X96988027Y-60278027D01*
X96969849Y-60294503D01*
X96950143Y-60309118D01*
X96929100Y-60321730D01*
X96906921Y-60332220D01*
X96883822Y-60340485D01*
X96860023Y-60346446D01*
X96835755Y-60350046D01*
X96811251Y-60351250D01*
X95911249Y-60351250D01*
X95886745Y-60350046D01*
X95862477Y-60346446D01*
X95838678Y-60340485D01*
X95815579Y-60332220D01*
X95793400Y-60321730D01*
X95772357Y-60309118D01*
X95752651Y-60294503D01*
X95734473Y-60278027D01*
X95717997Y-60259849D01*
X95703382Y-60240143D01*
X95690770Y-60219100D01*
X95680280Y-60196921D01*
X95672015Y-60173822D01*
X95666054Y-60150023D01*
X95662454Y-60125755D01*
X95661250Y-60101251D01*
X95661250Y-59451249D01*
X95662454Y-59426745D01*
X95666054Y-59402477D01*
X95672015Y-59378678D01*
X95680280Y-59355579D01*
X95690770Y-59333400D01*
X95703382Y-59312357D01*
X95717997Y-59292651D01*
X95734473Y-59274473D01*
X95752651Y-59257997D01*
X95772357Y-59243382D01*
X95793400Y-59230770D01*
X95815579Y-59220280D01*
X95838678Y-59212015D01*
X95862477Y-59206054D01*
X95886745Y-59202454D01*
X95911249Y-59201250D01*
X96811251Y-59201250D01*
X96835755Y-59202454D01*
X96835755Y-59202454D01*
G37*
D19*
X96361250Y-59776250D03*
D14*
G36*
X85770755Y-58832454D02*
G01*
X85795023Y-58836054D01*
X85818822Y-58842015D01*
X85841921Y-58850280D01*
X85864100Y-58860770D01*
X85885143Y-58873382D01*
X85904849Y-58887997D01*
X85923027Y-58904473D01*
X85939503Y-58922651D01*
X85954118Y-58942357D01*
X85966730Y-58963400D01*
X85977220Y-58985579D01*
X85985485Y-59008678D01*
X85991446Y-59032477D01*
X85995046Y-59056745D01*
X85996250Y-59081249D01*
X85996250Y-59981251D01*
X85995046Y-60005755D01*
X85991446Y-60030023D01*
X85985485Y-60053822D01*
X85977220Y-60076921D01*
X85966730Y-60099100D01*
X85954118Y-60120143D01*
X85939503Y-60139849D01*
X85923027Y-60158027D01*
X85904849Y-60174503D01*
X85885143Y-60189118D01*
X85864100Y-60201730D01*
X85841921Y-60212220D01*
X85818822Y-60220485D01*
X85795023Y-60226446D01*
X85770755Y-60230046D01*
X85746251Y-60231250D01*
X85096249Y-60231250D01*
X85071745Y-60230046D01*
X85047477Y-60226446D01*
X85023678Y-60220485D01*
X85000579Y-60212220D01*
X84978400Y-60201730D01*
X84957357Y-60189118D01*
X84937651Y-60174503D01*
X84919473Y-60158027D01*
X84902997Y-60139849D01*
X84888382Y-60120143D01*
X84875770Y-60099100D01*
X84865280Y-60076921D01*
X84857015Y-60053822D01*
X84851054Y-60030023D01*
X84847454Y-60005755D01*
X84846250Y-59981251D01*
X84846250Y-59081249D01*
X84847454Y-59056745D01*
X84851054Y-59032477D01*
X84857015Y-59008678D01*
X84865280Y-58985579D01*
X84875770Y-58963400D01*
X84888382Y-58942357D01*
X84902997Y-58922651D01*
X84919473Y-58904473D01*
X84937651Y-58887997D01*
X84957357Y-58873382D01*
X84978400Y-58860770D01*
X85000579Y-58850280D01*
X85023678Y-58842015D01*
X85047477Y-58836054D01*
X85071745Y-58832454D01*
X85096249Y-58831250D01*
X85746251Y-58831250D01*
X85770755Y-58832454D01*
X85770755Y-58832454D01*
G37*
D19*
X85421250Y-59531250D03*
D14*
G36*
X87820755Y-58832454D02*
G01*
X87845023Y-58836054D01*
X87868822Y-58842015D01*
X87891921Y-58850280D01*
X87914100Y-58860770D01*
X87935143Y-58873382D01*
X87954849Y-58887997D01*
X87973027Y-58904473D01*
X87989503Y-58922651D01*
X88004118Y-58942357D01*
X88016730Y-58963400D01*
X88027220Y-58985579D01*
X88035485Y-59008678D01*
X88041446Y-59032477D01*
X88045046Y-59056745D01*
X88046250Y-59081249D01*
X88046250Y-59981251D01*
X88045046Y-60005755D01*
X88041446Y-60030023D01*
X88035485Y-60053822D01*
X88027220Y-60076921D01*
X88016730Y-60099100D01*
X88004118Y-60120143D01*
X87989503Y-60139849D01*
X87973027Y-60158027D01*
X87954849Y-60174503D01*
X87935143Y-60189118D01*
X87914100Y-60201730D01*
X87891921Y-60212220D01*
X87868822Y-60220485D01*
X87845023Y-60226446D01*
X87820755Y-60230046D01*
X87796251Y-60231250D01*
X87146249Y-60231250D01*
X87121745Y-60230046D01*
X87097477Y-60226446D01*
X87073678Y-60220485D01*
X87050579Y-60212220D01*
X87028400Y-60201730D01*
X87007357Y-60189118D01*
X86987651Y-60174503D01*
X86969473Y-60158027D01*
X86952997Y-60139849D01*
X86938382Y-60120143D01*
X86925770Y-60099100D01*
X86915280Y-60076921D01*
X86907015Y-60053822D01*
X86901054Y-60030023D01*
X86897454Y-60005755D01*
X86896250Y-59981251D01*
X86896250Y-59081249D01*
X86897454Y-59056745D01*
X86901054Y-59032477D01*
X86907015Y-59008678D01*
X86915280Y-58985579D01*
X86925770Y-58963400D01*
X86938382Y-58942357D01*
X86952997Y-58922651D01*
X86969473Y-58904473D01*
X86987651Y-58887997D01*
X87007357Y-58873382D01*
X87028400Y-58860770D01*
X87050579Y-58850280D01*
X87073678Y-58842015D01*
X87097477Y-58836054D01*
X87121745Y-58832454D01*
X87146249Y-58831250D01*
X87796251Y-58831250D01*
X87820755Y-58832454D01*
X87820755Y-58832454D01*
G37*
D19*
X87471250Y-59531250D03*
D14*
G36*
X101915755Y-61252454D02*
G01*
X101940023Y-61256054D01*
X101963822Y-61262015D01*
X101986921Y-61270280D01*
X102009100Y-61280770D01*
X102030143Y-61293382D01*
X102049849Y-61307997D01*
X102068027Y-61324473D01*
X102084503Y-61342651D01*
X102099118Y-61362357D01*
X102111730Y-61383400D01*
X102122220Y-61405579D01*
X102130485Y-61428678D01*
X102136446Y-61452477D01*
X102140046Y-61476745D01*
X102141250Y-61501249D01*
X102141250Y-62151251D01*
X102140046Y-62175755D01*
X102136446Y-62200023D01*
X102130485Y-62223822D01*
X102122220Y-62246921D01*
X102111730Y-62269100D01*
X102099118Y-62290143D01*
X102084503Y-62309849D01*
X102068027Y-62328027D01*
X102049849Y-62344503D01*
X102030143Y-62359118D01*
X102009100Y-62371730D01*
X101986921Y-62382220D01*
X101963822Y-62390485D01*
X101940023Y-62396446D01*
X101915755Y-62400046D01*
X101891251Y-62401250D01*
X100991249Y-62401250D01*
X100966745Y-62400046D01*
X100942477Y-62396446D01*
X100918678Y-62390485D01*
X100895579Y-62382220D01*
X100873400Y-62371730D01*
X100852357Y-62359118D01*
X100832651Y-62344503D01*
X100814473Y-62328027D01*
X100797997Y-62309849D01*
X100783382Y-62290143D01*
X100770770Y-62269100D01*
X100760280Y-62246921D01*
X100752015Y-62223822D01*
X100746054Y-62200023D01*
X100742454Y-62175755D01*
X100741250Y-62151251D01*
X100741250Y-61501249D01*
X100742454Y-61476745D01*
X100746054Y-61452477D01*
X100752015Y-61428678D01*
X100760280Y-61405579D01*
X100770770Y-61383400D01*
X100783382Y-61362357D01*
X100797997Y-61342651D01*
X100814473Y-61324473D01*
X100832651Y-61307997D01*
X100852357Y-61293382D01*
X100873400Y-61280770D01*
X100895579Y-61270280D01*
X100918678Y-61262015D01*
X100942477Y-61256054D01*
X100966745Y-61252454D01*
X100991249Y-61251250D01*
X101891251Y-61251250D01*
X101915755Y-61252454D01*
X101915755Y-61252454D01*
G37*
D19*
X101441250Y-61826250D03*
D14*
G36*
X101915755Y-59202454D02*
G01*
X101940023Y-59206054D01*
X101963822Y-59212015D01*
X101986921Y-59220280D01*
X102009100Y-59230770D01*
X102030143Y-59243382D01*
X102049849Y-59257997D01*
X102068027Y-59274473D01*
X102084503Y-59292651D01*
X102099118Y-59312357D01*
X102111730Y-59333400D01*
X102122220Y-59355579D01*
X102130485Y-59378678D01*
X102136446Y-59402477D01*
X102140046Y-59426745D01*
X102141250Y-59451249D01*
X102141250Y-60101251D01*
X102140046Y-60125755D01*
X102136446Y-60150023D01*
X102130485Y-60173822D01*
X102122220Y-60196921D01*
X102111730Y-60219100D01*
X102099118Y-60240143D01*
X102084503Y-60259849D01*
X102068027Y-60278027D01*
X102049849Y-60294503D01*
X102030143Y-60309118D01*
X102009100Y-60321730D01*
X101986921Y-60332220D01*
X101963822Y-60340485D01*
X101940023Y-60346446D01*
X101915755Y-60350046D01*
X101891251Y-60351250D01*
X100991249Y-60351250D01*
X100966745Y-60350046D01*
X100942477Y-60346446D01*
X100918678Y-60340485D01*
X100895579Y-60332220D01*
X100873400Y-60321730D01*
X100852357Y-60309118D01*
X100832651Y-60294503D01*
X100814473Y-60278027D01*
X100797997Y-60259849D01*
X100783382Y-60240143D01*
X100770770Y-60219100D01*
X100760280Y-60196921D01*
X100752015Y-60173822D01*
X100746054Y-60150023D01*
X100742454Y-60125755D01*
X100741250Y-60101251D01*
X100741250Y-59451249D01*
X100742454Y-59426745D01*
X100746054Y-59402477D01*
X100752015Y-59378678D01*
X100760280Y-59355579D01*
X100770770Y-59333400D01*
X100783382Y-59312357D01*
X100797997Y-59292651D01*
X100814473Y-59274473D01*
X100832651Y-59257997D01*
X100852357Y-59243382D01*
X100873400Y-59230770D01*
X100895579Y-59220280D01*
X100918678Y-59212015D01*
X100942477Y-59206054D01*
X100966745Y-59202454D01*
X100991249Y-59201250D01*
X101891251Y-59201250D01*
X101915755Y-59202454D01*
X101915755Y-59202454D01*
G37*
D19*
X101441250Y-59776250D03*
D14*
G36*
X99375755Y-61252454D02*
G01*
X99400023Y-61256054D01*
X99423822Y-61262015D01*
X99446921Y-61270280D01*
X99469100Y-61280770D01*
X99490143Y-61293382D01*
X99509849Y-61307997D01*
X99528027Y-61324473D01*
X99544503Y-61342651D01*
X99559118Y-61362357D01*
X99571730Y-61383400D01*
X99582220Y-61405579D01*
X99590485Y-61428678D01*
X99596446Y-61452477D01*
X99600046Y-61476745D01*
X99601250Y-61501249D01*
X99601250Y-62151251D01*
X99600046Y-62175755D01*
X99596446Y-62200023D01*
X99590485Y-62223822D01*
X99582220Y-62246921D01*
X99571730Y-62269100D01*
X99559118Y-62290143D01*
X99544503Y-62309849D01*
X99528027Y-62328027D01*
X99509849Y-62344503D01*
X99490143Y-62359118D01*
X99469100Y-62371730D01*
X99446921Y-62382220D01*
X99423822Y-62390485D01*
X99400023Y-62396446D01*
X99375755Y-62400046D01*
X99351251Y-62401250D01*
X98451249Y-62401250D01*
X98426745Y-62400046D01*
X98402477Y-62396446D01*
X98378678Y-62390485D01*
X98355579Y-62382220D01*
X98333400Y-62371730D01*
X98312357Y-62359118D01*
X98292651Y-62344503D01*
X98274473Y-62328027D01*
X98257997Y-62309849D01*
X98243382Y-62290143D01*
X98230770Y-62269100D01*
X98220280Y-62246921D01*
X98212015Y-62223822D01*
X98206054Y-62200023D01*
X98202454Y-62175755D01*
X98201250Y-62151251D01*
X98201250Y-61501249D01*
X98202454Y-61476745D01*
X98206054Y-61452477D01*
X98212015Y-61428678D01*
X98220280Y-61405579D01*
X98230770Y-61383400D01*
X98243382Y-61362357D01*
X98257997Y-61342651D01*
X98274473Y-61324473D01*
X98292651Y-61307997D01*
X98312357Y-61293382D01*
X98333400Y-61280770D01*
X98355579Y-61270280D01*
X98378678Y-61262015D01*
X98402477Y-61256054D01*
X98426745Y-61252454D01*
X98451249Y-61251250D01*
X99351251Y-61251250D01*
X99375755Y-61252454D01*
X99375755Y-61252454D01*
G37*
D19*
X98901250Y-61826250D03*
D14*
G36*
X99375755Y-59202454D02*
G01*
X99400023Y-59206054D01*
X99423822Y-59212015D01*
X99446921Y-59220280D01*
X99469100Y-59230770D01*
X99490143Y-59243382D01*
X99509849Y-59257997D01*
X99528027Y-59274473D01*
X99544503Y-59292651D01*
X99559118Y-59312357D01*
X99571730Y-59333400D01*
X99582220Y-59355579D01*
X99590485Y-59378678D01*
X99596446Y-59402477D01*
X99600046Y-59426745D01*
X99601250Y-59451249D01*
X99601250Y-60101251D01*
X99600046Y-60125755D01*
X99596446Y-60150023D01*
X99590485Y-60173822D01*
X99582220Y-60196921D01*
X99571730Y-60219100D01*
X99559118Y-60240143D01*
X99544503Y-60259849D01*
X99528027Y-60278027D01*
X99509849Y-60294503D01*
X99490143Y-60309118D01*
X99469100Y-60321730D01*
X99446921Y-60332220D01*
X99423822Y-60340485D01*
X99400023Y-60346446D01*
X99375755Y-60350046D01*
X99351251Y-60351250D01*
X98451249Y-60351250D01*
X98426745Y-60350046D01*
X98402477Y-60346446D01*
X98378678Y-60340485D01*
X98355579Y-60332220D01*
X98333400Y-60321730D01*
X98312357Y-60309118D01*
X98292651Y-60294503D01*
X98274473Y-60278027D01*
X98257997Y-60259849D01*
X98243382Y-60240143D01*
X98230770Y-60219100D01*
X98220280Y-60196921D01*
X98212015Y-60173822D01*
X98206054Y-60150023D01*
X98202454Y-60125755D01*
X98201250Y-60101251D01*
X98201250Y-59451249D01*
X98202454Y-59426745D01*
X98206054Y-59402477D01*
X98212015Y-59378678D01*
X98220280Y-59355579D01*
X98230770Y-59333400D01*
X98243382Y-59312357D01*
X98257997Y-59292651D01*
X98274473Y-59274473D01*
X98292651Y-59257997D01*
X98312357Y-59243382D01*
X98333400Y-59230770D01*
X98355579Y-59220280D01*
X98378678Y-59212015D01*
X98402477Y-59206054D01*
X98426745Y-59202454D01*
X98451249Y-59201250D01*
X99351251Y-59201250D01*
X99375755Y-59202454D01*
X99375755Y-59202454D01*
G37*
D19*
X98901250Y-59776250D03*
D14*
G36*
X75245755Y-57442454D02*
G01*
X75270023Y-57446054D01*
X75293822Y-57452015D01*
X75316921Y-57460280D01*
X75339100Y-57470770D01*
X75360143Y-57483382D01*
X75379849Y-57497997D01*
X75398027Y-57514473D01*
X75414503Y-57532651D01*
X75429118Y-57552357D01*
X75441730Y-57573400D01*
X75452220Y-57595579D01*
X75460485Y-57618678D01*
X75466446Y-57642477D01*
X75470046Y-57666745D01*
X75471250Y-57691249D01*
X75471250Y-58341251D01*
X75470046Y-58365755D01*
X75466446Y-58390023D01*
X75460485Y-58413822D01*
X75452220Y-58436921D01*
X75441730Y-58459100D01*
X75429118Y-58480143D01*
X75414503Y-58499849D01*
X75398027Y-58518027D01*
X75379849Y-58534503D01*
X75360143Y-58549118D01*
X75339100Y-58561730D01*
X75316921Y-58572220D01*
X75293822Y-58580485D01*
X75270023Y-58586446D01*
X75245755Y-58590046D01*
X75221251Y-58591250D01*
X74321249Y-58591250D01*
X74296745Y-58590046D01*
X74272477Y-58586446D01*
X74248678Y-58580485D01*
X74225579Y-58572220D01*
X74203400Y-58561730D01*
X74182357Y-58549118D01*
X74162651Y-58534503D01*
X74144473Y-58518027D01*
X74127997Y-58499849D01*
X74113382Y-58480143D01*
X74100770Y-58459100D01*
X74090280Y-58436921D01*
X74082015Y-58413822D01*
X74076054Y-58390023D01*
X74072454Y-58365755D01*
X74071250Y-58341251D01*
X74071250Y-57691249D01*
X74072454Y-57666745D01*
X74076054Y-57642477D01*
X74082015Y-57618678D01*
X74090280Y-57595579D01*
X74100770Y-57573400D01*
X74113382Y-57552357D01*
X74127997Y-57532651D01*
X74144473Y-57514473D01*
X74162651Y-57497997D01*
X74182357Y-57483382D01*
X74203400Y-57470770D01*
X74225579Y-57460280D01*
X74248678Y-57452015D01*
X74272477Y-57446054D01*
X74296745Y-57442454D01*
X74321249Y-57441250D01*
X75221251Y-57441250D01*
X75245755Y-57442454D01*
X75245755Y-57442454D01*
G37*
D19*
X74771250Y-58016250D03*
D14*
G36*
X75245755Y-55392454D02*
G01*
X75270023Y-55396054D01*
X75293822Y-55402015D01*
X75316921Y-55410280D01*
X75339100Y-55420770D01*
X75360143Y-55433382D01*
X75379849Y-55447997D01*
X75398027Y-55464473D01*
X75414503Y-55482651D01*
X75429118Y-55502357D01*
X75441730Y-55523400D01*
X75452220Y-55545579D01*
X75460485Y-55568678D01*
X75466446Y-55592477D01*
X75470046Y-55616745D01*
X75471250Y-55641249D01*
X75471250Y-56291251D01*
X75470046Y-56315755D01*
X75466446Y-56340023D01*
X75460485Y-56363822D01*
X75452220Y-56386921D01*
X75441730Y-56409100D01*
X75429118Y-56430143D01*
X75414503Y-56449849D01*
X75398027Y-56468027D01*
X75379849Y-56484503D01*
X75360143Y-56499118D01*
X75339100Y-56511730D01*
X75316921Y-56522220D01*
X75293822Y-56530485D01*
X75270023Y-56536446D01*
X75245755Y-56540046D01*
X75221251Y-56541250D01*
X74321249Y-56541250D01*
X74296745Y-56540046D01*
X74272477Y-56536446D01*
X74248678Y-56530485D01*
X74225579Y-56522220D01*
X74203400Y-56511730D01*
X74182357Y-56499118D01*
X74162651Y-56484503D01*
X74144473Y-56468027D01*
X74127997Y-56449849D01*
X74113382Y-56430143D01*
X74100770Y-56409100D01*
X74090280Y-56386921D01*
X74082015Y-56363822D01*
X74076054Y-56340023D01*
X74072454Y-56315755D01*
X74071250Y-56291251D01*
X74071250Y-55641249D01*
X74072454Y-55616745D01*
X74076054Y-55592477D01*
X74082015Y-55568678D01*
X74090280Y-55545579D01*
X74100770Y-55523400D01*
X74113382Y-55502357D01*
X74127997Y-55482651D01*
X74144473Y-55464473D01*
X74162651Y-55447997D01*
X74182357Y-55433382D01*
X74203400Y-55420770D01*
X74225579Y-55410280D01*
X74248678Y-55402015D01*
X74272477Y-55396054D01*
X74296745Y-55392454D01*
X74321249Y-55391250D01*
X75221251Y-55391250D01*
X75245755Y-55392454D01*
X75245755Y-55392454D01*
G37*
D19*
X74771250Y-55966250D03*
D14*
G36*
X101915755Y-37122454D02*
G01*
X101940023Y-37126054D01*
X101963822Y-37132015D01*
X101986921Y-37140280D01*
X102009100Y-37150770D01*
X102030143Y-37163382D01*
X102049849Y-37177997D01*
X102068027Y-37194473D01*
X102084503Y-37212651D01*
X102099118Y-37232357D01*
X102111730Y-37253400D01*
X102122220Y-37275579D01*
X102130485Y-37298678D01*
X102136446Y-37322477D01*
X102140046Y-37346745D01*
X102141250Y-37371249D01*
X102141250Y-38021251D01*
X102140046Y-38045755D01*
X102136446Y-38070023D01*
X102130485Y-38093822D01*
X102122220Y-38116921D01*
X102111730Y-38139100D01*
X102099118Y-38160143D01*
X102084503Y-38179849D01*
X102068027Y-38198027D01*
X102049849Y-38214503D01*
X102030143Y-38229118D01*
X102009100Y-38241730D01*
X101986921Y-38252220D01*
X101963822Y-38260485D01*
X101940023Y-38266446D01*
X101915755Y-38270046D01*
X101891251Y-38271250D01*
X100991249Y-38271250D01*
X100966745Y-38270046D01*
X100942477Y-38266446D01*
X100918678Y-38260485D01*
X100895579Y-38252220D01*
X100873400Y-38241730D01*
X100852357Y-38229118D01*
X100832651Y-38214503D01*
X100814473Y-38198027D01*
X100797997Y-38179849D01*
X100783382Y-38160143D01*
X100770770Y-38139100D01*
X100760280Y-38116921D01*
X100752015Y-38093822D01*
X100746054Y-38070023D01*
X100742454Y-38045755D01*
X100741250Y-38021251D01*
X100741250Y-37371249D01*
X100742454Y-37346745D01*
X100746054Y-37322477D01*
X100752015Y-37298678D01*
X100760280Y-37275579D01*
X100770770Y-37253400D01*
X100783382Y-37232357D01*
X100797997Y-37212651D01*
X100814473Y-37194473D01*
X100832651Y-37177997D01*
X100852357Y-37163382D01*
X100873400Y-37150770D01*
X100895579Y-37140280D01*
X100918678Y-37132015D01*
X100942477Y-37126054D01*
X100966745Y-37122454D01*
X100991249Y-37121250D01*
X101891251Y-37121250D01*
X101915755Y-37122454D01*
X101915755Y-37122454D01*
G37*
D19*
X101441250Y-37696250D03*
D14*
G36*
X101915755Y-35072454D02*
G01*
X101940023Y-35076054D01*
X101963822Y-35082015D01*
X101986921Y-35090280D01*
X102009100Y-35100770D01*
X102030143Y-35113382D01*
X102049849Y-35127997D01*
X102068027Y-35144473D01*
X102084503Y-35162651D01*
X102099118Y-35182357D01*
X102111730Y-35203400D01*
X102122220Y-35225579D01*
X102130485Y-35248678D01*
X102136446Y-35272477D01*
X102140046Y-35296745D01*
X102141250Y-35321249D01*
X102141250Y-35971251D01*
X102140046Y-35995755D01*
X102136446Y-36020023D01*
X102130485Y-36043822D01*
X102122220Y-36066921D01*
X102111730Y-36089100D01*
X102099118Y-36110143D01*
X102084503Y-36129849D01*
X102068027Y-36148027D01*
X102049849Y-36164503D01*
X102030143Y-36179118D01*
X102009100Y-36191730D01*
X101986921Y-36202220D01*
X101963822Y-36210485D01*
X101940023Y-36216446D01*
X101915755Y-36220046D01*
X101891251Y-36221250D01*
X100991249Y-36221250D01*
X100966745Y-36220046D01*
X100942477Y-36216446D01*
X100918678Y-36210485D01*
X100895579Y-36202220D01*
X100873400Y-36191730D01*
X100852357Y-36179118D01*
X100832651Y-36164503D01*
X100814473Y-36148027D01*
X100797997Y-36129849D01*
X100783382Y-36110143D01*
X100770770Y-36089100D01*
X100760280Y-36066921D01*
X100752015Y-36043822D01*
X100746054Y-36020023D01*
X100742454Y-35995755D01*
X100741250Y-35971251D01*
X100741250Y-35321249D01*
X100742454Y-35296745D01*
X100746054Y-35272477D01*
X100752015Y-35248678D01*
X100760280Y-35225579D01*
X100770770Y-35203400D01*
X100783382Y-35182357D01*
X100797997Y-35162651D01*
X100814473Y-35144473D01*
X100832651Y-35127997D01*
X100852357Y-35113382D01*
X100873400Y-35100770D01*
X100895579Y-35090280D01*
X100918678Y-35082015D01*
X100942477Y-35076054D01*
X100966745Y-35072454D01*
X100991249Y-35071250D01*
X101891251Y-35071250D01*
X101915755Y-35072454D01*
X101915755Y-35072454D01*
G37*
D19*
X101441250Y-35646250D03*
D14*
G36*
X96835755Y-35072454D02*
G01*
X96860023Y-35076054D01*
X96883822Y-35082015D01*
X96906921Y-35090280D01*
X96929100Y-35100770D01*
X96950143Y-35113382D01*
X96969849Y-35127997D01*
X96988027Y-35144473D01*
X97004503Y-35162651D01*
X97019118Y-35182357D01*
X97031730Y-35203400D01*
X97042220Y-35225579D01*
X97050485Y-35248678D01*
X97056446Y-35272477D01*
X97060046Y-35296745D01*
X97061250Y-35321249D01*
X97061250Y-35971251D01*
X97060046Y-35995755D01*
X97056446Y-36020023D01*
X97050485Y-36043822D01*
X97042220Y-36066921D01*
X97031730Y-36089100D01*
X97019118Y-36110143D01*
X97004503Y-36129849D01*
X96988027Y-36148027D01*
X96969849Y-36164503D01*
X96950143Y-36179118D01*
X96929100Y-36191730D01*
X96906921Y-36202220D01*
X96883822Y-36210485D01*
X96860023Y-36216446D01*
X96835755Y-36220046D01*
X96811251Y-36221250D01*
X95911249Y-36221250D01*
X95886745Y-36220046D01*
X95862477Y-36216446D01*
X95838678Y-36210485D01*
X95815579Y-36202220D01*
X95793400Y-36191730D01*
X95772357Y-36179118D01*
X95752651Y-36164503D01*
X95734473Y-36148027D01*
X95717997Y-36129849D01*
X95703382Y-36110143D01*
X95690770Y-36089100D01*
X95680280Y-36066921D01*
X95672015Y-36043822D01*
X95666054Y-36020023D01*
X95662454Y-35995755D01*
X95661250Y-35971251D01*
X95661250Y-35321249D01*
X95662454Y-35296745D01*
X95666054Y-35272477D01*
X95672015Y-35248678D01*
X95680280Y-35225579D01*
X95690770Y-35203400D01*
X95703382Y-35182357D01*
X95717997Y-35162651D01*
X95734473Y-35144473D01*
X95752651Y-35127997D01*
X95772357Y-35113382D01*
X95793400Y-35100770D01*
X95815579Y-35090280D01*
X95838678Y-35082015D01*
X95862477Y-35076054D01*
X95886745Y-35072454D01*
X95911249Y-35071250D01*
X96811251Y-35071250D01*
X96835755Y-35072454D01*
X96835755Y-35072454D01*
G37*
D19*
X96361250Y-35646250D03*
D14*
G36*
X96835755Y-37122454D02*
G01*
X96860023Y-37126054D01*
X96883822Y-37132015D01*
X96906921Y-37140280D01*
X96929100Y-37150770D01*
X96950143Y-37163382D01*
X96969849Y-37177997D01*
X96988027Y-37194473D01*
X97004503Y-37212651D01*
X97019118Y-37232357D01*
X97031730Y-37253400D01*
X97042220Y-37275579D01*
X97050485Y-37298678D01*
X97056446Y-37322477D01*
X97060046Y-37346745D01*
X97061250Y-37371249D01*
X97061250Y-38021251D01*
X97060046Y-38045755D01*
X97056446Y-38070023D01*
X97050485Y-38093822D01*
X97042220Y-38116921D01*
X97031730Y-38139100D01*
X97019118Y-38160143D01*
X97004503Y-38179849D01*
X96988027Y-38198027D01*
X96969849Y-38214503D01*
X96950143Y-38229118D01*
X96929100Y-38241730D01*
X96906921Y-38252220D01*
X96883822Y-38260485D01*
X96860023Y-38266446D01*
X96835755Y-38270046D01*
X96811251Y-38271250D01*
X95911249Y-38271250D01*
X95886745Y-38270046D01*
X95862477Y-38266446D01*
X95838678Y-38260485D01*
X95815579Y-38252220D01*
X95793400Y-38241730D01*
X95772357Y-38229118D01*
X95752651Y-38214503D01*
X95734473Y-38198027D01*
X95717997Y-38179849D01*
X95703382Y-38160143D01*
X95690770Y-38139100D01*
X95680280Y-38116921D01*
X95672015Y-38093822D01*
X95666054Y-38070023D01*
X95662454Y-38045755D01*
X95661250Y-38021251D01*
X95661250Y-37371249D01*
X95662454Y-37346745D01*
X95666054Y-37322477D01*
X95672015Y-37298678D01*
X95680280Y-37275579D01*
X95690770Y-37253400D01*
X95703382Y-37232357D01*
X95717997Y-37212651D01*
X95734473Y-37194473D01*
X95752651Y-37177997D01*
X95772357Y-37163382D01*
X95793400Y-37150770D01*
X95815579Y-37140280D01*
X95838678Y-37132015D01*
X95862477Y-37126054D01*
X95886745Y-37122454D01*
X95911249Y-37121250D01*
X96811251Y-37121250D01*
X96835755Y-37122454D01*
X96835755Y-37122454D01*
G37*
D19*
X96361250Y-37696250D03*
D14*
G36*
X99375755Y-35072454D02*
G01*
X99400023Y-35076054D01*
X99423822Y-35082015D01*
X99446921Y-35090280D01*
X99469100Y-35100770D01*
X99490143Y-35113382D01*
X99509849Y-35127997D01*
X99528027Y-35144473D01*
X99544503Y-35162651D01*
X99559118Y-35182357D01*
X99571730Y-35203400D01*
X99582220Y-35225579D01*
X99590485Y-35248678D01*
X99596446Y-35272477D01*
X99600046Y-35296745D01*
X99601250Y-35321249D01*
X99601250Y-35971251D01*
X99600046Y-35995755D01*
X99596446Y-36020023D01*
X99590485Y-36043822D01*
X99582220Y-36066921D01*
X99571730Y-36089100D01*
X99559118Y-36110143D01*
X99544503Y-36129849D01*
X99528027Y-36148027D01*
X99509849Y-36164503D01*
X99490143Y-36179118D01*
X99469100Y-36191730D01*
X99446921Y-36202220D01*
X99423822Y-36210485D01*
X99400023Y-36216446D01*
X99375755Y-36220046D01*
X99351251Y-36221250D01*
X98451249Y-36221250D01*
X98426745Y-36220046D01*
X98402477Y-36216446D01*
X98378678Y-36210485D01*
X98355579Y-36202220D01*
X98333400Y-36191730D01*
X98312357Y-36179118D01*
X98292651Y-36164503D01*
X98274473Y-36148027D01*
X98257997Y-36129849D01*
X98243382Y-36110143D01*
X98230770Y-36089100D01*
X98220280Y-36066921D01*
X98212015Y-36043822D01*
X98206054Y-36020023D01*
X98202454Y-35995755D01*
X98201250Y-35971251D01*
X98201250Y-35321249D01*
X98202454Y-35296745D01*
X98206054Y-35272477D01*
X98212015Y-35248678D01*
X98220280Y-35225579D01*
X98230770Y-35203400D01*
X98243382Y-35182357D01*
X98257997Y-35162651D01*
X98274473Y-35144473D01*
X98292651Y-35127997D01*
X98312357Y-35113382D01*
X98333400Y-35100770D01*
X98355579Y-35090280D01*
X98378678Y-35082015D01*
X98402477Y-35076054D01*
X98426745Y-35072454D01*
X98451249Y-35071250D01*
X99351251Y-35071250D01*
X99375755Y-35072454D01*
X99375755Y-35072454D01*
G37*
D19*
X98901250Y-35646250D03*
D14*
G36*
X99375755Y-37122454D02*
G01*
X99400023Y-37126054D01*
X99423822Y-37132015D01*
X99446921Y-37140280D01*
X99469100Y-37150770D01*
X99490143Y-37163382D01*
X99509849Y-37177997D01*
X99528027Y-37194473D01*
X99544503Y-37212651D01*
X99559118Y-37232357D01*
X99571730Y-37253400D01*
X99582220Y-37275579D01*
X99590485Y-37298678D01*
X99596446Y-37322477D01*
X99600046Y-37346745D01*
X99601250Y-37371249D01*
X99601250Y-38021251D01*
X99600046Y-38045755D01*
X99596446Y-38070023D01*
X99590485Y-38093822D01*
X99582220Y-38116921D01*
X99571730Y-38139100D01*
X99559118Y-38160143D01*
X99544503Y-38179849D01*
X99528027Y-38198027D01*
X99509849Y-38214503D01*
X99490143Y-38229118D01*
X99469100Y-38241730D01*
X99446921Y-38252220D01*
X99423822Y-38260485D01*
X99400023Y-38266446D01*
X99375755Y-38270046D01*
X99351251Y-38271250D01*
X98451249Y-38271250D01*
X98426745Y-38270046D01*
X98402477Y-38266446D01*
X98378678Y-38260485D01*
X98355579Y-38252220D01*
X98333400Y-38241730D01*
X98312357Y-38229118D01*
X98292651Y-38214503D01*
X98274473Y-38198027D01*
X98257997Y-38179849D01*
X98243382Y-38160143D01*
X98230770Y-38139100D01*
X98220280Y-38116921D01*
X98212015Y-38093822D01*
X98206054Y-38070023D01*
X98202454Y-38045755D01*
X98201250Y-38021251D01*
X98201250Y-37371249D01*
X98202454Y-37346745D01*
X98206054Y-37322477D01*
X98212015Y-37298678D01*
X98220280Y-37275579D01*
X98230770Y-37253400D01*
X98243382Y-37232357D01*
X98257997Y-37212651D01*
X98274473Y-37194473D01*
X98292651Y-37177997D01*
X98312357Y-37163382D01*
X98333400Y-37150770D01*
X98355579Y-37140280D01*
X98378678Y-37132015D01*
X98402477Y-37126054D01*
X98426745Y-37122454D01*
X98451249Y-37121250D01*
X99351251Y-37121250D01*
X99375755Y-37122454D01*
X99375755Y-37122454D01*
G37*
D19*
X98901250Y-37696250D03*
D14*
G36*
X73850755Y-47402454D02*
G01*
X73875023Y-47406054D01*
X73898822Y-47412015D01*
X73921921Y-47420280D01*
X73944100Y-47430770D01*
X73965143Y-47443382D01*
X73984849Y-47457997D01*
X74003027Y-47474473D01*
X74019503Y-47492651D01*
X74034118Y-47512357D01*
X74046730Y-47533400D01*
X74057220Y-47555579D01*
X74065485Y-47578678D01*
X74071446Y-47602477D01*
X74075046Y-47626745D01*
X74076250Y-47651249D01*
X74076250Y-48551251D01*
X74075046Y-48575755D01*
X74071446Y-48600023D01*
X74065485Y-48623822D01*
X74057220Y-48646921D01*
X74046730Y-48669100D01*
X74034118Y-48690143D01*
X74019503Y-48709849D01*
X74003027Y-48728027D01*
X73984849Y-48744503D01*
X73965143Y-48759118D01*
X73944100Y-48771730D01*
X73921921Y-48782220D01*
X73898822Y-48790485D01*
X73875023Y-48796446D01*
X73850755Y-48800046D01*
X73826251Y-48801250D01*
X73176249Y-48801250D01*
X73151745Y-48800046D01*
X73127477Y-48796446D01*
X73103678Y-48790485D01*
X73080579Y-48782220D01*
X73058400Y-48771730D01*
X73037357Y-48759118D01*
X73017651Y-48744503D01*
X72999473Y-48728027D01*
X72982997Y-48709849D01*
X72968382Y-48690143D01*
X72955770Y-48669100D01*
X72945280Y-48646921D01*
X72937015Y-48623822D01*
X72931054Y-48600023D01*
X72927454Y-48575755D01*
X72926250Y-48551251D01*
X72926250Y-47651249D01*
X72927454Y-47626745D01*
X72931054Y-47602477D01*
X72937015Y-47578678D01*
X72945280Y-47555579D01*
X72955770Y-47533400D01*
X72968382Y-47512357D01*
X72982997Y-47492651D01*
X72999473Y-47474473D01*
X73017651Y-47457997D01*
X73037357Y-47443382D01*
X73058400Y-47430770D01*
X73080579Y-47420280D01*
X73103678Y-47412015D01*
X73127477Y-47406054D01*
X73151745Y-47402454D01*
X73176249Y-47401250D01*
X73826251Y-47401250D01*
X73850755Y-47402454D01*
X73850755Y-47402454D01*
G37*
D19*
X73501250Y-48101250D03*
D14*
G36*
X71800755Y-47402454D02*
G01*
X71825023Y-47406054D01*
X71848822Y-47412015D01*
X71871921Y-47420280D01*
X71894100Y-47430770D01*
X71915143Y-47443382D01*
X71934849Y-47457997D01*
X71953027Y-47474473D01*
X71969503Y-47492651D01*
X71984118Y-47512357D01*
X71996730Y-47533400D01*
X72007220Y-47555579D01*
X72015485Y-47578678D01*
X72021446Y-47602477D01*
X72025046Y-47626745D01*
X72026250Y-47651249D01*
X72026250Y-48551251D01*
X72025046Y-48575755D01*
X72021446Y-48600023D01*
X72015485Y-48623822D01*
X72007220Y-48646921D01*
X71996730Y-48669100D01*
X71984118Y-48690143D01*
X71969503Y-48709849D01*
X71953027Y-48728027D01*
X71934849Y-48744503D01*
X71915143Y-48759118D01*
X71894100Y-48771730D01*
X71871921Y-48782220D01*
X71848822Y-48790485D01*
X71825023Y-48796446D01*
X71800755Y-48800046D01*
X71776251Y-48801250D01*
X71126249Y-48801250D01*
X71101745Y-48800046D01*
X71077477Y-48796446D01*
X71053678Y-48790485D01*
X71030579Y-48782220D01*
X71008400Y-48771730D01*
X70987357Y-48759118D01*
X70967651Y-48744503D01*
X70949473Y-48728027D01*
X70932997Y-48709849D01*
X70918382Y-48690143D01*
X70905770Y-48669100D01*
X70895280Y-48646921D01*
X70887015Y-48623822D01*
X70881054Y-48600023D01*
X70877454Y-48575755D01*
X70876250Y-48551251D01*
X70876250Y-47651249D01*
X70877454Y-47626745D01*
X70881054Y-47602477D01*
X70887015Y-47578678D01*
X70895280Y-47555579D01*
X70905770Y-47533400D01*
X70918382Y-47512357D01*
X70932997Y-47492651D01*
X70949473Y-47474473D01*
X70967651Y-47457997D01*
X70987357Y-47443382D01*
X71008400Y-47430770D01*
X71030579Y-47420280D01*
X71053678Y-47412015D01*
X71077477Y-47406054D01*
X71101745Y-47402454D01*
X71126249Y-47401250D01*
X71776251Y-47401250D01*
X71800755Y-47402454D01*
X71800755Y-47402454D01*
G37*
D19*
X71451250Y-48101250D03*
D14*
G36*
X79710755Y-47402454D02*
G01*
X79735023Y-47406054D01*
X79758822Y-47412015D01*
X79781921Y-47420280D01*
X79804100Y-47430770D01*
X79825143Y-47443382D01*
X79844849Y-47457997D01*
X79863027Y-47474473D01*
X79879503Y-47492651D01*
X79894118Y-47512357D01*
X79906730Y-47533400D01*
X79917220Y-47555579D01*
X79925485Y-47578678D01*
X79931446Y-47602477D01*
X79935046Y-47626745D01*
X79936250Y-47651249D01*
X79936250Y-48551251D01*
X79935046Y-48575755D01*
X79931446Y-48600023D01*
X79925485Y-48623822D01*
X79917220Y-48646921D01*
X79906730Y-48669100D01*
X79894118Y-48690143D01*
X79879503Y-48709849D01*
X79863027Y-48728027D01*
X79844849Y-48744503D01*
X79825143Y-48759118D01*
X79804100Y-48771730D01*
X79781921Y-48782220D01*
X79758822Y-48790485D01*
X79735023Y-48796446D01*
X79710755Y-48800046D01*
X79686251Y-48801250D01*
X79036249Y-48801250D01*
X79011745Y-48800046D01*
X78987477Y-48796446D01*
X78963678Y-48790485D01*
X78940579Y-48782220D01*
X78918400Y-48771730D01*
X78897357Y-48759118D01*
X78877651Y-48744503D01*
X78859473Y-48728027D01*
X78842997Y-48709849D01*
X78828382Y-48690143D01*
X78815770Y-48669100D01*
X78805280Y-48646921D01*
X78797015Y-48623822D01*
X78791054Y-48600023D01*
X78787454Y-48575755D01*
X78786250Y-48551251D01*
X78786250Y-47651249D01*
X78787454Y-47626745D01*
X78791054Y-47602477D01*
X78797015Y-47578678D01*
X78805280Y-47555579D01*
X78815770Y-47533400D01*
X78828382Y-47512357D01*
X78842997Y-47492651D01*
X78859473Y-47474473D01*
X78877651Y-47457997D01*
X78897357Y-47443382D01*
X78918400Y-47430770D01*
X78940579Y-47420280D01*
X78963678Y-47412015D01*
X78987477Y-47406054D01*
X79011745Y-47402454D01*
X79036249Y-47401250D01*
X79686251Y-47401250D01*
X79710755Y-47402454D01*
X79710755Y-47402454D01*
G37*
D19*
X79361250Y-48101250D03*
D14*
G36*
X77660755Y-47402454D02*
G01*
X77685023Y-47406054D01*
X77708822Y-47412015D01*
X77731921Y-47420280D01*
X77754100Y-47430770D01*
X77775143Y-47443382D01*
X77794849Y-47457997D01*
X77813027Y-47474473D01*
X77829503Y-47492651D01*
X77844118Y-47512357D01*
X77856730Y-47533400D01*
X77867220Y-47555579D01*
X77875485Y-47578678D01*
X77881446Y-47602477D01*
X77885046Y-47626745D01*
X77886250Y-47651249D01*
X77886250Y-48551251D01*
X77885046Y-48575755D01*
X77881446Y-48600023D01*
X77875485Y-48623822D01*
X77867220Y-48646921D01*
X77856730Y-48669100D01*
X77844118Y-48690143D01*
X77829503Y-48709849D01*
X77813027Y-48728027D01*
X77794849Y-48744503D01*
X77775143Y-48759118D01*
X77754100Y-48771730D01*
X77731921Y-48782220D01*
X77708822Y-48790485D01*
X77685023Y-48796446D01*
X77660755Y-48800046D01*
X77636251Y-48801250D01*
X76986249Y-48801250D01*
X76961745Y-48800046D01*
X76937477Y-48796446D01*
X76913678Y-48790485D01*
X76890579Y-48782220D01*
X76868400Y-48771730D01*
X76847357Y-48759118D01*
X76827651Y-48744503D01*
X76809473Y-48728027D01*
X76792997Y-48709849D01*
X76778382Y-48690143D01*
X76765770Y-48669100D01*
X76755280Y-48646921D01*
X76747015Y-48623822D01*
X76741054Y-48600023D01*
X76737454Y-48575755D01*
X76736250Y-48551251D01*
X76736250Y-47651249D01*
X76737454Y-47626745D01*
X76741054Y-47602477D01*
X76747015Y-47578678D01*
X76755280Y-47555579D01*
X76765770Y-47533400D01*
X76778382Y-47512357D01*
X76792997Y-47492651D01*
X76809473Y-47474473D01*
X76827651Y-47457997D01*
X76847357Y-47443382D01*
X76868400Y-47430770D01*
X76890579Y-47420280D01*
X76913678Y-47412015D01*
X76937477Y-47406054D01*
X76961745Y-47402454D01*
X76986249Y-47401250D01*
X77636251Y-47401250D01*
X77660755Y-47402454D01*
X77660755Y-47402454D01*
G37*
D19*
X77311250Y-48101250D03*
D14*
G36*
X85035755Y-47402454D02*
G01*
X85060023Y-47406054D01*
X85083822Y-47412015D01*
X85106921Y-47420280D01*
X85129100Y-47430770D01*
X85150143Y-47443382D01*
X85169849Y-47457997D01*
X85188027Y-47474473D01*
X85204503Y-47492651D01*
X85219118Y-47512357D01*
X85231730Y-47533400D01*
X85242220Y-47555579D01*
X85250485Y-47578678D01*
X85256446Y-47602477D01*
X85260046Y-47626745D01*
X85261250Y-47651249D01*
X85261250Y-48551251D01*
X85260046Y-48575755D01*
X85256446Y-48600023D01*
X85250485Y-48623822D01*
X85242220Y-48646921D01*
X85231730Y-48669100D01*
X85219118Y-48690143D01*
X85204503Y-48709849D01*
X85188027Y-48728027D01*
X85169849Y-48744503D01*
X85150143Y-48759118D01*
X85129100Y-48771730D01*
X85106921Y-48782220D01*
X85083822Y-48790485D01*
X85060023Y-48796446D01*
X85035755Y-48800046D01*
X85011251Y-48801250D01*
X84361249Y-48801250D01*
X84336745Y-48800046D01*
X84312477Y-48796446D01*
X84288678Y-48790485D01*
X84265579Y-48782220D01*
X84243400Y-48771730D01*
X84222357Y-48759118D01*
X84202651Y-48744503D01*
X84184473Y-48728027D01*
X84167997Y-48709849D01*
X84153382Y-48690143D01*
X84140770Y-48669100D01*
X84130280Y-48646921D01*
X84122015Y-48623822D01*
X84116054Y-48600023D01*
X84112454Y-48575755D01*
X84111250Y-48551251D01*
X84111250Y-47651249D01*
X84112454Y-47626745D01*
X84116054Y-47602477D01*
X84122015Y-47578678D01*
X84130280Y-47555579D01*
X84140770Y-47533400D01*
X84153382Y-47512357D01*
X84167997Y-47492651D01*
X84184473Y-47474473D01*
X84202651Y-47457997D01*
X84222357Y-47443382D01*
X84243400Y-47430770D01*
X84265579Y-47420280D01*
X84288678Y-47412015D01*
X84312477Y-47406054D01*
X84336745Y-47402454D01*
X84361249Y-47401250D01*
X85011251Y-47401250D01*
X85035755Y-47402454D01*
X85035755Y-47402454D01*
G37*
D19*
X84686250Y-48101250D03*
D14*
G36*
X82985755Y-47402454D02*
G01*
X83010023Y-47406054D01*
X83033822Y-47412015D01*
X83056921Y-47420280D01*
X83079100Y-47430770D01*
X83100143Y-47443382D01*
X83119849Y-47457997D01*
X83138027Y-47474473D01*
X83154503Y-47492651D01*
X83169118Y-47512357D01*
X83181730Y-47533400D01*
X83192220Y-47555579D01*
X83200485Y-47578678D01*
X83206446Y-47602477D01*
X83210046Y-47626745D01*
X83211250Y-47651249D01*
X83211250Y-48551251D01*
X83210046Y-48575755D01*
X83206446Y-48600023D01*
X83200485Y-48623822D01*
X83192220Y-48646921D01*
X83181730Y-48669100D01*
X83169118Y-48690143D01*
X83154503Y-48709849D01*
X83138027Y-48728027D01*
X83119849Y-48744503D01*
X83100143Y-48759118D01*
X83079100Y-48771730D01*
X83056921Y-48782220D01*
X83033822Y-48790485D01*
X83010023Y-48796446D01*
X82985755Y-48800046D01*
X82961251Y-48801250D01*
X82311249Y-48801250D01*
X82286745Y-48800046D01*
X82262477Y-48796446D01*
X82238678Y-48790485D01*
X82215579Y-48782220D01*
X82193400Y-48771730D01*
X82172357Y-48759118D01*
X82152651Y-48744503D01*
X82134473Y-48728027D01*
X82117997Y-48709849D01*
X82103382Y-48690143D01*
X82090770Y-48669100D01*
X82080280Y-48646921D01*
X82072015Y-48623822D01*
X82066054Y-48600023D01*
X82062454Y-48575755D01*
X82061250Y-48551251D01*
X82061250Y-47651249D01*
X82062454Y-47626745D01*
X82066054Y-47602477D01*
X82072015Y-47578678D01*
X82080280Y-47555579D01*
X82090770Y-47533400D01*
X82103382Y-47512357D01*
X82117997Y-47492651D01*
X82134473Y-47474473D01*
X82152651Y-47457997D01*
X82172357Y-47443382D01*
X82193400Y-47430770D01*
X82215579Y-47420280D01*
X82238678Y-47412015D01*
X82262477Y-47406054D01*
X82286745Y-47402454D01*
X82311249Y-47401250D01*
X82961251Y-47401250D01*
X82985755Y-47402454D01*
X82985755Y-47402454D01*
G37*
D19*
X82636250Y-48101250D03*
D14*
G36*
X90360755Y-47402454D02*
G01*
X90385023Y-47406054D01*
X90408822Y-47412015D01*
X90431921Y-47420280D01*
X90454100Y-47430770D01*
X90475143Y-47443382D01*
X90494849Y-47457997D01*
X90513027Y-47474473D01*
X90529503Y-47492651D01*
X90544118Y-47512357D01*
X90556730Y-47533400D01*
X90567220Y-47555579D01*
X90575485Y-47578678D01*
X90581446Y-47602477D01*
X90585046Y-47626745D01*
X90586250Y-47651249D01*
X90586250Y-48551251D01*
X90585046Y-48575755D01*
X90581446Y-48600023D01*
X90575485Y-48623822D01*
X90567220Y-48646921D01*
X90556730Y-48669100D01*
X90544118Y-48690143D01*
X90529503Y-48709849D01*
X90513027Y-48728027D01*
X90494849Y-48744503D01*
X90475143Y-48759118D01*
X90454100Y-48771730D01*
X90431921Y-48782220D01*
X90408822Y-48790485D01*
X90385023Y-48796446D01*
X90360755Y-48800046D01*
X90336251Y-48801250D01*
X89686249Y-48801250D01*
X89661745Y-48800046D01*
X89637477Y-48796446D01*
X89613678Y-48790485D01*
X89590579Y-48782220D01*
X89568400Y-48771730D01*
X89547357Y-48759118D01*
X89527651Y-48744503D01*
X89509473Y-48728027D01*
X89492997Y-48709849D01*
X89478382Y-48690143D01*
X89465770Y-48669100D01*
X89455280Y-48646921D01*
X89447015Y-48623822D01*
X89441054Y-48600023D01*
X89437454Y-48575755D01*
X89436250Y-48551251D01*
X89436250Y-47651249D01*
X89437454Y-47626745D01*
X89441054Y-47602477D01*
X89447015Y-47578678D01*
X89455280Y-47555579D01*
X89465770Y-47533400D01*
X89478382Y-47512357D01*
X89492997Y-47492651D01*
X89509473Y-47474473D01*
X89527651Y-47457997D01*
X89547357Y-47443382D01*
X89568400Y-47430770D01*
X89590579Y-47420280D01*
X89613678Y-47412015D01*
X89637477Y-47406054D01*
X89661745Y-47402454D01*
X89686249Y-47401250D01*
X90336251Y-47401250D01*
X90360755Y-47402454D01*
X90360755Y-47402454D01*
G37*
D19*
X90011250Y-48101250D03*
D14*
G36*
X88310755Y-47402454D02*
G01*
X88335023Y-47406054D01*
X88358822Y-47412015D01*
X88381921Y-47420280D01*
X88404100Y-47430770D01*
X88425143Y-47443382D01*
X88444849Y-47457997D01*
X88463027Y-47474473D01*
X88479503Y-47492651D01*
X88494118Y-47512357D01*
X88506730Y-47533400D01*
X88517220Y-47555579D01*
X88525485Y-47578678D01*
X88531446Y-47602477D01*
X88535046Y-47626745D01*
X88536250Y-47651249D01*
X88536250Y-48551251D01*
X88535046Y-48575755D01*
X88531446Y-48600023D01*
X88525485Y-48623822D01*
X88517220Y-48646921D01*
X88506730Y-48669100D01*
X88494118Y-48690143D01*
X88479503Y-48709849D01*
X88463027Y-48728027D01*
X88444849Y-48744503D01*
X88425143Y-48759118D01*
X88404100Y-48771730D01*
X88381921Y-48782220D01*
X88358822Y-48790485D01*
X88335023Y-48796446D01*
X88310755Y-48800046D01*
X88286251Y-48801250D01*
X87636249Y-48801250D01*
X87611745Y-48800046D01*
X87587477Y-48796446D01*
X87563678Y-48790485D01*
X87540579Y-48782220D01*
X87518400Y-48771730D01*
X87497357Y-48759118D01*
X87477651Y-48744503D01*
X87459473Y-48728027D01*
X87442997Y-48709849D01*
X87428382Y-48690143D01*
X87415770Y-48669100D01*
X87405280Y-48646921D01*
X87397015Y-48623822D01*
X87391054Y-48600023D01*
X87387454Y-48575755D01*
X87386250Y-48551251D01*
X87386250Y-47651249D01*
X87387454Y-47626745D01*
X87391054Y-47602477D01*
X87397015Y-47578678D01*
X87405280Y-47555579D01*
X87415770Y-47533400D01*
X87428382Y-47512357D01*
X87442997Y-47492651D01*
X87459473Y-47474473D01*
X87477651Y-47457997D01*
X87497357Y-47443382D01*
X87518400Y-47430770D01*
X87540579Y-47420280D01*
X87563678Y-47412015D01*
X87587477Y-47406054D01*
X87611745Y-47402454D01*
X87636249Y-47401250D01*
X88286251Y-47401250D01*
X88310755Y-47402454D01*
X88310755Y-47402454D01*
G37*
D19*
X87961250Y-48101250D03*
D14*
G36*
X86305755Y-32162454D02*
G01*
X86330023Y-32166054D01*
X86353822Y-32172015D01*
X86376921Y-32180280D01*
X86399100Y-32190770D01*
X86420143Y-32203382D01*
X86439849Y-32217997D01*
X86458027Y-32234473D01*
X86474503Y-32252651D01*
X86489118Y-32272357D01*
X86501730Y-32293400D01*
X86512220Y-32315579D01*
X86520485Y-32338678D01*
X86526446Y-32362477D01*
X86530046Y-32386745D01*
X86531250Y-32411249D01*
X86531250Y-33311251D01*
X86530046Y-33335755D01*
X86526446Y-33360023D01*
X86520485Y-33383822D01*
X86512220Y-33406921D01*
X86501730Y-33429100D01*
X86489118Y-33450143D01*
X86474503Y-33469849D01*
X86458027Y-33488027D01*
X86439849Y-33504503D01*
X86420143Y-33519118D01*
X86399100Y-33531730D01*
X86376921Y-33542220D01*
X86353822Y-33550485D01*
X86330023Y-33556446D01*
X86305755Y-33560046D01*
X86281251Y-33561250D01*
X85631249Y-33561250D01*
X85606745Y-33560046D01*
X85582477Y-33556446D01*
X85558678Y-33550485D01*
X85535579Y-33542220D01*
X85513400Y-33531730D01*
X85492357Y-33519118D01*
X85472651Y-33504503D01*
X85454473Y-33488027D01*
X85437997Y-33469849D01*
X85423382Y-33450143D01*
X85410770Y-33429100D01*
X85400280Y-33406921D01*
X85392015Y-33383822D01*
X85386054Y-33360023D01*
X85382454Y-33335755D01*
X85381250Y-33311251D01*
X85381250Y-32411249D01*
X85382454Y-32386745D01*
X85386054Y-32362477D01*
X85392015Y-32338678D01*
X85400280Y-32315579D01*
X85410770Y-32293400D01*
X85423382Y-32272357D01*
X85437997Y-32252651D01*
X85454473Y-32234473D01*
X85472651Y-32217997D01*
X85492357Y-32203382D01*
X85513400Y-32190770D01*
X85535579Y-32180280D01*
X85558678Y-32172015D01*
X85582477Y-32166054D01*
X85606745Y-32162454D01*
X85631249Y-32161250D01*
X86281251Y-32161250D01*
X86305755Y-32162454D01*
X86305755Y-32162454D01*
G37*
D19*
X85956250Y-32861250D03*
D14*
G36*
X84255755Y-32162454D02*
G01*
X84280023Y-32166054D01*
X84303822Y-32172015D01*
X84326921Y-32180280D01*
X84349100Y-32190770D01*
X84370143Y-32203382D01*
X84389849Y-32217997D01*
X84408027Y-32234473D01*
X84424503Y-32252651D01*
X84439118Y-32272357D01*
X84451730Y-32293400D01*
X84462220Y-32315579D01*
X84470485Y-32338678D01*
X84476446Y-32362477D01*
X84480046Y-32386745D01*
X84481250Y-32411249D01*
X84481250Y-33311251D01*
X84480046Y-33335755D01*
X84476446Y-33360023D01*
X84470485Y-33383822D01*
X84462220Y-33406921D01*
X84451730Y-33429100D01*
X84439118Y-33450143D01*
X84424503Y-33469849D01*
X84408027Y-33488027D01*
X84389849Y-33504503D01*
X84370143Y-33519118D01*
X84349100Y-33531730D01*
X84326921Y-33542220D01*
X84303822Y-33550485D01*
X84280023Y-33556446D01*
X84255755Y-33560046D01*
X84231251Y-33561250D01*
X83581249Y-33561250D01*
X83556745Y-33560046D01*
X83532477Y-33556446D01*
X83508678Y-33550485D01*
X83485579Y-33542220D01*
X83463400Y-33531730D01*
X83442357Y-33519118D01*
X83422651Y-33504503D01*
X83404473Y-33488027D01*
X83387997Y-33469849D01*
X83373382Y-33450143D01*
X83360770Y-33429100D01*
X83350280Y-33406921D01*
X83342015Y-33383822D01*
X83336054Y-33360023D01*
X83332454Y-33335755D01*
X83331250Y-33311251D01*
X83331250Y-32411249D01*
X83332454Y-32386745D01*
X83336054Y-32362477D01*
X83342015Y-32338678D01*
X83350280Y-32315579D01*
X83360770Y-32293400D01*
X83373382Y-32272357D01*
X83387997Y-32252651D01*
X83404473Y-32234473D01*
X83422651Y-32217997D01*
X83442357Y-32203382D01*
X83463400Y-32190770D01*
X83485579Y-32180280D01*
X83508678Y-32172015D01*
X83532477Y-32166054D01*
X83556745Y-32162454D01*
X83581249Y-32161250D01*
X84231251Y-32161250D01*
X84255755Y-32162454D01*
X84255755Y-32162454D01*
G37*
D19*
X83906250Y-32861250D03*
D14*
G36*
X77785755Y-51337454D02*
G01*
X77810023Y-51341054D01*
X77833822Y-51347015D01*
X77856921Y-51355280D01*
X77879100Y-51365770D01*
X77900143Y-51378382D01*
X77919849Y-51392997D01*
X77938027Y-51409473D01*
X77954503Y-51427651D01*
X77969118Y-51447357D01*
X77981730Y-51468400D01*
X77992220Y-51490579D01*
X78000485Y-51513678D01*
X78006446Y-51537477D01*
X78010046Y-51561745D01*
X78011250Y-51586249D01*
X78011250Y-52236251D01*
X78010046Y-52260755D01*
X78006446Y-52285023D01*
X78000485Y-52308822D01*
X77992220Y-52331921D01*
X77981730Y-52354100D01*
X77969118Y-52375143D01*
X77954503Y-52394849D01*
X77938027Y-52413027D01*
X77919849Y-52429503D01*
X77900143Y-52444118D01*
X77879100Y-52456730D01*
X77856921Y-52467220D01*
X77833822Y-52475485D01*
X77810023Y-52481446D01*
X77785755Y-52485046D01*
X77761251Y-52486250D01*
X76861249Y-52486250D01*
X76836745Y-52485046D01*
X76812477Y-52481446D01*
X76788678Y-52475485D01*
X76765579Y-52467220D01*
X76743400Y-52456730D01*
X76722357Y-52444118D01*
X76702651Y-52429503D01*
X76684473Y-52413027D01*
X76667997Y-52394849D01*
X76653382Y-52375143D01*
X76640770Y-52354100D01*
X76630280Y-52331921D01*
X76622015Y-52308822D01*
X76616054Y-52285023D01*
X76612454Y-52260755D01*
X76611250Y-52236251D01*
X76611250Y-51586249D01*
X76612454Y-51561745D01*
X76616054Y-51537477D01*
X76622015Y-51513678D01*
X76630280Y-51490579D01*
X76640770Y-51468400D01*
X76653382Y-51447357D01*
X76667997Y-51427651D01*
X76684473Y-51409473D01*
X76702651Y-51392997D01*
X76722357Y-51378382D01*
X76743400Y-51365770D01*
X76765579Y-51355280D01*
X76788678Y-51347015D01*
X76812477Y-51341054D01*
X76836745Y-51337454D01*
X76861249Y-51336250D01*
X77761251Y-51336250D01*
X77785755Y-51337454D01*
X77785755Y-51337454D01*
G37*
D19*
X77311250Y-51911250D03*
D14*
G36*
X77785755Y-53387454D02*
G01*
X77810023Y-53391054D01*
X77833822Y-53397015D01*
X77856921Y-53405280D01*
X77879100Y-53415770D01*
X77900143Y-53428382D01*
X77919849Y-53442997D01*
X77938027Y-53459473D01*
X77954503Y-53477651D01*
X77969118Y-53497357D01*
X77981730Y-53518400D01*
X77992220Y-53540579D01*
X78000485Y-53563678D01*
X78006446Y-53587477D01*
X78010046Y-53611745D01*
X78011250Y-53636249D01*
X78011250Y-54286251D01*
X78010046Y-54310755D01*
X78006446Y-54335023D01*
X78000485Y-54358822D01*
X77992220Y-54381921D01*
X77981730Y-54404100D01*
X77969118Y-54425143D01*
X77954503Y-54444849D01*
X77938027Y-54463027D01*
X77919849Y-54479503D01*
X77900143Y-54494118D01*
X77879100Y-54506730D01*
X77856921Y-54517220D01*
X77833822Y-54525485D01*
X77810023Y-54531446D01*
X77785755Y-54535046D01*
X77761251Y-54536250D01*
X76861249Y-54536250D01*
X76836745Y-54535046D01*
X76812477Y-54531446D01*
X76788678Y-54525485D01*
X76765579Y-54517220D01*
X76743400Y-54506730D01*
X76722357Y-54494118D01*
X76702651Y-54479503D01*
X76684473Y-54463027D01*
X76667997Y-54444849D01*
X76653382Y-54425143D01*
X76640770Y-54404100D01*
X76630280Y-54381921D01*
X76622015Y-54358822D01*
X76616054Y-54335023D01*
X76612454Y-54310755D01*
X76611250Y-54286251D01*
X76611250Y-53636249D01*
X76612454Y-53611745D01*
X76616054Y-53587477D01*
X76622015Y-53563678D01*
X76630280Y-53540579D01*
X76640770Y-53518400D01*
X76653382Y-53497357D01*
X76667997Y-53477651D01*
X76684473Y-53459473D01*
X76702651Y-53442997D01*
X76722357Y-53428382D01*
X76743400Y-53415770D01*
X76765579Y-53405280D01*
X76788678Y-53397015D01*
X76812477Y-53391054D01*
X76836745Y-53387454D01*
X76861249Y-53386250D01*
X77761251Y-53386250D01*
X77785755Y-53387454D01*
X77785755Y-53387454D01*
G37*
D19*
X77311250Y-53961250D03*
D14*
G36*
X75245755Y-51337454D02*
G01*
X75270023Y-51341054D01*
X75293822Y-51347015D01*
X75316921Y-51355280D01*
X75339100Y-51365770D01*
X75360143Y-51378382D01*
X75379849Y-51392997D01*
X75398027Y-51409473D01*
X75414503Y-51427651D01*
X75429118Y-51447357D01*
X75441730Y-51468400D01*
X75452220Y-51490579D01*
X75460485Y-51513678D01*
X75466446Y-51537477D01*
X75470046Y-51561745D01*
X75471250Y-51586249D01*
X75471250Y-52236251D01*
X75470046Y-52260755D01*
X75466446Y-52285023D01*
X75460485Y-52308822D01*
X75452220Y-52331921D01*
X75441730Y-52354100D01*
X75429118Y-52375143D01*
X75414503Y-52394849D01*
X75398027Y-52413027D01*
X75379849Y-52429503D01*
X75360143Y-52444118D01*
X75339100Y-52456730D01*
X75316921Y-52467220D01*
X75293822Y-52475485D01*
X75270023Y-52481446D01*
X75245755Y-52485046D01*
X75221251Y-52486250D01*
X74321249Y-52486250D01*
X74296745Y-52485046D01*
X74272477Y-52481446D01*
X74248678Y-52475485D01*
X74225579Y-52467220D01*
X74203400Y-52456730D01*
X74182357Y-52444118D01*
X74162651Y-52429503D01*
X74144473Y-52413027D01*
X74127997Y-52394849D01*
X74113382Y-52375143D01*
X74100770Y-52354100D01*
X74090280Y-52331921D01*
X74082015Y-52308822D01*
X74076054Y-52285023D01*
X74072454Y-52260755D01*
X74071250Y-52236251D01*
X74071250Y-51586249D01*
X74072454Y-51561745D01*
X74076054Y-51537477D01*
X74082015Y-51513678D01*
X74090280Y-51490579D01*
X74100770Y-51468400D01*
X74113382Y-51447357D01*
X74127997Y-51427651D01*
X74144473Y-51409473D01*
X74162651Y-51392997D01*
X74182357Y-51378382D01*
X74203400Y-51365770D01*
X74225579Y-51355280D01*
X74248678Y-51347015D01*
X74272477Y-51341054D01*
X74296745Y-51337454D01*
X74321249Y-51336250D01*
X75221251Y-51336250D01*
X75245755Y-51337454D01*
X75245755Y-51337454D01*
G37*
D19*
X74771250Y-51911250D03*
D14*
G36*
X75245755Y-53387454D02*
G01*
X75270023Y-53391054D01*
X75293822Y-53397015D01*
X75316921Y-53405280D01*
X75339100Y-53415770D01*
X75360143Y-53428382D01*
X75379849Y-53442997D01*
X75398027Y-53459473D01*
X75414503Y-53477651D01*
X75429118Y-53497357D01*
X75441730Y-53518400D01*
X75452220Y-53540579D01*
X75460485Y-53563678D01*
X75466446Y-53587477D01*
X75470046Y-53611745D01*
X75471250Y-53636249D01*
X75471250Y-54286251D01*
X75470046Y-54310755D01*
X75466446Y-54335023D01*
X75460485Y-54358822D01*
X75452220Y-54381921D01*
X75441730Y-54404100D01*
X75429118Y-54425143D01*
X75414503Y-54444849D01*
X75398027Y-54463027D01*
X75379849Y-54479503D01*
X75360143Y-54494118D01*
X75339100Y-54506730D01*
X75316921Y-54517220D01*
X75293822Y-54525485D01*
X75270023Y-54531446D01*
X75245755Y-54535046D01*
X75221251Y-54536250D01*
X74321249Y-54536250D01*
X74296745Y-54535046D01*
X74272477Y-54531446D01*
X74248678Y-54525485D01*
X74225579Y-54517220D01*
X74203400Y-54506730D01*
X74182357Y-54494118D01*
X74162651Y-54479503D01*
X74144473Y-54463027D01*
X74127997Y-54444849D01*
X74113382Y-54425143D01*
X74100770Y-54404100D01*
X74090280Y-54381921D01*
X74082015Y-54358822D01*
X74076054Y-54335023D01*
X74072454Y-54310755D01*
X74071250Y-54286251D01*
X74071250Y-53636249D01*
X74072454Y-53611745D01*
X74076054Y-53587477D01*
X74082015Y-53563678D01*
X74090280Y-53540579D01*
X74100770Y-53518400D01*
X74113382Y-53497357D01*
X74127997Y-53477651D01*
X74144473Y-53459473D01*
X74162651Y-53442997D01*
X74182357Y-53428382D01*
X74203400Y-53415770D01*
X74225579Y-53405280D01*
X74248678Y-53397015D01*
X74272477Y-53391054D01*
X74296745Y-53387454D01*
X74321249Y-53386250D01*
X75221251Y-53386250D01*
X75245755Y-53387454D01*
X75245755Y-53387454D01*
G37*
D19*
X74771250Y-53961250D03*
M02*
