G04 #@! TF.GenerationSoftware,KiCad,Pcbnew,(5.1.4-0-10_14)*
G04 #@! TF.CreationDate,2020-04-02T23:17:02+02:00*
G04 #@! TF.ProjectId,threeboard,74687265-6562-46f6-9172-642e6b696361,rev?*
G04 #@! TF.SameCoordinates,Original*
G04 #@! TF.FileFunction,Soldermask,Top*
G04 #@! TF.FilePolarity,Negative*
%FSLAX46Y46*%
G04 Gerber Fmt 4.6, Leading zero omitted, Abs format (unit mm)*
G04 Created by KiCad (PCBNEW (5.1.4-0-10_14)) date 2020-04-02 23:17:02*
%MOMM*%
%LPD*%
G04 APERTURE LIST*
%ADD10C,0.100000*%
G04 APERTURE END LIST*
D10*
G36*
X55670830Y-68104063D02*
G01*
X55910442Y-68194963D01*
X56127716Y-68330863D01*
X56314303Y-68506538D01*
X56425660Y-68662800D01*
X56463031Y-68715240D01*
X56568186Y-68948947D01*
X56568187Y-68948951D01*
X56625727Y-69198678D01*
X56631509Y-69390644D01*
X56631508Y-69390652D01*
X56583367Y-70096821D01*
X56551586Y-70286233D01*
X56460686Y-70525845D01*
X56407817Y-70610371D01*
X56324786Y-70743119D01*
X56149111Y-70929706D01*
X55992849Y-71041063D01*
X55940409Y-71078434D01*
X55706702Y-71183589D01*
X55706698Y-71183590D01*
X55456972Y-71241130D01*
X55200817Y-71248844D01*
X55200813Y-71248844D01*
X54948072Y-71206437D01*
X54708460Y-71115537D01*
X54491186Y-70979637D01*
X54438154Y-70929706D01*
X54304599Y-70803962D01*
X54188501Y-70641047D01*
X54155871Y-70595260D01*
X54050716Y-70361553D01*
X54031558Y-70278407D01*
X53993175Y-70111822D01*
X53987393Y-69919858D01*
X54035535Y-69213678D01*
X54040101Y-69186463D01*
X54067316Y-69024267D01*
X54158216Y-68784655D01*
X54294116Y-68567381D01*
X54351401Y-68506538D01*
X54469791Y-68380794D01*
X54626053Y-68269437D01*
X54678493Y-68232066D01*
X54912200Y-68126911D01*
X54912204Y-68126910D01*
X55161930Y-68069370D01*
X55418085Y-68061656D01*
X55418089Y-68061656D01*
X55670830Y-68104063D01*
X55670830Y-68104063D01*
G37*
G36*
X74644629Y-68104063D02*
G01*
X74884241Y-68194963D01*
X75101515Y-68330863D01*
X75288102Y-68506538D01*
X75399459Y-68662800D01*
X75436830Y-68715240D01*
X75541985Y-68948947D01*
X75541986Y-68948951D01*
X75599526Y-69198678D01*
X75605308Y-69390644D01*
X75605307Y-69390652D01*
X75557166Y-70096821D01*
X75525385Y-70286233D01*
X75434485Y-70525845D01*
X75381616Y-70610371D01*
X75298585Y-70743119D01*
X75122910Y-70929706D01*
X74966648Y-71041063D01*
X74914208Y-71078434D01*
X74680501Y-71183589D01*
X74680497Y-71183590D01*
X74430771Y-71241130D01*
X74174616Y-71248844D01*
X74174612Y-71248844D01*
X73921871Y-71206437D01*
X73682259Y-71115537D01*
X73464985Y-70979637D01*
X73411953Y-70929706D01*
X73278398Y-70803962D01*
X73162300Y-70641047D01*
X73129670Y-70595260D01*
X73024515Y-70361553D01*
X73005357Y-70278407D01*
X72966974Y-70111822D01*
X72961192Y-69919858D01*
X73009334Y-69213678D01*
X73013900Y-69186463D01*
X73041115Y-69024267D01*
X73132015Y-68784655D01*
X73267915Y-68567381D01*
X73325200Y-68506538D01*
X73443590Y-68380794D01*
X73599852Y-68269437D01*
X73652292Y-68232066D01*
X73885999Y-68126911D01*
X73886003Y-68126910D01*
X74135729Y-68069370D01*
X74391884Y-68061656D01*
X74391888Y-68061656D01*
X74644629Y-68104063D01*
X74644629Y-68104063D01*
G37*
G36*
X93694629Y-68104063D02*
G01*
X93934241Y-68194963D01*
X94151515Y-68330863D01*
X94338102Y-68506538D01*
X94449459Y-68662800D01*
X94486830Y-68715240D01*
X94591985Y-68948947D01*
X94591986Y-68948951D01*
X94649526Y-69198678D01*
X94655308Y-69390644D01*
X94655307Y-69390652D01*
X94607166Y-70096821D01*
X94575385Y-70286233D01*
X94484485Y-70525845D01*
X94431616Y-70610371D01*
X94348585Y-70743119D01*
X94172910Y-70929706D01*
X94016648Y-71041063D01*
X93964208Y-71078434D01*
X93730501Y-71183589D01*
X93730497Y-71183590D01*
X93480771Y-71241130D01*
X93224616Y-71248844D01*
X93224612Y-71248844D01*
X92971871Y-71206437D01*
X92732259Y-71115537D01*
X92514985Y-70979637D01*
X92461953Y-70929706D01*
X92328398Y-70803962D01*
X92212300Y-70641047D01*
X92179670Y-70595260D01*
X92074515Y-70361553D01*
X92055357Y-70278407D01*
X92016974Y-70111822D01*
X92011192Y-69919858D01*
X92059334Y-69213678D01*
X92063900Y-69186463D01*
X92091115Y-69024267D01*
X92182015Y-68784655D01*
X92317915Y-68567381D01*
X92375200Y-68506538D01*
X92493590Y-68380794D01*
X92649852Y-68269437D01*
X92702292Y-68232066D01*
X92935999Y-68126911D01*
X92936003Y-68126910D01*
X93185729Y-68069370D01*
X93441884Y-68061656D01*
X93441888Y-68061656D01*
X93694629Y-68104063D01*
X93694629Y-68104063D01*
G37*
G36*
X80804544Y-66142486D02*
G01*
X80889721Y-66149003D01*
X80929503Y-66160129D01*
X81136525Y-66218027D01*
X81365120Y-66333875D01*
X81566722Y-66492093D01*
X81733584Y-66686603D01*
X81859293Y-66909928D01*
X81937608Y-67149181D01*
X81939018Y-67153489D01*
X81969694Y-67407916D01*
X81969694Y-67407917D01*
X81950145Y-67663445D01*
X81896205Y-67856310D01*
X81881120Y-67910250D01*
X81794300Y-68081566D01*
X80516704Y-70086988D01*
X80516702Y-70086990D01*
X80398130Y-70238076D01*
X80203623Y-70404936D01*
X80067005Y-70481837D01*
X79980295Y-70530646D01*
X79782898Y-70595260D01*
X79736734Y-70610371D01*
X79482307Y-70641047D01*
X79482306Y-70641047D01*
X79226779Y-70621498D01*
X78979975Y-70552473D01*
X78979974Y-70552473D01*
X78979972Y-70552472D01*
X78751385Y-70436628D01*
X78751383Y-70436627D01*
X78751380Y-70436625D01*
X78549778Y-70278407D01*
X78549774Y-70278404D01*
X78382917Y-70083900D01*
X78257208Y-69860573D01*
X78257207Y-69860572D01*
X78177483Y-69617014D01*
X78177482Y-69617011D01*
X78146806Y-69362584D01*
X78158198Y-69213679D01*
X78166355Y-69107056D01*
X78235380Y-68860252D01*
X78235380Y-68860251D01*
X78322200Y-68688935D01*
X79599795Y-66683512D01*
X79718369Y-66532425D01*
X79912879Y-66365563D01*
X79912880Y-66365562D01*
X80136198Y-66239856D01*
X80136204Y-66239854D01*
X80379761Y-66160130D01*
X80379762Y-66160130D01*
X80379765Y-66160129D01*
X80634191Y-66129453D01*
X80634193Y-66129453D01*
X80804544Y-66142486D01*
X80804544Y-66142486D01*
G37*
G36*
X61830745Y-66142486D02*
G01*
X61915922Y-66149003D01*
X61955704Y-66160129D01*
X62162726Y-66218027D01*
X62391321Y-66333875D01*
X62592923Y-66492093D01*
X62759785Y-66686603D01*
X62885494Y-66909928D01*
X62963809Y-67149181D01*
X62965219Y-67153489D01*
X62995895Y-67407916D01*
X62995895Y-67407917D01*
X62976346Y-67663445D01*
X62922406Y-67856310D01*
X62907321Y-67910250D01*
X62820501Y-68081566D01*
X61542905Y-70086988D01*
X61542903Y-70086990D01*
X61424331Y-70238076D01*
X61229824Y-70404936D01*
X61093206Y-70481837D01*
X61006496Y-70530646D01*
X60809099Y-70595260D01*
X60762935Y-70610371D01*
X60508508Y-70641047D01*
X60508507Y-70641047D01*
X60252980Y-70621498D01*
X60006176Y-70552473D01*
X60006175Y-70552473D01*
X60006173Y-70552472D01*
X59777586Y-70436628D01*
X59777584Y-70436627D01*
X59777581Y-70436625D01*
X59575979Y-70278407D01*
X59575975Y-70278404D01*
X59409118Y-70083900D01*
X59283409Y-69860573D01*
X59283408Y-69860572D01*
X59203684Y-69617014D01*
X59203683Y-69617011D01*
X59173007Y-69362584D01*
X59184399Y-69213679D01*
X59192556Y-69107056D01*
X59261581Y-68860252D01*
X59261581Y-68860251D01*
X59348401Y-68688935D01*
X60625996Y-66683512D01*
X60744570Y-66532425D01*
X60939080Y-66365563D01*
X60939081Y-66365562D01*
X61162399Y-66239856D01*
X61162405Y-66239854D01*
X61405962Y-66160130D01*
X61405963Y-66160130D01*
X61405966Y-66160129D01*
X61660392Y-66129453D01*
X61660394Y-66129453D01*
X61830745Y-66142486D01*
X61830745Y-66142486D01*
G37*
G36*
X99854544Y-66142486D02*
G01*
X99939721Y-66149003D01*
X99979503Y-66160129D01*
X100186525Y-66218027D01*
X100415120Y-66333875D01*
X100616722Y-66492093D01*
X100783584Y-66686603D01*
X100909293Y-66909928D01*
X100987608Y-67149181D01*
X100989018Y-67153489D01*
X101019694Y-67407916D01*
X101019694Y-67407917D01*
X101000145Y-67663445D01*
X100946205Y-67856310D01*
X100931120Y-67910250D01*
X100887710Y-67995907D01*
X100844300Y-68081566D01*
X99566704Y-70086988D01*
X99566702Y-70086990D01*
X99448130Y-70238076D01*
X99253623Y-70404936D01*
X99117005Y-70481837D01*
X99030295Y-70530646D01*
X98832898Y-70595260D01*
X98786734Y-70610371D01*
X98532307Y-70641047D01*
X98532306Y-70641047D01*
X98276779Y-70621498D01*
X98029975Y-70552473D01*
X98029974Y-70552473D01*
X98029972Y-70552472D01*
X97801385Y-70436628D01*
X97801383Y-70436627D01*
X97801380Y-70436625D01*
X97599778Y-70278407D01*
X97599774Y-70278404D01*
X97432917Y-70083900D01*
X97307208Y-69860573D01*
X97307207Y-69860572D01*
X97227483Y-69617014D01*
X97227482Y-69617011D01*
X97196806Y-69362584D01*
X97208198Y-69213679D01*
X97216355Y-69107056D01*
X97285380Y-68860252D01*
X97285380Y-68860251D01*
X97372200Y-68688935D01*
X98649795Y-66683512D01*
X98768369Y-66532425D01*
X98962879Y-66365563D01*
X98962880Y-66365562D01*
X99186198Y-66239856D01*
X99186204Y-66239854D01*
X99429761Y-66160130D01*
X99429762Y-66160130D01*
X99429765Y-66160129D01*
X99684191Y-66129453D01*
X99684193Y-66129453D01*
X99854544Y-66142486D01*
X99854544Y-66142486D01*
G37*
G36*
X75810645Y-44900796D02*
G01*
X75983716Y-44972484D01*
X75983717Y-44972485D01*
X76139477Y-45076560D01*
X76271940Y-45209023D01*
X76271941Y-45209025D01*
X76376016Y-45364784D01*
X76447704Y-45537855D01*
X76484250Y-45721583D01*
X76484250Y-45908917D01*
X76447704Y-46092645D01*
X76376016Y-46265716D01*
X76376015Y-46265717D01*
X76271940Y-46421477D01*
X76139477Y-46553940D01*
X76061068Y-46606331D01*
X75983716Y-46658016D01*
X75810645Y-46729704D01*
X75626917Y-46766250D01*
X75439583Y-46766250D01*
X75255855Y-46729704D01*
X75082784Y-46658016D01*
X75005432Y-46606331D01*
X74927023Y-46553940D01*
X74794560Y-46421477D01*
X74690485Y-46265717D01*
X74690484Y-46265716D01*
X74618796Y-46092645D01*
X74582250Y-45908917D01*
X74582250Y-45721583D01*
X74618796Y-45537855D01*
X74690484Y-45364784D01*
X74794559Y-45209025D01*
X74794560Y-45209023D01*
X74927023Y-45076560D01*
X75082783Y-44972485D01*
X75082784Y-44972484D01*
X75255855Y-44900796D01*
X75439583Y-44864250D01*
X75626917Y-44864250D01*
X75810645Y-44900796D01*
X75810645Y-44900796D01*
G37*
G36*
X73944250Y-46766250D02*
G01*
X72042250Y-46766250D01*
X72042250Y-44864250D01*
X73944250Y-44864250D01*
X73944250Y-46766250D01*
X73944250Y-46766250D01*
G37*
G36*
X70222645Y-44900796D02*
G01*
X70395716Y-44972484D01*
X70395717Y-44972485D01*
X70551477Y-45076560D01*
X70683940Y-45209023D01*
X70683941Y-45209025D01*
X70788016Y-45364784D01*
X70859704Y-45537855D01*
X70896250Y-45721583D01*
X70896250Y-45908917D01*
X70859704Y-46092645D01*
X70788016Y-46265716D01*
X70788015Y-46265717D01*
X70683940Y-46421477D01*
X70551477Y-46553940D01*
X70473068Y-46606331D01*
X70395716Y-46658016D01*
X70222645Y-46729704D01*
X70038917Y-46766250D01*
X69851583Y-46766250D01*
X69667855Y-46729704D01*
X69494784Y-46658016D01*
X69417432Y-46606331D01*
X69339023Y-46553940D01*
X69206560Y-46421477D01*
X69102485Y-46265717D01*
X69102484Y-46265716D01*
X69030796Y-46092645D01*
X68994250Y-45908917D01*
X68994250Y-45721583D01*
X69030796Y-45537855D01*
X69102484Y-45364784D01*
X69206559Y-45209025D01*
X69206560Y-45209023D01*
X69339023Y-45076560D01*
X69494783Y-44972485D01*
X69494784Y-44972484D01*
X69667855Y-44900796D01*
X69851583Y-44864250D01*
X70038917Y-44864250D01*
X70222645Y-44900796D01*
X70222645Y-44900796D01*
G37*
G36*
X68356250Y-46766250D02*
G01*
X66454250Y-46766250D01*
X66454250Y-44864250D01*
X68356250Y-44864250D01*
X68356250Y-46766250D01*
X68356250Y-46766250D01*
G37*
G36*
X64634645Y-44900796D02*
G01*
X64807716Y-44972484D01*
X64807717Y-44972485D01*
X64963477Y-45076560D01*
X65095940Y-45209023D01*
X65095941Y-45209025D01*
X65200016Y-45364784D01*
X65271704Y-45537855D01*
X65308250Y-45721583D01*
X65308250Y-45908917D01*
X65271704Y-46092645D01*
X65200016Y-46265716D01*
X65200015Y-46265717D01*
X65095940Y-46421477D01*
X64963477Y-46553940D01*
X64885068Y-46606331D01*
X64807716Y-46658016D01*
X64634645Y-46729704D01*
X64450917Y-46766250D01*
X64263583Y-46766250D01*
X64079855Y-46729704D01*
X63906784Y-46658016D01*
X63829432Y-46606331D01*
X63751023Y-46553940D01*
X63618560Y-46421477D01*
X63514485Y-46265717D01*
X63514484Y-46265716D01*
X63442796Y-46092645D01*
X63406250Y-45908917D01*
X63406250Y-45721583D01*
X63442796Y-45537855D01*
X63514484Y-45364784D01*
X63618559Y-45209025D01*
X63618560Y-45209023D01*
X63751023Y-45076560D01*
X63906783Y-44972485D01*
X63906784Y-44972484D01*
X64079855Y-44900796D01*
X64263583Y-44864250D01*
X64450917Y-44864250D01*
X64634645Y-44900796D01*
X64634645Y-44900796D01*
G37*
G36*
X62768250Y-46766250D02*
G01*
X60866250Y-46766250D01*
X60866250Y-44864250D01*
X62768250Y-44864250D01*
X62768250Y-46766250D01*
X62768250Y-46766250D01*
G37*
G36*
X59046645Y-44900796D02*
G01*
X59219716Y-44972484D01*
X59219717Y-44972485D01*
X59375477Y-45076560D01*
X59507940Y-45209023D01*
X59507941Y-45209025D01*
X59612016Y-45364784D01*
X59683704Y-45537855D01*
X59720250Y-45721583D01*
X59720250Y-45908917D01*
X59683704Y-46092645D01*
X59612016Y-46265716D01*
X59612015Y-46265717D01*
X59507940Y-46421477D01*
X59375477Y-46553940D01*
X59297068Y-46606331D01*
X59219716Y-46658016D01*
X59046645Y-46729704D01*
X58862917Y-46766250D01*
X58675583Y-46766250D01*
X58491855Y-46729704D01*
X58318784Y-46658016D01*
X58241432Y-46606331D01*
X58163023Y-46553940D01*
X58030560Y-46421477D01*
X57926485Y-46265717D01*
X57926484Y-46265716D01*
X57854796Y-46092645D01*
X57818250Y-45908917D01*
X57818250Y-45721583D01*
X57854796Y-45537855D01*
X57926484Y-45364784D01*
X58030559Y-45209025D01*
X58030560Y-45209023D01*
X58163023Y-45076560D01*
X58318783Y-44972485D01*
X58318784Y-44972484D01*
X58491855Y-44900796D01*
X58675583Y-44864250D01*
X58862917Y-44864250D01*
X59046645Y-44900796D01*
X59046645Y-44900796D01*
G37*
G36*
X57180250Y-46766250D02*
G01*
X55278250Y-46766250D01*
X55278250Y-44864250D01*
X57180250Y-44864250D01*
X57180250Y-46766250D01*
X57180250Y-46766250D01*
G37*
G36*
X53458645Y-44900796D02*
G01*
X53631716Y-44972484D01*
X53631717Y-44972485D01*
X53787477Y-45076560D01*
X53919940Y-45209023D01*
X53919941Y-45209025D01*
X54024016Y-45364784D01*
X54095704Y-45537855D01*
X54132250Y-45721583D01*
X54132250Y-45908917D01*
X54095704Y-46092645D01*
X54024016Y-46265716D01*
X54024015Y-46265717D01*
X53919940Y-46421477D01*
X53787477Y-46553940D01*
X53709068Y-46606331D01*
X53631716Y-46658016D01*
X53458645Y-46729704D01*
X53274917Y-46766250D01*
X53087583Y-46766250D01*
X52903855Y-46729704D01*
X52730784Y-46658016D01*
X52653432Y-46606331D01*
X52575023Y-46553940D01*
X52442560Y-46421477D01*
X52338485Y-46265717D01*
X52338484Y-46265716D01*
X52266796Y-46092645D01*
X52230250Y-45908917D01*
X52230250Y-45721583D01*
X52266796Y-45537855D01*
X52338484Y-45364784D01*
X52442559Y-45209025D01*
X52442560Y-45209023D01*
X52575023Y-45076560D01*
X52730783Y-44972485D01*
X52730784Y-44972484D01*
X52903855Y-44900796D01*
X53087583Y-44864250D01*
X53274917Y-44864250D01*
X53458645Y-44900796D01*
X53458645Y-44900796D01*
G37*
G36*
X51592250Y-46766250D02*
G01*
X49690250Y-46766250D01*
X49690250Y-44864250D01*
X51592250Y-44864250D01*
X51592250Y-46766250D01*
X51592250Y-46766250D01*
G37*
G36*
X90708250Y-46766250D02*
G01*
X88806250Y-46766250D01*
X88806250Y-44864250D01*
X90708250Y-44864250D01*
X90708250Y-46766250D01*
X90708250Y-46766250D01*
G37*
G36*
X92574645Y-44900796D02*
G01*
X92747716Y-44972484D01*
X92747717Y-44972485D01*
X92903477Y-45076560D01*
X93035940Y-45209023D01*
X93035941Y-45209025D01*
X93140016Y-45364784D01*
X93211704Y-45537855D01*
X93248250Y-45721583D01*
X93248250Y-45908917D01*
X93211704Y-46092645D01*
X93140016Y-46265716D01*
X93140015Y-46265717D01*
X93035940Y-46421477D01*
X92903477Y-46553940D01*
X92825068Y-46606331D01*
X92747716Y-46658016D01*
X92574645Y-46729704D01*
X92390917Y-46766250D01*
X92203583Y-46766250D01*
X92019855Y-46729704D01*
X91846784Y-46658016D01*
X91769432Y-46606331D01*
X91691023Y-46553940D01*
X91558560Y-46421477D01*
X91454485Y-46265717D01*
X91454484Y-46265716D01*
X91382796Y-46092645D01*
X91346250Y-45908917D01*
X91346250Y-45721583D01*
X91382796Y-45537855D01*
X91454484Y-45364784D01*
X91558559Y-45209025D01*
X91558560Y-45209023D01*
X91691023Y-45076560D01*
X91846783Y-44972485D01*
X91846784Y-44972484D01*
X92019855Y-44900796D01*
X92203583Y-44864250D01*
X92390917Y-44864250D01*
X92574645Y-44900796D01*
X92574645Y-44900796D01*
G37*
G36*
X85120250Y-46766250D02*
G01*
X83218250Y-46766250D01*
X83218250Y-44864250D01*
X85120250Y-44864250D01*
X85120250Y-46766250D01*
X85120250Y-46766250D01*
G37*
G36*
X86986645Y-44900796D02*
G01*
X87159716Y-44972484D01*
X87159717Y-44972485D01*
X87315477Y-45076560D01*
X87447940Y-45209023D01*
X87447941Y-45209025D01*
X87552016Y-45364784D01*
X87623704Y-45537855D01*
X87660250Y-45721583D01*
X87660250Y-45908917D01*
X87623704Y-46092645D01*
X87552016Y-46265716D01*
X87552015Y-46265717D01*
X87447940Y-46421477D01*
X87315477Y-46553940D01*
X87237068Y-46606331D01*
X87159716Y-46658016D01*
X86986645Y-46729704D01*
X86802917Y-46766250D01*
X86615583Y-46766250D01*
X86431855Y-46729704D01*
X86258784Y-46658016D01*
X86181432Y-46606331D01*
X86103023Y-46553940D01*
X85970560Y-46421477D01*
X85866485Y-46265717D01*
X85866484Y-46265716D01*
X85794796Y-46092645D01*
X85758250Y-45908917D01*
X85758250Y-45721583D01*
X85794796Y-45537855D01*
X85866484Y-45364784D01*
X85970559Y-45209025D01*
X85970560Y-45209023D01*
X86103023Y-45076560D01*
X86258783Y-44972485D01*
X86258784Y-44972484D01*
X86431855Y-44900796D01*
X86615583Y-44864250D01*
X86802917Y-44864250D01*
X86986645Y-44900796D01*
X86986645Y-44900796D01*
G37*
G36*
X79532250Y-46766250D02*
G01*
X77630250Y-46766250D01*
X77630250Y-44864250D01*
X79532250Y-44864250D01*
X79532250Y-46766250D01*
X79532250Y-46766250D01*
G37*
G36*
X81398645Y-44900796D02*
G01*
X81571716Y-44972484D01*
X81571717Y-44972485D01*
X81727477Y-45076560D01*
X81859940Y-45209023D01*
X81859941Y-45209025D01*
X81964016Y-45364784D01*
X82035704Y-45537855D01*
X82072250Y-45721583D01*
X82072250Y-45908917D01*
X82035704Y-46092645D01*
X81964016Y-46265716D01*
X81964015Y-46265717D01*
X81859940Y-46421477D01*
X81727477Y-46553940D01*
X81649068Y-46606331D01*
X81571716Y-46658016D01*
X81398645Y-46729704D01*
X81214917Y-46766250D01*
X81027583Y-46766250D01*
X80843855Y-46729704D01*
X80670784Y-46658016D01*
X80593432Y-46606331D01*
X80515023Y-46553940D01*
X80382560Y-46421477D01*
X80278485Y-46265717D01*
X80278484Y-46265716D01*
X80206796Y-46092645D01*
X80170250Y-45908917D01*
X80170250Y-45721583D01*
X80206796Y-45537855D01*
X80278484Y-45364784D01*
X80382559Y-45209025D01*
X80382560Y-45209023D01*
X80515023Y-45076560D01*
X80670783Y-44972485D01*
X80670784Y-44972484D01*
X80843855Y-44900796D01*
X81027583Y-44864250D01*
X81214917Y-44864250D01*
X81398645Y-44900796D01*
X81398645Y-44900796D01*
G37*
G36*
X53458645Y-36772796D02*
G01*
X53631716Y-36844484D01*
X53631717Y-36844485D01*
X53787477Y-36948560D01*
X53919940Y-37081023D01*
X53919941Y-37081025D01*
X54024016Y-37236784D01*
X54095704Y-37409855D01*
X54132250Y-37593583D01*
X54132250Y-37780917D01*
X54095704Y-37964645D01*
X54024016Y-38137716D01*
X54024015Y-38137717D01*
X53919940Y-38293477D01*
X53787477Y-38425940D01*
X53709068Y-38478331D01*
X53631716Y-38530016D01*
X53458645Y-38601704D01*
X53274917Y-38638250D01*
X53087583Y-38638250D01*
X52903855Y-38601704D01*
X52730784Y-38530016D01*
X52653432Y-38478331D01*
X52575023Y-38425940D01*
X52442560Y-38293477D01*
X52338485Y-38137717D01*
X52338484Y-38137716D01*
X52266796Y-37964645D01*
X52230250Y-37780917D01*
X52230250Y-37593583D01*
X52266796Y-37409855D01*
X52338484Y-37236784D01*
X52442559Y-37081025D01*
X52442560Y-37081023D01*
X52575023Y-36948560D01*
X52730783Y-36844485D01*
X52730784Y-36844484D01*
X52903855Y-36772796D01*
X53087583Y-36736250D01*
X53274917Y-36736250D01*
X53458645Y-36772796D01*
X53458645Y-36772796D01*
G37*
G36*
X51592250Y-38638250D02*
G01*
X49690250Y-38638250D01*
X49690250Y-36736250D01*
X51592250Y-36736250D01*
X51592250Y-38638250D01*
X51592250Y-38638250D01*
G37*
G36*
X92574645Y-36772796D02*
G01*
X92747716Y-36844484D01*
X92747717Y-36844485D01*
X92903477Y-36948560D01*
X93035940Y-37081023D01*
X93035941Y-37081025D01*
X93140016Y-37236784D01*
X93211704Y-37409855D01*
X93248250Y-37593583D01*
X93248250Y-37780917D01*
X93211704Y-37964645D01*
X93140016Y-38137716D01*
X93140015Y-38137717D01*
X93035940Y-38293477D01*
X92903477Y-38425940D01*
X92825068Y-38478331D01*
X92747716Y-38530016D01*
X92574645Y-38601704D01*
X92390917Y-38638250D01*
X92203583Y-38638250D01*
X92019855Y-38601704D01*
X91846784Y-38530016D01*
X91769432Y-38478331D01*
X91691023Y-38425940D01*
X91558560Y-38293477D01*
X91454485Y-38137717D01*
X91454484Y-38137716D01*
X91382796Y-37964645D01*
X91346250Y-37780917D01*
X91346250Y-37593583D01*
X91382796Y-37409855D01*
X91454484Y-37236784D01*
X91558559Y-37081025D01*
X91558560Y-37081023D01*
X91691023Y-36948560D01*
X91846783Y-36844485D01*
X91846784Y-36844484D01*
X92019855Y-36772796D01*
X92203583Y-36736250D01*
X92390917Y-36736250D01*
X92574645Y-36772796D01*
X92574645Y-36772796D01*
G37*
G36*
X90708250Y-38638250D02*
G01*
X88806250Y-38638250D01*
X88806250Y-36736250D01*
X90708250Y-36736250D01*
X90708250Y-38638250D01*
X90708250Y-38638250D01*
G37*
G36*
X86986645Y-36772796D02*
G01*
X87159716Y-36844484D01*
X87159717Y-36844485D01*
X87315477Y-36948560D01*
X87447940Y-37081023D01*
X87447941Y-37081025D01*
X87552016Y-37236784D01*
X87623704Y-37409855D01*
X87660250Y-37593583D01*
X87660250Y-37780917D01*
X87623704Y-37964645D01*
X87552016Y-38137716D01*
X87552015Y-38137717D01*
X87447940Y-38293477D01*
X87315477Y-38425940D01*
X87237068Y-38478331D01*
X87159716Y-38530016D01*
X86986645Y-38601704D01*
X86802917Y-38638250D01*
X86615583Y-38638250D01*
X86431855Y-38601704D01*
X86258784Y-38530016D01*
X86181432Y-38478331D01*
X86103023Y-38425940D01*
X85970560Y-38293477D01*
X85866485Y-38137717D01*
X85866484Y-38137716D01*
X85794796Y-37964645D01*
X85758250Y-37780917D01*
X85758250Y-37593583D01*
X85794796Y-37409855D01*
X85866484Y-37236784D01*
X85970559Y-37081025D01*
X85970560Y-37081023D01*
X86103023Y-36948560D01*
X86258783Y-36844485D01*
X86258784Y-36844484D01*
X86431855Y-36772796D01*
X86615583Y-36736250D01*
X86802917Y-36736250D01*
X86986645Y-36772796D01*
X86986645Y-36772796D01*
G37*
G36*
X85120250Y-38638250D02*
G01*
X83218250Y-38638250D01*
X83218250Y-36736250D01*
X85120250Y-36736250D01*
X85120250Y-38638250D01*
X85120250Y-38638250D01*
G37*
G36*
X81398645Y-36772796D02*
G01*
X81571716Y-36844484D01*
X81571717Y-36844485D01*
X81727477Y-36948560D01*
X81859940Y-37081023D01*
X81859941Y-37081025D01*
X81964016Y-37236784D01*
X82035704Y-37409855D01*
X82072250Y-37593583D01*
X82072250Y-37780917D01*
X82035704Y-37964645D01*
X81964016Y-38137716D01*
X81964015Y-38137717D01*
X81859940Y-38293477D01*
X81727477Y-38425940D01*
X81649068Y-38478331D01*
X81571716Y-38530016D01*
X81398645Y-38601704D01*
X81214917Y-38638250D01*
X81027583Y-38638250D01*
X80843855Y-38601704D01*
X80670784Y-38530016D01*
X80593432Y-38478331D01*
X80515023Y-38425940D01*
X80382560Y-38293477D01*
X80278485Y-38137717D01*
X80278484Y-38137716D01*
X80206796Y-37964645D01*
X80170250Y-37780917D01*
X80170250Y-37593583D01*
X80206796Y-37409855D01*
X80278484Y-37236784D01*
X80382559Y-37081025D01*
X80382560Y-37081023D01*
X80515023Y-36948560D01*
X80670783Y-36844485D01*
X80670784Y-36844484D01*
X80843855Y-36772796D01*
X81027583Y-36736250D01*
X81214917Y-36736250D01*
X81398645Y-36772796D01*
X81398645Y-36772796D01*
G37*
G36*
X79532250Y-38638250D02*
G01*
X77630250Y-38638250D01*
X77630250Y-36736250D01*
X79532250Y-36736250D01*
X79532250Y-38638250D01*
X79532250Y-38638250D01*
G37*
G36*
X75810645Y-36772796D02*
G01*
X75983716Y-36844484D01*
X75983717Y-36844485D01*
X76139477Y-36948560D01*
X76271940Y-37081023D01*
X76271941Y-37081025D01*
X76376016Y-37236784D01*
X76447704Y-37409855D01*
X76484250Y-37593583D01*
X76484250Y-37780917D01*
X76447704Y-37964645D01*
X76376016Y-38137716D01*
X76376015Y-38137717D01*
X76271940Y-38293477D01*
X76139477Y-38425940D01*
X76061068Y-38478331D01*
X75983716Y-38530016D01*
X75810645Y-38601704D01*
X75626917Y-38638250D01*
X75439583Y-38638250D01*
X75255855Y-38601704D01*
X75082784Y-38530016D01*
X75005432Y-38478331D01*
X74927023Y-38425940D01*
X74794560Y-38293477D01*
X74690485Y-38137717D01*
X74690484Y-38137716D01*
X74618796Y-37964645D01*
X74582250Y-37780917D01*
X74582250Y-37593583D01*
X74618796Y-37409855D01*
X74690484Y-37236784D01*
X74794559Y-37081025D01*
X74794560Y-37081023D01*
X74927023Y-36948560D01*
X75082783Y-36844485D01*
X75082784Y-36844484D01*
X75255855Y-36772796D01*
X75439583Y-36736250D01*
X75626917Y-36736250D01*
X75810645Y-36772796D01*
X75810645Y-36772796D01*
G37*
G36*
X73944250Y-38638250D02*
G01*
X72042250Y-38638250D01*
X72042250Y-36736250D01*
X73944250Y-36736250D01*
X73944250Y-38638250D01*
X73944250Y-38638250D01*
G37*
G36*
X70222645Y-36772796D02*
G01*
X70395716Y-36844484D01*
X70395717Y-36844485D01*
X70551477Y-36948560D01*
X70683940Y-37081023D01*
X70683941Y-37081025D01*
X70788016Y-37236784D01*
X70859704Y-37409855D01*
X70896250Y-37593583D01*
X70896250Y-37780917D01*
X70859704Y-37964645D01*
X70788016Y-38137716D01*
X70788015Y-38137717D01*
X70683940Y-38293477D01*
X70551477Y-38425940D01*
X70473068Y-38478331D01*
X70395716Y-38530016D01*
X70222645Y-38601704D01*
X70038917Y-38638250D01*
X69851583Y-38638250D01*
X69667855Y-38601704D01*
X69494784Y-38530016D01*
X69417432Y-38478331D01*
X69339023Y-38425940D01*
X69206560Y-38293477D01*
X69102485Y-38137717D01*
X69102484Y-38137716D01*
X69030796Y-37964645D01*
X68994250Y-37780917D01*
X68994250Y-37593583D01*
X69030796Y-37409855D01*
X69102484Y-37236784D01*
X69206559Y-37081025D01*
X69206560Y-37081023D01*
X69339023Y-36948560D01*
X69494783Y-36844485D01*
X69494784Y-36844484D01*
X69667855Y-36772796D01*
X69851583Y-36736250D01*
X70038917Y-36736250D01*
X70222645Y-36772796D01*
X70222645Y-36772796D01*
G37*
G36*
X68356250Y-38638250D02*
G01*
X66454250Y-38638250D01*
X66454250Y-36736250D01*
X68356250Y-36736250D01*
X68356250Y-38638250D01*
X68356250Y-38638250D01*
G37*
G36*
X64634645Y-36772796D02*
G01*
X64807716Y-36844484D01*
X64807717Y-36844485D01*
X64963477Y-36948560D01*
X65095940Y-37081023D01*
X65095941Y-37081025D01*
X65200016Y-37236784D01*
X65271704Y-37409855D01*
X65308250Y-37593583D01*
X65308250Y-37780917D01*
X65271704Y-37964645D01*
X65200016Y-38137716D01*
X65200015Y-38137717D01*
X65095940Y-38293477D01*
X64963477Y-38425940D01*
X64885068Y-38478331D01*
X64807716Y-38530016D01*
X64634645Y-38601704D01*
X64450917Y-38638250D01*
X64263583Y-38638250D01*
X64079855Y-38601704D01*
X63906784Y-38530016D01*
X63829432Y-38478331D01*
X63751023Y-38425940D01*
X63618560Y-38293477D01*
X63514485Y-38137717D01*
X63514484Y-38137716D01*
X63442796Y-37964645D01*
X63406250Y-37780917D01*
X63406250Y-37593583D01*
X63442796Y-37409855D01*
X63514484Y-37236784D01*
X63618559Y-37081025D01*
X63618560Y-37081023D01*
X63751023Y-36948560D01*
X63906783Y-36844485D01*
X63906784Y-36844484D01*
X64079855Y-36772796D01*
X64263583Y-36736250D01*
X64450917Y-36736250D01*
X64634645Y-36772796D01*
X64634645Y-36772796D01*
G37*
G36*
X59046645Y-36772796D02*
G01*
X59219716Y-36844484D01*
X59219717Y-36844485D01*
X59375477Y-36948560D01*
X59507940Y-37081023D01*
X59507941Y-37081025D01*
X59612016Y-37236784D01*
X59683704Y-37409855D01*
X59720250Y-37593583D01*
X59720250Y-37780917D01*
X59683704Y-37964645D01*
X59612016Y-38137716D01*
X59612015Y-38137717D01*
X59507940Y-38293477D01*
X59375477Y-38425940D01*
X59297068Y-38478331D01*
X59219716Y-38530016D01*
X59046645Y-38601704D01*
X58862917Y-38638250D01*
X58675583Y-38638250D01*
X58491855Y-38601704D01*
X58318784Y-38530016D01*
X58241432Y-38478331D01*
X58163023Y-38425940D01*
X58030560Y-38293477D01*
X57926485Y-38137717D01*
X57926484Y-38137716D01*
X57854796Y-37964645D01*
X57818250Y-37780917D01*
X57818250Y-37593583D01*
X57854796Y-37409855D01*
X57926484Y-37236784D01*
X58030559Y-37081025D01*
X58030560Y-37081023D01*
X58163023Y-36948560D01*
X58318783Y-36844485D01*
X58318784Y-36844484D01*
X58491855Y-36772796D01*
X58675583Y-36736250D01*
X58862917Y-36736250D01*
X59046645Y-36772796D01*
X59046645Y-36772796D01*
G37*
G36*
X57180250Y-38638250D02*
G01*
X55278250Y-38638250D01*
X55278250Y-36736250D01*
X57180250Y-36736250D01*
X57180250Y-38638250D01*
X57180250Y-38638250D01*
G37*
G36*
X62768250Y-38638250D02*
G01*
X60866250Y-38638250D01*
X60866250Y-36736250D01*
X62768250Y-36736250D01*
X62768250Y-38638250D01*
X62768250Y-38638250D01*
G37*
G36*
X62768250Y-30510250D02*
G01*
X60866250Y-30510250D01*
X60866250Y-28608250D01*
X62768250Y-28608250D01*
X62768250Y-30510250D01*
X62768250Y-30510250D01*
G37*
G36*
X64634645Y-28644796D02*
G01*
X64807716Y-28716484D01*
X64807717Y-28716485D01*
X64963477Y-28820560D01*
X65095940Y-28953023D01*
X65095941Y-28953025D01*
X65200016Y-29108784D01*
X65271704Y-29281855D01*
X65308250Y-29465583D01*
X65308250Y-29652917D01*
X65271704Y-29836645D01*
X65200016Y-30009716D01*
X65200015Y-30009717D01*
X65095940Y-30165477D01*
X64963477Y-30297940D01*
X64885068Y-30350331D01*
X64807716Y-30402016D01*
X64634645Y-30473704D01*
X64450917Y-30510250D01*
X64263583Y-30510250D01*
X64079855Y-30473704D01*
X63906784Y-30402016D01*
X63829432Y-30350331D01*
X63751023Y-30297940D01*
X63618560Y-30165477D01*
X63514485Y-30009717D01*
X63514484Y-30009716D01*
X63442796Y-29836645D01*
X63406250Y-29652917D01*
X63406250Y-29465583D01*
X63442796Y-29281855D01*
X63514484Y-29108784D01*
X63618559Y-28953025D01*
X63618560Y-28953023D01*
X63751023Y-28820560D01*
X63906783Y-28716485D01*
X63906784Y-28716484D01*
X64079855Y-28644796D01*
X64263583Y-28608250D01*
X64450917Y-28608250D01*
X64634645Y-28644796D01*
X64634645Y-28644796D01*
G37*
G36*
X86986645Y-28644796D02*
G01*
X87159716Y-28716484D01*
X87159717Y-28716485D01*
X87315477Y-28820560D01*
X87447940Y-28953023D01*
X87447941Y-28953025D01*
X87552016Y-29108784D01*
X87623704Y-29281855D01*
X87660250Y-29465583D01*
X87660250Y-29652917D01*
X87623704Y-29836645D01*
X87552016Y-30009716D01*
X87552015Y-30009717D01*
X87447940Y-30165477D01*
X87315477Y-30297940D01*
X87237068Y-30350331D01*
X87159716Y-30402016D01*
X86986645Y-30473704D01*
X86802917Y-30510250D01*
X86615583Y-30510250D01*
X86431855Y-30473704D01*
X86258784Y-30402016D01*
X86181432Y-30350331D01*
X86103023Y-30297940D01*
X85970560Y-30165477D01*
X85866485Y-30009717D01*
X85866484Y-30009716D01*
X85794796Y-29836645D01*
X85758250Y-29652917D01*
X85758250Y-29465583D01*
X85794796Y-29281855D01*
X85866484Y-29108784D01*
X85970559Y-28953025D01*
X85970560Y-28953023D01*
X86103023Y-28820560D01*
X86258783Y-28716485D01*
X86258784Y-28716484D01*
X86431855Y-28644796D01*
X86615583Y-28608250D01*
X86802917Y-28608250D01*
X86986645Y-28644796D01*
X86986645Y-28644796D01*
G37*
G36*
X85120250Y-30510250D02*
G01*
X83218250Y-30510250D01*
X83218250Y-28608250D01*
X85120250Y-28608250D01*
X85120250Y-30510250D01*
X85120250Y-30510250D01*
G37*
G36*
X81398645Y-28644796D02*
G01*
X81571716Y-28716484D01*
X81571717Y-28716485D01*
X81727477Y-28820560D01*
X81859940Y-28953023D01*
X81859941Y-28953025D01*
X81964016Y-29108784D01*
X82035704Y-29281855D01*
X82072250Y-29465583D01*
X82072250Y-29652917D01*
X82035704Y-29836645D01*
X81964016Y-30009716D01*
X81964015Y-30009717D01*
X81859940Y-30165477D01*
X81727477Y-30297940D01*
X81649068Y-30350331D01*
X81571716Y-30402016D01*
X81398645Y-30473704D01*
X81214917Y-30510250D01*
X81027583Y-30510250D01*
X80843855Y-30473704D01*
X80670784Y-30402016D01*
X80593432Y-30350331D01*
X80515023Y-30297940D01*
X80382560Y-30165477D01*
X80278485Y-30009717D01*
X80278484Y-30009716D01*
X80206796Y-29836645D01*
X80170250Y-29652917D01*
X80170250Y-29465583D01*
X80206796Y-29281855D01*
X80278484Y-29108784D01*
X80382559Y-28953025D01*
X80382560Y-28953023D01*
X80515023Y-28820560D01*
X80670783Y-28716485D01*
X80670784Y-28716484D01*
X80843855Y-28644796D01*
X81027583Y-28608250D01*
X81214917Y-28608250D01*
X81398645Y-28644796D01*
X81398645Y-28644796D01*
G37*
G36*
X79532250Y-30510250D02*
G01*
X77630250Y-30510250D01*
X77630250Y-28608250D01*
X79532250Y-28608250D01*
X79532250Y-30510250D01*
X79532250Y-30510250D01*
G37*
G36*
X75810645Y-28644796D02*
G01*
X75983716Y-28716484D01*
X75983717Y-28716485D01*
X76139477Y-28820560D01*
X76271940Y-28953023D01*
X76271941Y-28953025D01*
X76376016Y-29108784D01*
X76447704Y-29281855D01*
X76484250Y-29465583D01*
X76484250Y-29652917D01*
X76447704Y-29836645D01*
X76376016Y-30009716D01*
X76376015Y-30009717D01*
X76271940Y-30165477D01*
X76139477Y-30297940D01*
X76061068Y-30350331D01*
X75983716Y-30402016D01*
X75810645Y-30473704D01*
X75626917Y-30510250D01*
X75439583Y-30510250D01*
X75255855Y-30473704D01*
X75082784Y-30402016D01*
X75005432Y-30350331D01*
X74927023Y-30297940D01*
X74794560Y-30165477D01*
X74690485Y-30009717D01*
X74690484Y-30009716D01*
X74618796Y-29836645D01*
X74582250Y-29652917D01*
X74582250Y-29465583D01*
X74618796Y-29281855D01*
X74690484Y-29108784D01*
X74794559Y-28953025D01*
X74794560Y-28953023D01*
X74927023Y-28820560D01*
X75082783Y-28716485D01*
X75082784Y-28716484D01*
X75255855Y-28644796D01*
X75439583Y-28608250D01*
X75626917Y-28608250D01*
X75810645Y-28644796D01*
X75810645Y-28644796D01*
G37*
G36*
X73944250Y-30510250D02*
G01*
X72042250Y-30510250D01*
X72042250Y-28608250D01*
X73944250Y-28608250D01*
X73944250Y-30510250D01*
X73944250Y-30510250D01*
G37*
G36*
X51592250Y-30510250D02*
G01*
X49690250Y-30510250D01*
X49690250Y-28608250D01*
X51592250Y-28608250D01*
X51592250Y-30510250D01*
X51592250Y-30510250D01*
G37*
G36*
X53458645Y-28644796D02*
G01*
X53631716Y-28716484D01*
X53631717Y-28716485D01*
X53787477Y-28820560D01*
X53919940Y-28953023D01*
X53919941Y-28953025D01*
X54024016Y-29108784D01*
X54095704Y-29281855D01*
X54132250Y-29465583D01*
X54132250Y-29652917D01*
X54095704Y-29836645D01*
X54024016Y-30009716D01*
X54024015Y-30009717D01*
X53919940Y-30165477D01*
X53787477Y-30297940D01*
X53709068Y-30350331D01*
X53631716Y-30402016D01*
X53458645Y-30473704D01*
X53274917Y-30510250D01*
X53087583Y-30510250D01*
X52903855Y-30473704D01*
X52730784Y-30402016D01*
X52653432Y-30350331D01*
X52575023Y-30297940D01*
X52442560Y-30165477D01*
X52338485Y-30009717D01*
X52338484Y-30009716D01*
X52266796Y-29836645D01*
X52230250Y-29652917D01*
X52230250Y-29465583D01*
X52266796Y-29281855D01*
X52338484Y-29108784D01*
X52442559Y-28953025D01*
X52442560Y-28953023D01*
X52575023Y-28820560D01*
X52730783Y-28716485D01*
X52730784Y-28716484D01*
X52903855Y-28644796D01*
X53087583Y-28608250D01*
X53274917Y-28608250D01*
X53458645Y-28644796D01*
X53458645Y-28644796D01*
G37*
G36*
X57180250Y-30510250D02*
G01*
X55278250Y-30510250D01*
X55278250Y-28608250D01*
X57180250Y-28608250D01*
X57180250Y-30510250D01*
X57180250Y-30510250D01*
G37*
G36*
X59046645Y-28644796D02*
G01*
X59219716Y-28716484D01*
X59219717Y-28716485D01*
X59375477Y-28820560D01*
X59507940Y-28953023D01*
X59507941Y-28953025D01*
X59612016Y-29108784D01*
X59683704Y-29281855D01*
X59720250Y-29465583D01*
X59720250Y-29652917D01*
X59683704Y-29836645D01*
X59612016Y-30009716D01*
X59612015Y-30009717D01*
X59507940Y-30165477D01*
X59375477Y-30297940D01*
X59297068Y-30350331D01*
X59219716Y-30402016D01*
X59046645Y-30473704D01*
X58862917Y-30510250D01*
X58675583Y-30510250D01*
X58491855Y-30473704D01*
X58318784Y-30402016D01*
X58241432Y-30350331D01*
X58163023Y-30297940D01*
X58030560Y-30165477D01*
X57926485Y-30009717D01*
X57926484Y-30009716D01*
X57854796Y-29836645D01*
X57818250Y-29652917D01*
X57818250Y-29465583D01*
X57854796Y-29281855D01*
X57926484Y-29108784D01*
X58030559Y-28953025D01*
X58030560Y-28953023D01*
X58163023Y-28820560D01*
X58318783Y-28716485D01*
X58318784Y-28716484D01*
X58491855Y-28644796D01*
X58675583Y-28608250D01*
X58862917Y-28608250D01*
X59046645Y-28644796D01*
X59046645Y-28644796D01*
G37*
M02*
