<svg version="1.1" xmlns="http://www.w3.org/2000/svg" xmlns:xlink="http://www.w3.org/1999/xlink" stroke-linecap="round" stroke-linejoin="round" stroke-width="0" fill-rule="evenodd" width="54.536429mm" height="38.17738mm" viewBox="50214.821 -70268.63 54536.429 38177.38" id="ENBVGhX7oUdH29dLWWKs"><g transform="translate(0,-102359.88) scale(1,-1)" fill="currentColor" stroke="currentColor"><path d="M 64674.583 -61523.63 64341.25 -62523.63 64007.916 -61523.63 M 63103.154 -62428.392 63150.773 -62476.011 63293.63 -62523.63 63388.869 -62523.63 63531.726 -62476.011 63626.964 -62380.773 63674.583 -62285.535 63722.202 -62095.059 63722.202 -61952.202 63674.583 -61761.726 63626.964 -61666.488 63531.726 -61571.25 63388.869 -61523.63 63293.63 -61523.63 63150.773 -61571.25 63103.154 -61618.869 M 62103.154 -62428.392 62150.773 -62476.011 62293.63 -62523.63 62388.869 -62523.63 62531.726 -62476.011 62626.964 -62380.773 62674.583 -62285.535 62722.202 -62095.059 62722.202 -61952.202 62674.583 -61761.726 62626.964 -61666.488 62531.726 -61571.25 62388.869 -61523.63 62293.63 -61523.63 62150.773 -61571.25 62103.154 -61618.869 M 65373.154 -69191.25 65468.392 -69143.63 65611.25 -69143.63 65754.107 -69191.25 65849.345 -69286.488 65896.964 -69381.726 65944.583 -69572.202 65944.583 -69715.059 65896.964 -69905.535 65849.345 -70000.773 65754.107 -70096.011 65611.25 -70143.63 65516.011 -70143.63 65373.154 -70096.011 65325.535 -70048.392 65325.535 -69715.059 65516.011 -69715.059 M 64896.964 -70143.63 64896.964 -69143.63 64325.535 -70143.63 64325.535 -69143.63 M 63849.345 -70143.63 63849.345 -69143.63 63611.25 -69143.63 63468.392 -69191.25 63373.154 -69286.488 63325.535 -69381.726 63277.916 -69572.202 63277.916 -69715.059 63325.535 -69905.535 63373.154 -70000.773 63468.392 -70096.011 63611.25 -70143.63 63849.345 -70143.63 M 72413.63 -62523.63 72746.964 -62047.44 M 72985.059 -62523.63 72985.059 -61523.63 72604.107 -61523.63 72508.869 -61571.25 72461.25 -61618.869 72413.63 -61714.107 72413.63 -61856.964 72461.25 -61952.202 72508.869 -61999.821 72604.107 -62047.44 72985.059 -62047.44 M 71985.059 -61999.821 71651.726 -61999.821 M 71508.869 -62523.63 71985.059 -62523.63 71985.059 -61523.63 71508.869 -61523.63 M 71127.916 -62476.011 70985.059 -62523.63 70746.964 -62523.63 70651.726 -62476.011 70604.107 -62428.392 70556.488 -62333.154 70556.488 -62237.916 70604.107 -62142.678 70651.726 -62095.059 70746.964 -62047.44 70937.44 -61999.821 71032.678 -61952.202 71080.297 -61904.583 71127.916 -61809.345 71127.916 -61714.107 71080.297 -61618.869 71032.678 -61571.25 70937.44 -61523.63 70699.345 -61523.63 70556.488 -61571.25 M 70127.916 -61999.821 69794.583 -61999.821 M 69651.726 -62523.63 70127.916 -62523.63 70127.916 -61523.63 69651.726 -61523.63 M 69366.011 -61523.63 68794.583 -61523.63 M 69080.297 -62523.63 69080.297 -61523.63 M 91296.964 -70096.011 91154.107 -70143.63 90916.011 -70143.63 90820.773 -70096.011 90773.154 -70048.392 90725.535 -69953.154 90725.535 -69857.916 90773.154 -69762.678 90820.773 -69715.059 90916.011 -69667.44 91106.488 -69619.821 91201.726 -69572.202 91249.345 -69524.583 91296.964 -69429.345 91296.964 -69334.107 91249.345 -69238.869 91201.726 -69191.25 91106.488 -69143.63 90868.392 -69143.63 90725.535 -69191.25 M 89725.535 -70048.392 89773.154 -70096.011 89916.011 -70143.63 90011.25 -70143.63 90154.107 -70096.011 90249.345 -70000.773 90296.964 -69905.535 90344.583 -69715.059 90344.583 -69572.202 90296.964 -69381.726 90249.345 -69286.488 90154.107 -69191.25 90011.25 -69143.63 89916.011 -69143.63 89773.154 -69191.25 89725.535 -69238.869 M 89296.964 -70143.63 89296.964 -69143.63 M 88725.535 -70143.63 89154.107 -69572.202 M 88725.535 -69143.63 89296.964 -69715.059 M 72532.678 -70143.63 72532.678 -69143.63 72199.345 -69857.916 71866.011 -69143.63 71866.011 -70143.63 M 71389.821 -70143.63 71389.821 -69143.63 M 70961.25 -70096.011 70818.392 -70143.63 70580.297 -70143.63 70485.059 -70096.011 70437.44 -70048.392 70389.821 -69953.154 70389.821 -69857.916 70437.44 -69762.678 70485.059 -69715.059 70580.297 -69667.44 70770.773 -69619.821 70866.011 -69572.202 70913.63 -69524.583 70961.25 -69429.345 70961.25 -69334.107 70913.63 -69238.869 70866.011 -69191.25 70770.773 -69143.63 70532.678 -69143.63 70389.821 -69191.25 M 69770.773 -69143.63 69580.297 -69143.63 69485.059 -69191.25 69389.821 -69286.488 69342.202 -69476.964 69342.202 -69810.297 69389.821 -70000.773 69485.059 -70096.011 69580.297 -70143.63 69770.773 -70143.63 69866.011 -70096.011 69961.25 -70000.773 70008.869 -69810.297 70008.869 -69476.964 69961.25 -69286.488 69866.011 -69191.25 69770.773 -69143.63 M 53482.678 -70143.63 53482.678 -69143.63 53149.345 -69857.916 52816.011 -69143.63 52816.011 -70143.63 M 52149.345 -69143.63 51958.869 -69143.63 51863.63 -69191.25 51768.392 -69286.488 51720.773 -69476.964 51720.773 -69810.297 51768.392 -70000.773 51863.63 -70096.011 51958.869 -70143.63 52149.345 -70143.63 52244.583 -70096.011 52339.821 -70000.773 52387.44 -69810.297 52387.44 -69476.964 52339.821 -69286.488 52244.583 -69191.25 52149.345 -69143.63 M 51339.821 -70096.011 51196.964 -70143.63 50958.869 -70143.63 50863.63 -70096.011 50816.011 -70048.392 50768.392 -69953.154 50768.392 -69857.916 50816.011 -69762.678 50863.63 -69715.059 50958.869 -69667.44 51149.345 -69619.821 51244.583 -69572.202 51292.202 -69524.583 51339.821 -69429.345 51339.821 -69334.107 51292.202 -69238.869 51244.583 -69191.25 51149.345 -69143.63 50911.25 -69143.63 50768.392 -69191.25 M 50339.821 -70143.63 50339.821 -69143.63" fill="none" stroke-width="250"/><path d="M 65981.25 -54351.25 A 100 100 0 0 1 65781.25 -54351.25 100 100 0 0 1 65981.25 -54351.25 M 55821.25 -54351.25 A 100 100 0 0 1 55621.25 -54351.25 100 100 0 0 1 55821.25 -54351.25 M 102128.75 -55721.25 A 100 100 0 0 1 101928.75 -55721.25 100 100 0 0 1 102128.75 -55721.25" fill="none" stroke-width="400"/><path d="M 86707.502 -57701.25 86184.998 -57701.25 M 86707.502 -56281.25 86184.998 -56281.25 M 83101.25 -52674.998 83101.25 -53197.502 M 81681.25 -52674.998 81681.25 -53197.502 M 104691.25 -60539.998 104691.25 -61062.502 M 103271.25 -60539.998 103271.25 -61062.502 M 103271.25 -36932.502 103271.25 -36409.998 M 104691.25 -36932.502 104691.25 -36409.998 M 97071.25 -60539.998 97071.25 -61062.502 M 95651.25 -60539.998 95651.25 -61062.502 M 86707.502 -60241.25 86184.998 -60241.25 M 86707.502 -58821.25 86184.998 -58821.25 M 102151.25 -60539.998 102151.25 -61062.502 M 100731.25 -60539.998 100731.25 -61062.502 M 99611.25 -60539.998 99611.25 -61062.502 M 98191.25 -60539.998 98191.25 -61062.502 M 75481.25 -56729.998 75481.25 -57252.502 M 74061.25 -56729.998 74061.25 -57252.502 M 102151.25 -36409.998 102151.25 -36932.502 M 100731.25 -36409.998 100731.25 -36932.502 M 95651.25 -36932.502 95651.25 -36409.998 M 97071.25 -36932.502 97071.25 -36409.998 M 98191.25 -36932.502 98191.25 -36409.998 M 99611.25 -36932.502 99611.25 -36409.998 M 72214.998 -47391.25 72737.502 -47391.25 M 72214.998 -48811.25 72737.502 -48811.25 M 78074.998 -47391.25 78597.502 -47391.25 M 78074.998 -48811.25 78597.502 -48811.25 M 83399.998 -47391.25 83922.502 -47391.25 M 83399.998 -48811.25 83922.502 -48811.25 M 88724.998 -47391.25 89247.502 -47391.25 M 88724.998 -48811.25 89247.502 -48811.25 M 84669.998 -32151.25 85192.502 -32151.25 M 84669.998 -33571.25 85192.502 -33571.25 M 76601.25 -53197.502 76601.25 -52674.998 M 78021.25 -53197.502 78021.25 -52674.998 M 74061.25 -53197.502 74061.25 -52674.998 M 75481.25 -53197.502 75481.25 -52674.998" fill="none" stroke-width="120"/><path d="M 96260.339 -33287.79 96260.339 -34431.389 96336.579 -34660.109 96489.059 -34812.589 96717.779 -34888.829 96870.259 -34888.829 M 94659.3 -34888.829 95574.18 -34888.829 M 95116.74 -34888.829 95116.74 -33287.79 95269.22 -33516.51 95421.7 -33668.99 95574.18 -33745.23" fill="none" stroke-width="15"/></g></svg>