<svg version="1.1" xmlns="http://www.w3.org/2000/svg" xmlns:xlink="http://www.w3.org/1999/xlink" stroke-linecap="round" stroke-linejoin="round" stroke-width="0" fill-rule="evenodd" width="53.09125mm" height="20.816059000000003mm" viewBox="51502.916 -49644.63 53091.25 20816.059" id="smQeD5cppA5h5vmF9rS4"><g transform="translate(0,-78473.201) scale(1,-1)" fill="currentColor" stroke="currentColor"><path d="M 89319.166 -29403.571 89852.5 -29403.571 M 89519.166 -28903.571 89519.166 -30189.285 89585.833 -30332.142 89719.166 -30403.571 89852.5 -30403.571 M 90319.166 -30403.571 90319.166 -28903.571 M 90919.166 -30403.571 90919.166 -29617.857 90852.5 -29475 90719.166 -29403.571 90519.166 -29403.571 90385.833 -29475 90319.166 -29546.428 M 91585.833 -30403.571 91585.833 -29403.571 M 91585.833 -29689.285 91652.5 -29546.428 91719.166 -29475 91852.5 -29403.571 91985.833 -29403.571 M 92985.833 -30332.142 92852.5 -30403.571 92585.833 -30403.571 92452.5 -30332.142 92385.833 -30189.285 92385.833 -29617.857 92452.5 -29475 92585.833 -29403.571 92852.5 -29403.571 92985.833 -29475 93052.5 -29617.857 93052.5 -29760.714 92385.833 -29903.571 M 94185.833 -30332.142 94052.5 -30403.571 93785.833 -30403.571 93652.5 -30332.142 93585.833 -30189.285 93585.833 -29617.857 93652.5 -29475 93785.833 -29403.571 94052.5 -29403.571 94185.833 -29475 94252.5 -29617.857 94252.5 -29760.714 93585.833 -29903.571 M 94852.5 -30403.571 94852.5 -28903.571 M 94852.5 -29475 94985.833 -29403.571 95252.5 -29403.571 95385.833 -29475 95452.5 -29546.428 95519.166 -29689.285 95519.166 -30117.857 95452.5 -30260.714 95385.833 -30332.142 95252.5 -30403.571 94985.833 -30403.571 94852.5 -30332.142 M 96319.166 -30403.571 96185.833 -30332.142 96119.166 -30260.714 96052.5 -30117.857 96052.5 -29689.285 96119.166 -29546.428 96185.833 -29475 96319.166 -29403.571 96519.166 -29403.571 96652.5 -29475 96719.166 -29546.428 96785.833 -29689.285 96785.833 -30117.857 96719.166 -30260.714 96652.5 -30332.142 96519.166 -30403.571 96319.166 -30403.571 M 97985.833 -30403.571 97985.833 -29617.857 97919.166 -29475 97785.833 -29403.571 97519.166 -29403.571 97385.833 -29475 M 97985.833 -30332.142 97852.5 -30403.571 97519.166 -30403.571 97385.833 -30332.142 97319.166 -30189.285 97319.166 -30046.428 97385.833 -29903.571 97519.166 -29832.142 97852.5 -29832.142 97985.833 -29760.714 M 98652.5 -30403.571 98652.5 -29403.571 M 98652.5 -29689.285 98719.166 -29546.428 98785.833 -29475 98919.166 -29403.571 99052.5 -29403.571 M 100119.166 -30403.571 100119.166 -28903.571 M 100119.166 -30332.142 99985.833 -30403.571 99719.166 -30403.571 99585.833 -30332.142 99519.166 -30260.714 99452.5 -30117.857 99452.5 -29689.285 99519.166 -29546.428 99585.833 -29475 99719.166 -29403.571 99985.833 -29403.571 100119.166 -29475 M 100785.833 -30260.714 100852.5 -30332.142 100785.833 -30403.571 100719.166 -30332.142 100785.833 -30260.714 100785.833 -30403.571 M 102052.5 -30403.571 102052.5 -28903.571 M 102052.5 -30332.142 101919.166 -30403.571 101652.5 -30403.571 101519.166 -30332.142 101452.5 -30260.714 101385.833 -30117.857 101385.833 -29689.285 101452.5 -29546.428 101519.166 -29475 101652.5 -29403.571 101919.166 -29403.571 102052.5 -29475 M 103252.499 -30332.142 103119.166 -30403.571 102852.499 -30403.571 102719.166 -30332.142 102652.499 -30189.285 102652.499 -29617.857 102719.166 -29475 102852.499 -29403.571 103119.166 -29403.571 103252.499 -29475 103319.166 -29617.857 103319.166 -29760.714 102652.499 -29903.571 M 103785.833 -29403.571 104119.166 -30403.571 104452.499 -29403.571 M 92652.5 -32732.142 92519.166 -32803.571 92252.5 -32803.571 92119.166 -32732.142 92052.5 -32660.714 91985.833 -32517.857 91985.833 -32089.285 92052.5 -31946.428 92119.166 -31875 92252.5 -31803.571 92519.166 -31803.571 92652.5 -31875 M 93452.5 -32803.571 93319.166 -32732.142 93252.5 -32660.714 93185.833 -32517.857 93185.833 -32089.285 93252.5 -31946.428 93319.166 -31875 93452.5 -31803.571 93652.5 -31803.571 93785.833 -31875 93852.5 -31946.428 93919.166 -32089.285 93919.166 -32517.857 93852.5 -32660.714 93785.833 -32732.142 93652.5 -32803.571 93452.5 -32803.571 M 94519.166 -31803.571 94519.166 -32803.571 M 94519.166 -31946.428 94585.833 -31875 94719.166 -31803.571 94919.166 -31803.571 95052.5 -31875 95119.166 -32017.857 95119.166 -32803.571 M 95985.833 -32803.571 95852.5 -32732.142 95785.833 -32660.714 95719.166 -32517.857 95719.166 -32089.285 95785.833 -31946.428 95852.5 -31875 95985.833 -31803.571 96185.833 -31803.571 96319.166 -31875 96385.833 -31946.428 96452.5 -32089.285 96452.5 -32517.857 96385.833 -32660.714 96319.166 -32732.142 96185.833 -32803.571 95985.833 -32803.571 M 97052.5 -32803.571 97052.5 -31803.571 M 97052.5 -32089.285 97119.166 -31946.428 97185.833 -31875 97319.166 -31803.571 97452.5 -31803.571 M 98785.833 -31803.571 99319.166 -31803.571 M 98985.833 -31303.571 98985.833 -32589.285 99052.5 -32732.142 99185.833 -32803.571 99319.166 -32803.571 M 100385.833 -32803.571 100385.833 -32017.857 100319.166 -31875 100185.833 -31803.571 99919.166 -31803.571 99785.833 -31875 M 100385.833 -32732.142 100252.5 -32803.571 99919.166 -32803.571 99785.833 -32732.142 99719.166 -32589.285 99719.166 -32446.428 99785.833 -32303.571 99919.166 -32232.142 100252.5 -32232.142 100385.833 -32160.714 M 100919.166 -31803.571 101252.5 -32803.571 M 101585.833 -31803.571 101252.5 -32803.571 101119.166 -33160.714 101052.5 -33232.142 100919.166 -33303.571 M 102319.166 -32803.571 102185.833 -32732.142 102119.166 -32589.285 102119.166 -31303.571 M 103052.5 -32803.571 102919.166 -32732.142 102852.5 -32660.714 102785.833 -32517.857 102785.833 -32089.285 102852.5 -31946.428 102919.166 -31875 103052.5 -31803.571 103252.5 -31803.571 103385.833 -31875 103452.5 -31946.428 103519.166 -32089.285 103519.166 -32517.857 103452.5 -32660.714 103385.833 -32732.142 103252.5 -32803.571 103052.5 -32803.571 M 104119.166 -32803.571 104119.166 -31803.571 M 104119.166 -32089.285 104185.833 -31946.428 104252.5 -31875 104385.833 -31803.571 104519.166 -31803.571 M 102452.5 -34203.571 102785.833 -35203.571 103119.166 -34203.571 M 104385.833 -35203.571 103585.833 -35203.571 M 103985.833 -35203.571 103985.833 -33703.571 103852.5 -33917.857 103719.166 -34060.714 103585.833 -34132.142 M 51577.916 -40187.63 52244.583 -40187.63 51816.011 -41187.63 M 57689.726 -40187.63 57499.25 -40187.63 57404.011 -40235.25 57356.392 -40282.869 57261.154 -40425.726 57213.535 -40616.202 57213.535 -40997.154 57261.154 -41092.392 57308.773 -41140.011 57404.011 -41187.63 57594.488 -41187.63 57689.726 -41140.011 57737.345 -41092.392 57784.964 -40997.154 57784.964 -40759.059 57737.345 -40663.821 57689.726 -40616.202 57594.488 -40568.583 57404.011 -40568.583 57308.773 -40616.202 57261.154 -40663.821 57213.535 -40759.059 M 63325.345 -40187.63 62849.154 -40187.63 62801.535 -40663.821 62849.154 -40616.202 62944.392 -40568.583 63182.488 -40568.583 63277.726 -40616.202 63325.345 -40663.821 63372.964 -40759.059 63372.964 -40997.154 63325.345 -41092.392 63277.726 -41140.011 63182.488 -41187.63 62944.392 -41187.63 62849.154 -41140.011 62801.535 -41092.392 M 68865.726 -40520.964 68865.726 -41187.63 M 68627.63 -40140.011 68389.535 -40854.297 69008.583 -40854.297 M 73929.916 -40187.63 74548.964 -40187.63 74215.63 -40568.583 74358.488 -40568.583 74453.726 -40616.202 74501.345 -40663.821 74548.964 -40759.059 74548.964 -40997.154 74501.345 -41092.392 74453.726 -41140.011 74358.488 -41187.63 74072.773 -41187.63 73977.535 -41140.011 73929.916 -41092.392 M 79565.535 -40282.869 79613.154 -40235.25 79708.392 -40187.63 79946.488 -40187.63 80041.726 -40235.25 80089.345 -40282.869 80136.964 -40378.107 80136.964 -40473.345 80089.345 -40616.202 79517.916 -41187.63 80136.964 -41187.63 M 85724.964 -41187.63 85153.535 -41187.63 M 85439.25 -41187.63 85439.25 -40187.63 85344.011 -40330.488 85248.773 -40425.726 85153.535 -40473.345 M 90979.63 -40187.63 91074.869 -40187.63 91170.107 -40235.25 91217.726 -40282.869 91265.345 -40378.107 91312.964 -40568.583 91312.964 -40806.678 91265.345 -40997.154 91217.726 -41092.392 91170.107 -41140.011 91074.869 -41187.63 90979.63 -41187.63 90884.392 -41140.011 90836.773 -41092.392 90789.154 -40997.154 90741.535 -40806.678 90741.535 -40568.583 90789.154 -40378.107 90836.773 -40282.869 90884.392 -40235.25 90979.63 -40187.63 M 51577.916 -48569.63 52244.583 -48569.63 51816.011 -49569.63 M 57689.726 -48569.63 57499.25 -48569.63 57404.011 -48617.25 57356.392 -48664.869 57261.154 -48807.726 57213.535 -48998.202 57213.535 -49379.154 57261.154 -49474.392 57308.773 -49522.011 57404.011 -49569.63 57594.488 -49569.63 57689.726 -49522.011 57737.345 -49474.392 57784.964 -49379.154 57784.964 -49141.059 57737.345 -49045.821 57689.726 -48998.202 57594.488 -48950.583 57404.011 -48950.583 57308.773 -48998.202 57261.154 -49045.821 57213.535 -49141.059 M 63579.345 -48569.63 63103.154 -48569.63 63055.535 -49045.821 63103.154 -48998.202 63198.392 -48950.583 63436.488 -48950.583 63531.726 -48998.202 63579.345 -49045.821 63626.964 -49141.059 63626.964 -49379.154 63579.345 -49474.392 63531.726 -49522.011 63436.488 -49569.63 63198.392 -49569.63 63103.154 -49522.011 63055.535 -49474.392 M 68865.726 -48902.964 68865.726 -49569.63 M 68627.63 -48522.011 68389.535 -49236.297 69008.583 -49236.297 M 73929.916 -48569.63 74548.964 -48569.63 74215.63 -48950.583 74358.488 -48950.583 74453.726 -48998.202 74501.345 -49045.821 74548.964 -49141.059 74548.964 -49379.154 74501.345 -49474.392 74453.726 -49522.011 74358.488 -49569.63 74072.773 -49569.63 73977.535 -49522.011 73929.916 -49474.392 M 79565.535 -48664.869 79613.154 -48617.25 79708.392 -48569.63 79946.488 -48569.63 80041.726 -48617.25 80089.345 -48664.869 80136.964 -48760.107 80136.964 -48855.345 80089.345 -48998.202 79517.916 -49569.63 80136.964 -49569.63 M 85724.964 -49569.63 85153.535 -49569.63 M 85439.25 -49569.63 85439.25 -48569.63 85344.011 -48712.488 85248.773 -48807.726 85153.535 -48855.345 M 90979.63 -48569.63 91074.869 -48569.63 91170.107 -48617.25 91217.726 -48664.869 91265.345 -48760.107 91312.964 -48950.583 91312.964 -49188.678 91265.345 -49379.154 91217.726 -49474.392 91170.107 -49522.011 91074.869 -49569.63 90979.63 -49569.63 90884.392 -49522.011 90836.773 -49474.392 90789.154 -49379.154 90741.535 -49188.678 90741.535 -48950.583 90789.154 -48760.107 90836.773 -48664.869 90884.392 -48617.25 90979.63 -48569.63 M 52220.773 -32805.63 51887.44 -32329.44 M 51649.345 -32805.63 51649.345 -31805.63 52030.297 -31805.63 52125.535 -31853.25 52173.154 -31900.869 52220.773 -31996.107 52220.773 -32138.964 52173.154 -32234.202 52125.535 -32281.821 52030.297 -32329.44 51649.345 -32329.44 M 57761.154 -31853.25 57665.916 -31805.63 57523.059 -31805.63 57380.202 -31853.25 57284.964 -31948.488 57237.345 -32043.726 57189.726 -32234.202 57189.726 -32377.059 57237.345 -32567.535 57284.964 -32662.773 57380.202 -32758.011 57523.059 -32805.63 57618.297 -32805.63 57761.154 -32758.011 57808.773 -32710.392 57808.773 -32377.059 57618.297 -32377.059 M 63158.678 -32281.821 63301.535 -32329.44 63349.154 -32377.059 63396.773 -32472.297 63396.773 -32615.154 63349.154 -32710.392 63301.535 -32758.011 63206.297 -32805.63 62825.345 -32805.63 62825.345 -31805.63 63158.678 -31805.63 63253.916 -31853.25 63301.535 -31900.869 63349.154 -31996.107 63349.154 -32091.345 63301.535 -32186.583 63253.916 -32234.202 63158.678 -32281.821 62825.345 -32281.821 M 72477.535 -32805.63 72477.535 -31805.63 72858.488 -31805.63 72953.726 -31853.25 73001.345 -31900.869 73048.964 -31996.107 73048.964 -32138.964 73001.345 -32234.202 72953.726 -32281.821 72858.488 -32329.44 72477.535 -32329.44 M 74048.964 -32805.63 73715.63 -32329.44 M 73477.535 -32805.63 73477.535 -31805.63 73858.488 -31805.63 73953.726 -31853.25 74001.345 -31900.869 74048.964 -31996.107 74048.964 -32138.964 74001.345 -32234.202 73953.726 -32281.821 73858.488 -32329.44 73477.535 -32329.44 M 74668.011 -31805.63 74858.488 -31805.63 74953.726 -31853.25 75048.964 -31948.488 75096.583 -32138.964 75096.583 -32472.297 75048.964 -32662.773 74953.726 -32758.011 74858.488 -32805.63 74668.011 -32805.63 74572.773 -32758.011 74477.535 -32662.773 74429.916 -32472.297 74429.916 -32138.964 74477.535 -31948.488 74572.773 -31853.25 74668.011 -31805.63 M 76048.964 -31853.25 75953.726 -31805.63 75810.869 -31805.63 75668.011 -31853.25 75572.773 -31948.488 75525.154 -32043.726 75477.535 -32234.202 75477.535 -32377.059 75525.154 -32567.535 75572.773 -32662.773 75668.011 -32758.011 75810.869 -32805.63 75906.107 -32805.63 76048.964 -32758.011 76096.583 -32710.392 76096.583 -32377.059 75906.107 -32377.059 M 77375.059 -32758.011 77517.916 -32805.63 77756.011 -32805.63 77851.25 -32758.011 77898.869 -32710.392 77946.488 -32615.154 77946.488 -32519.916 77898.869 -32424.678 77851.25 -32377.059 77756.011 -32329.44 77565.535 -32281.821 77470.297 -32234.202 77422.678 -32186.583 77375.059 -32091.345 77375.059 -31996.107 77422.678 -31900.869 77470.297 -31853.25 77565.535 -31805.63 77803.63 -31805.63 77946.488 -31853.25 M 78232.202 -31805.63 78803.63 -31805.63 M 78517.916 -32805.63 78517.916 -31805.63 M 79089.345 -32519.916 79565.535 -32519.916 M 78994.107 -32805.63 79327.44 -31805.63 79660.773 -32805.63 M 79851.25 -31805.63 80422.678 -31805.63 M 80136.964 -32805.63 80136.964 -31805.63 M 80756.011 -31805.63 80756.011 -32615.154 80803.63 -32710.392 80851.25 -32758.011 80946.488 -32805.63 81136.964 -32805.63 81232.202 -32758.011 81279.821 -32710.392 81327.44 -32615.154 81327.44 -31805.63 M 81756.011 -32758.011 81898.869 -32805.63 82136.964 -32805.63 82232.202 -32758.011 82279.821 -32710.392 82327.44 -32615.154 82327.44 -32519.916 82279.821 -32424.678 82232.202 -32377.059 82136.964 -32329.44 81946.488 -32281.821 81851.25 -32234.202 81803.63 -32186.583 81756.011 -32091.345 81756.011 -31996.107 81803.63 -31900.869 81851.25 -31853.25 81946.488 -31805.63 82184.583 -31805.63 82327.44 -31853.25 M 84478.964 -32281.821 84812.297 -32281.821 M 84955.154 -32805.63 84478.964 -32805.63 84478.964 -31805.63 84955.154 -31805.63 M 85955.154 -32805.63 85621.821 -32329.44 M 85383.726 -32805.63 85383.726 -31805.63 85764.678 -31805.63 85859.916 -31853.25 85907.535 -31900.869 85955.154 -31996.107 85955.154 -32138.964 85907.535 -32234.202 85859.916 -32281.821 85764.678 -32329.44 85383.726 -32329.44 M 86955.154 -32805.63 86621.821 -32329.44 M 86383.726 -32805.63 86383.726 -31805.63 86764.678 -31805.63 86859.916 -31853.25 86907.535 -31900.869 86955.154 -31996.107 86955.154 -32138.964 86907.535 -32234.202 86859.916 -32281.821 86764.678 -32329.44 86383.726 -32329.44" fill="none" stroke-width="150"/></g></svg>