<svg version="1.1" xmlns="http://www.w3.org/2000/svg" xmlns:xlink="http://www.w3.org/1999/xlink" stroke-linecap="round" stroke-linejoin="round" stroke-width="0" fill-rule="evenodd" width="51.329444mm" height="42.640594mm" viewBox="49690.25 -71248.844 51329.444 42640.594" id="ofrK2v6vjr0AVg0oSc7m"><g transform="translate(0,-99857.094) scale(1,-1)" fill="currentColor" stroke="currentColor"><path d="M 55670.83 -68104.063 55910.442 -68194.963 56127.716 -68330.863 56314.303 -68506.538 56425.66 -68662.8 56463.031 -68715.24 56568.186 -68948.947 56568.187 -68948.951 56625.727 -69198.678 56631.509 -69390.644 56631.508 -69390.652 56583.367 -70096.821 56551.586 -70286.233 56460.686 -70525.845 56407.817 -70610.371 56324.786 -70743.119 56149.111 -70929.706 55992.849 -71041.063 55940.409 -71078.434 55706.702 -71183.589 55706.698 -71183.59 55456.972 -71241.13 55200.817 -71248.844 55200.813 -71248.844 54948.072 -71206.437 54708.46 -71115.537 54491.186 -70979.637 54438.154 -70929.706 54304.599 -70803.962 54188.501 -70641.047 54155.871 -70595.26 54050.716 -70361.553 54031.558 -70278.407 53993.175 -70111.822 53987.393 -69919.858 54035.535 -69213.678 54040.101 -69186.463 54067.316 -69024.267 54158.216 -68784.655 54294.116 -68567.381 54351.401 -68506.538 54469.791 -68380.794 54626.053 -68269.437 54678.493 -68232.066 54912.2 -68126.911 54912.204 -68126.91 55161.93 -68069.37 55418.085 -68061.656 55418.089 -68061.656 55670.83 -68104.063 55670.83 -68104.063"/><path d="M 74644.629 -68104.063 74884.241 -68194.963 75101.515 -68330.863 75288.102 -68506.538 75399.459 -68662.8 75436.83 -68715.24 75541.985 -68948.947 75541.986 -68948.951 75599.526 -69198.678 75605.308 -69390.644 75605.307 -69390.652 75557.166 -70096.821 75525.385 -70286.233 75434.485 -70525.845 75381.616 -70610.371 75298.585 -70743.119 75122.91 -70929.706 74966.648 -71041.063 74914.208 -71078.434 74680.501 -71183.589 74680.497 -71183.59 74430.771 -71241.13 74174.616 -71248.844 74174.612 -71248.844 73921.871 -71206.437 73682.259 -71115.537 73464.985 -70979.637 73411.953 -70929.706 73278.398 -70803.962 73162.3 -70641.047 73129.67 -70595.26 73024.515 -70361.553 73005.357 -70278.407 72966.974 -70111.822 72961.192 -69919.858 73009.334 -69213.678 73013.9 -69186.463 73041.115 -69024.267 73132.015 -68784.655 73267.915 -68567.381 73325.2 -68506.538 73443.59 -68380.794 73599.852 -68269.437 73652.292 -68232.066 73885.999 -68126.911 73886.003 -68126.91 74135.729 -68069.37 74391.884 -68061.656 74391.888 -68061.656 74644.629 -68104.063 74644.629 -68104.063"/><path d="M 93694.629 -68104.063 93934.241 -68194.963 94151.515 -68330.863 94338.102 -68506.538 94449.459 -68662.8 94486.83 -68715.24 94591.985 -68948.947 94591.986 -68948.951 94649.526 -69198.678 94655.308 -69390.644 94655.307 -69390.652 94607.166 -70096.821 94575.385 -70286.233 94484.485 -70525.845 94431.616 -70610.371 94348.585 -70743.119 94172.91 -70929.706 94016.648 -71041.063 93964.208 -71078.434 93730.501 -71183.589 93730.497 -71183.59 93480.771 -71241.13 93224.616 -71248.844 93224.612 -71248.844 92971.871 -71206.437 92732.259 -71115.537 92514.985 -70979.637 92461.953 -70929.706 92328.398 -70803.962 92212.3 -70641.047 92179.67 -70595.26 92074.515 -70361.553 92055.357 -70278.407 92016.974 -70111.822 92011.192 -69919.858 92059.334 -69213.678 92063.9 -69186.463 92091.115 -69024.267 92182.015 -68784.655 92317.915 -68567.381 92375.2 -68506.538 92493.59 -68380.794 92649.852 -68269.437 92702.292 -68232.066 92935.999 -68126.911 92936.003 -68126.91 93185.729 -68069.37 93441.884 -68061.656 93441.888 -68061.656 93694.629 -68104.063 93694.629 -68104.063"/><path d="M 80804.544 -66142.486 80889.721 -66149.003 80929.503 -66160.129 81136.525 -66218.027 81365.12 -66333.875 81566.722 -66492.093 81733.584 -66686.603 81859.293 -66909.928 81937.608 -67149.181 81939.018 -67153.489 81969.694 -67407.916 81969.694 -67407.917 81950.145 -67663.445 81896.205 -67856.31 81881.12 -67910.25 81794.3 -68081.566 80516.704 -70086.988 80516.702 -70086.99 80398.13 -70238.076 80203.623 -70404.936 80067.005 -70481.837 79980.295 -70530.646 79782.898 -70595.26 79736.734 -70610.371 79482.307 -70641.047 79482.306 -70641.047 79226.779 -70621.498 78979.975 -70552.473 78979.974 -70552.473 78979.972 -70552.472 78751.385 -70436.628 78751.383 -70436.627 78751.38 -70436.625 78549.778 -70278.407 78549.774 -70278.404 78382.917 -70083.9 78257.208 -69860.573 78257.207 -69860.572 78177.483 -69617.014 78177.482 -69617.011 78146.806 -69362.584 78158.198 -69213.679 78166.355 -69107.056 78235.38 -68860.252 78235.38 -68860.251 78322.2 -68688.935 79599.795 -66683.512 79718.369 -66532.425 79912.879 -66365.563 79912.88 -66365.562 80136.198 -66239.856 80136.204 -66239.854 80379.761 -66160.13 80379.762 -66160.13 80379.765 -66160.129 80634.191 -66129.453 80634.193 -66129.453 80804.544 -66142.486 80804.544 -66142.486"/><path d="M 61830.745 -66142.486 61915.922 -66149.003 61955.704 -66160.129 62162.726 -66218.027 62391.321 -66333.875 62592.923 -66492.093 62759.785 -66686.603 62885.494 -66909.928 62963.809 -67149.181 62965.219 -67153.489 62995.895 -67407.916 62995.895 -67407.917 62976.346 -67663.445 62922.406 -67856.31 62907.321 -67910.25 62820.501 -68081.566 61542.905 -70086.988 61542.903 -70086.99 61424.331 -70238.076 61229.824 -70404.936 61093.206 -70481.837 61006.496 -70530.646 60809.099 -70595.26 60762.935 -70610.371 60508.508 -70641.047 60508.507 -70641.047 60252.98 -70621.498 60006.176 -70552.473 60006.175 -70552.473 60006.173 -70552.472 59777.586 -70436.628 59777.584 -70436.627 59777.581 -70436.625 59575.979 -70278.407 59575.975 -70278.404 59409.118 -70083.9 59283.409 -69860.573 59283.408 -69860.572 59203.684 -69617.014 59203.683 -69617.011 59173.007 -69362.584 59184.399 -69213.679 59192.556 -69107.056 59261.581 -68860.252 59261.581 -68860.251 59348.401 -68688.935 60625.996 -66683.512 60744.57 -66532.425 60939.08 -66365.563 60939.081 -66365.562 61162.399 -66239.856 61162.405 -66239.854 61405.962 -66160.13 61405.963 -66160.13 61405.966 -66160.129 61660.392 -66129.453 61660.394 -66129.453 61830.745 -66142.486 61830.745 -66142.486"/><path d="M 99854.544 -66142.486 99939.721 -66149.003 99979.503 -66160.129 100186.525 -66218.027 100415.12 -66333.875 100616.722 -66492.093 100783.584 -66686.603 100909.293 -66909.928 100987.608 -67149.181 100989.018 -67153.489 101019.694 -67407.916 101019.694 -67407.917 101000.145 -67663.445 100946.205 -67856.31 100931.12 -67910.25 100887.71 -67995.907 100844.3 -68081.566 99566.704 -70086.988 99566.702 -70086.99 99448.13 -70238.076 99253.623 -70404.936 99117.005 -70481.837 99030.295 -70530.646 98832.898 -70595.26 98786.734 -70610.371 98532.307 -70641.047 98532.306 -70641.047 98276.779 -70621.498 98029.975 -70552.473 98029.974 -70552.473 98029.972 -70552.472 97801.385 -70436.628 97801.383 -70436.627 97801.38 -70436.625 97599.778 -70278.407 97599.774 -70278.404 97432.917 -70083.9 97307.208 -69860.573 97307.207 -69860.572 97227.483 -69617.014 97227.482 -69617.011 97196.806 -69362.584 97208.198 -69213.679 97216.355 -69107.056 97285.38 -68860.252 97285.38 -68860.251 97372.2 -68688.935 98649.795 -66683.512 98768.369 -66532.425 98962.879 -66365.563 98962.88 -66365.562 99186.198 -66239.856 99186.204 -66239.854 99429.761 -66160.13 99429.762 -66160.13 99429.765 -66160.129 99684.191 -66129.453 99684.193 -66129.453 99854.544 -66142.486 99854.544 -66142.486"/><path d="M 75810.645 -44900.796 75983.716 -44972.484 75983.717 -44972.485 76139.477 -45076.56 76271.94 -45209.023 76271.941 -45209.025 76376.016 -45364.784 76447.704 -45537.855 76484.25 -45721.583 76484.25 -45908.917 76447.704 -46092.645 76376.016 -46265.716 76376.015 -46265.717 76271.94 -46421.477 76139.477 -46553.94 76061.068 -46606.331 75983.716 -46658.016 75810.645 -46729.704 75626.917 -46766.25 75439.583 -46766.25 75255.855 -46729.704 75082.784 -46658.016 75005.432 -46606.331 74927.023 -46553.94 74794.56 -46421.477 74690.485 -46265.717 74690.484 -46265.716 74618.796 -46092.645 74582.25 -45908.917 74582.25 -45721.583 74618.796 -45537.855 74690.484 -45364.784 74794.559 -45209.025 74794.56 -45209.023 74927.023 -45076.56 75082.783 -44972.485 75082.784 -44972.484 75255.855 -44900.796 75439.583 -44864.25 75626.917 -44864.25 75810.645 -44900.796 75810.645 -44900.796"/><path d="M 73944.25 -46766.25 72042.25 -46766.25 72042.25 -44864.25 73944.25 -44864.25 73944.25 -46766.25 73944.25 -46766.25"/><path d="M 70222.645 -44900.796 70395.716 -44972.484 70395.717 -44972.485 70551.477 -45076.56 70683.94 -45209.023 70683.941 -45209.025 70788.016 -45364.784 70859.704 -45537.855 70896.25 -45721.583 70896.25 -45908.917 70859.704 -46092.645 70788.016 -46265.716 70788.015 -46265.717 70683.94 -46421.477 70551.477 -46553.94 70473.068 -46606.331 70395.716 -46658.016 70222.645 -46729.704 70038.917 -46766.25 69851.583 -46766.25 69667.855 -46729.704 69494.784 -46658.016 69417.432 -46606.331 69339.023 -46553.94 69206.56 -46421.477 69102.485 -46265.717 69102.484 -46265.716 69030.796 -46092.645 68994.25 -45908.917 68994.25 -45721.583 69030.796 -45537.855 69102.484 -45364.784 69206.559 -45209.025 69206.56 -45209.023 69339.023 -45076.56 69494.783 -44972.485 69494.784 -44972.484 69667.855 -44900.796 69851.583 -44864.25 70038.917 -44864.25 70222.645 -44900.796 70222.645 -44900.796"/><path d="M 68356.25 -46766.25 66454.25 -46766.25 66454.25 -44864.25 68356.25 -44864.25 68356.25 -46766.25 68356.25 -46766.25"/><path d="M 64634.645 -44900.796 64807.716 -44972.484 64807.717 -44972.485 64963.477 -45076.56 65095.94 -45209.023 65095.941 -45209.025 65200.016 -45364.784 65271.704 -45537.855 65308.25 -45721.583 65308.25 -45908.917 65271.704 -46092.645 65200.016 -46265.716 65200.015 -46265.717 65095.94 -46421.477 64963.477 -46553.94 64885.068 -46606.331 64807.716 -46658.016 64634.645 -46729.704 64450.917 -46766.25 64263.583 -46766.25 64079.855 -46729.704 63906.784 -46658.016 63829.432 -46606.331 63751.023 -46553.94 63618.56 -46421.477 63514.485 -46265.717 63514.484 -46265.716 63442.796 -46092.645 63406.25 -45908.917 63406.25 -45721.583 63442.796 -45537.855 63514.484 -45364.784 63618.559 -45209.025 63618.56 -45209.023 63751.023 -45076.56 63906.783 -44972.485 63906.784 -44972.484 64079.855 -44900.796 64263.583 -44864.25 64450.917 -44864.25 64634.645 -44900.796 64634.645 -44900.796"/><path d="M 62768.25 -46766.25 60866.25 -46766.25 60866.25 -44864.25 62768.25 -44864.25 62768.25 -46766.25 62768.25 -46766.25"/><path d="M 59046.645 -44900.796 59219.716 -44972.484 59219.717 -44972.485 59375.477 -45076.56 59507.94 -45209.023 59507.941 -45209.025 59612.016 -45364.784 59683.704 -45537.855 59720.25 -45721.583 59720.25 -45908.917 59683.704 -46092.645 59612.016 -46265.716 59612.015 -46265.717 59507.94 -46421.477 59375.477 -46553.94 59297.068 -46606.331 59219.716 -46658.016 59046.645 -46729.704 58862.917 -46766.25 58675.583 -46766.25 58491.855 -46729.704 58318.784 -46658.016 58241.432 -46606.331 58163.023 -46553.94 58030.56 -46421.477 57926.485 -46265.717 57926.484 -46265.716 57854.796 -46092.645 57818.25 -45908.917 57818.25 -45721.583 57854.796 -45537.855 57926.484 -45364.784 58030.559 -45209.025 58030.56 -45209.023 58163.023 -45076.56 58318.783 -44972.485 58318.784 -44972.484 58491.855 -44900.796 58675.583 -44864.25 58862.917 -44864.25 59046.645 -44900.796 59046.645 -44900.796"/><path d="M 57180.25 -46766.25 55278.25 -46766.25 55278.25 -44864.25 57180.25 -44864.25 57180.25 -46766.25 57180.25 -46766.25"/><path d="M 53458.645 -44900.796 53631.716 -44972.484 53631.717 -44972.485 53787.477 -45076.56 53919.94 -45209.023 53919.941 -45209.025 54024.016 -45364.784 54095.704 -45537.855 54132.25 -45721.583 54132.25 -45908.917 54095.704 -46092.645 54024.016 -46265.716 54024.015 -46265.717 53919.94 -46421.477 53787.477 -46553.94 53709.068 -46606.331 53631.716 -46658.016 53458.645 -46729.704 53274.917 -46766.25 53087.583 -46766.25 52903.855 -46729.704 52730.784 -46658.016 52653.432 -46606.331 52575.023 -46553.94 52442.56 -46421.477 52338.485 -46265.717 52338.484 -46265.716 52266.796 -46092.645 52230.25 -45908.917 52230.25 -45721.583 52266.796 -45537.855 52338.484 -45364.784 52442.559 -45209.025 52442.56 -45209.023 52575.023 -45076.56 52730.783 -44972.485 52730.784 -44972.484 52903.855 -44900.796 53087.583 -44864.25 53274.917 -44864.25 53458.645 -44900.796 53458.645 -44900.796"/><path d="M 51592.25 -46766.25 49690.25 -46766.25 49690.25 -44864.25 51592.25 -44864.25 51592.25 -46766.25 51592.25 -46766.25"/><path d="M 90708.25 -46766.25 88806.25 -46766.25 88806.25 -44864.25 90708.25 -44864.25 90708.25 -46766.25 90708.25 -46766.25"/><path d="M 92574.645 -44900.796 92747.716 -44972.484 92747.717 -44972.485 92903.477 -45076.56 93035.94 -45209.023 93035.941 -45209.025 93140.016 -45364.784 93211.704 -45537.855 93248.25 -45721.583 93248.25 -45908.917 93211.704 -46092.645 93140.016 -46265.716 93140.015 -46265.717 93035.94 -46421.477 92903.477 -46553.94 92825.068 -46606.331 92747.716 -46658.016 92574.645 -46729.704 92390.917 -46766.25 92203.583 -46766.25 92019.855 -46729.704 91846.784 -46658.016 91769.432 -46606.331 91691.023 -46553.94 91558.56 -46421.477 91454.485 -46265.717 91454.484 -46265.716 91382.796 -46092.645 91346.25 -45908.917 91346.25 -45721.583 91382.796 -45537.855 91454.484 -45364.784 91558.559 -45209.025 91558.56 -45209.023 91691.023 -45076.56 91846.783 -44972.485 91846.784 -44972.484 92019.855 -44900.796 92203.583 -44864.25 92390.917 -44864.25 92574.645 -44900.796 92574.645 -44900.796"/><path d="M 85120.25 -46766.25 83218.25 -46766.25 83218.25 -44864.25 85120.25 -44864.25 85120.25 -46766.25 85120.25 -46766.25"/><path d="M 86986.645 -44900.796 87159.716 -44972.484 87159.717 -44972.485 87315.477 -45076.56 87447.94 -45209.023 87447.941 -45209.025 87552.016 -45364.784 87623.704 -45537.855 87660.25 -45721.583 87660.25 -45908.917 87623.704 -46092.645 87552.016 -46265.716 87552.015 -46265.717 87447.94 -46421.477 87315.477 -46553.94 87237.068 -46606.331 87159.716 -46658.016 86986.645 -46729.704 86802.917 -46766.25 86615.583 -46766.25 86431.855 -46729.704 86258.784 -46658.016 86181.432 -46606.331 86103.023 -46553.94 85970.56 -46421.477 85866.485 -46265.717 85866.484 -46265.716 85794.796 -46092.645 85758.25 -45908.917 85758.25 -45721.583 85794.796 -45537.855 85866.484 -45364.784 85970.559 -45209.025 85970.56 -45209.023 86103.023 -45076.56 86258.783 -44972.485 86258.784 -44972.484 86431.855 -44900.796 86615.583 -44864.25 86802.917 -44864.25 86986.645 -44900.796 86986.645 -44900.796"/><path d="M 79532.25 -46766.25 77630.25 -46766.25 77630.25 -44864.25 79532.25 -44864.25 79532.25 -46766.25 79532.25 -46766.25"/><path d="M 81398.645 -44900.796 81571.716 -44972.484 81571.717 -44972.485 81727.477 -45076.56 81859.94 -45209.023 81859.941 -45209.025 81964.016 -45364.784 82035.704 -45537.855 82072.25 -45721.583 82072.25 -45908.917 82035.704 -46092.645 81964.016 -46265.716 81964.015 -46265.717 81859.94 -46421.477 81727.477 -46553.94 81649.068 -46606.331 81571.716 -46658.016 81398.645 -46729.704 81214.917 -46766.25 81027.583 -46766.25 80843.855 -46729.704 80670.784 -46658.016 80593.432 -46606.331 80515.023 -46553.94 80382.56 -46421.477 80278.485 -46265.717 80278.484 -46265.716 80206.796 -46092.645 80170.25 -45908.917 80170.25 -45721.583 80206.796 -45537.855 80278.484 -45364.784 80382.559 -45209.025 80382.56 -45209.023 80515.023 -45076.56 80670.783 -44972.485 80670.784 -44972.484 80843.855 -44900.796 81027.583 -44864.25 81214.917 -44864.25 81398.645 -44900.796 81398.645 -44900.796"/><path d="M 53458.645 -36772.796 53631.716 -36844.484 53631.717 -36844.485 53787.477 -36948.56 53919.94 -37081.023 53919.941 -37081.025 54024.016 -37236.784 54095.704 -37409.855 54132.25 -37593.583 54132.25 -37780.917 54095.704 -37964.645 54024.016 -38137.716 54024.015 -38137.717 53919.94 -38293.477 53787.477 -38425.94 53709.068 -38478.331 53631.716 -38530.016 53458.645 -38601.704 53274.917 -38638.25 53087.583 -38638.25 52903.855 -38601.704 52730.784 -38530.016 52653.432 -38478.331 52575.023 -38425.94 52442.56 -38293.477 52338.485 -38137.717 52338.484 -38137.716 52266.796 -37964.645 52230.25 -37780.917 52230.25 -37593.583 52266.796 -37409.855 52338.484 -37236.784 52442.559 -37081.025 52442.56 -37081.023 52575.023 -36948.56 52730.783 -36844.485 52730.784 -36844.484 52903.855 -36772.796 53087.583 -36736.25 53274.917 -36736.25 53458.645 -36772.796 53458.645 -36772.796"/><path d="M 51592.25 -38638.25 49690.25 -38638.25 49690.25 -36736.25 51592.25 -36736.25 51592.25 -38638.25 51592.25 -38638.25"/><path d="M 92574.645 -36772.796 92747.716 -36844.484 92747.717 -36844.485 92903.477 -36948.56 93035.94 -37081.023 93035.941 -37081.025 93140.016 -37236.784 93211.704 -37409.855 93248.25 -37593.583 93248.25 -37780.917 93211.704 -37964.645 93140.016 -38137.716 93140.015 -38137.717 93035.94 -38293.477 92903.477 -38425.94 92825.068 -38478.331 92747.716 -38530.016 92574.645 -38601.704 92390.917 -38638.25 92203.583 -38638.25 92019.855 -38601.704 91846.784 -38530.016 91769.432 -38478.331 91691.023 -38425.94 91558.56 -38293.477 91454.485 -38137.717 91454.484 -38137.716 91382.796 -37964.645 91346.25 -37780.917 91346.25 -37593.583 91382.796 -37409.855 91454.484 -37236.784 91558.559 -37081.025 91558.56 -37081.023 91691.023 -36948.56 91846.783 -36844.485 91846.784 -36844.484 92019.855 -36772.796 92203.583 -36736.25 92390.917 -36736.25 92574.645 -36772.796 92574.645 -36772.796"/><path d="M 90708.25 -38638.25 88806.25 -38638.25 88806.25 -36736.25 90708.25 -36736.25 90708.25 -38638.25 90708.25 -38638.25"/><path d="M 86986.645 -36772.796 87159.716 -36844.484 87159.717 -36844.485 87315.477 -36948.56 87447.94 -37081.023 87447.941 -37081.025 87552.016 -37236.784 87623.704 -37409.855 87660.25 -37593.583 87660.25 -37780.917 87623.704 -37964.645 87552.016 -38137.716 87552.015 -38137.717 87447.94 -38293.477 87315.477 -38425.94 87237.068 -38478.331 87159.716 -38530.016 86986.645 -38601.704 86802.917 -38638.25 86615.583 -38638.25 86431.855 -38601.704 86258.784 -38530.016 86181.432 -38478.331 86103.023 -38425.94 85970.56 -38293.477 85866.485 -38137.717 85866.484 -38137.716 85794.796 -37964.645 85758.25 -37780.917 85758.25 -37593.583 85794.796 -37409.855 85866.484 -37236.784 85970.559 -37081.025 85970.56 -37081.023 86103.023 -36948.56 86258.783 -36844.485 86258.784 -36844.484 86431.855 -36772.796 86615.583 -36736.25 86802.917 -36736.25 86986.645 -36772.796 86986.645 -36772.796"/><path d="M 85120.25 -38638.25 83218.25 -38638.25 83218.25 -36736.25 85120.25 -36736.25 85120.25 -38638.25 85120.25 -38638.25"/><path d="M 81398.645 -36772.796 81571.716 -36844.484 81571.717 -36844.485 81727.477 -36948.56 81859.94 -37081.023 81859.941 -37081.025 81964.016 -37236.784 82035.704 -37409.855 82072.25 -37593.583 82072.25 -37780.917 82035.704 -37964.645 81964.016 -38137.716 81964.015 -38137.717 81859.94 -38293.477 81727.477 -38425.94 81649.068 -38478.331 81571.716 -38530.016 81398.645 -38601.704 81214.917 -38638.25 81027.583 -38638.25 80843.855 -38601.704 80670.784 -38530.016 80593.432 -38478.331 80515.023 -38425.94 80382.56 -38293.477 80278.485 -38137.717 80278.484 -38137.716 80206.796 -37964.645 80170.25 -37780.917 80170.25 -37593.583 80206.796 -37409.855 80278.484 -37236.784 80382.559 -37081.025 80382.56 -37081.023 80515.023 -36948.56 80670.783 -36844.485 80670.784 -36844.484 80843.855 -36772.796 81027.583 -36736.25 81214.917 -36736.25 81398.645 -36772.796 81398.645 -36772.796"/><path d="M 79532.25 -38638.25 77630.25 -38638.25 77630.25 -36736.25 79532.25 -36736.25 79532.25 -38638.25 79532.25 -38638.25"/><path d="M 75810.645 -36772.796 75983.716 -36844.484 75983.717 -36844.485 76139.477 -36948.56 76271.94 -37081.023 76271.941 -37081.025 76376.016 -37236.784 76447.704 -37409.855 76484.25 -37593.583 76484.25 -37780.917 76447.704 -37964.645 76376.016 -38137.716 76376.015 -38137.717 76271.94 -38293.477 76139.477 -38425.94 76061.068 -38478.331 75983.716 -38530.016 75810.645 -38601.704 75626.917 -38638.25 75439.583 -38638.25 75255.855 -38601.704 75082.784 -38530.016 75005.432 -38478.331 74927.023 -38425.94 74794.56 -38293.477 74690.485 -38137.717 74690.484 -38137.716 74618.796 -37964.645 74582.25 -37780.917 74582.25 -37593.583 74618.796 -37409.855 74690.484 -37236.784 74794.559 -37081.025 74794.56 -37081.023 74927.023 -36948.56 75082.783 -36844.485 75082.784 -36844.484 75255.855 -36772.796 75439.583 -36736.25 75626.917 -36736.25 75810.645 -36772.796 75810.645 -36772.796"/><path d="M 73944.25 -38638.25 72042.25 -38638.25 72042.25 -36736.25 73944.25 -36736.25 73944.25 -38638.25 73944.25 -38638.25"/><path d="M 70222.645 -36772.796 70395.716 -36844.484 70395.717 -36844.485 70551.477 -36948.56 70683.94 -37081.023 70683.941 -37081.025 70788.016 -37236.784 70859.704 -37409.855 70896.25 -37593.583 70896.25 -37780.917 70859.704 -37964.645 70788.016 -38137.716 70788.015 -38137.717 70683.94 -38293.477 70551.477 -38425.94 70473.068 -38478.331 70395.716 -38530.016 70222.645 -38601.704 70038.917 -38638.25 69851.583 -38638.25 69667.855 -38601.704 69494.784 -38530.016 69417.432 -38478.331 69339.023 -38425.94 69206.56 -38293.477 69102.485 -38137.717 69102.484 -38137.716 69030.796 -37964.645 68994.25 -37780.917 68994.25 -37593.583 69030.796 -37409.855 69102.484 -37236.784 69206.559 -37081.025 69206.56 -37081.023 69339.023 -36948.56 69494.783 -36844.485 69494.784 -36844.484 69667.855 -36772.796 69851.583 -36736.25 70038.917 -36736.25 70222.645 -36772.796 70222.645 -36772.796"/><path d="M 68356.25 -38638.25 66454.25 -38638.25 66454.25 -36736.25 68356.25 -36736.25 68356.25 -38638.25 68356.25 -38638.25"/><path d="M 64634.645 -36772.796 64807.716 -36844.484 64807.717 -36844.485 64963.477 -36948.56 65095.94 -37081.023 65095.941 -37081.025 65200.016 -37236.784 65271.704 -37409.855 65308.25 -37593.583 65308.25 -37780.917 65271.704 -37964.645 65200.016 -38137.716 65200.015 -38137.717 65095.94 -38293.477 64963.477 -38425.94 64885.068 -38478.331 64807.716 -38530.016 64634.645 -38601.704 64450.917 -38638.25 64263.583 -38638.25 64079.855 -38601.704 63906.784 -38530.016 63829.432 -38478.331 63751.023 -38425.94 63618.56 -38293.477 63514.485 -38137.717 63514.484 -38137.716 63442.796 -37964.645 63406.25 -37780.917 63406.25 -37593.583 63442.796 -37409.855 63514.484 -37236.784 63618.559 -37081.025 63618.56 -37081.023 63751.023 -36948.56 63906.783 -36844.485 63906.784 -36844.484 64079.855 -36772.796 64263.583 -36736.25 64450.917 -36736.25 64634.645 -36772.796 64634.645 -36772.796"/><path d="M 59046.645 -36772.796 59219.716 -36844.484 59219.717 -36844.485 59375.477 -36948.56 59507.94 -37081.023 59507.941 -37081.025 59612.016 -37236.784 59683.704 -37409.855 59720.25 -37593.583 59720.25 -37780.917 59683.704 -37964.645 59612.016 -38137.716 59612.015 -38137.717 59507.94 -38293.477 59375.477 -38425.94 59297.068 -38478.331 59219.716 -38530.016 59046.645 -38601.704 58862.917 -38638.25 58675.583 -38638.25 58491.855 -38601.704 58318.784 -38530.016 58241.432 -38478.331 58163.023 -38425.94 58030.56 -38293.477 57926.485 -38137.717 57926.484 -38137.716 57854.796 -37964.645 57818.25 -37780.917 57818.25 -37593.583 57854.796 -37409.855 57926.484 -37236.784 58030.559 -37081.025 58030.56 -37081.023 58163.023 -36948.56 58318.783 -36844.485 58318.784 -36844.484 58491.855 -36772.796 58675.583 -36736.25 58862.917 -36736.25 59046.645 -36772.796 59046.645 -36772.796"/><path d="M 57180.25 -38638.25 55278.25 -38638.25 55278.25 -36736.25 57180.25 -36736.25 57180.25 -38638.25 57180.25 -38638.25"/><path d="M 62768.25 -38638.25 60866.25 -38638.25 60866.25 -36736.25 62768.25 -36736.25 62768.25 -38638.25 62768.25 -38638.25"/><path d="M 62768.25 -30510.25 60866.25 -30510.25 60866.25 -28608.25 62768.25 -28608.25 62768.25 -30510.25 62768.25 -30510.25"/><path d="M 64634.645 -28644.796 64807.716 -28716.484 64807.717 -28716.485 64963.477 -28820.56 65095.94 -28953.023 65095.941 -28953.025 65200.016 -29108.784 65271.704 -29281.855 65308.25 -29465.583 65308.25 -29652.917 65271.704 -29836.645 65200.016 -30009.716 65200.015 -30009.717 65095.94 -30165.477 64963.477 -30297.94 64885.068 -30350.331 64807.716 -30402.016 64634.645 -30473.704 64450.917 -30510.25 64263.583 -30510.25 64079.855 -30473.704 63906.784 -30402.016 63829.432 -30350.331 63751.023 -30297.94 63618.56 -30165.477 63514.485 -30009.717 63514.484 -30009.716 63442.796 -29836.645 63406.25 -29652.917 63406.25 -29465.583 63442.796 -29281.855 63514.484 -29108.784 63618.559 -28953.025 63618.56 -28953.023 63751.023 -28820.56 63906.783 -28716.485 63906.784 -28716.484 64079.855 -28644.796 64263.583 -28608.25 64450.917 -28608.25 64634.645 -28644.796 64634.645 -28644.796"/><path d="M 86986.645 -28644.796 87159.716 -28716.484 87159.717 -28716.485 87315.477 -28820.56 87447.94 -28953.023 87447.941 -28953.025 87552.016 -29108.784 87623.704 -29281.855 87660.25 -29465.583 87660.25 -29652.917 87623.704 -29836.645 87552.016 -30009.716 87552.015 -30009.717 87447.94 -30165.477 87315.477 -30297.94 87237.068 -30350.331 87159.716 -30402.016 86986.645 -30473.704 86802.917 -30510.25 86615.583 -30510.25 86431.855 -30473.704 86258.784 -30402.016 86181.432 -30350.331 86103.023 -30297.94 85970.56 -30165.477 85866.485 -30009.717 85866.484 -30009.716 85794.796 -29836.645 85758.25 -29652.917 85758.25 -29465.583 85794.796 -29281.855 85866.484 -29108.784 85970.559 -28953.025 85970.56 -28953.023 86103.023 -28820.56 86258.783 -28716.485 86258.784 -28716.484 86431.855 -28644.796 86615.583 -28608.25 86802.917 -28608.25 86986.645 -28644.796 86986.645 -28644.796"/><path d="M 85120.25 -30510.25 83218.25 -30510.25 83218.25 -28608.25 85120.25 -28608.25 85120.25 -30510.25 85120.25 -30510.25"/><path d="M 81398.645 -28644.796 81571.716 -28716.484 81571.717 -28716.485 81727.477 -28820.56 81859.94 -28953.023 81859.941 -28953.025 81964.016 -29108.784 82035.704 -29281.855 82072.25 -29465.583 82072.25 -29652.917 82035.704 -29836.645 81964.016 -30009.716 81964.015 -30009.717 81859.94 -30165.477 81727.477 -30297.94 81649.068 -30350.331 81571.716 -30402.016 81398.645 -30473.704 81214.917 -30510.25 81027.583 -30510.25 80843.855 -30473.704 80670.784 -30402.016 80593.432 -30350.331 80515.023 -30297.94 80382.56 -30165.477 80278.485 -30009.717 80278.484 -30009.716 80206.796 -29836.645 80170.25 -29652.917 80170.25 -29465.583 80206.796 -29281.855 80278.484 -29108.784 80382.559 -28953.025 80382.56 -28953.023 80515.023 -28820.56 80670.783 -28716.485 80670.784 -28716.484 80843.855 -28644.796 81027.583 -28608.25 81214.917 -28608.25 81398.645 -28644.796 81398.645 -28644.796"/><path d="M 79532.25 -30510.25 77630.25 -30510.25 77630.25 -28608.25 79532.25 -28608.25 79532.25 -30510.25 79532.25 -30510.25"/><path d="M 75810.645 -28644.796 75983.716 -28716.484 75983.717 -28716.485 76139.477 -28820.56 76271.94 -28953.023 76271.941 -28953.025 76376.016 -29108.784 76447.704 -29281.855 76484.25 -29465.583 76484.25 -29652.917 76447.704 -29836.645 76376.016 -30009.716 76376.015 -30009.717 76271.94 -30165.477 76139.477 -30297.94 76061.068 -30350.331 75983.716 -30402.016 75810.645 -30473.704 75626.917 -30510.25 75439.583 -30510.25 75255.855 -30473.704 75082.784 -30402.016 75005.432 -30350.331 74927.023 -30297.94 74794.56 -30165.477 74690.485 -30009.717 74690.484 -30009.716 74618.796 -29836.645 74582.25 -29652.917 74582.25 -29465.583 74618.796 -29281.855 74690.484 -29108.784 74794.559 -28953.025 74794.56 -28953.023 74927.023 -28820.56 75082.783 -28716.485 75082.784 -28716.484 75255.855 -28644.796 75439.583 -28608.25 75626.917 -28608.25 75810.645 -28644.796 75810.645 -28644.796"/><path d="M 73944.25 -30510.25 72042.25 -30510.25 72042.25 -28608.25 73944.25 -28608.25 73944.25 -30510.25 73944.25 -30510.25"/><path d="M 51592.25 -30510.25 49690.25 -30510.25 49690.25 -28608.25 51592.25 -28608.25 51592.25 -30510.25 51592.25 -30510.25"/><path d="M 53458.645 -28644.796 53631.716 -28716.484 53631.717 -28716.485 53787.477 -28820.56 53919.94 -28953.023 53919.941 -28953.025 54024.016 -29108.784 54095.704 -29281.855 54132.25 -29465.583 54132.25 -29652.917 54095.704 -29836.645 54024.016 -30009.716 54024.015 -30009.717 53919.94 -30165.477 53787.477 -30297.94 53709.068 -30350.331 53631.716 -30402.016 53458.645 -30473.704 53274.917 -30510.25 53087.583 -30510.25 52903.855 -30473.704 52730.784 -30402.016 52653.432 -30350.331 52575.023 -30297.94 52442.56 -30165.477 52338.485 -30009.717 52338.484 -30009.716 52266.796 -29836.645 52230.25 -29652.917 52230.25 -29465.583 52266.796 -29281.855 52338.484 -29108.784 52442.559 -28953.025 52442.56 -28953.023 52575.023 -28820.56 52730.783 -28716.485 52730.784 -28716.484 52903.855 -28644.796 53087.583 -28608.25 53274.917 -28608.25 53458.645 -28644.796 53458.645 -28644.796"/><path d="M 57180.25 -30510.25 55278.25 -30510.25 55278.25 -28608.25 57180.25 -28608.25 57180.25 -30510.25 57180.25 -30510.25"/><path d="M 59046.645 -28644.796 59219.716 -28716.484 59219.717 -28716.485 59375.477 -28820.56 59507.94 -28953.023 59507.941 -28953.025 59612.016 -29108.784 59683.704 -29281.855 59720.25 -29465.583 59720.25 -29652.917 59683.704 -29836.645 59612.016 -30009.716 59612.015 -30009.717 59507.94 -30165.477 59375.477 -30297.94 59297.068 -30350.331 59219.716 -30402.016 59046.645 -30473.704 58862.917 -30510.25 58675.583 -30510.25 58491.855 -30473.704 58318.784 -30402.016 58241.432 -30350.331 58163.023 -30297.94 58030.56 -30165.477 57926.485 -30009.717 57926.484 -30009.716 57854.796 -29836.645 57818.25 -29652.917 57818.25 -29465.583 57854.796 -29281.855 57926.484 -29108.784 58030.559 -28953.025 58030.56 -28953.023 58163.023 -28820.56 58318.783 -28716.485 58318.784 -28716.484 58491.855 -28644.796 58675.583 -28608.25 58862.917 -28608.25 59046.645 -28644.796 59046.645 -28644.796"/></g></svg>