<svg version="1.1" xmlns="http://www.w3.org/2000/svg" xmlns:xlink="http://www.w3.org/1999/xlink" stroke-linecap="round" stroke-linejoin="round" stroke-width="0" fill-rule="evenodd" width="57.100001mm" height="48.21mm" viewBox="48126.25 -74746.25 57100.001 48210" id="te9gchuOLyvrImRPoKnF"><defs><circle cx="0" cy="0" r="1250" id="te9gchuOLyvrImRPoKnF_pad-10"/><circle cx="0" cy="0" r="900" id="te9gchuOLyvrImRPoKnF_pad-12"/><rect x="-900" y="-900" width="1800" height="1800" id="te9gchuOLyvrImRPoKnF_pad-13"/><circle cx="0" cy="0" r="400" id="te9gchuOLyvrImRPoKnF_pad-14"/></defs><g transform="translate(0,-101282.5) scale(1,-1)" fill="currentColor" stroke="currentColor"><use xlink:href="#te9gchuOLyvrImRPoKnF_pad-10" x="93333.25" y="-69655.25"/><path d="M 93313.526 -69944.578 93352.974 -69365.922" fill="none" stroke-width="2500"/><use xlink:href="#te9gchuOLyvrImRPoKnF_pad-10" x="99108.25" y="-68385.25"/><path d="M 98503.788 -69334.065 99712.712 -67436.435" fill="none" stroke-width="2500"/><use xlink:href="#te9gchuOLyvrImRPoKnF_pad-10" x="74283.25" y="-69655.25"/><path d="M 74263.526 -69944.578 74302.974 -69365.922" fill="none" stroke-width="2500"/><use xlink:href="#te9gchuOLyvrImRPoKnF_pad-10" x="80058.25" y="-68385.25"/><path d="M 79453.788 -69334.065 80662.712 -67436.435" fill="none" stroke-width="2500"/><use xlink:href="#te9gchuOLyvrImRPoKnF_pad-10" x="55309.451" y="-69655.25"/><path d="M 55289.727 -69944.578 55329.175 -69365.922" fill="none" stroke-width="2500"/><use xlink:href="#te9gchuOLyvrImRPoKnF_pad-10" x="61084.451" y="-68385.25"/><path d="M 60479.989 -69334.065 61688.913 -67436.435" fill="none" stroke-width="2500"/><use xlink:href="#te9gchuOLyvrImRPoKnF_pad-12" x="53181.25" y="-37687.25"/><use xlink:href="#te9gchuOLyvrImRPoKnF_pad-13" x="50641.25" y="-37687.25"/><use xlink:href="#te9gchuOLyvrImRPoKnF_pad-12" x="58769.25" y="-37687.25"/><use xlink:href="#te9gchuOLyvrImRPoKnF_pad-13" x="56229.25" y="-37687.25"/><use xlink:href="#te9gchuOLyvrImRPoKnF_pad-12" x="64357.25" y="-37687.25"/><use xlink:href="#te9gchuOLyvrImRPoKnF_pad-13" x="61817.25" y="-37687.25"/><use xlink:href="#te9gchuOLyvrImRPoKnF_pad-12" x="69945.25" y="-37687.25"/><use xlink:href="#te9gchuOLyvrImRPoKnF_pad-13" x="67405.25" y="-37687.25"/><use xlink:href="#te9gchuOLyvrImRPoKnF_pad-12" x="75533.25" y="-37687.25"/><use xlink:href="#te9gchuOLyvrImRPoKnF_pad-13" x="72993.25" y="-37687.25"/><use xlink:href="#te9gchuOLyvrImRPoKnF_pad-12" x="81121.25" y="-37687.25"/><use xlink:href="#te9gchuOLyvrImRPoKnF_pad-13" x="78581.25" y="-37687.25"/><use xlink:href="#te9gchuOLyvrImRPoKnF_pad-12" x="86709.25" y="-37687.25"/><use xlink:href="#te9gchuOLyvrImRPoKnF_pad-13" x="84169.25" y="-37687.25"/><use xlink:href="#te9gchuOLyvrImRPoKnF_pad-12" x="92297.25" y="-37687.25"/><use xlink:href="#te9gchuOLyvrImRPoKnF_pad-13" x="89757.25" y="-37687.25"/><use xlink:href="#te9gchuOLyvrImRPoKnF_pad-12" x="53181.25" y="-45815.25"/><use xlink:href="#te9gchuOLyvrImRPoKnF_pad-13" x="50641.25" y="-45815.25"/><use xlink:href="#te9gchuOLyvrImRPoKnF_pad-12" x="58769.25" y="-45815.25"/><use xlink:href="#te9gchuOLyvrImRPoKnF_pad-13" x="56229.25" y="-45815.25"/><use xlink:href="#te9gchuOLyvrImRPoKnF_pad-12" x="64357.25" y="-45815.25"/><use xlink:href="#te9gchuOLyvrImRPoKnF_pad-13" x="61817.25" y="-45815.25"/><use xlink:href="#te9gchuOLyvrImRPoKnF_pad-12" x="69945.25" y="-45815.25"/><use xlink:href="#te9gchuOLyvrImRPoKnF_pad-13" x="67405.25" y="-45815.25"/><use xlink:href="#te9gchuOLyvrImRPoKnF_pad-12" x="75533.25" y="-45815.25"/><use xlink:href="#te9gchuOLyvrImRPoKnF_pad-13" x="72993.25" y="-45815.25"/><use xlink:href="#te9gchuOLyvrImRPoKnF_pad-12" x="81121.25" y="-45815.25"/><use xlink:href="#te9gchuOLyvrImRPoKnF_pad-13" x="78581.25" y="-45815.25"/><use xlink:href="#te9gchuOLyvrImRPoKnF_pad-12" x="86709.25" y="-45815.25"/><use xlink:href="#te9gchuOLyvrImRPoKnF_pad-13" x="84169.25" y="-45815.25"/><use xlink:href="#te9gchuOLyvrImRPoKnF_pad-12" x="92297.25" y="-45815.25"/><use xlink:href="#te9gchuOLyvrImRPoKnF_pad-13" x="89757.25" y="-45815.25"/><use xlink:href="#te9gchuOLyvrImRPoKnF_pad-12" x="53181.25" y="-29559.25"/><use xlink:href="#te9gchuOLyvrImRPoKnF_pad-13" x="50641.25" y="-29559.25"/><use xlink:href="#te9gchuOLyvrImRPoKnF_pad-12" x="58769.25" y="-29559.25"/><use xlink:href="#te9gchuOLyvrImRPoKnF_pad-13" x="56229.25" y="-29559.25"/><use xlink:href="#te9gchuOLyvrImRPoKnF_pad-12" x="64357.25" y="-29559.25"/><use xlink:href="#te9gchuOLyvrImRPoKnF_pad-13" x="61817.25" y="-29559.25"/><use xlink:href="#te9gchuOLyvrImRPoKnF_pad-12" x="75533.25" y="-29559.25"/><use xlink:href="#te9gchuOLyvrImRPoKnF_pad-13" x="72993.25" y="-29559.25"/><use xlink:href="#te9gchuOLyvrImRPoKnF_pad-12" x="81121.25" y="-29559.25"/><use xlink:href="#te9gchuOLyvrImRPoKnF_pad-13" x="78581.25" y="-29559.25"/><use xlink:href="#te9gchuOLyvrImRPoKnF_pad-12" x="86709.25" y="-29559.25"/><use xlink:href="#te9gchuOLyvrImRPoKnF_pad-13" x="84169.25" y="-29559.25"/><use xlink:href="#te9gchuOLyvrImRPoKnF_pad-14" x="100171.25" y="-48101.25"/><use xlink:href="#te9gchuOLyvrImRPoKnF_pad-14" x="100171.25" y="-39211.25"/><use xlink:href="#te9gchuOLyvrImRPoKnF_pad-14" x="98901.403" y="-39211.097"/><use xlink:href="#te9gchuOLyvrImRPoKnF_pad-14" x="98901.25" y="-48101.25"/><use xlink:href="#te9gchuOLyvrImRPoKnF_pad-14" x="97631.25" y="-48101.25"/><use xlink:href="#te9gchuOLyvrImRPoKnF_pad-14" x="101441.25" y="-53181.25"/><use xlink:href="#te9gchuOLyvrImRPoKnF_pad-14" x="74771.25" y="-49371.25"/><use xlink:href="#te9gchuOLyvrImRPoKnF_pad-14" x="101441.25" y="-51911.25"/><use xlink:href="#te9gchuOLyvrImRPoKnF_pad-14" x="79851.25" y="-49371.25"/><use xlink:href="#te9gchuOLyvrImRPoKnF_pad-14" x="101441.25" y="-50641.25"/><use xlink:href="#te9gchuOLyvrImRPoKnF_pad-14" x="84931.25" y="-49371.25"/><use xlink:href="#te9gchuOLyvrImRPoKnF_pad-14" x="101441.25" y="-49371.25"/><use xlink:href="#te9gchuOLyvrImRPoKnF_pad-14" x="90011.25" y="-49371.25"/><path d="M 50641.25 -37687.25 50641.25 -45815.25 M 72993.25 -38837.25 72993.25 -45815.25 M 72993.25 -37687.25 72993.25 -38837.25 M 56229.25 -38837.25 56229.25 -45815.25 M 56229.25 -37687.25 56229.25 -38837.25 M 78581.25 -37687.25 78581.25 -45815.25 M 61817.25 -37687.25 61817.25 -45815.25 M 84169.25 -38837.25 84169.25 -45815.25 M 84169.25 -38837.25 84169.25 -37687.25 M 67405.25 -37687.25 67405.25 -45815.25 M 89757.25 -37687.25 89757.25 -45815.25 M 100171.25 -41751.25 100171.25 -48101.25 M 100171.25 -39211.25 100171.25 -41751.25 M 98901.403 -48101.097 98901.25 -48101.25 M 98901.403 -39211.097 98901.403 -48101.097 M 69045.251 -36787.251 69945.25 -37687.25 M 65582.251 -36462.249 68720.249 -36462.249 69045.251 -36787.251 M 64357.25 -37687.25 65582.251 -36462.249 M 57869.251 -36787.251 58769.25 -37687.25 M 57544.249 -36462.249 57869.251 -36787.251 M 54406.251 -36462.249 57544.249 -36462.249 M 53181.25 -37687.25 54406.251 -36462.249 M 63457.251 -36787.251 64357.25 -37687.25 M 63132.249 -36462.249 63457.251 -36787.251 M 59994.251 -36462.249 63132.249 -36462.249 M 58769.25 -37687.25 59994.251 -36462.249 M 79896.249 -36462.249 80221.251 -36787.251 81121.25 -37687.25 M 76758.251 -36462.249 79896.249 -36462.249 M 75533.25 -37687.25 76758.251 -36462.249 M 82346.251 -36462.249 85484.249 -36462.249 M 81121.25 -37687.25 82346.251 -36462.249 M 86709.25 -37687.25 85484.249 -36462.249 M 91397.251 -36787.251 92297.25 -37687.25 M 91072.249 -36462.249 91397.251 -36787.251 M 87934.251 -36462.249 91072.249 -36462.249 M 86709.25 -37687.25 87934.251 -36462.249 M 57544.249 -47040.251 57869.251 -46715.249 58769.25 -45815.25 M 54406.251 -47040.251 57544.249 -47040.251 M 53181.25 -45815.25 54406.251 -47040.251 M 63457.251 -46715.249 64357.25 -45815.25 M 63132.249 -47040.251 63457.251 -46715.249 M 59994.251 -47040.251 63132.249 -47040.251 M 58769.25 -45815.25 59994.251 -47040.251 M 69045.251 -46715.249 69945.25 -45815.25 M 68720.249 -47040.251 69045.251 -46715.249 M 65582.251 -47040.251 68720.249 -47040.251 M 64357.25 -45815.25 65582.251 -47040.251 M 80221.251 -46715.249 81121.25 -45815.25 M 76758.251 -47040.251 79896.249 -47040.251 80221.251 -46715.249 M 75533.25 -45815.25 76758.251 -47040.251 M 85809.251 -46715.249 86709.25 -45815.25 M 85484.249 -47040.251 85809.251 -46715.249 M 82346.251 -47040.251 85484.249 -47040.251 M 81121.25 -45815.25 82346.251 -47040.251 M 87609.249 -46715.249 86709.25 -45815.25 M 91072.249 -47040.251 87934.251 -47040.251 87609.249 -46715.249 M 92297.25 -45815.25 91072.249 -47040.251 M 78581.25 -53181.25 74771.25 -49371.25 M 101441.25 -53181.25 78581.25 -53181.25 M 82391.25 -51911.25 79851.25 -49371.25 M 101441.25 -51911.25 82391.25 -51911.25 M 86201.25 -50641.25 100171.25 -50641.25 M 86201.25 -50641.25 84931.25 -49371.25 M 101441.25 -50641.25 100171.25 -50641.25 M 90011.25 -49371.25 100368.248 -49371.25 M 101441.25 -49371.25 100368.248 -49371.25" fill="none" stroke-width="250"/><path d="M 103174.466 -26711.834 103620.043 -26846.362 104030.996 -27064.87 104391.684 -27359.038 104688.369 -27717.669 104909.741 -28127.088 105047.376 -28571.715 105099.251 -29065.271 105099.25 -72198.971 105050.666 -72694.466 104916.14 -73140.04 104697.632 -73550.995 104403.459 -73911.686 104044.831 -74208.369 103635.412 -74429.741 103190.785 -74567.376 102697.24 -74619.25 50673.529 -74619.25 50178.034 -74570.666 49732.46 -74436.14 49321.505 -74217.632 48960.814 -73923.459 48664.131 -73564.831 48442.759 -73155.412 48305.124 -72710.785 48253.25 -72217.24 48253.25 -69908.755 53402.795 -69908.755 53411.172 -70186.895 53494.541 -70548.727 53646.899 -70887.342 53862.39 -71189.727 54132.732 -71444.261 54447.538 -71641.165 54794.708 -71772.868 55160.901 -71834.311 55532.044 -71823.133 55893.876 -71739.764 56232.491 -71587.406 56534.876 -71371.915 56789.41 -71101.573 56944.097 -70854.262 59662.1 -70854.262 59846.521 -71109.437 60027.591 -71168.375 60394.14 -71221.387 60763.988 -71201.871 61122.922 -71110.577 61457.148 -70951.011 61753.823 -70729.308 62001.545 -70453.986 62348.895 -69908.755 72376.594 -69908.755 72384.971 -70186.895 72468.34 -70548.727 72620.698 -70887.342 72836.189 -71189.727 73106.531 -71444.261 73421.337 -71641.165 73768.507 -71772.868 74134.7 -71834.311 74505.843 -71823.133 74867.675 -71739.764 75206.29 -71587.406 75508.675 -71371.915 75763.209 -71101.573 75917.896 -70854.262 78635.899 -70854.262 78820.32 -71109.437 79001.39 -71168.375 79367.939 -71221.387 79737.787 -71201.871 80096.721 -71110.577 80430.947 -70951.011 80727.622 -70729.308 80975.344 -70453.986 81322.694 -69908.755 91426.594 -69908.755 91434.971 -70186.895 91518.34 -70548.727 91670.698 -70887.342 91886.189 -71189.727 92156.531 -71444.261 92471.337 -71641.165 92818.507 -71772.868 93184.7 -71834.311 93555.843 -71823.133 93917.675 -71739.764 94256.29 -71587.406 94558.675 -71371.915 94813.209 -71101.573 94967.896 -70854.262 97685.899 -70854.262 97870.32 -71109.437 98051.39 -71168.375 98417.939 -71221.387 98787.787 -71201.871 99146.721 -71110.577 99480.947 -70951.011 99777.622 -70729.308 100025.344 -70453.986 100629.806 -69505.17 99147.124 -68560.598 97685.899 -70854.262 94967.896 -70854.262 95010.113 -70786.767 95141.816 -70439.597 95187.863 -70165.166 95233.06 -69502.157 96622.007 -69502.157 96690.957 -69866.044 96829.575 -70209.488 97032.531 -70519.29 97162.47 -70658.487 97471.677 -70717.787 98932.902 -68424.124 97450.22 -67479.551 96845.758 -68428.366 96700.923 -68769.235 96625.372 -69131.809 96622.007 -69502.157 95233.06 -69502.157 95239.906 -69401.746 95231.529 -69123.605 95148.16 -68761.773 94995.802 -68423.158 94780.311 -68120.773 94509.969 -67866.239 94195.163 -67669.336 93847.993 -67537.632 93481.8 -67476.189 93110.657 -67487.367 92748.825 -67570.736 92410.21 -67723.094 92107.825 -67938.585 91853.291 -68208.927 91656.387 -68523.733 91524.684 -68870.903 91478.637 -69145.334 91426.594 -69908.755 81322.694 -69908.755 81579.806 -69505.17 80097.124 -68560.598 78635.899 -70854.262 75917.896 -70854.262 75960.113 -70786.767 76091.816 -70439.597 76137.863 -70165.166 76183.06 -69502.157 77572.007 -69502.157 77640.957 -69866.044 77779.575 -70209.488 77982.531 -70519.29 78112.47 -70658.487 78421.677 -70717.787 79882.902 -68424.124 78400.22 -67479.551 77795.758 -68428.366 77650.923 -68769.235 77575.372 -69131.809 77572.007 -69502.157 76183.06 -69502.157 76189.906 -69401.746 76181.529 -69123.605 76098.16 -68761.773 75945.802 -68423.158 75730.311 -68120.773 75459.969 -67866.239 75145.163 -67669.336 74797.993 -67537.632 74431.8 -67476.189 74060.657 -67487.367 73698.825 -67570.736 73360.21 -67723.094 73057.825 -67938.585 72803.291 -68208.927 72606.387 -68523.733 72474.684 -68870.903 72428.637 -69145.334 72376.594 -69908.755 62348.895 -69908.755 62606.007 -69505.17 61123.325 -68560.598 59662.1 -70854.262 56944.097 -70854.262 56986.314 -70786.767 57118.017 -70439.597 57164.064 -70165.166 57209.261 -69502.157 58598.208 -69502.157 58667.158 -69866.044 58805.776 -70209.488 59008.732 -70519.29 59138.671 -70658.487 59447.878 -70717.787 60909.103 -68424.124 59426.421 -67479.551 58821.959 -68428.366 58677.124 -68769.235 58601.573 -69131.809 58598.208 -69502.157 57209.261 -69502.157 57216.107 -69401.746 57207.73 -69123.605 57124.361 -68761.773 56972.003 -68423.158 56756.512 -68120.773 56486.17 -67866.239 56171.364 -67669.336 55824.194 -67537.632 55458.001 -67476.189 55086.858 -67487.367 54725.026 -67570.736 54386.411 -67723.094 54084.026 -67938.585 53829.492 -68208.927 53632.588 -68523.733 53500.885 -68870.903 53454.838 -69145.334 53402.795 -69908.755 48253.25 -69908.755 48253.25 -64718.902 51263.551 -64718.902 51263.551 -65011.598 51320.653 -65298.671 51432.663 -65569.088 51595.277 -65812.456 51802.245 -66019.424 52045.613 -66182.038 52316.03 -66294.048 52603.103 -66351.15 52895.799 -66351.15 53182.872 -66294.048 53453.289 -66182.038 53696.657 -66019.424 53903.625 -65812.456 54066.239 -65569.088 54178.249 -65298.671 54235.351 -65011.598 54235.351 -64718.902 54212.959 -64606.326 55200.551 -64606.326 55200.551 -65124.174 55301.578 -65632.072 55499.75 -66110.501 55787.451 -66541.076 56153.625 -66907.25 56584.2 -67194.951 57062.629 -67393.123 57570.527 -67494.15 58088.375 -67494.15 58596.273 -67393.123 58904.792 -67265.33 59562.895 -67265.33 61045.577 -68209.902 61056.323 -68193.034 61270.544 -68329.509 61259.799 -68346.376 62742.481 -69290.949 63346.943 -68342.134 63491.778 -68001.265 63567.329 -67638.691 63570.694 -67268.343 63501.744 -66904.456 63363.126 -66561.012 63206.062 -66321.261 63342.872 -66294.048 63613.289 -66182.038 63856.657 -66019.424 64063.625 -65812.456 64226.239 -65569.088 64338.249 -65298.671 64395.351 -65011.598 64395.351 -64718.902 70237.35 -64718.902 70237.35 -65011.598 70294.452 -65298.671 70406.462 -65569.088 70569.076 -65812.456 70776.044 -66019.424 71019.412 -66182.038 71289.829 -66294.048 71576.902 -66351.15 71869.598 -66351.15 72156.671 -66294.048 72427.088 -66182.038 72670.456 -66019.424 72877.424 -65812.456 73040.038 -65569.088 73152.048 -65298.671 73209.15 -65011.598 73209.15 -64718.902 73186.758 -64606.326 74174.35 -64606.326 74174.35 -65124.174 74275.377 -65632.072 74473.549 -66110.501 74761.25 -66541.076 75127.424 -66907.25 75557.999 -67194.951 76036.428 -67393.123 76544.326 -67494.15 77062.174 -67494.15 77570.072 -67393.123 77878.591 -67265.33 78536.694 -67265.33 80019.376 -68209.902 80030.122 -68193.034 80244.343 -68329.509 80233.598 -68346.376 81716.28 -69290.949 82320.742 -68342.134 82465.577 -68001.265 82541.128 -67638.691 82544.493 -67268.343 82475.543 -66904.456 82336.925 -66561.012 82179.861 -66321.261 82316.671 -66294.048 82587.088 -66182.038 82830.456 -66019.424 83037.424 -65812.456 83200.038 -65569.088 83312.048 -65298.671 83369.15 -65011.598 83369.15 -64718.902 89287.35 -64718.902 89287.35 -65011.598 89344.452 -65298.671 89456.462 -65569.088 89619.076 -65812.456 89826.044 -66019.424 90069.412 -66182.038 90339.829 -66294.048 90626.902 -66351.15 90919.598 -66351.15 91206.671 -66294.048 91477.088 -66182.038 91720.456 -66019.424 91927.424 -65812.456 92090.038 -65569.088 92202.048 -65298.671 92259.15 -65011.598 92259.15 -64718.902 92236.758 -64606.326 93224.35 -64606.326 93224.35 -65124.174 93325.377 -65632.072 93523.549 -66110.501 93811.25 -66541.076 94177.424 -66907.25 94607.999 -67194.951 95086.428 -67393.123 95594.326 -67494.15 96112.174 -67494.15 96620.072 -67393.123 96928.591 -67265.33 97586.694 -67265.33 99069.376 -68209.902 99080.122 -68193.034 99294.343 -68329.509 99283.598 -68346.376 100766.28 -69290.949 101370.742 -68342.134 101515.577 -68001.265 101591.128 -67638.691 101594.493 -67268.343 101525.543 -66904.456 101386.925 -66561.012 101229.861 -66321.261 101366.671 -66294.048 101637.088 -66182.038 101880.456 -66019.424 102087.424 -65812.456 102250.038 -65569.088 102362.048 -65298.671 102419.15 -65011.598 102419.15 -64718.902 102362.048 -64431.829 102250.038 -64161.412 102087.424 -63918.044 101880.456 -63711.076 101637.088 -63548.462 101366.671 -63436.452 101079.598 -63379.35 100786.902 -63379.35 100499.829 -63436.452 100229.412 -63548.462 99986.044 -63711.076 99779.076 -63918.044 99616.462 -64161.412 99504.452 -64431.829 99447.35 -64718.902 99447.35 -65011.598 99504.452 -65298.671 99612.26 -65558.944 99428.713 -65568.629 99069.779 -65659.923 98735.553 -65819.489 98438.878 -66041.192 98191.156 -66316.514 97586.694 -67265.33 96928.591 -67265.33 97098.501 -67194.951 97529.076 -66907.25 97895.25 -66541.076 98182.951 -66110.501 98381.123 -65632.072 98482.15 -65124.174 98482.15 -64606.326 98381.123 -64098.428 98182.951 -63619.999 97895.25 -63189.424 97529.076 -62823.25 97098.501 -62535.549 96620.072 -62337.377 96112.174 -62236.35 95594.326 -62236.35 95086.428 -62337.377 94607.999 -62535.549 94177.424 -62823.25 93811.25 -63189.424 93523.549 -63619.999 93325.377 -64098.428 93224.35 -64606.326 92236.758 -64606.326 92202.048 -64431.829 92090.038 -64161.412 91927.424 -63918.044 91720.456 -63711.076 91477.088 -63548.462 91206.671 -63436.452 90919.598 -63379.35 90626.902 -63379.35 90339.829 -63436.452 90069.412 -63548.462 89826.044 -63711.076 89619.076 -63918.044 89456.462 -64161.412 89344.452 -64431.829 89287.35 -64718.902 83369.15 -64718.902 83312.048 -64431.829 83200.038 -64161.412 83037.424 -63918.044 82830.456 -63711.076 82587.088 -63548.462 82316.671 -63436.452 82029.598 -63379.35 81736.902 -63379.35 81449.829 -63436.452 81179.412 -63548.462 80936.044 -63711.076 80729.076 -63918.044 80566.462 -64161.412 80454.452 -64431.829 80397.35 -64718.902 80397.35 -65011.598 80454.452 -65298.671 80562.26 -65558.944 80378.713 -65568.629 80019.779 -65659.923 79685.553 -65819.489 79388.878 -66041.192 79141.156 -66316.514 78536.694 -67265.33 77878.591 -67265.33 78048.501 -67194.951 78479.076 -66907.25 78845.25 -66541.076 79132.951 -66110.501 79331.123 -65632.072 79432.15 -65124.174 79432.15 -64606.326 79331.123 -64098.428 79132.951 -63619.999 78845.25 -63189.424 78479.076 -62823.25 78048.501 -62535.549 77570.072 -62337.377 77062.174 -62236.35 76544.326 -62236.35 76036.428 -62337.377 75557.999 -62535.549 75127.424 -62823.25 74761.25 -63189.424 74473.549 -63619.999 74275.377 -64098.428 74174.35 -64606.326 73186.758 -64606.326 73152.048 -64431.829 73040.038 -64161.412 72877.424 -63918.044 72670.456 -63711.076 72427.088 -63548.462 72156.671 -63436.452 71869.598 -63379.35 71576.902 -63379.35 71289.829 -63436.452 71019.412 -63548.462 70776.044 -63711.076 70569.076 -63918.044 70406.462 -64161.412 70294.452 -64431.829 70237.35 -64718.902 64395.351 -64718.902 64338.249 -64431.829 64226.239 -64161.412 64063.625 -63918.044 63856.657 -63711.076 63613.289 -63548.462 63342.872 -63436.452 63055.799 -63379.35 62763.103 -63379.35 62476.03 -63436.452 62205.613 -63548.462 61962.245 -63711.076 61755.277 -63918.044 61592.663 -64161.412 61480.653 -64431.829 61423.551 -64718.902 61423.551 -65011.598 61480.653 -65298.671 61588.461 -65558.944 61404.914 -65568.629 61045.98 -65659.923 60711.754 -65819.489 60415.079 -66041.192 60167.357 -66316.514 59562.895 -67265.33 58904.792 -67265.33 59074.702 -67194.951 59505.277 -66907.25 59871.451 -66541.076 60159.152 -66110.501 60357.324 -65632.072 60458.351 -65124.174 60458.351 -64606.326 60357.324 -64098.428 60159.152 -63619.999 59871.451 -63189.424 59505.277 -62823.25 59074.702 -62535.549 58596.273 -62337.377 58088.375 -62236.35 57570.527 -62236.35 57062.629 -62337.377 56584.2 -62535.549 56153.625 -62823.25 55787.451 -63189.424 55499.75 -63619.999 55301.578 -64098.428 55200.551 -64606.326 54212.959 -64606.326 54178.249 -64431.829 54066.239 -64161.412 53903.625 -63918.044 53696.657 -63711.076 53453.289 -63548.462 53182.872 -63436.452 52895.799 -63379.35 52603.103 -63379.35 52316.03 -63436.452 52045.613 -63548.462 51802.245 -63711.076 51595.277 -63918.044 51432.663 -64161.412 51320.653 -64431.829 51263.551 -64718.902 48253.25 -64718.902 48253.25 -49269.311 73736.25 -49269.311 73736.25 -49473.189 73776.024 -49673.148 73854.045 -49861.506 73967.313 -50031.024 74111.476 -50175.187 74280.994 -50288.455 74469.352 -50366.476 74669.311 -50406.25 74731.449 -50406.25 78017.451 -53692.253 78041.249 -53721.251 78156.974 -53816.224 78289.003 -53886.796 78432.264 -53930.253 78543.917 -53941.25 78543.925 -53941.25 78581.25 -53944.926 78618.575 -53941.25 100737.539 -53941.25 100781.476 -53985.187 100950.994 -54098.455 101139.352 -54176.476 101339.311 -54216.25 101543.189 -54216.25 101743.148 -54176.476 101931.506 -54098.455 102101.024 -53985.187 102245.187 -53841.024 102358.455 -53671.506 102436.476 -53483.148 102476.25 -53283.189 102476.25 -53079.311 102436.476 -52879.352 102358.455 -52690.994 102261.74 -52546.25 102358.455 -52401.506 102436.476 -52213.148 102476.25 -52013.189 102476.25 -51809.311 102436.476 -51609.352 102358.455 -51420.994 102261.74 -51276.25 102358.455 -51131.506 102436.476 -50943.148 102476.25 -50743.189 102476.25 -50539.311 102436.476 -50339.352 102358.455 -50150.994 102261.74 -50006.25 102358.455 -49861.506 102436.476 -49673.148 102476.25 -49473.189 102476.25 -49269.311 102436.476 -49069.352 102358.455 -48880.994 102245.187 -48711.476 102101.024 -48567.313 101931.506 -48454.045 101743.148 -48376.024 101543.189 -48336.25 101339.311 -48336.25 101173.211 -48369.289 101206.25 -48203.189 101206.25 -47999.311 101166.476 -47799.352 101088.455 -47610.994 100975.187 -47441.476 100931.25 -47397.539 100931.25 -39914.961 100975.187 -39871.024 101088.455 -39701.506 101166.476 -39513.148 101206.25 -39313.189 101206.25 -39109.311 101166.476 -38909.352 101088.455 -38720.994 100975.187 -38551.476 100831.024 -38407.313 100661.506 -38294.045 100473.148 -38216.024 100273.189 -38176.25 100069.311 -38176.25 99869.352 -38216.024 99680.994 -38294.045 99536.441 -38390.632 99391.659 -38293.892 99203.301 -38215.871 99003.342 -38176.097 98799.464 -38176.097 98599.505 -38215.871 98411.147 -38293.892 98241.629 -38407.16 98097.466 -38551.323 97984.198 -38720.841 97906.177 -38909.199 97866.403 -39109.158 97866.403 -39313.036 97906.177 -39512.995 97984.198 -39701.353 98097.466 -39870.871 98141.403 -39914.808 98141.404 -47397.385 98097.313 -47441.476 97984.045 -47610.994 97906.024 -47799.352 97866.25 -47999.311 97866.25 -48203.189 97906.024 -48403.148 97984.045 -48591.506 97997.237 -48611.25 90714.961 -48611.25 90671.024 -48567.313 90501.506 -48454.045 90313.148 -48376.024 90113.189 -48336.25 89909.311 -48336.25 89709.352 -48376.024 89520.994 -48454.045 89351.476 -48567.313 89207.313 -48711.476 89094.045 -48880.994 89016.024 -49069.352 88976.25 -49269.311 88976.25 -49473.189 89016.024 -49673.148 89094.045 -49861.506 89107.237 -49881.25 86516.052 -49881.25 85966.25 -49331.449 85966.25 -49269.311 85926.476 -49069.352 85848.455 -48880.994 85735.187 -48711.476 85591.024 -48567.313 85421.506 -48454.045 85233.148 -48376.024 85033.189 -48336.25 84829.311 -48336.25 84629.352 -48376.024 84440.994 -48454.045 84271.476 -48567.313 84127.313 -48711.476 84014.045 -48880.994 83936.024 -49069.352 83896.25 -49269.311 83896.25 -49473.189 83936.024 -49673.148 84014.045 -49861.506 84127.313 -50031.024 84271.476 -50175.187 84440.994 -50288.455 84629.352 -50366.476 84829.311 -50406.25 84891.449 -50406.25 85636.448 -51151.25 82706.053 -51151.25 80886.25 -49331.449 80886.25 -49269.311 80846.476 -49069.352 80768.455 -48880.994 80655.187 -48711.476 80511.024 -48567.313 80341.506 -48454.045 80153.148 -48376.024 79953.189 -48336.25 79749.311 -48336.25 79549.352 -48376.024 79360.994 -48454.045 79191.476 -48567.313 79047.313 -48711.476 78934.045 -48880.994 78856.024 -49069.352 78816.25 -49269.311 78816.25 -49473.189 78856.024 -49673.148 78934.045 -49861.506 79047.313 -50031.024 79191.476 -50175.187 79360.994 -50288.455 79549.352 -50366.476 79749.311 -50406.25 79811.449 -50406.25 81826.447 -52421.25 78896.052 -52421.25 75806.25 -49331.449 75806.25 -49269.311 75766.476 -49069.352 75688.455 -48880.994 75575.187 -48711.476 75431.024 -48567.313 75261.506 -48454.045 75073.148 -48376.024 74873.189 -48336.25 74669.311 -48336.25 74469.352 -48376.024 74280.994 -48454.045 74111.476 -48567.313 73967.313 -48711.476 73854.045 -48880.994 73776.024 -49069.352 73736.25 -49269.311 48253.25 -49269.311 48253.25 -36787.25 49103.178 -36787.25 49103.178 -38587.25 49115.438 -38711.732 49151.748 -38831.43 49210.713 -38941.744 49290.065 -39038.435 49386.756 -39117.787 49497.07 -39176.752 49616.768 -39213.062 49741.25 -39225.322 49881.25 -39225.322 49881.251 -44277.178 49741.25 -44277.178 49616.768 -44289.438 49497.07 -44325.748 49386.756 -44384.713 49290.065 -44464.065 49210.713 -44560.756 49151.748 -44671.07 49115.438 -44790.768 49103.178 -44915.25 49103.178 -46715.25 49115.438 -46839.732 49151.748 -46959.43 49210.713 -47069.744 49290.065 -47166.435 49386.756 -47245.787 49497.07 -47304.752 49616.768 -47341.062 49741.25 -47353.322 51541.25 -47353.322 51665.732 -47341.062 51785.43 -47304.752 51895.744 -47245.787 51992.435 -47166.435 52071.787 -47069.744 52130.752 -46959.43 52136.306 -46941.123 52202.745 -47007.562 52454.155 -47175.549 52733.507 -47291.261 53030.066 -47350.25 53332.434 -47350.25 53590.18 -47298.981 53842.452 -47551.254 53866.25 -47580.252 53895.248 -47604.05 53981.974 -47675.225 54114.004 -47745.797 54257.265 -47789.254 54368.918 -47800.251 54368.927 -47800.251 54406.25 -47803.927 54443.573 -47800.251 57506.927 -47800.251 57544.249 -47803.927 57581.571 -47800.251 57581.582 -47800.251 57693.235 -47789.254 57836.496 -47745.797 57968.525 -47675.225 58084.25 -47580.252 58108.053 -47551.248 58360.32 -47298.981 58618.066 -47350.25 58920.434 -47350.25 59178.18 -47298.981 59430.452 -47551.254 59454.25 -47580.252 59483.248 -47604.05 59569.974 -47675.225 59702.004 -47745.797 59845.265 -47789.254 59956.918 -47800.251 59956.927 -47800.251 59994.25 -47803.927 60031.573 -47800.251 63094.927 -47800.251 63132.249 -47803.927 63169.571 -47800.251 63169.582 -47800.251 63281.235 -47789.254 63424.496 -47745.797 63556.525 -47675.225 63672.25 -47580.252 63696.053 -47551.248 63948.32 -47298.981 64206.066 -47350.25 64508.434 -47350.25 64766.18 -47298.981 65018.452 -47551.254 65042.25 -47580.252 65071.248 -47604.05 65157.974 -47675.225 65290.004 -47745.797 65433.265 -47789.254 65544.918 -47800.251 65544.927 -47800.251 65582.25 -47803.927 65619.573 -47800.251 68682.927 -47800.251 68720.249 -47803.927 68757.571 -47800.251 68757.582 -47800.251 68869.235 -47789.254 69012.496 -47745.797 69144.525 -47675.225 69260.25 -47580.252 69284.053 -47551.248 69536.32 -47298.981 69794.066 -47350.25 70096.434 -47350.25 70392.993 -47291.261 70672.345 -47175.549 70923.755 -47007.562 71137.562 -46793.755 71305.549 -46542.345 71421.261 -46262.993 71455.178 -46092.48 71455.178 -46715.25 71467.438 -46839.732 71503.748 -46959.43 71562.713 -47069.744 71642.065 -47166.435 71738.756 -47245.787 71849.07 -47304.752 71968.768 -47341.062 72093.25 -47353.322 73893.25 -47353.322 74017.732 -47341.062 74137.43 -47304.752 74247.744 -47245.787 74344.435 -47166.435 74423.787 -47069.744 74482.752 -46959.43 74488.306 -46941.123 74554.745 -47007.562 74806.155 -47175.549 75085.507 -47291.261 75382.066 -47350.25 75684.434 -47350.25 75942.18 -47298.981 76194.452 -47551.254 76218.25 -47580.252 76247.248 -47604.05 76333.974 -47675.225 76466.004 -47745.797 76609.265 -47789.254 76720.918 -47800.251 76720.927 -47800.251 76758.25 -47803.927 76795.573 -47800.251 79858.927 -47800.251 79896.249 -47803.927 79933.571 -47800.251 79933.582 -47800.251 80045.235 -47789.254 80188.496 -47745.797 80320.525 -47675.225 80436.25 -47580.252 80460.053 -47551.248 80712.32 -47298.981 80970.066 -47350.25 81272.434 -47350.25 81530.18 -47298.981 81782.452 -47551.254 81806.25 -47580.252 81835.248 -47604.05 81921.974 -47675.225 82054.004 -47745.797 82197.265 -47789.254 82308.918 -47800.251 82308.927 -47800.251 82346.25 -47803.927 82383.573 -47800.251 85446.927 -47800.251 85484.249 -47803.927 85521.571 -47800.251 85521.582 -47800.251 85633.235 -47789.254 85776.496 -47745.797 85908.525 -47675.225 86024.25 -47580.252 86048.053 -47551.248 86300.32 -47298.981 86558.066 -47350.25 86860.434 -47350.25 87118.18 -47298.981 87370.447 -47551.248 87394.25 -47580.252 87509.975 -47675.225 87642.004 -47745.797 87785.265 -47789.254 87896.918 -47800.251 87896.927 -47800.251 87934.25 -47803.927 87971.573 -47800.251 91034.927 -47800.251 91072.249 -47803.927 91109.571 -47800.251 91109.582 -47800.251 91221.235 -47789.254 91364.496 -47745.797 91496.525 -47675.225 91612.25 -47580.252 91636.053 -47551.248 91888.32 -47298.981 92146.066 -47350.25 92448.434 -47350.25 92744.993 -47291.261 93024.345 -47175.549 93275.755 -47007.562 93489.562 -46793.755 93657.549 -46542.345 93773.261 -46262.993 93832.25 -45966.434 93832.25 -45664.066 93773.261 -45367.507 93657.549 -45088.155 93489.562 -44836.745 93275.755 -44622.938 93024.345 -44454.951 92744.993 -44339.239 92448.434 -44280.25 92146.066 -44280.25 91849.507 -44339.239 91570.155 -44454.951 91318.745 -44622.938 91252.306 -44689.377 91246.752 -44671.07 91187.787 -44560.756 91108.435 -44464.065 91011.744 -44384.713 90901.43 -44325.748 90781.732 -44289.438 90657.25 -44277.178 90517.25 -44277.178 90517.25 -39225.322 90657.25 -39225.322 90781.732 -39213.062 90901.43 -39176.752 91011.744 -39117.787 91108.435 -39038.435 91187.787 -38941.744 91246.752 -38831.43 91252.306 -38813.123 91318.745 -38879.562 91570.155 -39047.549 91849.507 -39163.261 92146.066 -39222.25 92448.434 -39222.25 92744.993 -39163.261 93024.345 -39047.549 93275.755 -38879.562 93489.562 -38665.755 93657.549 -38414.345 93773.261 -38134.993 93832.25 -37838.434 93832.25 -37536.066 93773.261 -37239.507 93657.549 -36960.155 93489.562 -36708.745 93275.755 -36494.938 93024.345 -36326.951 92744.993 -36211.239 92448.434 -36152.25 92146.066 -36152.25 91888.32 -36203.519 91636.053 -35951.252 91612.25 -35922.248 91496.525 -35827.275 91364.496 -35756.703 91221.235 -35713.246 91109.582 -35702.249 91109.571 -35702.249 91072.249 -35698.573 91034.927 -35702.249 87971.573 -35702.249 87934.25 -35698.573 87896.927 -35702.249 87896.918 -35702.249 87785.265 -35713.246 87642.004 -35756.703 87509.974 -35827.275 87426.334 -35895.917 87394.25 -35922.248 87370.452 -35951.246 87118.18 -36203.519 86860.434 -36152.25 86558.066 -36152.25 86300.32 -36203.519 86048.053 -35951.252 86024.25 -35922.248 85908.525 -35827.275 85776.496 -35756.703 85633.235 -35713.246 85521.582 -35702.249 85521.571 -35702.249 85484.249 -35698.573 85446.927 -35702.249 82383.573 -35702.249 82346.25 -35698.573 82308.927 -35702.249 82308.918 -35702.249 82197.265 -35713.246 82054.004 -35756.703 81921.974 -35827.275 81838.334 -35895.917 81806.25 -35922.248 81782.452 -35951.246 81530.18 -36203.519 81272.434 -36152.25 80970.066 -36152.25 80712.32 -36203.519 80460.053 -35951.252 80436.25 -35922.248 80320.525 -35827.275 80188.496 -35756.703 80045.235 -35713.246 79933.582 -35702.249 79933.571 -35702.249 79896.249 -35698.573 79858.927 -35702.249 76795.573 -35702.249 76758.25 -35698.573 76720.927 -35702.249 76720.918 -35702.249 76609.265 -35713.246 76466.004 -35756.703 76333.974 -35827.275 76250.334 -35895.917 76218.25 -35922.248 76194.452 -35951.246 75942.18 -36203.519 75684.434 -36152.25 75382.066 -36152.25 75085.507 -36211.239 74806.155 -36326.951 74554.745 -36494.938 74488.306 -36561.377 74482.752 -36543.07 74423.787 -36432.756 74344.435 -36336.065 74247.744 -36256.713 74137.43 -36197.748 74017.732 -36161.438 73893.25 -36149.178 72093.25 -36149.178 71968.768 -36161.438 71849.07 -36197.748 71738.756 -36256.713 71642.065 -36336.065 71562.713 -36432.756 71503.748 -36543.07 71467.438 -36662.768 71455.178 -36787.25 71455.178 -37410.02 71421.261 -37239.507 71305.549 -36960.155 71137.562 -36708.745 70923.755 -36494.938 70672.345 -36326.951 70392.993 -36211.239 70096.434 -36152.25 69794.066 -36152.25 69536.32 -36203.519 69284.053 -35951.252 69260.25 -35922.248 69144.525 -35827.275 69012.496 -35756.703 68869.235 -35713.246 68757.582 -35702.249 68757.571 -35702.249 68720.249 -35698.573 68682.927 -35702.249 65619.573 -35702.249 65582.25 -35698.573 65544.927 -35702.249 65544.918 -35702.249 65433.265 -35713.246 65290.004 -35756.703 65157.974 -35827.275 65074.334 -35895.917 65042.25 -35922.248 65018.452 -35951.246 64766.18 -36203.519 64508.434 -36152.25 64206.066 -36152.25 63948.32 -36203.519 63696.053 -35951.252 63672.25 -35922.248 63556.525 -35827.275 63424.496 -35756.703 63281.235 -35713.246 63169.582 -35702.249 63169.571 -35702.249 63132.249 -35698.573 63094.927 -35702.249 60031.573 -35702.249 59994.25 -35698.573 59956.927 -35702.249 59956.918 -35702.249 59845.265 -35713.246 59702.004 -35756.703 59569.974 -35827.275 59486.334 -35895.917 59454.25 -35922.248 59430.452 -35951.246 59178.18 -36203.519 58920.434 -36152.25 58618.066 -36152.25 58360.32 -36203.519 58108.053 -35951.252 58084.25 -35922.248 57968.525 -35827.275 57836.496 -35756.703 57693.235 -35713.246 57581.582 -35702.249 57581.571 -35702.249 57544.249 -35698.573 57506.927 -35702.249 54443.573 -35702.249 54406.25 -35698.573 54368.927 -35702.249 54368.918 -35702.249 54257.265 -35713.246 54114.004 -35756.703 53981.974 -35827.275 53898.334 -35895.917 53866.25 -35922.248 53842.452 -35951.246 53590.18 -36203.519 53332.434 -36152.25 53030.066 -36152.25 52733.507 -36211.239 52454.155 -36326.951 52202.745 -36494.938 52136.306 -36561.377 52130.752 -36543.07 52071.787 -36432.756 51992.435 -36336.065 51895.744 -36256.713 51785.43 -36197.748 51665.732 -36161.438 51541.25 -36149.178 49741.25 -36149.178 49616.768 -36161.438 49497.07 -36197.748 49386.756 -36256.713 49290.065 -36336.065 49210.713 -36432.756 49151.748 -36543.07 49115.438 -36662.768 49103.178 -36787.25 48253.25 -36787.25 48253.25 -29083.529 48294.851 -28659.25 49103.178 -28659.25 49103.178 -30459.25 49115.438 -30583.732 49151.748 -30703.43 49210.713 -30813.744 49290.065 -30910.435 49386.756 -30989.787 49497.07 -31048.752 49616.768 -31085.062 49741.25 -31097.322 51541.25 -31097.322 51665.732 -31085.062 51785.43 -31048.752 51895.744 -30989.787 51992.435 -30910.435 52071.787 -30813.744 52130.752 -30703.43 52136.306 -30685.123 52202.745 -30751.562 52454.155 -30919.549 52733.507 -31035.261 53030.066 -31094.25 53332.434 -31094.25 53628.993 -31035.261 53908.345 -30919.549 54159.755 -30751.562 54373.562 -30537.755 54541.549 -30286.345 54657.261 -30006.993 54691.178 -29836.48 54691.178 -30459.25 54703.438 -30583.732 54739.748 -30703.43 54798.713 -30813.744 54878.065 -30910.435 54974.756 -30989.787 55085.07 -31048.752 55204.768 -31085.062 55329.25 -31097.322 57129.25 -31097.322 57253.732 -31085.062 57373.43 -31048.752 57483.744 -30989.787 57580.435 -30910.435 57659.787 -30813.744 57718.752 -30703.43 57724.306 -30685.123 57790.745 -30751.562 58042.155 -30919.549 58321.507 -31035.261 58618.066 -31094.25 58920.434 -31094.25 59216.993 -31035.261 59496.345 -30919.549 59747.755 -30751.562 59961.562 -30537.755 60129.549 -30286.345 60245.261 -30006.993 60279.178 -29836.48 60279.178 -30459.25 60291.438 -30583.732 60327.748 -30703.43 60386.713 -30813.744 60466.065 -30910.435 60562.756 -30989.787 60673.07 -31048.752 60792.768 -31085.062 60917.25 -31097.322 62717.25 -31097.322 62841.732 -31085.062 62961.43 -31048.752 63071.744 -30989.787 63168.435 -30910.435 63247.787 -30813.744 63306.752 -30703.43 63312.306 -30685.123 63378.745 -30751.562 63630.155 -30919.549 63909.507 -31035.261 64206.066 -31094.25 64508.434 -31094.25 64804.993 -31035.261 65084.345 -30919.549 65335.755 -30751.562 65549.562 -30537.755 65717.549 -30286.345 65833.261 -30006.993 65892.25 -29710.434 65892.25 -29408.066 65833.261 -29111.507 65717.549 -28832.155 65602.018 -28659.25 71455.178 -28659.25 71455.178 -30459.25 71467.438 -30583.732 71503.748 -30703.43 71562.713 -30813.744 71642.065 -30910.435 71738.756 -30989.787 71849.07 -31048.752 71968.768 -31085.062 72093.25 -31097.322 73893.25 -31097.322 74017.732 -31085.062 74137.43 -31048.752 74247.744 -30989.787 74344.435 -30910.435 74423.787 -30813.744 74482.752 -30703.43 74488.306 -30685.123 74554.745 -30751.562 74806.155 -30919.549 75085.507 -31035.261 75382.066 -31094.25 75684.434 -31094.25 75980.993 -31035.261 76260.345 -30919.549 76511.755 -30751.562 76725.562 -30537.755 76893.549 -30286.345 77009.261 -30006.993 77043.178 -29836.48 77043.178 -30459.25 77055.438 -30583.732 77091.748 -30703.43 77150.713 -30813.744 77230.065 -30910.435 77326.756 -30989.787 77437.07 -31048.752 77556.768 -31085.062 77681.25 -31097.322 79481.25 -31097.322 79605.732 -31085.062 79725.43 -31048.752 79835.744 -30989.787 79932.435 -30910.435 80011.787 -30813.744 80070.752 -30703.43 80076.306 -30685.123 80142.745 -30751.562 80394.155 -30919.549 80673.507 -31035.261 80970.066 -31094.25 81272.434 -31094.25 81568.993 -31035.261 81848.345 -30919.549 82099.755 -30751.562 82313.562 -30537.755 82481.549 -30286.345 82597.261 -30006.993 82631.178 -29836.48 82631.178 -30459.25 82643.438 -30583.732 82679.748 -30703.43 82738.713 -30813.744 82818.065 -30910.435 82914.756 -30989.787 83025.07 -31048.752 83144.768 -31085.062 83269.25 -31097.322 85069.25 -31097.322 85193.732 -31085.062 85313.43 -31048.752 85423.744 -30989.787 85520.435 -30910.435 85599.787 -30813.744 85658.752 -30703.43 85664.306 -30685.123 85730.745 -30751.562 85982.155 -30919.549 86261.507 -31035.261 86558.066 -31094.25 86860.434 -31094.25 87156.993 -31035.261 87436.345 -30919.549 87687.755 -30751.562 87901.562 -30537.755 88069.549 -30286.345 88185.261 -30006.993 88244.25 -29710.434 88244.25 -29408.066 88185.261 -29111.507 88069.549 -28832.155 87901.562 -28580.745 87687.755 -28366.938 87436.345 -28198.951 87156.993 -28083.239 86860.434 -28024.25 86558.066 -28024.25 86261.507 -28083.239 85982.155 -28198.951 85730.745 -28366.938 85664.306 -28433.377 85658.752 -28415.07 85599.787 -28304.756 85520.435 -28208.065 85423.744 -28128.713 85313.43 -28069.748 85193.732 -28033.438 85069.25 -28021.178 83269.25 -28021.178 83144.768 -28033.438 83025.07 -28069.748 82914.756 -28128.713 82818.065 -28208.065 82738.713 -28304.756 82679.748 -28415.07 82643.438 -28534.768 82631.178 -28659.25 82631.178 -29282.02 82597.261 -29111.507 82481.549 -28832.155 82313.562 -28580.745 82099.755 -28366.938 81848.345 -28198.951 81568.993 -28083.239 81272.434 -28024.25 80970.066 -28024.25 80673.507 -28083.239 80394.155 -28198.951 80142.745 -28366.938 80076.306 -28433.377 80070.752 -28415.07 80011.787 -28304.756 79932.435 -28208.065 79835.744 -28128.713 79725.43 -28069.748 79605.732 -28033.438 79481.25 -28021.178 77681.25 -28021.178 77556.768 -28033.438 77437.07 -28069.748 77326.756 -28128.713 77230.065 -28208.065 77150.713 -28304.756 77091.748 -28415.07 77055.438 -28534.768 77043.178 -28659.25 77043.178 -29282.02 77009.261 -29111.507 76893.549 -28832.155 76725.562 -28580.745 76511.755 -28366.938 76260.345 -28198.951 75980.993 -28083.239 75684.434 -28024.25 75382.066 -28024.25 75085.507 -28083.239 74806.155 -28198.951 74554.745 -28366.938 74488.306 -28433.377 74482.752 -28415.07 74423.787 -28304.756 74344.435 -28208.065 74247.744 -28128.713 74137.43 -28069.748 74017.732 -28033.438 73893.25 -28021.178 72093.25 -28021.178 71968.768 -28033.438 71849.07 -28069.748 71738.756 -28128.713 71642.065 -28208.065 71562.713 -28304.756 71503.748 -28415.07 71467.438 -28534.768 71455.178 -28659.25 65602.018 -28659.25 65549.562 -28580.745 65335.755 -28366.938 65084.345 -28198.951 64804.993 -28083.239 64508.434 -28024.25 64206.066 -28024.25 63909.507 -28083.239 63630.155 -28198.951 63378.745 -28366.938 63312.306 -28433.377 63306.752 -28415.07 63247.787 -28304.756 63168.435 -28208.065 63071.744 -28128.713 62961.43 -28069.748 62841.732 -28033.438 62717.25 -28021.178 60917.25 -28021.178 60792.768 -28033.438 60673.07 -28069.748 60562.756 -28128.713 60466.065 -28208.065 60386.713 -28304.756 60327.748 -28415.07 60291.438 -28534.768 60279.178 -28659.25 60279.178 -29282.02 60245.261 -29111.507 60129.549 -28832.155 59961.562 -28580.745 59747.755 -28366.938 59496.345 -28198.951 59216.993 -28083.239 58920.434 -28024.25 58618.066 -28024.25 58321.507 -28083.239 58042.155 -28198.951 57790.745 -28366.938 57724.306 -28433.377 57718.752 -28415.07 57659.787 -28304.756 57580.435 -28208.065 57483.744 -28128.713 57373.43 -28069.748 57253.732 -28033.438 57129.25 -28021.178 55329.25 -28021.178 55204.768 -28033.438 55085.07 -28069.748 54974.756 -28128.713 54878.065 -28208.065 54798.713 -28304.756 54739.748 -28415.07 54703.438 -28534.768 54691.178 -28659.25 54691.178 -29282.02 54657.261 -29111.507 54541.549 -28832.155 54373.562 -28580.745 54159.755 -28366.938 53908.345 -28198.951 53628.993 -28083.239 53332.434 -28024.25 53030.066 -28024.25 52733.507 -28083.239 52454.155 -28198.951 52202.745 -28366.938 52136.306 -28433.377 52130.752 -28415.07 52071.787 -28304.756 51992.435 -28208.065 51895.744 -28128.713 51785.43 -28069.748 51665.732 -28033.438 51541.25 -28021.178 49741.25 -28021.178 49616.768 -28033.438 49497.07 -28069.748 49386.756 -28128.713 49290.065 -28208.065 49210.713 -28304.756 49151.748 -28415.07 49115.438 -28534.768 49103.178 -28659.25 48294.851 -28659.25 48301.834 -28588.034 48436.362 -28142.457 48654.87 -27731.504 48949.038 -27370.816 49307.669 -27074.131 49717.088 -26852.759 50161.715 -26715.124 50655.261 -26663.25 102678.971 -26663.25 103174.466 -26711.834 103174.466 -26711.834"/><path d="M 103174.466 -26711.834 103620.043 -26846.362 104030.996 -27064.87 104391.684 -27359.038 104688.369 -27717.669 104909.741 -28127.088 105047.376 -28571.715 105099.251 -29065.271 105099.25 -72198.971 105050.666 -72694.466 104916.14 -73140.04 104697.632 -73550.995 104403.459 -73911.686 104044.831 -74208.369 103635.412 -74429.741 103190.785 -74567.376 102697.24 -74619.25 50673.529 -74619.25 50178.034 -74570.666 49732.46 -74436.14 49321.505 -74217.632 48960.814 -73923.459 48664.131 -73564.831 48442.759 -73155.412 48305.124 -72710.785 48253.25 -72217.24 48253.25 -69908.755 53402.795 -69908.755 53411.172 -70186.895 53494.541 -70548.727 53646.899 -70887.342 53862.39 -71189.727 54132.732 -71444.261 54447.538 -71641.165 54794.708 -71772.868 55160.901 -71834.311 55532.044 -71823.133 55893.876 -71739.764 56232.491 -71587.406 56534.876 -71371.915 56789.41 -71101.573 56944.097 -70854.262 59662.1 -70854.262 59846.521 -71109.437 60027.591 -71168.375 60394.14 -71221.387 60763.988 -71201.871 61122.922 -71110.577 61457.148 -70951.011 61753.823 -70729.308 62001.545 -70453.986 62348.895 -69908.755 72376.594 -69908.755 72384.971 -70186.895 72468.34 -70548.727 72620.698 -70887.342 72836.189 -71189.727 73106.531 -71444.261 73421.337 -71641.165 73768.507 -71772.868 74134.7 -71834.311 74505.843 -71823.133 74867.675 -71739.764 75206.29 -71587.406 75508.675 -71371.915 75763.209 -71101.573 75917.896 -70854.262 78635.899 -70854.262 78820.32 -71109.437 79001.39 -71168.375 79367.939 -71221.387 79737.787 -71201.871 80096.721 -71110.577 80430.947 -70951.011 80727.622 -70729.308 80975.344 -70453.986 81322.694 -69908.755 91426.594 -69908.755 91434.971 -70186.895 91518.34 -70548.727 91670.698 -70887.342 91886.189 -71189.727 92156.531 -71444.261 92471.337 -71641.165 92818.507 -71772.868 93184.7 -71834.311 93555.843 -71823.133 93917.675 -71739.764 94256.29 -71587.406 94558.675 -71371.915 94813.209 -71101.573 94967.896 -70854.262 97685.899 -70854.262 97870.32 -71109.437 98051.39 -71168.375 98417.939 -71221.387 98787.787 -71201.871 99146.721 -71110.577 99480.947 -70951.011 99777.622 -70729.308 100025.344 -70453.986 100629.806 -69505.17 99147.124 -68560.598 97685.899 -70854.262 94967.896 -70854.262 95010.113 -70786.767 95141.816 -70439.597 95187.863 -70165.166 95233.06 -69502.157 96622.007 -69502.157 96690.957 -69866.044 96829.575 -70209.488 97032.531 -70519.29 97162.47 -70658.487 97471.677 -70717.787 98932.902 -68424.124 97450.22 -67479.551 96845.758 -68428.366 96700.923 -68769.235 96625.372 -69131.809 96622.007 -69502.157 95233.06 -69502.157 95239.906 -69401.746 95231.529 -69123.605 95148.16 -68761.773 94995.802 -68423.158 94780.311 -68120.773 94509.969 -67866.239 94195.163 -67669.336 93847.993 -67537.632 93481.8 -67476.189 93110.657 -67487.367 92748.825 -67570.736 92410.21 -67723.094 92107.825 -67938.585 91853.291 -68208.927 91656.387 -68523.733 91524.684 -68870.903 91478.637 -69145.334 91426.594 -69908.755 81322.694 -69908.755 81579.806 -69505.17 80097.124 -68560.598 78635.899 -70854.262 75917.896 -70854.262 75960.113 -70786.767 76091.816 -70439.597 76137.863 -70165.166 76183.06 -69502.157 77572.007 -69502.157 77640.957 -69866.044 77779.575 -70209.488 77982.531 -70519.29 78112.47 -70658.487 78421.677 -70717.787 79882.902 -68424.124 78400.22 -67479.551 77795.758 -68428.366 77650.923 -68769.235 77575.372 -69131.809 77572.007 -69502.157 76183.06 -69502.157 76189.906 -69401.746 76181.529 -69123.605 76098.16 -68761.773 75945.802 -68423.158 75730.311 -68120.773 75459.969 -67866.239 75145.163 -67669.336 74797.993 -67537.632 74431.8 -67476.189 74060.657 -67487.367 73698.825 -67570.736 73360.21 -67723.094 73057.825 -67938.585 72803.291 -68208.927 72606.387 -68523.733 72474.684 -68870.903 72428.637 -69145.334 72376.594 -69908.755 62348.895 -69908.755 62606.007 -69505.17 61123.325 -68560.598 59662.1 -70854.262 56944.097 -70854.262 56986.314 -70786.767 57118.017 -70439.597 57164.064 -70165.166 57209.261 -69502.157 58598.208 -69502.157 58667.158 -69866.044 58805.776 -70209.488 59008.732 -70519.29 59138.671 -70658.487 59447.878 -70717.787 60909.103 -68424.124 59426.421 -67479.551 58821.959 -68428.366 58677.124 -68769.235 58601.573 -69131.809 58598.208 -69502.157 57209.261 -69502.157 57216.107 -69401.746 57207.73 -69123.605 57124.361 -68761.773 56972.003 -68423.158 56756.512 -68120.773 56486.17 -67866.239 56171.364 -67669.336 55824.194 -67537.632 55458.001 -67476.189 55086.858 -67487.367 54725.026 -67570.736 54386.411 -67723.094 54084.026 -67938.585 53829.492 -68208.927 53632.588 -68523.733 53500.885 -68870.903 53454.838 -69145.334 53402.795 -69908.755 48253.25 -69908.755 48253.25 -64718.902 51263.551 -64718.902 51263.551 -65011.598 51320.653 -65298.671 51432.663 -65569.088 51595.277 -65812.456 51802.245 -66019.424 52045.613 -66182.038 52316.03 -66294.048 52603.103 -66351.15 52895.799 -66351.15 53182.872 -66294.048 53453.289 -66182.038 53696.657 -66019.424 53903.625 -65812.456 54066.239 -65569.088 54178.249 -65298.671 54235.351 -65011.598 54235.351 -64718.902 54212.959 -64606.326 55200.551 -64606.326 55200.551 -65124.174 55301.578 -65632.072 55499.75 -66110.501 55787.451 -66541.076 56153.625 -66907.25 56584.2 -67194.951 57062.629 -67393.123 57570.527 -67494.15 58088.375 -67494.15 58596.273 -67393.123 58904.792 -67265.33 59562.895 -67265.33 61045.577 -68209.902 61056.323 -68193.034 61270.544 -68329.509 61259.799 -68346.376 62742.481 -69290.949 63346.943 -68342.134 63491.778 -68001.265 63567.329 -67638.691 63570.694 -67268.343 63501.744 -66904.456 63363.126 -66561.012 63206.062 -66321.261 63342.872 -66294.048 63613.289 -66182.038 63856.657 -66019.424 64063.625 -65812.456 64226.239 -65569.088 64338.249 -65298.671 64395.351 -65011.598 64395.351 -64718.902 70237.35 -64718.902 70237.35 -65011.598 70294.452 -65298.671 70406.462 -65569.088 70569.076 -65812.456 70776.044 -66019.424 71019.412 -66182.038 71289.829 -66294.048 71576.902 -66351.15 71869.598 -66351.15 72156.671 -66294.048 72427.088 -66182.038 72670.456 -66019.424 72877.424 -65812.456 73040.038 -65569.088 73152.048 -65298.671 73209.15 -65011.598 73209.15 -64718.902 73186.758 -64606.326 74174.35 -64606.326 74174.35 -65124.174 74275.377 -65632.072 74473.549 -66110.501 74761.25 -66541.076 75127.424 -66907.25 75557.999 -67194.951 76036.428 -67393.123 76544.326 -67494.15 77062.174 -67494.15 77570.072 -67393.123 77878.591 -67265.33 78536.694 -67265.33 80019.376 -68209.902 80030.122 -68193.034 80244.343 -68329.509 80233.598 -68346.376 81716.28 -69290.949 82320.742 -68342.134 82465.577 -68001.265 82541.128 -67638.691 82544.493 -67268.343 82475.543 -66904.456 82336.925 -66561.012 82179.861 -66321.261 82316.671 -66294.048 82587.088 -66182.038 82830.456 -66019.424 83037.424 -65812.456 83200.038 -65569.088 83312.048 -65298.671 83369.15 -65011.598 83369.15 -64718.902 89287.35 -64718.902 89287.35 -65011.598 89344.452 -65298.671 89456.462 -65569.088 89619.076 -65812.456 89826.044 -66019.424 90069.412 -66182.038 90339.829 -66294.048 90626.902 -66351.15 90919.598 -66351.15 91206.671 -66294.048 91477.088 -66182.038 91720.456 -66019.424 91927.424 -65812.456 92090.038 -65569.088 92202.048 -65298.671 92259.15 -65011.598 92259.15 -64718.902 92236.758 -64606.326 93224.35 -64606.326 93224.35 -65124.174 93325.377 -65632.072 93523.549 -66110.501 93811.25 -66541.076 94177.424 -66907.25 94607.999 -67194.951 95086.428 -67393.123 95594.326 -67494.15 96112.174 -67494.15 96620.072 -67393.123 96928.591 -67265.33 97586.694 -67265.33 99069.376 -68209.902 99080.122 -68193.034 99294.343 -68329.509 99283.598 -68346.376 100766.28 -69290.949 101370.742 -68342.134 101515.577 -68001.265 101591.128 -67638.691 101594.493 -67268.343 101525.543 -66904.456 101386.925 -66561.012 101229.861 -66321.261 101366.671 -66294.048 101637.088 -66182.038 101880.456 -66019.424 102087.424 -65812.456 102250.038 -65569.088 102362.048 -65298.671 102419.15 -65011.598 102419.15 -64718.902 102362.048 -64431.829 102250.038 -64161.412 102087.424 -63918.044 101880.456 -63711.076 101637.088 -63548.462 101366.671 -63436.452 101079.598 -63379.35 100786.902 -63379.35 100499.829 -63436.452 100229.412 -63548.462 99986.044 -63711.076 99779.076 -63918.044 99616.462 -64161.412 99504.452 -64431.829 99447.35 -64718.902 99447.35 -65011.598 99504.452 -65298.671 99612.26 -65558.944 99428.713 -65568.629 99069.779 -65659.923 98735.553 -65819.489 98438.878 -66041.192 98191.156 -66316.514 97586.694 -67265.33 96928.591 -67265.33 97098.501 -67194.951 97529.076 -66907.25 97895.25 -66541.076 98182.951 -66110.501 98381.123 -65632.072 98482.15 -65124.174 98482.15 -64606.326 98381.123 -64098.428 98182.951 -63619.999 97895.25 -63189.424 97529.076 -62823.25 97098.501 -62535.549 96620.072 -62337.377 96112.174 -62236.35 95594.326 -62236.35 95086.428 -62337.377 94607.999 -62535.549 94177.424 -62823.25 93811.25 -63189.424 93523.549 -63619.999 93325.377 -64098.428 93224.35 -64606.326 92236.758 -64606.326 92202.048 -64431.829 92090.038 -64161.412 91927.424 -63918.044 91720.456 -63711.076 91477.088 -63548.462 91206.671 -63436.452 90919.598 -63379.35 90626.902 -63379.35 90339.829 -63436.452 90069.412 -63548.462 89826.044 -63711.076 89619.076 -63918.044 89456.462 -64161.412 89344.452 -64431.829 89287.35 -64718.902 83369.15 -64718.902 83312.048 -64431.829 83200.038 -64161.412 83037.424 -63918.044 82830.456 -63711.076 82587.088 -63548.462 82316.671 -63436.452 82029.598 -63379.35 81736.902 -63379.35 81449.829 -63436.452 81179.412 -63548.462 80936.044 -63711.076 80729.076 -63918.044 80566.462 -64161.412 80454.452 -64431.829 80397.35 -64718.902 80397.35 -65011.598 80454.452 -65298.671 80562.26 -65558.944 80378.713 -65568.629 80019.779 -65659.923 79685.553 -65819.489 79388.878 -66041.192 79141.156 -66316.514 78536.694 -67265.33 77878.591 -67265.33 78048.501 -67194.951 78479.076 -66907.25 78845.25 -66541.076 79132.951 -66110.501 79331.123 -65632.072 79432.15 -65124.174 79432.15 -64606.326 79331.123 -64098.428 79132.951 -63619.999 78845.25 -63189.424 78479.076 -62823.25 78048.501 -62535.549 77570.072 -62337.377 77062.174 -62236.35 76544.326 -62236.35 76036.428 -62337.377 75557.999 -62535.549 75127.424 -62823.25 74761.25 -63189.424 74473.549 -63619.999 74275.377 -64098.428 74174.35 -64606.326 73186.758 -64606.326 73152.048 -64431.829 73040.038 -64161.412 72877.424 -63918.044 72670.456 -63711.076 72427.088 -63548.462 72156.671 -63436.452 71869.598 -63379.35 71576.902 -63379.35 71289.829 -63436.452 71019.412 -63548.462 70776.044 -63711.076 70569.076 -63918.044 70406.462 -64161.412 70294.452 -64431.829 70237.35 -64718.902 64395.351 -64718.902 64338.249 -64431.829 64226.239 -64161.412 64063.625 -63918.044 63856.657 -63711.076 63613.289 -63548.462 63342.872 -63436.452 63055.799 -63379.35 62763.103 -63379.35 62476.03 -63436.452 62205.613 -63548.462 61962.245 -63711.076 61755.277 -63918.044 61592.663 -64161.412 61480.653 -64431.829 61423.551 -64718.902 61423.551 -65011.598 61480.653 -65298.671 61588.461 -65558.944 61404.914 -65568.629 61045.98 -65659.923 60711.754 -65819.489 60415.079 -66041.192 60167.357 -66316.514 59562.895 -67265.33 58904.792 -67265.33 59074.702 -67194.951 59505.277 -66907.25 59871.451 -66541.076 60159.152 -66110.501 60357.324 -65632.072 60458.351 -65124.174 60458.351 -64606.326 60357.324 -64098.428 60159.152 -63619.999 59871.451 -63189.424 59505.277 -62823.25 59074.702 -62535.549 58596.273 -62337.377 58088.375 -62236.35 57570.527 -62236.35 57062.629 -62337.377 56584.2 -62535.549 56153.625 -62823.25 55787.451 -63189.424 55499.75 -63619.999 55301.578 -64098.428 55200.551 -64606.326 54212.959 -64606.326 54178.249 -64431.829 54066.239 -64161.412 53903.625 -63918.044 53696.657 -63711.076 53453.289 -63548.462 53182.872 -63436.452 52895.799 -63379.35 52603.103 -63379.35 52316.03 -63436.452 52045.613 -63548.462 51802.245 -63711.076 51595.277 -63918.044 51432.663 -64161.412 51320.653 -64431.829 51263.551 -64718.902 48253.25 -64718.902 48253.25 -49269.311 73736.25 -49269.311 73736.25 -49473.189 73776.024 -49673.148 73854.045 -49861.506 73967.313 -50031.024 74111.476 -50175.187 74280.994 -50288.455 74469.352 -50366.476 74669.311 -50406.25 74731.449 -50406.25 78017.451 -53692.253 78041.249 -53721.251 78156.974 -53816.224 78289.003 -53886.796 78432.264 -53930.253 78543.917 -53941.25 78543.925 -53941.25 78581.25 -53944.926 78618.575 -53941.25 100737.539 -53941.25 100781.476 -53985.187 100950.994 -54098.455 101139.352 -54176.476 101339.311 -54216.25 101543.189 -54216.25 101743.148 -54176.476 101931.506 -54098.455 102101.024 -53985.187 102245.187 -53841.024 102358.455 -53671.506 102436.476 -53483.148 102476.25 -53283.189 102476.25 -53079.311 102436.476 -52879.352 102358.455 -52690.994 102261.74 -52546.25 102358.455 -52401.506 102436.476 -52213.148 102476.25 -52013.189 102476.25 -51809.311 102436.476 -51609.352 102358.455 -51420.994 102261.74 -51276.25 102358.455 -51131.506 102436.476 -50943.148 102476.25 -50743.189 102476.25 -50539.311 102436.476 -50339.352 102358.455 -50150.994 102261.74 -50006.25 102358.455 -49861.506 102436.476 -49673.148 102476.25 -49473.189 102476.25 -49269.311 102436.476 -49069.352 102358.455 -48880.994 102245.187 -48711.476 102101.024 -48567.313 101931.506 -48454.045 101743.148 -48376.024 101543.189 -48336.25 101339.311 -48336.25 101173.211 -48369.289 101206.25 -48203.189 101206.25 -47999.311 101166.476 -47799.352 101088.455 -47610.994 100975.187 -47441.476 100931.25 -47397.539 100931.25 -39914.961 100975.187 -39871.024 101088.455 -39701.506 101166.476 -39513.148 101206.25 -39313.189 101206.25 -39109.311 101166.476 -38909.352 101088.455 -38720.994 100975.187 -38551.476 100831.024 -38407.313 100661.506 -38294.045 100473.148 -38216.024 100273.189 -38176.25 100069.311 -38176.25 99869.352 -38216.024 99680.994 -38294.045 99536.441 -38390.632 99391.659 -38293.892 99203.301 -38215.871 99003.342 -38176.097 98799.464 -38176.097 98599.505 -38215.871 98411.147 -38293.892 98241.629 -38407.16 98097.466 -38551.323 97984.198 -38720.841 97906.177 -38909.199 97866.403 -39109.158 97866.403 -39313.036 97906.177 -39512.995 97984.198 -39701.353 98097.466 -39870.871 98141.403 -39914.808 98141.404 -47397.385 98097.313 -47441.476 97984.045 -47610.994 97906.024 -47799.352 97866.25 -47999.311 97866.25 -48203.189 97906.024 -48403.148 97984.045 -48591.506 97997.237 -48611.25 90714.961 -48611.25 90671.024 -48567.313 90501.506 -48454.045 90313.148 -48376.024 90113.189 -48336.25 89909.311 -48336.25 89709.352 -48376.024 89520.994 -48454.045 89351.476 -48567.313 89207.313 -48711.476 89094.045 -48880.994 89016.024 -49069.352 88976.25 -49269.311 88976.25 -49473.189 89016.024 -49673.148 89094.045 -49861.506 89107.237 -49881.25 86516.052 -49881.25 85966.25 -49331.449 85966.25 -49269.311 85926.476 -49069.352 85848.455 -48880.994 85735.187 -48711.476 85591.024 -48567.313 85421.506 -48454.045 85233.148 -48376.024 85033.189 -48336.25 84829.311 -48336.25 84629.352 -48376.024 84440.994 -48454.045 84271.476 -48567.313 84127.313 -48711.476 84014.045 -48880.994 83936.024 -49069.352 83896.25 -49269.311 83896.25 -49473.189 83936.024 -49673.148 84014.045 -49861.506 84127.313 -50031.024 84271.476 -50175.187 84440.994 -50288.455 84629.352 -50366.476 84829.311 -50406.25 84891.449 -50406.25 85636.448 -51151.25 82706.053 -51151.25 80886.25 -49331.449 80886.25 -49269.311 80846.476 -49069.352 80768.455 -48880.994 80655.187 -48711.476 80511.024 -48567.313 80341.506 -48454.045 80153.148 -48376.024 79953.189 -48336.25 79749.311 -48336.25 79549.352 -48376.024 79360.994 -48454.045 79191.476 -48567.313 79047.313 -48711.476 78934.045 -48880.994 78856.024 -49069.352 78816.25 -49269.311 78816.25 -49473.189 78856.024 -49673.148 78934.045 -49861.506 79047.313 -50031.024 79191.476 -50175.187 79360.994 -50288.455 79549.352 -50366.476 79749.311 -50406.25 79811.449 -50406.25 81826.447 -52421.25 78896.052 -52421.25 75806.25 -49331.449 75806.25 -49269.311 75766.476 -49069.352 75688.455 -48880.994 75575.187 -48711.476 75431.024 -48567.313 75261.506 -48454.045 75073.148 -48376.024 74873.189 -48336.25 74669.311 -48336.25 74469.352 -48376.024 74280.994 -48454.045 74111.476 -48567.313 73967.313 -48711.476 73854.045 -48880.994 73776.024 -49069.352 73736.25 -49269.311 48253.25 -49269.311 48253.25 -36787.25 49103.178 -36787.25 49103.178 -38587.25 49115.438 -38711.732 49151.748 -38831.43 49210.713 -38941.744 49290.065 -39038.435 49386.756 -39117.787 49497.07 -39176.752 49616.768 -39213.062 49741.25 -39225.322 49881.25 -39225.322 49881.251 -44277.178 49741.25 -44277.178 49616.768 -44289.438 49497.07 -44325.748 49386.756 -44384.713 49290.065 -44464.065 49210.713 -44560.756 49151.748 -44671.07 49115.438 -44790.768 49103.178 -44915.25 49103.178 -46715.25 49115.438 -46839.732 49151.748 -46959.43 49210.713 -47069.744 49290.065 -47166.435 49386.756 -47245.787 49497.07 -47304.752 49616.768 -47341.062 49741.25 -47353.322 51541.25 -47353.322 51665.732 -47341.062 51785.43 -47304.752 51895.744 -47245.787 51992.435 -47166.435 52071.787 -47069.744 52130.752 -46959.43 52136.306 -46941.123 52202.745 -47007.562 52454.155 -47175.549 52733.507 -47291.261 53030.066 -47350.25 53332.434 -47350.25 53590.18 -47298.981 53842.452 -47551.254 53866.25 -47580.252 53895.248 -47604.05 53981.974 -47675.225 54114.004 -47745.797 54257.265 -47789.254 54368.918 -47800.251 54368.927 -47800.251 54406.25 -47803.927 54443.573 -47800.251 57506.927 -47800.251 57544.249 -47803.927 57581.571 -47800.251 57581.582 -47800.251 57693.235 -47789.254 57836.496 -47745.797 57968.525 -47675.225 58084.25 -47580.252 58108.053 -47551.248 58360.32 -47298.981 58618.066 -47350.25 58920.434 -47350.25 59178.18 -47298.981 59430.452 -47551.254 59454.25 -47580.252 59483.248 -47604.05 59569.974 -47675.225 59702.004 -47745.797 59845.265 -47789.254 59956.918 -47800.251 59956.927 -47800.251 59994.25 -47803.927 60031.573 -47800.251 63094.927 -47800.251 63132.249 -47803.927 63169.571 -47800.251 63169.582 -47800.251 63281.235 -47789.254 63424.496 -47745.797 63556.525 -47675.225 63672.25 -47580.252 63696.053 -47551.248 63948.32 -47298.981 64206.066 -47350.25 64508.434 -47350.25 64766.18 -47298.981 65018.452 -47551.254 65042.25 -47580.252 65071.248 -47604.05 65157.974 -47675.225 65290.004 -47745.797 65433.265 -47789.254 65544.918 -47800.251 65544.927 -47800.251 65582.25 -47803.927 65619.573 -47800.251 68682.927 -47800.251 68720.249 -47803.927 68757.571 -47800.251 68757.582 -47800.251 68869.235 -47789.254 69012.496 -47745.797 69144.525 -47675.225 69260.25 -47580.252 69284.053 -47551.248 69536.32 -47298.981 69794.066 -47350.25 70096.434 -47350.25 70392.993 -47291.261 70672.345 -47175.549 70923.755 -47007.562 71137.562 -46793.755 71305.549 -46542.345 71421.261 -46262.993 71455.178 -46092.48 71455.178 -46715.25 71467.438 -46839.732 71503.748 -46959.43 71562.713 -47069.744 71642.065 -47166.435 71738.756 -47245.787 71849.07 -47304.752 71968.768 -47341.062 72093.25 -47353.322 73893.25 -47353.322 74017.732 -47341.062 74137.43 -47304.752 74247.744 -47245.787 74344.435 -47166.435 74423.787 -47069.744 74482.752 -46959.43 74488.306 -46941.123 74554.745 -47007.562 74806.155 -47175.549 75085.507 -47291.261 75382.066 -47350.25 75684.434 -47350.25 75942.18 -47298.981 76194.452 -47551.254 76218.25 -47580.252 76247.248 -47604.05 76333.974 -47675.225 76466.004 -47745.797 76609.265 -47789.254 76720.918 -47800.251 76720.927 -47800.251 76758.25 -47803.927 76795.573 -47800.251 79858.927 -47800.251 79896.249 -47803.927 79933.571 -47800.251 79933.582 -47800.251 80045.235 -47789.254 80188.496 -47745.797 80320.525 -47675.225 80436.25 -47580.252 80460.053 -47551.248 80712.32 -47298.981 80970.066 -47350.25 81272.434 -47350.25 81530.18 -47298.981 81782.452 -47551.254 81806.25 -47580.252 81835.248 -47604.05 81921.974 -47675.225 82054.004 -47745.797 82197.265 -47789.254 82308.918 -47800.251 82308.927 -47800.251 82346.25 -47803.927 82383.573 -47800.251 85446.927 -47800.251 85484.249 -47803.927 85521.571 -47800.251 85521.582 -47800.251 85633.235 -47789.254 85776.496 -47745.797 85908.525 -47675.225 86024.25 -47580.252 86048.053 -47551.248 86300.32 -47298.981 86558.066 -47350.25 86860.434 -47350.25 87118.18 -47298.981 87370.447 -47551.248 87394.25 -47580.252 87509.975 -47675.225 87642.004 -47745.797 87785.265 -47789.254 87896.918 -47800.251 87896.927 -47800.251 87934.25 -47803.927 87971.573 -47800.251 91034.927 -47800.251 91072.249 -47803.927 91109.571 -47800.251 91109.582 -47800.251 91221.235 -47789.254 91364.496 -47745.797 91496.525 -47675.225 91612.25 -47580.252 91636.053 -47551.248 91888.32 -47298.981 92146.066 -47350.25 92448.434 -47350.25 92744.993 -47291.261 93024.345 -47175.549 93275.755 -47007.562 93489.562 -46793.755 93657.549 -46542.345 93773.261 -46262.993 93832.25 -45966.434 93832.25 -45664.066 93773.261 -45367.507 93657.549 -45088.155 93489.562 -44836.745 93275.755 -44622.938 93024.345 -44454.951 92744.993 -44339.239 92448.434 -44280.25 92146.066 -44280.25 91849.507 -44339.239 91570.155 -44454.951 91318.745 -44622.938 91252.306 -44689.377 91246.752 -44671.07 91187.787 -44560.756 91108.435 -44464.065 91011.744 -44384.713 90901.43 -44325.748 90781.732 -44289.438 90657.25 -44277.178 90517.25 -44277.178 90517.25 -39225.322 90657.25 -39225.322 90781.732 -39213.062 90901.43 -39176.752 91011.744 -39117.787 91108.435 -39038.435 91187.787 -38941.744 91246.752 -38831.43 91252.306 -38813.123 91318.745 -38879.562 91570.155 -39047.549 91849.507 -39163.261 92146.066 -39222.25 92448.434 -39222.25 92744.993 -39163.261 93024.345 -39047.549 93275.755 -38879.562 93489.562 -38665.755 93657.549 -38414.345 93773.261 -38134.993 93832.25 -37838.434 93832.25 -37536.066 93773.261 -37239.507 93657.549 -36960.155 93489.562 -36708.745 93275.755 -36494.938 93024.345 -36326.951 92744.993 -36211.239 92448.434 -36152.25 92146.066 -36152.25 91888.32 -36203.519 91636.053 -35951.252 91612.25 -35922.248 91496.525 -35827.275 91364.496 -35756.703 91221.235 -35713.246 91109.582 -35702.249 91109.571 -35702.249 91072.249 -35698.573 91034.927 -35702.249 87971.573 -35702.249 87934.25 -35698.573 87896.927 -35702.249 87896.918 -35702.249 87785.265 -35713.246 87642.004 -35756.703 87509.974 -35827.275 87426.334 -35895.917 87394.25 -35922.248 87370.452 -35951.246 87118.18 -36203.519 86860.434 -36152.25 86558.066 -36152.25 86300.32 -36203.519 86048.053 -35951.252 86024.25 -35922.248 85908.525 -35827.275 85776.496 -35756.703 85633.235 -35713.246 85521.582 -35702.249 85521.571 -35702.249 85484.249 -35698.573 85446.927 -35702.249 82383.573 -35702.249 82346.25 -35698.573 82308.927 -35702.249 82308.918 -35702.249 82197.265 -35713.246 82054.004 -35756.703 81921.974 -35827.275 81838.334 -35895.917 81806.25 -35922.248 81782.452 -35951.246 81530.18 -36203.519 81272.434 -36152.25 80970.066 -36152.25 80712.32 -36203.519 80460.053 -35951.252 80436.25 -35922.248 80320.525 -35827.275 80188.496 -35756.703 80045.235 -35713.246 79933.582 -35702.249 79933.571 -35702.249 79896.249 -35698.573 79858.927 -35702.249 76795.573 -35702.249 76758.25 -35698.573 76720.927 -35702.249 76720.918 -35702.249 76609.265 -35713.246 76466.004 -35756.703 76333.974 -35827.275 76250.334 -35895.917 76218.25 -35922.248 76194.452 -35951.246 75942.18 -36203.519 75684.434 -36152.25 75382.066 -36152.25 75085.507 -36211.239 74806.155 -36326.951 74554.745 -36494.938 74488.306 -36561.377 74482.752 -36543.07 74423.787 -36432.756 74344.435 -36336.065 74247.744 -36256.713 74137.43 -36197.748 74017.732 -36161.438 73893.25 -36149.178 72093.25 -36149.178 71968.768 -36161.438 71849.07 -36197.748 71738.756 -36256.713 71642.065 -36336.065 71562.713 -36432.756 71503.748 -36543.07 71467.438 -36662.768 71455.178 -36787.25 71455.178 -37410.02 71421.261 -37239.507 71305.549 -36960.155 71137.562 -36708.745 70923.755 -36494.938 70672.345 -36326.951 70392.993 -36211.239 70096.434 -36152.25 69794.066 -36152.25 69536.32 -36203.519 69284.053 -35951.252 69260.25 -35922.248 69144.525 -35827.275 69012.496 -35756.703 68869.235 -35713.246 68757.582 -35702.249 68757.571 -35702.249 68720.249 -35698.573 68682.927 -35702.249 65619.573 -35702.249 65582.25 -35698.573 65544.927 -35702.249 65544.918 -35702.249 65433.265 -35713.246 65290.004 -35756.703 65157.974 -35827.275 65074.334 -35895.917 65042.25 -35922.248 65018.452 -35951.246 64766.18 -36203.519 64508.434 -36152.25 64206.066 -36152.25 63948.32 -36203.519 63696.053 -35951.252 63672.25 -35922.248 63556.525 -35827.275 63424.496 -35756.703 63281.235 -35713.246 63169.582 -35702.249 63169.571 -35702.249 63132.249 -35698.573 63094.927 -35702.249 60031.573 -35702.249 59994.25 -35698.573 59956.927 -35702.249 59956.918 -35702.249 59845.265 -35713.246 59702.004 -35756.703 59569.974 -35827.275 59486.334 -35895.917 59454.25 -35922.248 59430.452 -35951.246 59178.18 -36203.519 58920.434 -36152.25 58618.066 -36152.25 58360.32 -36203.519 58108.053 -35951.252 58084.25 -35922.248 57968.525 -35827.275 57836.496 -35756.703 57693.235 -35713.246 57581.582 -35702.249 57581.571 -35702.249 57544.249 -35698.573 57506.927 -35702.249 54443.573 -35702.249 54406.25 -35698.573 54368.927 -35702.249 54368.918 -35702.249 54257.265 -35713.246 54114.004 -35756.703 53981.974 -35827.275 53898.334 -35895.917 53866.25 -35922.248 53842.452 -35951.246 53590.18 -36203.519 53332.434 -36152.25 53030.066 -36152.25 52733.507 -36211.239 52454.155 -36326.951 52202.745 -36494.938 52136.306 -36561.377 52130.752 -36543.07 52071.787 -36432.756 51992.435 -36336.065 51895.744 -36256.713 51785.43 -36197.748 51665.732 -36161.438 51541.25 -36149.178 49741.25 -36149.178 49616.768 -36161.438 49497.07 -36197.748 49386.756 -36256.713 49290.065 -36336.065 49210.713 -36432.756 49151.748 -36543.07 49115.438 -36662.768 49103.178 -36787.25 48253.25 -36787.25 48253.25 -29083.529 48294.851 -28659.25 49103.178 -28659.25 49103.178 -30459.25 49115.438 -30583.732 49151.748 -30703.43 49210.713 -30813.744 49290.065 -30910.435 49386.756 -30989.787 49497.07 -31048.752 49616.768 -31085.062 49741.25 -31097.322 51541.25 -31097.322 51665.732 -31085.062 51785.43 -31048.752 51895.744 -30989.787 51992.435 -30910.435 52071.787 -30813.744 52130.752 -30703.43 52136.306 -30685.123 52202.745 -30751.562 52454.155 -30919.549 52733.507 -31035.261 53030.066 -31094.25 53332.434 -31094.25 53628.993 -31035.261 53908.345 -30919.549 54159.755 -30751.562 54373.562 -30537.755 54541.549 -30286.345 54657.261 -30006.993 54691.178 -29836.48 54691.178 -30459.25 54703.438 -30583.732 54739.748 -30703.43 54798.713 -30813.744 54878.065 -30910.435 54974.756 -30989.787 55085.07 -31048.752 55204.768 -31085.062 55329.25 -31097.322 57129.25 -31097.322 57253.732 -31085.062 57373.43 -31048.752 57483.744 -30989.787 57580.435 -30910.435 57659.787 -30813.744 57718.752 -30703.43 57724.306 -30685.123 57790.745 -30751.562 58042.155 -30919.549 58321.507 -31035.261 58618.066 -31094.25 58920.434 -31094.25 59216.993 -31035.261 59496.345 -30919.549 59747.755 -30751.562 59961.562 -30537.755 60129.549 -30286.345 60245.261 -30006.993 60279.178 -29836.48 60279.178 -30459.25 60291.438 -30583.732 60327.748 -30703.43 60386.713 -30813.744 60466.065 -30910.435 60562.756 -30989.787 60673.07 -31048.752 60792.768 -31085.062 60917.25 -31097.322 62717.25 -31097.322 62841.732 -31085.062 62961.43 -31048.752 63071.744 -30989.787 63168.435 -30910.435 63247.787 -30813.744 63306.752 -30703.43 63312.306 -30685.123 63378.745 -30751.562 63630.155 -30919.549 63909.507 -31035.261 64206.066 -31094.25 64508.434 -31094.25 64804.993 -31035.261 65084.345 -30919.549 65335.755 -30751.562 65549.562 -30537.755 65717.549 -30286.345 65833.261 -30006.993 65892.25 -29710.434 65892.25 -29408.066 65833.261 -29111.507 65717.549 -28832.155 65602.018 -28659.25 71455.178 -28659.25 71455.178 -30459.25 71467.438 -30583.732 71503.748 -30703.43 71562.713 -30813.744 71642.065 -30910.435 71738.756 -30989.787 71849.07 -31048.752 71968.768 -31085.062 72093.25 -31097.322 73893.25 -31097.322 74017.732 -31085.062 74137.43 -31048.752 74247.744 -30989.787 74344.435 -30910.435 74423.787 -30813.744 74482.752 -30703.43 74488.306 -30685.123 74554.745 -30751.562 74806.155 -30919.549 75085.507 -31035.261 75382.066 -31094.25 75684.434 -31094.25 75980.993 -31035.261 76260.345 -30919.549 76511.755 -30751.562 76725.562 -30537.755 76893.549 -30286.345 77009.261 -30006.993 77043.178 -29836.48 77043.178 -30459.25 77055.438 -30583.732 77091.748 -30703.43 77150.713 -30813.744 77230.065 -30910.435 77326.756 -30989.787 77437.07 -31048.752 77556.768 -31085.062 77681.25 -31097.322 79481.25 -31097.322 79605.732 -31085.062 79725.43 -31048.752 79835.744 -30989.787 79932.435 -30910.435 80011.787 -30813.744 80070.752 -30703.43 80076.306 -30685.123 80142.745 -30751.562 80394.155 -30919.549 80673.507 -31035.261 80970.066 -31094.25 81272.434 -31094.25 81568.993 -31035.261 81848.345 -30919.549 82099.755 -30751.562 82313.562 -30537.755 82481.549 -30286.345 82597.261 -30006.993 82631.178 -29836.48 82631.178 -30459.25 82643.438 -30583.732 82679.748 -30703.43 82738.713 -30813.744 82818.065 -30910.435 82914.756 -30989.787 83025.07 -31048.752 83144.768 -31085.062 83269.25 -31097.322 85069.25 -31097.322 85193.732 -31085.062 85313.43 -31048.752 85423.744 -30989.787 85520.435 -30910.435 85599.787 -30813.744 85658.752 -30703.43 85664.306 -30685.123 85730.745 -30751.562 85982.155 -30919.549 86261.507 -31035.261 86558.066 -31094.25 86860.434 -31094.25 87156.993 -31035.261 87436.345 -30919.549 87687.755 -30751.562 87901.562 -30537.755 88069.549 -30286.345 88185.261 -30006.993 88244.25 -29710.434 88244.25 -29408.066 88185.261 -29111.507 88069.549 -28832.155 87901.562 -28580.745 87687.755 -28366.938 87436.345 -28198.951 87156.993 -28083.239 86860.434 -28024.25 86558.066 -28024.25 86261.507 -28083.239 85982.155 -28198.951 85730.745 -28366.938 85664.306 -28433.377 85658.752 -28415.07 85599.787 -28304.756 85520.435 -28208.065 85423.744 -28128.713 85313.43 -28069.748 85193.732 -28033.438 85069.25 -28021.178 83269.25 -28021.178 83144.768 -28033.438 83025.07 -28069.748 82914.756 -28128.713 82818.065 -28208.065 82738.713 -28304.756 82679.748 -28415.07 82643.438 -28534.768 82631.178 -28659.25 82631.178 -29282.02 82597.261 -29111.507 82481.549 -28832.155 82313.562 -28580.745 82099.755 -28366.938 81848.345 -28198.951 81568.993 -28083.239 81272.434 -28024.25 80970.066 -28024.25 80673.507 -28083.239 80394.155 -28198.951 80142.745 -28366.938 80076.306 -28433.377 80070.752 -28415.07 80011.787 -28304.756 79932.435 -28208.065 79835.744 -28128.713 79725.43 -28069.748 79605.732 -28033.438 79481.25 -28021.178 77681.25 -28021.178 77556.768 -28033.438 77437.07 -28069.748 77326.756 -28128.713 77230.065 -28208.065 77150.713 -28304.756 77091.748 -28415.07 77055.438 -28534.768 77043.178 -28659.25 77043.178 -29282.02 77009.261 -29111.507 76893.549 -28832.155 76725.562 -28580.745 76511.755 -28366.938 76260.345 -28198.951 75980.993 -28083.239 75684.434 -28024.25 75382.066 -28024.25 75085.507 -28083.239 74806.155 -28198.951 74554.745 -28366.938 74488.306 -28433.377 74482.752 -28415.07 74423.787 -28304.756 74344.435 -28208.065 74247.744 -28128.713 74137.43 -28069.748 74017.732 -28033.438 73893.25 -28021.178 72093.25 -28021.178 71968.768 -28033.438 71849.07 -28069.748 71738.756 -28128.713 71642.065 -28208.065 71562.713 -28304.756 71503.748 -28415.07 71467.438 -28534.768 71455.178 -28659.25 65602.018 -28659.25 65549.562 -28580.745 65335.755 -28366.938 65084.345 -28198.951 64804.993 -28083.239 64508.434 -28024.25 64206.066 -28024.25 63909.507 -28083.239 63630.155 -28198.951 63378.745 -28366.938 63312.306 -28433.377 63306.752 -28415.07 63247.787 -28304.756 63168.435 -28208.065 63071.744 -28128.713 62961.43 -28069.748 62841.732 -28033.438 62717.25 -28021.178 60917.25 -28021.178 60792.768 -28033.438 60673.07 -28069.748 60562.756 -28128.713 60466.065 -28208.065 60386.713 -28304.756 60327.748 -28415.07 60291.438 -28534.768 60279.178 -28659.25 60279.178 -29282.02 60245.261 -29111.507 60129.549 -28832.155 59961.562 -28580.745 59747.755 -28366.938 59496.345 -28198.951 59216.993 -28083.239 58920.434 -28024.25 58618.066 -28024.25 58321.507 -28083.239 58042.155 -28198.951 57790.745 -28366.938 57724.306 -28433.377 57718.752 -28415.07 57659.787 -28304.756 57580.435 -28208.065 57483.744 -28128.713 57373.43 -28069.748 57253.732 -28033.438 57129.25 -28021.178 55329.25 -28021.178 55204.768 -28033.438 55085.07 -28069.748 54974.756 -28128.713 54878.065 -28208.065 54798.713 -28304.756 54739.748 -28415.07 54703.438 -28534.768 54691.178 -28659.25 54691.178 -29282.02 54657.261 -29111.507 54541.549 -28832.155 54373.562 -28580.745 54159.755 -28366.938 53908.345 -28198.951 53628.993 -28083.239 53332.434 -28024.25 53030.066 -28024.25 52733.507 -28083.239 52454.155 -28198.951 52202.745 -28366.938 52136.306 -28433.377 52130.752 -28415.07 52071.787 -28304.756 51992.435 -28208.065 51895.744 -28128.713 51785.43 -28069.748 51665.732 -28033.438 51541.25 -28021.178 49741.25 -28021.178 49616.768 -28033.438 49497.07 -28069.748 49386.756 -28128.713 49290.065 -28208.065 49210.713 -28304.756 49151.748 -28415.07 49115.438 -28534.768 49103.178 -28659.25 48294.851 -28659.25 48301.834 -28588.034 48436.362 -28142.457 48654.87 -27731.504 48949.038 -27370.816 49307.669 -27074.131 49717.088 -26852.759 50161.715 -26715.124 50655.261 -26663.25 102678.971 -26663.25 103174.466 -26711.834" fill="none" stroke-width="254"/></g></svg>