<svg version="1.1" xmlns="http://www.w3.org/2000/svg" xmlns:xlink="http://www.w3.org/1999/xlink" stroke-linecap="round" stroke-linejoin="round" stroke-width="0" fill-rule="evenodd" width="2.02555in" height="1.63715in" viewBox="1976 -2783.25 2025.55 1637.15" id="hE5VJUIdivsst8ZczcIn"><defs><circle cx="0" cy="0" r="7.85" id="hE5VJUIdivsst8ZczcIn_pad-1"/><circle cx="0" cy="0" r="17.7" id="hE5VJUIdivsst8ZczcIn_pad-2"/></defs><g transform="translate(0,-3929.35) scale(1,-1)" fill="currentColor" stroke="currentColor"><use xlink:href="#hE5VJUIdivsst8ZczcIn_pad-1" x="2943.8" y="-1943.7"/><use xlink:href="#hE5VJUIdivsst8ZczcIn_pad-1" x="3143.7" y="-1943.7"/><use xlink:href="#hE5VJUIdivsst8ZczcIn_pad-1" x="3343.8" y="-1943.7"/><use xlink:href="#hE5VJUIdivsst8ZczcIn_pad-1" x="3543.7" y="-1943.7"/><use xlink:href="#hE5VJUIdivsst8ZczcIn_pad-1" x="3843.8" y="-1893.8"/><use xlink:href="#hE5VJUIdivsst8ZczcIn_pad-1" x="3893.7" y="-1893.8"/><use xlink:href="#hE5VJUIdivsst8ZczcIn_pad-1" x="3893.8" y="-1543.7"/><use xlink:href="#hE5VJUIdivsst8ZczcIn_pad-1" x="3943.8" y="-1543.7"/><use xlink:href="#hE5VJUIdivsst8ZczcIn_pad-1" x="3943.8" y="-1893.8"/><use xlink:href="#hE5VJUIdivsst8ZczcIn_pad-1" x="3993.7" y="-1943.7"/><use xlink:href="#hE5VJUIdivsst8ZczcIn_pad-1" x="3993.7" y="-1993.7"/><use xlink:href="#hE5VJUIdivsst8ZczcIn_pad-1" x="3993.7" y="-2043.7"/><use xlink:href="#hE5VJUIdivsst8ZczcIn_pad-1" x="3993.7" y="-2093.8"/><use xlink:href="#hE5VJUIdivsst8ZczcIn_pad-2" x="1993.7" y="-1483.7"/><use xlink:href="#hE5VJUIdivsst8ZczcIn_pad-2" x="2213.8" y="-1163.8"/><use xlink:href="#hE5VJUIdivsst8ZczcIn_pad-2" x="2313.7" y="-1163.8"/><use xlink:href="#hE5VJUIdivsst8ZczcIn_pad-2" x="2093.8" y="-1483.7"/><use xlink:href="#hE5VJUIdivsst8ZczcIn_pad-2" x="1993.7" y="-1163.8"/><use xlink:href="#hE5VJUIdivsst8ZczcIn_pad-2" x="2093.8" y="-1163.8"/><use xlink:href="#hE5VJUIdivsst8ZczcIn_pad-2" x="2653.8" y="-1483.7"/><use xlink:href="#hE5VJUIdivsst8ZczcIn_pad-2" x="2753.8" y="-1483.7"/><use xlink:href="#hE5VJUIdivsst8ZczcIn_pad-2" x="2213.8" y="-1803.7"/><use xlink:href="#hE5VJUIdivsst8ZczcIn_pad-2" x="2313.7" y="-1803.7"/><use xlink:href="#hE5VJUIdivsst8ZczcIn_pad-2" x="2433.7" y="-1803.7"/><use xlink:href="#hE5VJUIdivsst8ZczcIn_pad-2" x="2533.7" y="-1803.7"/><use xlink:href="#hE5VJUIdivsst8ZczcIn_pad-2" x="2873.7" y="-1483.7"/><use xlink:href="#hE5VJUIdivsst8ZczcIn_pad-2" x="2973.7" y="-1483.7"/><use xlink:href="#hE5VJUIdivsst8ZczcIn_pad-2" x="2433.7" y="-1163.8"/><use xlink:href="#hE5VJUIdivsst8ZczcIn_pad-2" x="2533.7" y="-1163.8"/><use xlink:href="#hE5VJUIdivsst8ZczcIn_pad-2" x="2873.7" y="-1163.8"/><use xlink:href="#hE5VJUIdivsst8ZczcIn_pad-2" x="2973.7" y="-1163.8"/><use xlink:href="#hE5VJUIdivsst8ZczcIn_pad-2" x="3533.7" y="-1803.7"/><use xlink:href="#hE5VJUIdivsst8ZczcIn_pad-2" x="3633.8" y="-1803.7"/><use xlink:href="#hE5VJUIdivsst8ZczcIn_pad-2" x="2653.8" y="-1803.7"/><use xlink:href="#hE5VJUIdivsst8ZczcIn_pad-2" x="2753.8" y="-1803.7"/><use xlink:href="#hE5VJUIdivsst8ZczcIn_pad-2" x="3093.8" y="-1483.7"/><use xlink:href="#hE5VJUIdivsst8ZczcIn_pad-2" x="3193.8" y="-1483.7"/><use xlink:href="#hE5VJUIdivsst8ZczcIn_pad-2" x="2873.7" y="-1803.7"/><use xlink:href="#hE5VJUIdivsst8ZczcIn_pad-2" x="2973.7" y="-1803.7"/><use xlink:href="#hE5VJUIdivsst8ZczcIn_pad-2" x="3313.7" y="-1483.7"/><use xlink:href="#hE5VJUIdivsst8ZczcIn_pad-2" x="3413.7" y="-1483.7"/><use xlink:href="#hE5VJUIdivsst8ZczcIn_pad-2" x="3093.8" y="-1803.7"/><use xlink:href="#hE5VJUIdivsst8ZczcIn_pad-2" x="3193.8" y="-1803.7"/><use xlink:href="#hE5VJUIdivsst8ZczcIn_pad-2" x="3093.8" y="-1163.8"/><use xlink:href="#hE5VJUIdivsst8ZczcIn_pad-2" x="3193.8" y="-1163.8"/><use xlink:href="#hE5VJUIdivsst8ZczcIn_pad-2" x="3533.7" y="-1483.7"/><use xlink:href="#hE5VJUIdivsst8ZczcIn_pad-2" x="3633.8" y="-1483.7"/><use xlink:href="#hE5VJUIdivsst8ZczcIn_pad-2" x="3313.7" y="-1803.7"/><use xlink:href="#hE5VJUIdivsst8ZczcIn_pad-2" x="3413.7" y="-1803.7"/><use xlink:href="#hE5VJUIdivsst8ZczcIn_pad-2" x="1993.7" y="-1803.7"/><use xlink:href="#hE5VJUIdivsst8ZczcIn_pad-2" x="2093.8" y="-1803.7"/><use xlink:href="#hE5VJUIdivsst8ZczcIn_pad-2" x="2213.8" y="-1483.7"/><use xlink:href="#hE5VJUIdivsst8ZczcIn_pad-2" x="2313.7" y="-1483.7"/><use xlink:href="#hE5VJUIdivsst8ZczcIn_pad-2" x="3313.7" y="-1163.8"/><use xlink:href="#hE5VJUIdivsst8ZczcIn_pad-2" x="3413.7" y="-1163.8"/><use xlink:href="#hE5VJUIdivsst8ZczcIn_pad-2" x="2433.7" y="-1483.7"/><use xlink:href="#hE5VJUIdivsst8ZczcIn_pad-2" x="2533.7" y="-1483.7"/><path d="M 2923.8 -2753.7 2925.3 -2730.9 M 3128.1 -2729.7 3175.7 -2655 M 2176.8 -2753.7 2178.3 -2730.9 M 2381.1 -2729.7 2428.7 -2655 M 3673.8 -2753.7 3675.3 -2730.9 M 3878.1 -2729.7 3925.7 -2655" fill="none" stroke-width="59.1"/></g></svg>